<?xml version="1.0" encoding="UTF-8" standalone="no"?>
<svg width="25px" height="23px" viewBox="0 0 25 23" version="1.1" xmlns="http://www.w3.org/2000/svg" xmlns:xlink="http://www.w3.org/1999/xlink" xmlns:sketch="http://www.bohemiancoding.com/sketch/ns">
    <!-- Generator: Sketch 3.3.2 (12043) - http://www.bohemiancoding.com/sketch -->
    <title>CRM icon</title>
    <desc>Created with Sketch.</desc>
    <defs>
        <filter x="-50%" y="-50%" width="200%" height="200%" filterUnits="objectBoundingBox" id="filter-1">
            <feOffset dx="0" dy="1" in="SourceAlpha" result="shadowOffsetOuter1"></feOffset>
            <feGaussianBlur stdDeviation="1" in="shadowOffsetOuter1" result="shadowBlurOuter1"></feGaussianBlur>
            <feColorMatrix values="0 0 0 0 0   0 0 0 0 0   0 0 0 0 0  0 0 0 0 0" in="shadowBlurOuter1" type="matrix" result="shadowMatrixOuter1"></feColorMatrix>
            <feMerge>
                <feMergeNode in="shadowMatrixOuter1"></feMergeNode>
                <feMergeNode in="SourceGraphic"></feMergeNode>
            </feMerge>
        </filter>
    </defs>
    <g id="Page-1" stroke="none" stroke-width="1" fill="none" fill-rule="evenodd" sketch:type="MSPage">
        <g id="CRM-icon" sketch:type="MSLayerGroup" transform="translate(-7.000000, -9.000000)">
            <g id="Page-1" sketch:type="MSShapeGroup">
                <g id="chat-icon-+-Oval-301">
                    <path d="M27.5571912,9.41270902 L12.3827153,9.41270902 C9.93292497,9.41270902 7.93985219,11.4056188 7.93985219,13.8555178 L7.93985219,23.0942955 C7.93985219,25.5442489 9.93292497,27.537213 12.3827153,27.537213 L22.8581512,27.537213 L26.6443538,31.3228723 C26.7575823,31.4363182 26.9091152,31.4963554 27.0633103,31.4963554 C27.1394843,31.4963554 27.2166362,31.4817943 27.2897675,31.4513682 C27.5112261,31.3598726 27.6555327,31.1435213 27.6555327,30.904133 L27.6555327,27.536072 C30.0600642,27.483424 32,25.5111605 32,23.0942955 L32,13.8555721 C32,11.4056188 30.0069815,9.41270902 27.5571912,9.41270902 L27.5571912,9.41270902 L27.5571912,9.41270902 Z M30.8152836,23.0942412 C30.8152836,24.8905223 29.353744,26.3523879 27.5570825,26.3523879 L27.0629843,26.3523879 C26.7358494,26.3523879 26.4707076,26.6173667 26.4707076,26.944719 L26.4707076,29.4740518 L23.5222552,26.525871 C23.4112543,26.4148701 23.2605364,26.3523879 23.1035159,26.3523879 L12.3827153,26.3523879 C10.5862169,26.3523879 9.1245686,24.8905223 9.1245686,23.0942412 L9.1245686,13.8555721 C9.1245686,12.0588021 10.5862169,10.5974254 12.3827153,10.5974254 L27.5571369,10.5974254 C29.3536896,10.5974254 30.8153379,12.0587477 30.8153379,13.8555721 L30.8153379,23.0942412 L30.8152836,23.0942412 L30.8152836,23.0942412 Z M25.5235322,17.1854375 C24.7873835,17.1854375 24.1905972,17.7824412 24.1905972,18.5183182 C24.1905972,19.2547386 24.7873835,19.8511989 25.5235322,19.8511989 C26.2593549,19.8511989 26.8562498,19.2546842 26.8562498,18.5183182 C26.8562498,17.7824412 26.2593549,17.1854375 25.5235322,17.1854375 L25.5235322,17.1854375 Z M19.9698446,17.1854375 C19.2336959,17.1854375 18.6369639,17.7824412 18.6369639,18.5183182 C18.6369639,19.2547386 19.2336959,19.8511989 19.9698446,19.8511989 C20.7056673,19.8511989 21.3027253,19.2546842 21.3027253,18.5183182 C21.3026709,17.7824412 20.7056673,17.1854375 19.9698446,17.1854375 L19.9698446,17.1854375 Z M14.4162114,17.1854375 C13.6800626,17.1854375 13.083385,17.7824412 13.083385,18.5183182 C13.083385,19.2547386 13.6800626,19.8511989 14.4162114,19.8511989 C15.1520341,19.8511989 15.749092,19.2546842 15.749092,18.5183182 C15.749092,17.7824412 15.1520341,17.1854375 14.4162114,17.1854375 L14.4162114,17.1854375 Z" id="chat-icon" fill="#FFFFFF" filter="url(#filter-1)"></path>
                    <circle id="Oval-301" cx="20" cy="20" r="20"></circle>
                </g>
            </g>
        </g>
    </g>
</svg>