<?xml version="1.0" standalone="no"?>
<!DOCTYPE svg PUBLIC "-//W3C//DTD SVG 1.1//EN" "http://www.w3.org/Graphics/SVG/1.1/DTD/svg11.dtd" >
<svg xmlns="http://www.w3.org/2000/svg" width="100%" height="100%">
<metadata>
Created by FontXChange 20110222 at Wed Mar 25 17:52:42 2015
 By MikaDo Nguyen
Font software Copyright 1994 Adobe Systems Incorporated. Typeface designs Copyright 1994 The Monotype Corporation. All rights reserved. "Baskerville" is a trademark or registered trademark of The Monotype Corporation in the United States and/or other countries; "Monotype" is a trademark of Monotype Imaging, Inc. Registered in U.S. Patent and Trademark Office and may be registered in certain other jurisdictions.
</metadata>
<defs>
<font id="BaskervilleMTStd-SemiBdIt" horiz-adv-x="292" >
  <font-face 
    font-family="BaskervilleMTStd"
    font-weight="600"
    font-style="italic"
    font-stretch="normal"
    units-per-em="1000"
    panose-1="2 2 7 3 5 4 5 9 3 4"
    ascent="682"
    descent="-318"
    x-height="409"
    cap-height="662"
    bbox="-236 -246 1220 903"
    underline-thickness="50"
    underline-position="-50"
    slope="-17"
    stemh="45"
    stemv="116"
    unicode-range="U+0020-FB04"
  />
<missing-glyph horiz-adv-x="500" 
d="M12 0v665h475v-665h-475zM88 618l162 -243l161 243h-323zM60 575v-484c0 -1 161 242 161 242zM440 575l-162 -242l162 -243v485zM411 48l-161 242l-162 -242h323z" />
    <glyph glyph-name="fi" unicode="fi" horiz-adv-x="604" 
d="M558 408l-93 -303c-3 -9 -9 -30 -9 -42c0 -8 5 -17 13 -17c17 0 45 31 65 75h45c-46 -100 -104 -135 -157 -135c-52 0 -81 33 -81 69c0 25 8 51 16 76l68 224h-187l-87 -287c-42 -140 -96 -313 -260 -313c-47 0 -115 20 -115 77c0 31 23 56 56 56c45 0 51 -31 51 -50
c0 -14 8 -40 31 -40c31 0 51 42 75 121l133 436h-88l14 45h88l5 15c41 122 103 259 262 259c92 0 139 -45 139 -82c0 -21 -17 -46 -46 -46c-34 0 -47 24 -56 43s-20 42 -52 42c-61 0 -87 -70 -101 -117l-35 -114h128c22 0 89 1 135 8h43z" />
    <glyph glyph-name="fl" unicode="fl" horiz-adv-x="604" 
d="M252 400h187l44 148c-23 11 -30 17 -42 43c-10 22 -22 40 -53 40c-62 0 -87 -72 -100 -115zM606 674h34l-172 -560c-13 -43 -19 -68 2 -68c22 0 44 35 64 73h45c-47 -99 -105 -133 -157 -133c-78 0 -90 61 -72 120l76 249h-188l-87 -287c-42 -139 -96 -313 -260 -313
c-48 0 -115 20 -115 77c0 27 16 56 57 56c39 0 49 -26 51 -56c1 -7 4 -34 30 -34c31 0 51 42 75 121l133 436h-88l15 45h88l5 15c28 83 81 259 263 259c27 0 54 -3 81 -12c25 0 77 2 120 12z" />
    <glyph glyph-name="f_f" unicode="ff" horiz-adv-x="625" 
d="M614 531l-40 -131h81l-14 -45h-81l-83 -272c-25 -83 -54 -177 -118 -245c-48 -50 -112 -83 -182 -83c-72 0 -125 37 -126 85h-2c-37 -54 -92 -85 -160 -85c-96 0 -112 56 -112 78c0 35 28 56 55 56c25 0 47 -13 51 -53c1 -13 3 -39 28 -39c26 0 40 30 42 34
c16 33 31 75 46 124l122 400h-85l14 45h85l9 29c63 204 156 245 257 245c115 0 134 -61 134 -82h2c47 65 105 82 150 82c83 0 102 -46 102 -73c0 -29 -25 -49 -47 -49c-32 0 -44 32 -54 58c-2 6 -7 19 -22 19c-16 0 -23 -4 -52 -98zM458 400l7 24c6 19 25 82 47 126l-2 2
c-3 -3 -10 -6 -22 -6c-17 0 -36 7 -49 35c-16 35 -25 53 -56 53c-60 0 -80 -63 -106 -148l-26 -86h207zM325 -35l119 390h-207l-88 -288c-31 -103 -41 -134 -73 -185l2 -2c4 3 12 7 26 7c38 0 59 -33 69 -49c16 -25 22 -38 44 -38c45 0 77 62 108 165z" />
    <glyph glyph-name="f_f_i" unicode="ffi" horiz-adv-x="917" 
d="M598 516l-35 -116h128c13 0 88 0 135 8h47l-91 -294c-12 -40 -12 -44 -12 -53c0 -8 5 -16 13 -16c18 0 46 33 65 74h45c-45 -96 -103 -133 -157 -133c-51 0 -81 32 -81 68c0 24 7 47 16 75l69 226h-191l-83 -271c-26 -85 -54 -178 -117 -246c-43 -47 -110 -83 -178 -83
c-66 0 -118 35 -123 81c-29 -38 -79 -81 -159 -81c-97 0 -113 56 -113 78c0 35 28 56 55 56c26 0 48 -13 51 -53c2 -13 4 -39 29 -39c28 0 44 18 87 158l123 400h-91l14 45h91l9 29c53 170 130 245 251 245c96 0 139 -50 130 -93l2 -2c43 59 114 95 188 95
c101 0 144 -46 144 -80c0 -21 -17 -46 -47 -46c-34 0 -48 27 -56 43c-11 22 -20 41 -54 41c-54 0 -82 -44 -104 -116zM447 400l5 17c5 16 26 85 58 137l-2 2c-4 -4 -12 -10 -29 -10c-30 0 -43 21 -52 41c-15 32 -23 47 -49 47c-56 0 -77 -69 -101 -148l-26 -86h196zM314 -34
l119 389h-196l-88 -288c-33 -108 -40 -130 -72 -184c6 2 12 5 23 5c38 0 58 -31 70 -49c13 -22 22 -36 41 -36c53 0 88 114 103 163z" />
    <glyph glyph-name="f_f_l" unicode="ffl" horiz-adv-x="917" 
d="M920 674h34l-172 -560c-8 -26 -12 -42 -12 -53c0 -8 5 -16 12 -16c22 0 53 46 66 74h45c-8 -17 -62 -133 -157 -133c-51 0 -81 32 -81 69c0 23 7 46 16 74l69 226h-191l-83 -271c-26 -85 -54 -178 -117 -246c-43 -47 -110 -83 -178 -83c-66 0 -118 35 -123 81
c-29 -38 -79 -81 -159 -81c-97 0 -113 56 -113 78c0 35 28 56 55 56c26 0 48 -13 51 -53c2 -13 4 -39 29 -39c28 0 44 18 87 158l123 400h-91l14 45h91l8 29c47 171 131 245 252 245c96 0 139 -51 130 -93l2 -2c43 59 113 95 188 95c46 0 72 -8 84 -12c48 2 88 4 121 12z
M447 400l5 17c8 28 31 95 58 137l-2 2c-4 -4 -12 -10 -29 -10c-30 0 -43 21 -52 41c-15 32 -23 47 -49 47c-56 0 -77 -69 -101 -148l-26 -86h196zM314 -34l119 389h-196l-88 -288c-32 -103 -41 -132 -72 -182l2 -2c3 2 10 5 22 5c37 0 58 -32 69 -49c14 -21 21 -36 41 -36
c52 0 88 114 103 163zM563 400h191l41 136c3 9 4 10 4 13c-22 5 -37 25 -43 38c-10 21 -18 45 -55 45c-60 0 -86 -61 -103 -116z" />
    <glyph glyph-name=".notdef" horiz-adv-x="500" 
d="M12 0v665h475v-665h-475zM88 618l162 -243l161 243h-323zM60 575v-484c0 -1 161 242 161 242zM440 575l-162 -242l162 -243v485zM411 48l-161 242l-162 -242h323z" />
    <glyph glyph-name="space" unicode=" " horiz-adv-x="250" 
 />
    <glyph glyph-name="exclam" unicode="!" horiz-adv-x="271" 
d="M97 113c35 0 64 -28 64 -63s-29 -64 -64 -64s-63 29 -63 64s28 63 63 63zM159 186h-42l75 375c10 49 23 113 79 113c33 0 55 -24 55 -62c0 -32 -18 -69 -23 -80z" />
    <glyph glyph-name="quotedbl" unicode="&#x22;" horiz-adv-x="521" 
d="M184 366h-22l2 177c1 124 80 131 98 131c34 0 51 -24 51 -47c0 -15 -3 -31 -32 -84zM408 366h-22l2 177c1 124 80 131 98 131c34 0 51 -24 51 -47c0 -15 -3 -31 -32 -84z" />
    <glyph glyph-name="numbersign" unicode="#" horiz-adv-x="667" 
d="M213 489l40 191h81l-40 -191h183l40 191h81l-40 -191h87v-81h-104l-33 -159h137v-81h-154l-40 -190h-81l40 190h-183l-40 -190h-81l40 190h-88v81h105l33 159h-138v81h155zM460 408h-183l-33 -159h183z" />
    <glyph glyph-name="dollar" unicode="$" horiz-adv-x="469" 
d="M161 38l76 248c-68 68 -109 118 -109 193c0 83 67 187 222 177l6 18h44l-8 -25c72 -19 106 -70 106 -98c0 -19 -15 -38 -36 -38c-26 0 -36 16 -53 44c-11 18 -18 27 -33 40l-68 -222c68 -65 116 -121 116 -191c0 -89 -76 -202 -234 -197l-27 -87h-44l28 92
c-74 16 -130 63 -130 106c0 20 15 38 39 38c32 0 44 -27 56 -48c18 -33 29 -43 49 -50zM274 408l63 206c-71 1 -116 -46 -116 -100c0 -53 40 -93 53 -106zM270 251l-67 -221c87 -4 131 43 131 100c0 50 -33 89 -64 121z" />
    <glyph glyph-name="percent" unicode="%" horiz-adv-x="802" 
d="M678 311c-17 0 -35 -12 -49 -37c-21 -38 -79 -186 -79 -225c0 -18 11 -29 25 -29c37 0 52 48 62 69c9 19 62 170 62 197c0 7 1 25 -21 25zM143 0l542 664h57l-546 -664h-53zM675 339c82 0 89 -64 89 -85c0 -62 -46 -262 -190 -262c-84 0 -89 66 -89 87
c0 44 39 260 190 260zM300 657c82 0 89 -64 89 -85c0 -62 -46 -262 -190 -262c-84 0 -89 66 -89 87c0 44 39 260 190 260zM303 629c-17 0 -35 -12 -49 -37c-21 -38 -79 -186 -79 -225c0 -18 11 -29 25 -29c37 0 52 48 62 69c9 19 62 170 62 197c0 7 1 25 -21 25z" />
    <glyph glyph-name="ampersand" unicode="&#x26;" horiz-adv-x="750" 
d="M523 369l14 45h204l-14 -45c-47 -10 -71 -35 -104 -75c-48 -59 -95 -116 -128 -149c13 -15 46 -55 87 -55c44 0 67 42 79 62h54c-21 -48 -79 -164 -176 -164c-57 0 -89 34 -123 79c-1 0 -4 4 -4 5c-60 -42 -119 -84 -199 -84c-90 0 -165 66 -165 168c0 65 25 131 199 224
c-6 26 -15 67 -15 117c0 103 68 177 159 177c84 0 127 -61 127 -116c0 -89 -90 -139 -161 -178c26 -62 64 -133 109 -197c38 39 94 110 94 153c0 30 -26 33 -37 33zM342 426c77 44 119 81 119 133c0 45 -33 67 -63 67c-39 0 -75 -34 -75 -97c0 -45 12 -84 19 -103zM262 335
c-38 -21 -111 -70 -111 -142c0 -56 49 -127 124 -127c36 0 72 18 109 46c-30 43 -86 131 -122 223z" />
    <glyph glyph-name="quoteright" unicode="&#x2019;" horiz-adv-x="271" 
d="M103 374l14 45c117 23 146 95 146 113c0 12 -6 14 -19 14c-26 0 -61 22 -61 64c0 39 29 64 63 64c51 0 76 -51 76 -98c0 -76 -68 -188 -219 -202z" />
    <glyph glyph-name="parenleft" unicode="(" horiz-adv-x="271" 
d="M153 -227l-44 -18c-16 39 -64 169 -64 316c0 333 236 521 338 602l34 -33c-80 -73 -143 -131 -214 -328c-43 -118 -76 -242 -76 -369c0 -33 4 -105 26 -170z" />
    <glyph glyph-name="parenright" unicode=")" horiz-adv-x="271" 
d="M132 656l44 18c16 -39 64 -169 64 -316c0 -333 -236 -521 -338 -602l-34 33c80 73 143 131 214 328c43 118 76 242 76 369c0 33 -4 105 -26 170z" />
    <glyph glyph-name="asterisk" unicode="*" horiz-adv-x="531" 
d="M306 412c-27 -18 -44 -40 -68 -75c-14 -20 -43 -65 -85 -65c-15 0 -44 12 -44 42c0 46 44 62 79 74c34 12 75 29 98 50c-32 24 -75 36 -105 46c-32 11 -79 23 -79 69c0 25 20 43 46 43c36 0 58 -28 101 -83c6 -8 21 -26 54 -49c8 23 14 57 14 81c0 42 0 71 5 88
c8 26 30 41 50 41c26 0 46 -23 46 -51c0 -24 -12 -41 -30 -69c-36 -56 -45 -68 -53 -100c37 0 77 11 101 19s44 15 65 15c25 0 58 -15 58 -50c0 -27 -25 -47 -59 -47c-20 0 -31 3 -57 12c-66 22 -91 20 -108 20c4 -17 10 -35 46 -83c27 -35 43 -59 43 -88
c0 -24 -19 -49 -45 -49c-53 0 -56 70 -58 110c-3 67 -10 85 -15 99z" />
    <glyph glyph-name="plus" unicode="+" horiz-adv-x="667" 
d="M82 368h224v224h90v-224h224v-90h-224v-224h-90v224h-224v90z" />
    <glyph glyph-name="comma" unicode="," horiz-adv-x="271" 
d="M-44 -187l14 45c117 23 146 95 146 113c0 12 -6 14 -19 14c-26 0 -61 22 -61 64c0 39 29 64 63 64c51 0 76 -51 76 -98c0 -76 -68 -188 -219 -202z" />
    <glyph glyph-name="hyphen" unicode="-" horiz-adv-x="313" 
d="M19 157l26 87h234l-27 -87h-233z" />
    <glyph glyph-name="period" unicode="." horiz-adv-x="271" 
d="M99 113c35 0 64 -28 64 -63s-29 -64 -64 -64s-63 29 -63 64s28 63 63 63z" />
    <glyph glyph-name="slash" unicode="/" 
d="M310 674l-204 -690h-88l204 690h88z" />
    <glyph glyph-name="zero" unicode="0" horiz-adv-x="500" 
d="M356 657c131 0 139 -129 139 -162c0 -121 -78 -510 -311 -510c-133 0 -142 122 -142 169c0 68 29 235 109 372c30 51 94 131 205 131zM355 616c-51 0 -83 -62 -90 -77c-51 -109 -136 -395 -136 -451c0 -4 0 -62 54 -62c47 0 74 47 90 87c42 105 131 402 131 449
c0 29 -16 54 -49 54z" />
    <glyph glyph-name="one" unicode="1" horiz-adv-x="500" 
d="M459 657l-158 -519c-4 -13 -15 -51 -15 -65c0 -27 34 -28 78 -30l-13 -43h-292l14 43h22c52 0 59 -3 84 77l107 349c3 10 8 28 10 33c4 14 6 21 6 30c0 33 -49 33 -70 33h-37l13 42c130 11 164 22 208 50h43z" />
    <glyph glyph-name="two" unicode="2" horiz-adv-x="500" 
d="M335 -31h-45c3 7 14 31 -20 31h-268l20 66c27 22 163 142 246 231c56 61 106 147 106 221c0 54 -30 96 -89 96c-64 0 -85 -39 -85 -66c0 -25 19 -47 29 -57c6 -6 11 -10 11 -14c0 -3 -7 -9 -14 -13l-33 -19c-5 -3 -11 -6 -20 -6c-14 0 -52 35 -52 85c0 65 61 133 180 133
c129 0 187 -67 187 -145c0 -151 -134 -243 -382 -419h268z" />
    <glyph glyph-name="three" unicode="3" horiz-adv-x="500" 
d="M291 362c35 -1 123 -12 123 -134c0 -149 -137 -243 -275 -243c-88 0 -146 48 -146 95c0 27 18 51 48 51c40 0 51 -31 59 -53c7 -19 19 -50 56 -50c104 0 153 198 153 251c0 13 -8 55 -43 55c-20 0 -40 -16 -48 -22c-10 -8 -20 -18 -29 -18c-4 0 -19 4 -19 24
c0 13 8 19 53 45c111 64 179 107 179 182c0 29 -24 69 -74 69c-46 0 -80 -32 -80 -75c0 -19 5 -23 5 -30c0 -8 -51 -40 -55 -40c-7 0 -28 30 -28 64c0 58 49 124 167 124c104 0 161 -51 161 -110c0 -98 -160 -164 -207 -185z" />
    <glyph glyph-name="four" unicode="4" horiz-adv-x="500" 
d="M23 193l9 63l361 401h91l-123 -401h22c35 0 44 0 60 41h43l-30 -104h-115l-22 -74c-3 -11 -10 -36 -10 -45c0 -27 35 -32 79 -31l-12 -43h-291l12 43h21c50 0 62 1 85 78l21 72h-201zM87 256h157l83 265z" />
    <glyph glyph-name="five" unicode="5" horiz-adv-x="500" 
d="M230 642h291l-11 -29c-24 -64 -44 -64 -89 -64h-177l-46 -133c17 14 47 34 88 34c65 0 146 -60 146 -183c0 -162 -139 -282 -285 -282c-73 0 -144 40 -144 91c0 29 23 48 48 48c32 0 50 -30 59 -51c10 -22 21 -45 54 -45c110 0 171 242 171 316c0 44 -30 63 -61 63
c-45 0 -82 -40 -107 -82h-44z" />
    <glyph glyph-name="six" unicode="6" horiz-adv-x="500" 
d="M250 422c17 7 41 17 73 17c79 0 133 -64 133 -153c0 -121 -83 -301 -259 -301c-109 0 -142 90 -142 158c0 40 16 163 89 306c45 88 126 208 285 208c101 0 111 -59 111 -77c0 -22 -12 -40 -38 -40c-17 0 -29 6 -48 34c-23 33 -28 41 -53 41c-46 0 -89 -54 -151 -193z
M144 90c0 -40 20 -63 54 -63c49 0 72 46 74 51c14 29 88 216 88 267c0 18 -11 55 -57 55c-50 0 -78 -47 -102 -108c-41 -104 -57 -167 -57 -202z" />
    <glyph glyph-name="seven" unicode="7" horiz-adv-x="500" 
d="M205 680h43c-8 -36 0 -38 47 -38h255v-21l-302 -518c-49 -84 -70 -118 -111 -118c-24 0 -47 16 -47 43c0 29 12 46 55 103l313 418h-166c-65 0 -80 0 -101 -58h-43z" />
    <glyph glyph-name="eight" unicode="8" horiz-adv-x="500" 
d="M304 338c54 -13 115 -50 115 -143c0 -90 -79 -210 -219 -210c-88 0 -171 56 -171 156c0 49 14 104 73 154c22 18 62 43 143 43c-102 18 -108 88 -108 120c0 86 66 199 200 199c119 0 155 -88 155 -142c0 -37 -15 -153 -188 -177zM344 614c-44 0 -61 -21 -82 -100
s-23 -88 -23 -108c0 -17 8 -47 45 -47c48 0 66 46 72 61c10 26 35 119 35 147c0 13 -7 47 -47 47zM261 317c-55 0 -74 -43 -78 -51c-5 -11 -47 -131 -47 -179c0 -39 24 -59 59 -59c30 0 58 14 78 59c25 56 45 139 45 171c0 27 -10 59 -57 59z" />
    <glyph glyph-name="nine" unicode="9" horiz-adv-x="500" 
d="M311 225c-22 -9 -41 -18 -70 -18c-66 0 -136 42 -136 158c0 114 84 292 258 292c83 0 141 -50 141 -149c0 -94 -47 -287 -171 -435c-34 -40 -97 -88 -182 -88c-88 0 -117 57 -117 87c0 29 21 46 46 46c21 0 32 -9 50 -48c8 -18 17 -39 40 -39c52 0 106 117 141 194z
M363 617c-41 0 -70 -30 -85 -60c-36 -72 -77 -214 -77 -254c0 -34 20 -56 54 -56c24 0 54 16 71 42c23 35 29 53 71 195c13 44 18 62 18 84c0 30 -19 49 -52 49z" />
    <glyph glyph-name="colon" unicode=":" horiz-adv-x="271" 
d="M188 414c35 0 64 -28 64 -63s-29 -64 -64 -64s-63 29 -63 64s28 63 63 63zM99 113c35 0 64 -28 64 -63s-29 -64 -64 -64s-63 29 -63 64s28 63 63 63z" />
    <glyph glyph-name="semicolon" unicode=";" horiz-adv-x="271" 
d="M-44 -187l14 45c117 23 146 95 146 113c0 12 -6 14 -19 14c-26 0 -61 22 -61 64c0 39 29 64 63 64c51 0 76 -51 76 -98c0 -76 -68 -188 -219 -202zM188 414c35 0 64 -28 64 -63s-29 -64 -64 -64s-63 29 -63 64s28 63 63 63z" />
    <glyph glyph-name="less" unicode="&#x3c;" horiz-adv-x="667" 
d="M619 589v-97l-416 -169l416 -169v-97l-538 225v82z" />
    <glyph glyph-name="equal" unicode="=" horiz-adv-x="667" 
d="M82 484h538v-90h-538v90zM82 252h538v-90h-538v90z" />
    <glyph glyph-name="greater" unicode="&#x3e;" horiz-adv-x="667" 
d="M82 57v97l416 169l-416 169v97l538 -225v-82z" />
    <glyph glyph-name="question" unicode="?" horiz-adv-x="458" 
d="M188 185h-43l59 194h21c1 -9 2 -39 30 -39c53 0 85 178 85 225c0 27 -10 69 -53 69c-27 0 -38 -17 -54 -44c-8 -14 -21 -30 -40 -30c-22 0 -34 18 -34 37c0 35 38 77 118 77c101 0 169 -70 169 -165c0 -102 -68 -210 -178 -210c-18 0 -32 3 -43 6zM126 113
c35 0 64 -28 64 -63s-29 -64 -64 -64s-63 29 -63 64s28 63 63 63z" />
    <glyph glyph-name="at" unicode="@" horiz-adv-x="792" 
d="M496 449l119 5l-90 -307c-3 -11 -14 -51 -14 -77c0 -18 16 -38 38 -38c68 0 212 114 212 304c0 159 -107 308 -313 308c-278 0 -432 -226 -432 -451c0 -237 171 -385 382 -385c137 0 325 70 400 270h30c-13 -33 -34 -84 -84 -143c-97 -114 -229 -154 -347 -154
c-243 0 -432 172 -432 429c0 255 186 464 472 464c246 0 351 -168 351 -329c0 -173 -109 -348 -293 -348c-99 0 -99 79 -99 84c0 27 7 52 14 77c-31 -54 -87 -161 -171 -161c-65 0 -82 67 -82 108c0 201 166 362 253 362c51 0 66 -40 69 -79zM420 432
c-69 0 -137 -240 -137 -301c0 -24 12 -45 29 -45c46 0 145 159 145 283c0 28 -5 63 -37 63z" />
    <glyph glyph-name="A" unicode="A" horiz-adv-x="615" 
d="M393 236h-208l-71 -104c-13 -19 -26 -41 -26 -56c0 -30 42 -31 60 -31h28l-14 -45h-237l14 45c50 4 96 58 140 120l359 509h85l-7 -552c-1 -63 18 -77 81 -77l-13 -45h-301l14 45c73 0 96 21 96 108v83zM218 281h175l5 259z" />
    <glyph glyph-name="B" unicode="B" horiz-adv-x="635" 
d="M186 662h266c47 0 88 -2 130 -26c41 -23 73 -65 73 -118c0 -79 -71 -149 -203 -170c75 -24 133 -68 133 -156c0 -77 -55 -133 -104 -160c-60 -33 -149 -32 -185 -32h-290l14 45c49 0 62 32 75 74l127 414c8 25 8 28 8 38s-2 46 -57 46zM381 614l-75 -243h45
c61 0 102 23 117 37c34 31 57 101 57 140c0 67 -56 66 -105 66h-39zM361 323h-69l-58 -188c-4 -12 -8 -30 -8 -42c0 -16 13 -45 75 -45c25 0 81 1 118 78c15 30 30 75 30 118c0 79 -54 79 -88 79z" />
    <glyph glyph-name="C" unicode="C" horiz-adv-x="688" 
d="M738 658l-49 -226h-47c7 185 -118 197 -150 197c-158 0 -271 -255 -271 -429c0 -82 38 -162 127 -162c79 0 189 66 237 186h47l-65 -219h-41c3 21 3 47 0 67c-40 -43 -109 -84 -191 -84c-146 0 -255 114 -255 258c0 238 210 428 393 428c110 0 162 -65 180 -87
c20 21 33 50 40 71h45z" />
    <glyph glyph-name="D" unicode="D" horiz-adv-x="740" 
d="M179 662h233c56 0 120 0 185 -37c123 -70 132 -187 132 -239c0 -107 -42 -243 -173 -326c-95 -60 -207 -60 -289 -60h-263l14 45c53 0 64 39 75 74l126 410c7 24 9 30 9 43c0 44 -43 44 -62 45zM403 614h-24l-146 -477c-3 -11 -9 -30 -9 -42c0 -36 37 -47 83 -47
c129 0 199 85 237 176c39 90 44 185 44 206c0 167 -103 184 -185 184z" />
    <glyph glyph-name="E" unicode="E" horiz-adv-x="646" 
d="M293 319l-58 -188c-6 -18 -7 -29 -7 -39c0 -24 15 -44 106 -44c132 0 177 69 212 131h49l-55 -179h-532l14 45c53 0 66 41 76 74l126 414c7 22 9 29 9 39c0 38 -35 45 -62 45l13 45h461l5 -161h-46c-45 113 -76 113 -149 113h-72l-75 -247h33c92 0 111 27 133 98h48
l-80 -261h-48c6 19 12 38 12 60c0 55 -55 55 -81 55h-32z" />
    <glyph glyph-name="F" unicode="F" horiz-adv-x="552" 
d="M293 319l-56 -184c-7 -24 -9 -33 -9 -43c0 -40 44 -47 62 -47h23l-14 -45h-291l14 45c53 0 66 40 76 74l126 414c7 23 9 30 9 39c0 45 -47 45 -68 45l12 45h464l5 -162h-47c-40 109 -63 114 -159 114h-56l-76 -247h32c100 0 113 33 135 99h48l-80 -261h-48
c6 17 13 38 13 60c0 54 -53 54 -75 54h-40z" />
    <glyph glyph-name="G" unicode="G" horiz-adv-x="750" 
d="M478 286h267l-15 -45c-45 -1 -57 -23 -74 -77l-49 -159l-58 37c-52 -25 -120 -54 -211 -54c-186 0 -260 128 -260 258c0 209 182 428 409 428c38 0 124 -4 172 -85c10 9 24 23 40 69h46l-50 -228h-45c0 16 0 66 -19 112c-19 45 -56 87 -131 87
c-179 0 -281 -261 -281 -428c0 -48 13 -163 137 -163c55 0 138 24 163 113l5 18c2 7 5 17 5 27c0 40 -40 45 -65 45z" />
    <glyph glyph-name="H" unicode="H" horiz-adv-x="792" 
d="M290 323l-58 -188c-7 -24 -9 -32 -9 -42c0 -44 53 -48 60 -48l-14 -45h-271l14 45c59 0 69 36 81 74l125 409c7 24 9 32 9 41c0 40 -37 48 -54 48l14 45h285l-14 -45c-67 0 -81 -7 -101 -73l-52 -169h282l47 153c8 24 9 31 9 40c0 37 -30 49 -59 49l14 45h286l-14 -45
c-61 0 -76 -7 -96 -73l-125 -409c-8 -25 -9 -33 -9 -42c0 -42 47 -48 64 -48l-13 -45h-296l14 45c68 0 82 14 100 74l63 204h-282z" />
    <glyph glyph-name="I" unicode="I" horiz-adv-x="385" 
d="M190 662h258l-14 -45c-43 -2 -55 -22 -71 -74l-124 -408c-8 -25 -9 -32 -9 -43c0 -38 37 -47 68 -47l-13 -45h-275l14 45c53 0 65 39 75 74l125 408c7 24 9 33 9 43c0 45 -47 46 -57 47z" />
    <glyph glyph-name="J" unicode="J" horiz-adv-x="385" 
d="M194 662h279l-14 -45c-58 0 -72 -15 -90 -74l-152 -496c-59 -193 -168 -281 -295 -281c-84 0 -158 41 -158 94c0 32 25 55 58 55c43 0 58 -35 66 -55s20 -46 56 -46c66 0 91 77 111 141l175 572c8 25 9 32 9 42c0 9 -3 47 -59 48z" />
    <glyph glyph-name="K" unicode="K" horiz-adv-x="719" 
d="M268 239l-32 -104c-7 -24 -9 -33 -9 -43c0 -37 34 -47 65 -47l-13 -45h-280l14 45c61 0 71 32 84 74l124 409c7 24 10 32 10 42c0 47 -51 47 -64 47l14 45h291l-13 -45c-63 0 -77 -6 -98 -74l-71 -230l292 215c35 26 44 41 44 57c0 32 -43 32 -59 32h-14l14 45h291
l-14 -45c-28 -1 -55 2 -143 -62l-238 -172l153 -279c24 -44 35 -59 92 -59l-14 -45h-298l14 45c29 0 70 0 70 31c0 3 -1 16 -8 28l-111 203z" />
    <glyph glyph-name="L" unicode="L" horiz-adv-x="594" 
d="M175 662h301l-14 -45c-67 0 -80 -8 -100 -73l-119 -389c-5 -17 -13 -50 -13 -63c0 -40 50 -44 92 -44c100 0 181 12 241 132h48l-55 -180h-556l14 45c61 0 70 32 83 74l131 426c9 29 5 72 -53 72h-15z" />
    <glyph glyph-name="M" unicode="M" horiz-adv-x="948" 
d="M180 662h239l35 -505l345 505h235l-14 -45c-76 0 -88 -20 -108 -96l-99 -386c-6 -23 -8 -35 -8 -45c0 -38 35 -45 82 -45l-14 -45h-309l14 45c72 0 85 11 101 74l116 457l-391 -576h-63l-37 575l-164 -432c-7 -19 -14 -35 -14 -49c0 -42 50 -45 84 -49l-14 -45h-219
l14 45c46 6 83 61 104 115l145 379c18 46 -3 78 -62 78h-11z" />
    <glyph glyph-name="N" unicode="N" horiz-adv-x="729" 
d="M149 662h180l222 -493l95 311c5 17 19 55 19 77c0 20 -14 60 -83 60l14 45h231l-13 -45c-46 -4 -76 -12 -106 -111l-157 -511h-62l-224 496l-103 -338c-5 -17 -10 -33 -10 -50c0 -49 50 -58 80 -58l-14 -45h-222l14 45c68 10 88 74 103 124l119 392l-11 18
c-23 37 -36 38 -86 38z" />
    <glyph glyph-name="O" unicode="O" horiz-adv-x="792" 
d="M361 -12c-215 0 -284 152 -284 268c0 186 165 418 433 418c208 0 279 -146 279 -273c0 -178 -166 -413 -428 -413zM357 33c112 0 187 78 236 192c33 78 61 159 61 243c0 89 -35 161 -149 161c-78 0 -150 -38 -204 -136c-39 -71 -89 -199 -89 -304c0 -33 0 -156 145 -156z
" />
    <glyph glyph-name="P" unicode="P" horiz-adv-x="646" 
d="M285 299l-50 -164c-7 -24 -9 -33 -9 -43c0 -40 43 -47 62 -47h14l-14 -45h-282l14 45c42 0 60 20 76 74l126 414c7 22 9 29 9 39c0 45 -49 45 -70 45l13 45h271c52 0 100 -3 146 -30c69 -41 85 -93 85 -138c0 -57 -28 -124 -109 -163c-65 -31 -176 -32 -218 -32h-64z
M382 614l-82 -267h59c26 0 78 0 114 30c34 29 66 83 66 142c0 93 -77 95 -110 95h-47z" />
    <glyph glyph-name="Q" unicode="Q" horiz-adv-x="792" 
d="M368 -12l-62 -61c14 3 47 8 81 8c60 0 95 -14 151 -40c38 -18 100 -45 159 -45c79 0 119 36 155 69l46 -15c-43 -65 -107 -138 -235 -138c-87 0 -143 32 -217 75c-49 28 -82 42 -125 42c-46 0 -66 -17 -87 -44c-21 -26 -32 -40 -49 -40c-10 0 -24 10 -24 26
c0 19 13 33 49 67l103 98c-148 15 -236 129 -236 265c0 186 165 419 433 419c210 0 279 -150 279 -272c0 -179 -162 -409 -421 -414zM357 35c112 0 187 76 236 190c33 78 61 159 61 243c0 89 -35 161 -149 161c-78 0 -150 -38 -204 -136c-39 -71 -89 -199 -89 -304
c0 -33 0 -154 145 -154z" />
    <glyph glyph-name="R" unicode="R" horiz-adv-x="719" 
d="M286 302l-51 -167c-8 -25 -9 -32 -9 -42c0 -48 54 -48 84 -48l-14 -45h-300l14 45c52 0 68 14 86 74l126 414c7 23 9 28 9 39c0 35 -34 45 -57 45h-19l13 45h314c58 0 105 -3 151 -27s88 -70 88 -140c0 -59 -37 -172 -225 -184c31 -25 47 -46 72 -126
c21 -67 38 -125 126 -140l-14 -45h-170c-17 22 -26 39 -63 143l-20 57c-24 69 -28 102 -113 102h-28zM381 614l-80 -264h51c43 0 110 0 152 24c51 29 80 86 80 138c0 103 -103 102 -144 102h-59z" />
    <glyph glyph-name="S" unicode="S" horiz-adv-x="552" 
d="M45 5l31 231h46c5 -156 100 -200 165 -200c59 0 100 45 100 99c0 55 -31 82 -109 156c-85 80 -112 126 -112 187c0 107 96 196 203 196c76 0 121 -40 145 -63c6 8 19 23 32 51h45l-30 -198h-47c-6 41 -24 162 -144 162c-57 0 -102 -33 -102 -89s46 -100 106 -151
c66 -57 125 -113 125 -200c0 -97 -80 -198 -215 -198c-59 0 -109 20 -162 72c-8 -8 -24 -39 -31 -55h-46z" />
    <glyph glyph-name="T" unicode="T" horiz-adv-x="656" 
d="M522 614l-147 -479c-8 -25 -9 -32 -9 -43c0 -42 45 -47 61 -47h24l-14 -45h-328l13 45h16c69 0 81 16 98 73l151 496h-36c-42 0 -130 8 -195 -142h-47l58 190h611l-58 -190h-46c2 11 4 25 4 45c0 98 -63 97 -98 97h-58z" />
    <glyph glyph-name="U" unicode="U" horiz-adv-x="688" 
d="M149 662h300l-14 -45c-65 0 -83 -8 -103 -73l-102 -336c-7 -24 -14 -50 -14 -74c0 -60 55 -96 122 -96c149 0 187 133 204 193l83 291c3 10 7 25 7 36c0 57 -62 58 -84 59l14 45h246l-14 -45c-71 -5 -100 -42 -118 -107l-78 -279c-25 -88 -68 -243 -278 -243
c-132 0 -232 64 -232 158c0 36 11 73 19 100l86 282c7 24 10 34 10 44c0 43 -51 44 -68 45z" />
    <glyph glyph-name="V" unicode="V" horiz-adv-x="635" 
d="M159 662h263l-14 -45c-41 0 -79 -4 -81 -61l-13 -428l259 400c15 23 17 34 17 44c0 45 -49 45 -80 45l13 45h261l-10 -45c-50 0 -97 -19 -151 -102l-346 -527h-93l18 573c2 56 -24 56 -57 56z" />
    <glyph glyph-name="W" unicode="W" horiz-adv-x="917" 
d="M138 662h269l-13 -45c-54 0 -79 -9 -82 -61l-22 -385l316 491h70l-13 -491l210 351c7 12 20 31 20 49c0 39 -44 46 -72 46l14 45h212l-14 -45c-47 -16 -72 -44 -118 -120l-309 -509h-75l14 491l-319 -491h-75l32 573c3 56 -26 56 -59 56z" />
    <glyph glyph-name="X" unicode="X" horiz-adv-x="688" 
d="M438 420l110 100c37 34 43 47 43 60c0 37 -41 37 -56 37l13 45h242l-14 -45c-29 0 -57 -4 -154 -93l-166 -152l89 -242c20 -53 31 -85 98 -85l-13 -45h-303l14 45c23 0 81 0 81 40c0 3 0 18 -10 45l-56 149l-119 -110c-40 -37 -55 -50 -55 -78c0 -37 42 -46 69 -46
l-14 -45h-288l14 45c65 0 141 69 196 120l179 163l-81 217c-23 63 -31 72 -85 72l13 45h285l-14 -45c-36 0 -70 -2 -70 -41c0 -12 5 -29 8 -37z" />
    <glyph glyph-name="Y" unicode="Y" horiz-adv-x="635" 
d="M278 288l-75 267c-12 46 -22 62 -87 62l13 45h292l-14 -45c-29 0 -75 0 -75 -46c0 -12 3 -22 7 -37l53 -194l113 159c25 35 37 55 37 74c0 44 -44 44 -68 44l13 45h244l-11 -45c-56 0 -86 -21 -147 -106l-161 -223l-47 -153c-7 -24 -9 -32 -9 -43c0 -47 52 -47 90 -47
l-14 -45h-326l14 45c74 0 86 10 106 74z" />
    <glyph glyph-name="Z" unicode="Z" horiz-adv-x="615" 
d="M167 662h507v-38l-489 -576h150c65 0 163 15 222 149h48l-61 -197h-526v47l484 567h-150c-39 0 -125 1 -192 -129h-47z" />
    <glyph glyph-name="bracketleft" unicode="[" horiz-adv-x="344" 
d="M-14 -233l274 895h167l-13 -42c-64 -3 -73 -25 -89 -77l-197 -643c-8 -27 -10 -38 -10 -48c0 -43 56 -43 74 -43l-13 -42h-193z" />
    <glyph glyph-name="backslash" unicode="\" 
d="M18 674h88l204 -690h-88z" />
    <glyph glyph-name="bracketright" unicode="]" horiz-adv-x="344" 
d="M365 662l-274 -895h-167l13 42c64 3 73 25 89 77l197 643c8 27 10 38 10 48c0 43 -56 43 -74 43l13 42h193z" />
    <glyph glyph-name="asciicircum" unicode="^" horiz-adv-x="542" 
d="M66 311l200 351h40l198 -351h-78l-144 250l-142 -250h-74z" />
    <glyph glyph-name="underscore" unicode="_" horiz-adv-x="500" 
d="M-6 -75h512v-50h-512v50z" />
    <glyph glyph-name="quoteleft" unicode="&#x2018;" horiz-adv-x="271" 
d="M367 674l-14 -45c-117 -23 -146 -95 -146 -113c0 -12 6 -14 19 -14c26 0 61 -22 61 -64c0 -39 -29 -64 -63 -64c-51 0 -76 51 -76 98c0 76 68 188 219 202z" />
    <glyph glyph-name="a" unicode="a" horiz-adv-x="531" 
d="M487 402l-91 -298c-5 -16 -10 -35 -10 -39c0 -9 7 -15 14 -15c27 0 56 45 68 67h47c-37 -77 -97 -131 -159 -131c-81 0 -80 73 -80 105c-36 -42 -90 -105 -164 -105c-60 0 -85 56 -85 116c0 128 107 312 250 312c67 0 78 -50 84 -73l18 61h108zM291 370
c-79 0 -148 -163 -148 -245c0 -18 2 -59 37 -59c36 0 74 37 103 87c33 56 50 114 50 159c0 25 -7 58 -42 58z" />
    <glyph glyph-name="b" unicode="b" horiz-adv-x="542" 
d="M318 674l-101 -329c19 15 67 69 155 69c69 0 132 -46 132 -142c0 -137 -134 -286 -295 -286c-115 0 -166 69 -166 133c0 35 11 71 18 94l107 349c4 14 6 23 6 28c0 25 -31 27 -57 27h-14l14 45c66 0 125 2 168 12h33zM318 351c-74 0 -116 -80 -133 -119
c-25 -58 -36 -120 -36 -137c0 -37 24 -68 68 -68c116 0 167 170 167 243c0 44 -20 81 -66 81z" />
    <glyph glyph-name="c" unicode="c" horiz-adv-x="458" 
d="M344 122h53c-37 -56 -123 -136 -237 -136c-92 0 -142 48 -142 125c0 135 123 303 301 303c81 0 127 -50 127 -102c0 -38 -24 -70 -63 -70c-29 0 -47 18 -47 42c0 9 1 15 4 26c4 13 4 18 4 24c0 36 -37 39 -45 39c-95 0 -161 -185 -161 -260c0 -69 53 -69 65 -69
c67 0 117 48 141 78z" />
    <glyph glyph-name="d" unicode="d" horiz-adv-x="573" 
d="M600 674l-173 -562c-4 -14 -11 -39 -11 -49c0 -13 10 -17 16 -17c20 0 46 24 70 67h47c-14 -32 -70 -127 -161 -127c-87 0 -85 71 -84 104c-35 -47 -102 -104 -177 -104c-73 0 -108 54 -108 118c0 149 126 310 272 310c62 0 84 -33 97 -51l58 190c4 12 10 30 10 37
c0 27 -28 27 -68 27l12 45c85 1 130 4 166 12h34zM189 63c47 0 90 38 121 86c32 49 52 109 52 154c0 42 -24 73 -60 73c-92 0 -167 -163 -167 -251c0 -48 29 -62 54 -62z" />
    <glyph glyph-name="e" unicode="e" horiz-adv-x="469" 
d="M344 123h52c-26 -39 -109 -137 -238 -137c-70 0 -142 36 -142 124c0 149 135 304 311 304c97 0 126 -40 126 -81c0 -39 -44 -147 -301 -184l-12 -1c-2 -10 -4 -21 -4 -36c0 -50 26 -68 68 -68c63 0 114 48 140 79zM150 192c139 23 200 85 200 143c0 18 -13 43 -42 43
c-98 0 -150 -161 -158 -186z" />
    <glyph glyph-name="f" unicode="f" horiz-adv-x="302" 
d="M135 400l9 31c27 91 75 243 223 243c51 0 99 -25 99 -72c0 -27 -20 -51 -49 -51c-32 0 -40 23 -51 56c-4 12 -9 24 -25 24c-19 0 -26 -21 -31 -38l-59 -193h82l-14 -45h-82l-85 -278c-48 -156 -100 -322 -263 -322c-78 0 -113 41 -113 77c0 30 23 56 56 56
c46 0 49 -37 51 -57c1 -11 3 -33 28 -33c36 0 53 42 74 112l136 445h-86l14 45h86z" />
    <glyph glyph-name="g" unicode="g" horiz-adv-x="490" 
d="M138 149c-54 21 -75 69 -75 108c0 80 79 157 195 157c51 0 95 -11 125 -39c13 13 38 39 75 39c24 0 42 -14 42 -38c0 -25 -22 -30 -31 -30c-10 0 -17 3 -25 9c-4 3 -11 6 -15 6c-11 0 -16 -8 -19 -14c8 -13 21 -33 21 -69c0 -45 -29 -154 -213 -154
c-91 0 -103 -19 -103 -42c0 -27 36 -30 158 -65c120 -34 132 -88 132 -122c0 -65 -60 -140 -263 -140c-46 0 -224 7 -224 112c0 51 40 81 68 81c10 0 22 -4 22 -13c0 -5 -3 -10 -10 -19c-10 -13 -17 -24 -17 -39c0 -73 122 -79 162 -79c92 0 150 26 150 67
c0 29 -15 36 -125 71c-99 31 -148 54 -148 113s61 91 118 100zM270 378c-67 0 -100 -107 -100 -155c0 -42 23 -58 53 -58c75 0 102 109 102 153c0 31 -19 60 -55 60z" />
    <glyph glyph-name="h" unicode="h" horiz-adv-x="573" 
d="M330 674l-127 -415c40 54 105 155 213 155c47 0 82 -26 82 -63c0 -21 -8 -48 -18 -80l-49 -161c-4 -14 -8 -26 -8 -36c0 -4 2 -16 12 -16c19 0 44 24 73 71h50c-35 -66 -95 -136 -174 -136c-58 0 -80 31 -80 62c0 17 2 21 13 57l37 124c5 16 11 37 11 59
c0 18 -8 35 -29 35c-57 0 -136 -124 -156 -173c-37 -91 -41 -101 -47 -124l-9 -33h-116l167 547c4 12 11 34 11 42c0 25 -24 28 -53 28h-15l15 45c67 1 123 3 164 12h33z" />
    <glyph glyph-name="i" unicode="i" horiz-adv-x="313" 
d="M56 279h-43c40 88 108 135 167 135c42 0 75 -22 75 -58c0 -19 -4 -38 -11 -56l-76 -205c-5 -13 -8 -25 -8 -34s7 -17 15 -17c18 0 37 15 69 73h45c-13 -28 -65 -131 -161 -131c-61 0 -82 36 -82 68c0 28 7 49 18 79l63 172c4 10 9 23 9 32c0 7 -7 14 -14 14
c-26 0 -58 -56 -66 -72zM198 611c0 33 28 63 64 63c35 0 63 -28 63 -63c0 -36 -29 -64 -63 -64c-36 0 -64 29 -64 64z" />
    <glyph glyph-name="j" unicode="j" horiz-adv-x="313" 
d="M70 280h-45c50 103 117 134 172 134c49 0 74 -30 74 -60c0 -16 -6 -35 -11 -51l-82 -269c-40 -131 -99 -279 -247 -279c-60 0 -107 31 -107 77c0 34 24 57 56 57c50 0 51 -49 51 -60c0 -9 0 -31 22 -31c37 0 53 48 72 112l115 380c4 14 12 38 12 47c0 2 0 14 -14 14
c-25 0 -51 -38 -68 -71zM203 611c0 35 29 63 64 63s63 -29 63 -63c0 -36 -29 -64 -63 -64s-64 28 -64 64z" />
    <glyph glyph-name="k" unicode="k" horiz-adv-x="563" 
d="M329 674l-132 -429c93 85 170 169 274 169c51 0 83 -22 83 -55c0 -26 -24 -48 -51 -48c-24 0 -43 11 -53 16c-12 6 -25 13 -44 13c-43 0 -88 -33 -148 -89c44 1 68 -13 78 -18c53 -30 55 -83 58 -131c2 -27 2 -51 24 -51c31 0 62 47 74 75h46c-21 -54 -72 -133 -166 -133
c-74 0 -94 48 -94 80c0 18 6 59 6 81c0 35 -17 63 -65 61l-43 -41l-53 -174h-116l165 540c5 17 13 43 13 49c0 28 -26 28 -68 28l13 45c65 0 123 2 166 12h33z" />
    <glyph glyph-name="l" unicode="l" horiz-adv-x="313" 
d="M329 674l-171 -560c-7 -23 -13 -46 -13 -52c0 -11 6 -18 14 -18c16 0 51 31 71 75h46c-11 -21 -69 -133 -164 -133c-52 0 -81 32 -81 69c0 23 6 44 15 74l125 407c22 71 19 81 -54 81l12 45c65 0 115 -3 167 12h33z" />
    <glyph glyph-name="m" unicode="m" horiz-adv-x="948" 
d="M31 0l85 280c6 20 14 44 14 57c0 11 -10 17 -16 17c-12 0 -39 -13 -69 -76h-43c21 55 72 136 161 136c40 0 79 -20 79 -71c0 -27 -6 -49 -16 -83l-14 -47c78 130 168 201 249 201c53 0 92 -30 92 -77c0 -27 -9 -57 -15 -77l-13 -43c50 85 139 197 252 197
c67 0 90 -49 90 -79c0 -21 -4 -35 -15 -71l-47 -151c-3 -11 -9 -32 -9 -39c0 -9 5 -16 15 -16c12 0 42 9 78 71h48c-15 -28 -72 -136 -179 -136c-55 0 -79 37 -79 67c0 19 7 41 11 54l38 122c7 22 13 43 13 56c0 24 -17 38 -39 38c-87 0 -192 -163 -236 -307l-7 -23h-116
l75 245c4 14 9 34 9 47c0 18 -9 38 -36 38c-94 0 -197 -181 -239 -314l-5 -16h-116z" />
    <glyph glyph-name="n" unicode="n" horiz-adv-x="583" 
d="M27 0l88 286c3 11 12 39 12 50c0 5 -2 18 -14 18c-30 0 -57 -54 -66 -76h-41c18 52 66 136 155 136c56 0 76 -39 76 -64c0 -18 -8 -56 -18 -87l-17 -50c59 91 135 201 232 201c56 0 72 -43 72 -69c0 -22 -7 -41 -12 -59l-51 -170c-4 -14 -9 -29 -9 -44c0 -6 4 -14 12 -14
c17 0 48 26 74 70h49c-21 -38 -83 -135 -176 -135c-49 0 -78 27 -78 64c0 20 4 35 12 61l36 118c9 29 15 50 15 66c0 12 -8 28 -25 28c-52 0 -151 -146 -210 -330h-116z" />
    <glyph glyph-name="o" unicode="o" horiz-adv-x="531" 
d="M26 162c0 134 119 252 269 252c126 0 191 -83 191 -172c0 -130 -108 -256 -268 -256c-116 0 -192 72 -192 176zM294 373c-104 0 -152 -180 -152 -251c0 -54 25 -95 73 -95c109 0 155 179 155 249c0 59 -26 97 -76 97z" />
    <glyph glyph-name="p" unicode="p" horiz-adv-x="573" 
d="M161 38l-52 -171c-5 -16 -7 -21 -7 -29c0 -23 24 -28 71 -28h24l-13 -43h-309l13 43h19c65 0 71 8 91 74l127 416c4 12 7 24 7 35s-6 21 -16 21c-12 0 -38 -12 -67 -80h-47c11 28 55 138 156 138c81 0 82 -60 82 -83c61 65 115 83 159 83c114 0 136 -100 136 -145
c0 -137 -112 -283 -260 -283c-65 0 -94 27 -114 52zM354 359c-49 0 -91 -49 -120 -106s-46 -122 -46 -154c0 -40 26 -77 70 -77c99 0 157 172 157 259c0 36 -19 78 -61 78z" />
    <glyph glyph-name="q" unicode="q" horiz-adv-x="563" 
d="M541 415l-168 -548c-5 -15 -6 -21 -6 -29c0 -23 24 -28 71 -28h14l-14 -43h-310l13 43h30c66 0 72 7 92 74l55 181c-57 -51 -114 -79 -166 -79c-80 0 -131 60 -131 135c0 132 123 293 267 293c84 0 111 -63 122 -89c28 26 45 53 68 90h63zM371 261c0 44 -5 108 -73 108
c-98 0 -159 -155 -159 -229c0 -36 18 -80 73 -80c57 0 97 40 122 85s37 94 37 116z" />
    <glyph glyph-name="r" unicode="r" horiz-adv-x="438" 
d="M35 0l77 274c4 14 12 39 12 55c0 6 -4 17 -14 17c-30 0 -60 -58 -68 -75h-45c58 118 126 143 165 143c62 0 62 -62 62 -72c0 -25 -7 -67 -27 -134c46 80 118 206 194 206c59 0 62 -51 62 -64c0 -38 -24 -78 -60 -78c-21 0 -34 15 -43 26c-5 6 -13 15 -23 15
c-37 0 -125 -139 -171 -293l-6 -20h-115z" />
    <glyph glyph-name="s" unicode="s" horiz-adv-x="458" 
d="M106 297c0 35 26 117 186 117c126 0 150 -52 150 -83c0 -24 -16 -50 -50 -50c-36 0 -44 23 -57 62c-5 15 -12 35 -54 35c-33 0 -66 -17 -66 -48c0 -30 28 -54 66 -86c48 -40 91 -73 91 -132c0 -60 -47 -126 -190 -126c-147 0 -174 78 -174 104c0 27 20 55 55 55
c48 0 55 -47 57 -64c3 -25 7 -59 65 -59c45 0 75 25 75 59c0 14 -3 30 -37 59c-73 62 -117 103 -117 157z" />
    <glyph glyph-name="t" unicode="t" horiz-adv-x="333" 
d="M129 400l45 149h116l-45 -149h97l-14 -45h-97l-74 -241c-7 -23 -8 -30 -8 -38c0 -14 9 -27 24 -27c44 0 78 68 88 87h46c-60 -133 -143 -150 -181 -150c-57 0 -89 36 -89 89c0 26 7 47 15 76l63 204h-91l14 45h91z" />
    <glyph glyph-name="u" unicode="u" horiz-adv-x="583" 
d="M38 276h-45c24 39 82 133 176 133c26 0 74 -9 74 -70c0 -15 -3 -33 -6 -43l-40 -130c-5 -16 -14 -43 -14 -65c0 -12 8 -30 25 -30c42 0 127 93 208 329h116l-91 -298c-4 -14 -9 -30 -9 -38c0 -9 7 -18 15 -18c29 0 57 62 64 77h46c-12 -29 -58 -137 -160 -137
c-59 0 -73 41 -73 71c0 19 5 37 17 77l16 55c-44 -72 -127 -203 -231 -203c-50 0 -72 34 -72 67c0 26 7 48 14 70l49 161c3 9 10 33 10 42c0 5 -3 18 -16 18c-31 0 -65 -56 -73 -68z" />
    <glyph glyph-name="v" unicode="v" horiz-adv-x="531" 
d="M53 305h-41c19 62 51 109 100 109c26 0 48 -13 71 -32c17 -14 24 -17 33 -17c21 0 25 16 28 27c3 13 8 22 20 22c16 0 24 -11 24 -26c0 -38 -29 -84 -51 -119c-54 -86 -69 -124 -69 -160c0 -42 35 -55 61 -55c103 0 189 136 189 204c0 15 -3 34 -8 53c-7 25 -7 35 -7 45
c0 47 29 58 45 58c28 0 51 -29 51 -75c0 -146 -163 -353 -327 -353c-48 0 -116 24 -116 104c0 65 42 109 92 152c44 37 65 57 84 94c-21 -15 -48 -26 -73 -26c-15 0 -29 3 -51 15c-9 5 -17 9 -25 9c-20 0 -28 -21 -30 -29z" />
    <glyph glyph-name="w" unicode="w" horiz-adv-x="813" 
d="M57 305h-41c15 45 45 109 100 109c28 0 52 -18 73 -35c8 -6 17 -13 30 -13c19 0 24 14 29 31c2 7 7 17 21 17c20 0 20 -16 20 -20c0 -36 -48 -118 -55 -130c-43 -73 -64 -108 -64 -153c0 -42 31 -57 57 -57c35 0 81 14 134 52c-2 11 -6 34 -6 51c0 81 57 257 153 257
c42 0 63 -45 63 -81c0 -81 -65 -154 -112 -196c25 -70 68 -77 86 -77c88 0 152 117 152 195c0 21 -2 30 -14 77c-2 8 -3 19 -3 24c0 40 25 58 46 58c29 0 50 -31 50 -83c0 -139 -137 -345 -292 -345c-34 0 -83 10 -113 80c-27 -18 -120 -80 -203 -80c-54 0 -110 35 -110 104
c0 68 44 107 101 157c50 43 60 67 70 85c-16 -9 -40 -23 -63 -23c-14 0 -27 3 -48 14c-17 9 -24 11 -31 11c-17 0 -25 -14 -30 -29zM447 179c21 21 85 85 85 153c0 18 -9 40 -30 40c-35 0 -61 -57 -61 -135c0 -29 3 -43 6 -58z" />
    <glyph glyph-name="x" unicode="x" horiz-adv-x="552" 
d="M320 287l75 81c21 22 48 46 79 46c55 0 55 -56 55 -67c0 -29 -5 -47 -9 -60h-47c8 27 10 55 10 61c0 2 -1 21 -18 21c-11 0 -14 -4 -40 -31l-91 -96l41 -129c6 -19 15 -49 31 -49c27 0 47 62 50 73h44c-31 -112 -94 -151 -139 -151c-58 0 -79 50 -95 102l-19 61
l-107 -114c-37 -39 -59 -49 -78 -49c-35 0 -43 29 -43 57c0 35 11 66 17 81h53c-8 -22 -18 -46 -18 -65c0 -8 3 -15 9 -15c10 0 21 13 27 19l125 133l-24 76c-12 37 -18 59 -39 59c-24 0 -39 -43 -47 -72h-45c31 100 78 155 136 155c54 0 81 -46 99 -102z" />
    <glyph glyph-name="y" unicode="y" horiz-adv-x="531" 
d="M56 254h-40c17 152 104 160 127 160c110 0 128 -159 128 -270c0 -46 -2 -103 -10 -150c29 34 80 91 94 112c22 33 51 80 51 127c0 23 -5 36 -17 66c-14 35 -17 46 -17 62c0 33 21 53 42 53c32 0 65 -32 65 -92c0 -235 -362 -567 -562 -567c-40 0 -80 16 -80 54
c0 30 28 48 56 48c25 0 36 -5 61 -14c9 -3 38 -14 61 -14c50 0 84 38 102 69c20 35 40 85 40 198c0 52 -5 147 -19 203c-5 19 -18 41 -35 41c-38 0 -45 -67 -47 -86z" />
    <glyph glyph-name="z" unicode="z" horiz-adv-x="490" 
d="M122 287h-42c12 28 55 127 150 127c27 0 48 -8 82 -28c30 -17 38 -24 56 -24c26 0 38 19 45 31c7 11 13 21 27 21c20 0 26 -16 26 -24c0 -32 -93 -133 -233 -230c-59 -41 -71 -49 -103 -75c27 8 48 16 95 16c34 0 60 -7 75 -11c22 -6 27 -6 33 -6c35 0 49 23 59 39h44
c-18 -48 -71 -137 -165 -137c-33 0 -58 12 -80 26c-25 16 -49 32 -76 32c-25 0 -40 -18 -46 -28c-11 -19 -18 -30 -34 -30c-14 0 -24 13 -24 24c0 43 88 106 195 184c85 62 119 89 158 126c-13 -6 -43 -14 -77 -14c-26 0 -36 3 -69 11c-22 5 -33 7 -41 7
c-34 0 -45 -20 -55 -37z" />
    <glyph glyph-name="braceleft" unicode="{" horiz-adv-x="375" 
d="M67 201v25c59 11 104 49 104 107c0 42 -24 116 -24 161c0 36 28 168 192 180v-21c-43 -4 -104 -42 -104 -107c0 -42 21 -116 21 -166c0 -43 -32 -138 -151 -165c83 -21 152 -91 152 -166c0 -40 -22 -125 -22 -165c0 -64 45 -96 104 -110v-20c-138 5 -192 114 -192 177
c0 56 24 113 24 166c0 45 -23 88 -104 104z" />
    <glyph glyph-name="bar" unicode="|" horiz-adv-x="563" 
d="M254 674h91v-907h-91v907z" />
    <glyph glyph-name="braceright" unicode="}" horiz-adv-x="375" 
d="M324 201c-81 -16 -104 -59 -104 -104c0 -53 24 -110 24 -166c0 -63 -54 -172 -192 -177v20c59 14 104 46 104 110c0 40 -22 125 -22 165c0 75 69 145 152 166c-119 27 -151 122 -151 165c0 50 21 124 21 166c0 65 -61 103 -104 107v21c164 -12 192 -144 192 -180
c0 -45 -24 -119 -24 -161c0 -58 45 -96 104 -107v-25z" />
    <glyph glyph-name="asciitilde" unicode="~" horiz-adv-x="667" 
d="M589 412h31c-6 -145 -94 -167 -137 -167s-70 10 -184 57c-55 23 -80 30 -101 30c-69 0 -80 -65 -84 -87h-31c1 23 3 69 25 105c29 48 75 62 108 62c24 0 55 0 187 -57c68 -29 84 -31 102 -31c31 0 76 17 84 88z" />
    <glyph glyph-name="exclamdown" unicode="&#xa1;" horiz-adv-x="271" 
d="M194 316c-35 0 -64 28 -64 63s29 64 64 64s63 -29 63 -64s-28 -63 -63 -63zM132 243h42l-75 -375c-10 -49 -23 -113 -79 -113c-33 0 -55 24 -55 62c0 32 18 69 23 80z" />
    <glyph glyph-name="cent" unicode="&#xa2;" horiz-adv-x="458" 
d="M339 415l89 167h48l-94 -178c30 -14 64 -43 64 -91c0 -38 -23 -71 -63 -71c-29 0 -47 20 -47 44c0 17 9 37 10 55l-154 -297c71 -7 126 47 152 78h53c-29 -45 -109 -135 -236 -138l-69 -130h-48l71 135c-82 19 -96 79 -96 124c0 139 134 317 320 302zM154 63l162 308
c-4 1 -13 2 -19 2c-88 0 -159 -179 -159 -261c0 -17 4 -35 16 -49z" />
    <glyph glyph-name="sterling" unicode="&#xa3;" horiz-adv-x="719" 
d="M9 110l36 66h148c37 82 108 217 148 279c61 95 178 223 338 223c83 0 116 -41 116 -83c0 -40 -34 -60 -65 -60c-28 0 -30 12 -44 44c-11 25 -31 47 -62 47c-83 0 -120 -82 -184 -204c-11 -21 -75 -153 -137 -246h163l-37 -66h-171c-35 -49 -93 -108 -115 -129
c22 6 38 13 70 13c50 0 72 -23 114 -70c45 -50 69 -59 101 -59c65 0 89 55 89 92c0 14 -6 42 -6 51c0 19 16 46 52 46c37 0 51 -26 51 -46c0 -78 -123 -212 -271 -212c-79 0 -104 32 -135 70c-32 40 -50 60 -78 60c-14 0 -26 -4 -40 -9c-70 -95 -101 -122 -138 -122
c-29 0 -33 21 -33 31c0 29 35 78 136 121c46 60 99 155 104 163h-150z" />
    <glyph glyph-name="fraction" unicode="&#x2044;" horiz-adv-x="188" 
d="M-155 0l543 664h57l-546 -664h-54z" />
    <glyph glyph-name="yen" unicode="&#xa5;" horiz-adv-x="635" 
d="M263 340l-60 215c-13 46 -22 62 -87 62l13 45h292l-14 -45c-29 0 -75 0 -75 -46c0 -15 6 -33 8 -40l52 -191l113 159c25 35 37 55 37 74c0 44 -44 44 -68 44l13 45h244l-11 -45c-56 0 -86 -21 -147 -106l-123 -171h187l-17 -56h-209l-24 -79h214l-18 -56h-213l-6 -19
c-4 -13 -8 -27 -8 -38c0 -47 52 -47 90 -47l-14 -45h-326l14 45c74 0 87 10 106 74l9 30h-197l18 56h196l25 79h-202l18 56h170z" />
    <glyph glyph-name="florin" unicode="&#x192;" horiz-adv-x="479" 
d="M326 360l-49 -244c-42 -209 -66 -247 -98 -287c-8 -10 -54 -68 -124 -68c-49 0 -76 29 -76 57c0 19 16 48 50 48c15 0 45 -7 45 -38c0 -12 -6 -20 -6 -26c0 -5 6 -11 14 -11c17 0 37 17 37 63c0 27 -4 70 -4 88c0 56 6 85 20 156l53 262h-69l12 59c65 0 89 19 123 111
c34 93 82 125 146 125c36 0 79 -16 79 -63c0 -29 -19 -56 -52 -56c-32 0 -43 29 -43 40c0 18 15 39 15 45c0 7 -7 11 -13 11c-19 0 -46 -18 -46 -68c0 -29 4 -64 4 -85c0 -22 -3 -43 -6 -60h75l-12 -59h-75z" />
    <glyph glyph-name="section" unicode="&#xa7;" horiz-adv-x="448" 
d="M170 399c-12 22 -30 53 -30 99c0 85 71 158 163 158c69 0 142 -43 142 -120c0 -30 -17 -55 -46 -55c-34 0 -40 32 -44 54c-5 30 -9 78 -64 78c-38 0 -69 -30 -69 -72c0 -51 29 -85 88 -157c58 -71 89 -122 89 -183c0 -77 -50 -139 -145 -159c23 -37 37 -74 37 -118
c0 -103 -83 -169 -175 -169c-96 0 -153 64 -153 120c0 27 18 53 49 53c44 0 47 -39 49 -54c4 -33 5 -76 61 -76c37 0 87 22 87 84c0 35 -11 68 -83 166c-57 77 -92 124 -92 193c0 57 34 139 136 158zM106 288c0 -13 1 -38 45 -103c58 -86 89 -93 114 -93c35 0 55 30 55 60
c0 25 -9 53 -50 114c-25 38 -60 84 -106 84c-27 0 -58 -22 -58 -62z" />
    <glyph glyph-name="currency" unicode="&#xa4;" horiz-adv-x="467" 
d="M454 175l-37 -39l-67 65c-43 -28 -81 -39 -117 -39c-33 0 -71 9 -117 39l-67 -65l-38 39l66 63c-29 49 -38 86 -38 116c0 31 9 69 38 116l-66 64l38 39l67 -65c47 29 84 38 117 38c34 0 73 -10 117 -38l67 65l37 -39l-65 -64c30 -49 39 -87 39 -116
c0 -30 -10 -67 -39 -116zM373 355c0 80 -69 138 -140 138c-78 0 -139 -63 -139 -138c0 -76 63 -139 139 -139s140 63 140 139z" />
    <glyph glyph-name="quotesingle" unicode="'" horiz-adv-x="271" 
d="M174 366h-22l2 177c1 124 80 131 98 131c34 0 51 -24 51 -47c0 -15 -3 -31 -32 -84z" />
    <glyph glyph-name="quotedblleft" unicode="&#x201c;" horiz-adv-x="521" 
d="M618 674l-14 -45c-117 -23 -146 -95 -146 -113c0 -12 6 -14 19 -14c26 0 61 -22 61 -64c0 -39 -29 -64 -63 -64c-51 0 -76 51 -76 98c0 76 68 188 219 202zM363 674l-14 -45c-117 -23 -146 -95 -146 -113c0 -12 6 -14 19 -14c26 0 61 -22 61 -64c0 -39 -29 -64 -63 -64
c-51 0 -76 51 -76 98c0 76 68 188 219 202z" />
    <glyph glyph-name="guillemotleft" unicode="&#xab;" horiz-adv-x="563" 
d="M418 205l27 -205h-42l-103 216l199 215h49zM162 205l27 -205h-42l-102 216l199 215h49z" />
    <glyph glyph-name="guilsinglleft" unicode="&#x2039;" horiz-adv-x="313" 
d="M174 205l27 -205h-42l-103 216l199 215h49z" />
    <glyph glyph-name="guilsinglright" unicode="&#x203a;" horiz-adv-x="313" 
d="M134 227l-27 204h42l103 -216l-200 -215h-48z" />
    <glyph glyph-name="endash" unicode="&#x2013;" horiz-adv-x="500" 
d="M-6 281h512v-64h-512v64z" />
    <glyph glyph-name="dagger" unicode="&#x2020;" horiz-adv-x="531" 
d="M134 -245h-45l5 16c38 122 74 262 109 444c14 71 27 124 77 163c-21 -1 -42 -5 -97 -21c-37 -11 -49 -12 -63 -12c-38 0 -54 26 -54 49c0 35 33 56 61 56c18 0 45 -7 50 -9c77 -21 96 -21 113 -20c-1 49 -1 103 6 146c16 100 69 107 81 107c26 0 46 -19 46 -52
c0 -52 -32 -104 -81 -186l-9 -15c33 5 64 9 90 16c37 10 52 13 68 13c26 0 51 -14 51 -48s-24 -57 -60 -57c-21 0 -34 4 -59 13c-31 11 -71 21 -103 20c1 -11 2 -23 2 -43c0 -52 -9 -84 -47 -172c-67 -155 -100 -271 -124 -351z" />
    <glyph glyph-name="daggerdbl" unicode="&#x2021;" horiz-adv-x="510" 
d="M333 419c-2 -12 -3 -17 -5 -41c-4 -53 -6 -74 -33 -113c-30 -43 -34 -49 -34 -74c0 -35 0 -78 -10 -104c-5 -13 -36 -65 -41 -75c15 1 41 11 51 14c15 5 38 13 63 13c37 0 53 -24 53 -49c0 -34 -26 -50 -48 -50c-15 0 -26 4 -65 16c-38 12 -50 13 -67 13
c-6 -29 -6 -36 -6 -85c0 -58 -10 -129 -69 -129c-33 0 -51 25 -51 55c0 34 17 60 41 95c26 37 30 44 39 64c-34 -9 -39 -11 -69 -20c-22 -7 -34 -9 -43 -9c-44 0 -55 32 -55 50c0 33 25 50 47 50c17 0 28 -4 65 -16c15 -5 36 -11 68 -12c3 12 4 16 5 40c3 61 8 75 34 113
c27 39 33 51 33 74c0 73 0 75 11 105c4 12 35 64 40 75c-13 -2 -41 -11 -48 -14c-12 -5 -39 -14 -66 -14c-39 0 -53 27 -53 49c0 36 28 50 47 50c16 0 26 -3 66 -16c38 -12 51 -13 68 -13c5 26 6 36 6 85c0 58 9 128 69 128c31 0 50 -24 50 -54c0 -34 -16 -60 -41 -95
s-29 -43 -39 -64c28 7 30 7 69 21c11 4 32 8 46 8c32 0 52 -21 52 -49c0 -42 -35 -51 -49 -51c-15 0 -24 4 -62 16c-9 3 -34 12 -69 13z" />
    <glyph glyph-name="periodcentered" unicode="&#xb7;" horiz-adv-x="271" 
d="M152 384c35 0 64 -28 64 -63s-29 -64 -64 -64s-63 29 -63 64s28 63 63 63z" />
    <glyph glyph-name="paragraph" unicode="&#xb6;" horiz-adv-x="479" 
d="M294 627v-799h-46v404c-43 2 -132 6 -191 64c-48 48 -59 115 -59 156c0 59 14 118 86 171c37 27 72 39 224 39h204v-21h-20c-68 0 -68 -37 -68 -94v-719h-45v799h-85z" />
    <glyph glyph-name="bullet" unicode="&#x2022;" horiz-adv-x="333" 
d="M184 446c73 0 133 -59 133 -132s-59 -133 -133 -133c-73 0 -132 60 -132 133c0 74 60 132 132 132z" />
    <glyph glyph-name="quotesinglbase" unicode="&#x201a;" horiz-adv-x="271" 
d="M-44 -187l14 45c117 23 146 95 146 113c0 12 -6 14 -19 14c-26 0 -61 22 -61 64c0 39 29 64 63 64c51 0 76 -51 76 -98c0 -76 -68 -188 -219 -202z" />
    <glyph glyph-name="quotedblbase" unicode="&#x201e;" horiz-adv-x="521" 
d="M-46 -187l14 45c117 23 146 95 146 113c0 12 -6 14 -19 14c-26 0 -61 22 -61 64c0 39 29 64 63 64c51 0 76 -51 76 -98c0 -76 -68 -188 -219 -202zM209 -187l14 45c117 23 146 95 146 113c0 12 -6 14 -19 14c-26 0 -61 22 -61 64c0 39 29 64 63 64c51 0 76 -51 76 -98
c0 -76 -68 -188 -219 -202z" />
    <glyph glyph-name="quotedblright" unicode="&#x201d;" horiz-adv-x="521" 
d="M104 374l14 45c117 23 146 95 146 113c0 12 -6 14 -19 14c-26 0 -61 22 -61 64c0 39 29 64 63 64c51 0 76 -51 76 -98c0 -76 -68 -188 -219 -202zM359 374l14 45c117 23 146 95 146 113c0 12 -6 14 -19 14c-26 0 -61 22 -61 64c0 39 29 64 63 64c51 0 76 -51 76 -98
c0 -76 -68 -188 -219 -202z" />
    <glyph glyph-name="guillemotright" unicode="&#xbb;" horiz-adv-x="563" 
d="M125 227l-27 204h42l103 -216l-199 -215h-49zM381 227l-27 204h42l102 -216l-199 -215h-49z" />
    <glyph glyph-name="ellipsis" unicode="&#x2026;" horiz-adv-x="1000" 
d="M109 60c0 43 34 77 76 77c43 0 77 -35 77 -77s-34 -76 -77 -76c-41 0 -76 33 -76 76zM775 60c0 43 35 77 77 77s76 -34 76 -77s-35 -76 -76 -76c-42 0 -77 33 -77 76zM442 60c0 43 34 77 76 77c43 0 77 -35 77 -77s-34 -76 -77 -76c-41 0 -76 33 -76 76z" />
    <glyph glyph-name="perthousand" unicode="&#x2030;" horiz-adv-x="990" 
d="M908 311c-17 0 -35 -12 -49 -37c-21 -38 -79 -186 -79 -225c0 -18 11 -29 25 -29c37 0 52 48 62 69c9 19 62 170 62 197c0 7 1 25 -21 25zM83 0l542 664h57l-546 -664h-53zM905 339c82 0 89 -64 89 -85c0 -62 -46 -262 -190 -262c-84 0 -89 66 -89 87
c0 44 39 260 190 260zM588 339c82 0 89 -64 89 -85c0 -62 -46 -262 -190 -262c-84 0 -89 66 -89 87c0 44 39 260 190 260zM591 311c-17 0 -35 -12 -49 -37c-21 -38 -79 -186 -79 -225c0 -18 11 -29 25 -29c37 0 52 48 62 69c9 19 62 170 62 197c0 7 1 25 -21 25zM272 657
c82 0 89 -64 89 -85c0 -62 -46 -262 -190 -262c-84 0 -89 66 -89 87c0 44 39 260 190 260zM275 629c-17 0 -35 -12 -49 -37c-21 -38 -79 -186 -79 -225c0 -18 11 -29 25 -29c37 0 52 48 62 69c9 19 62 170 62 197c0 7 1 25 -21 25z" />
    <glyph glyph-name="questiondown" unicode="&#xbf;" horiz-adv-x="458" 
d="M260 244h43l-59 -194h-21c-1 9 -2 39 -30 39c-53 0 -85 -178 -85 -225c0 -27 10 -69 53 -69c27 0 38 17 54 44c8 14 21 30 40 30c22 0 34 -18 34 -37c0 -35 -38 -77 -118 -77c-101 0 -169 70 -169 165c0 102 68 210 178 210c18 0 32 -3 43 -6zM322 316
c-35 0 -64 28 -64 63s29 64 64 64s63 -29 63 -64s-28 -63 -63 -63z" />
    <glyph glyph-name="grave" unicode="`" horiz-adv-x="333" 
d="M247 643l51 -167h-35l-144 167h128z" />
    <glyph glyph-name="acute" unicode="&#xb4;" horiz-adv-x="333" 
d="M224 643h128l-144 -167h-35z" />
    <glyph glyph-name="circumflex" unicode="&#x2c6;" horiz-adv-x="333" 
d="M262 586l-155 -106h-29l141 172h117l28 -172h-28z" />
    <glyph glyph-name="tilde" unicode="&#x2dc;" horiz-adv-x="333" 
d="M89 495h-31c12 64 42 130 109 130c25 0 47 -8 82 -25c40 -20 57 -28 80 -28c43 0 52 32 58 53h30c-9 -76 -51 -131 -108 -131c-24 0 -51 10 -91 30c-16 8 -56 24 -75 24c-41 0 -49 -33 -54 -53z" />
    <glyph glyph-name="macron" unicode="&#xaf;" horiz-adv-x="333" 
d="M91 527l21 67h273l-21 -67h-273z" />
    <glyph glyph-name="breve" unicode="&#x2d8;" horiz-adv-x="333" 
d="M119 637h33c13 -44 39 -78 86 -78c31 0 75 19 97 78h32c-26 -132 -103 -158 -138 -158c-42 0 -119 36 -110 158z" />
    <glyph glyph-name="dotaccent" unicode="&#x2d9;" horiz-adv-x="333" 
d="M192 560c0 28 23 53 53 53c31 0 53 -25 53 -53c0 -29 -23 -53 -53 -53c-28 0 -53 23 -53 53z" />
    <glyph glyph-name="dieresis" unicode="&#xa8;" horiz-adv-x="333" 
d="M94 560c0 28 23 53 54 53c30 0 53 -25 53 -53c0 -29 -24 -53 -53 -53s-54 23 -54 53zM283 560c0 28 22 53 53 53s53 -25 53 -53c0 -29 -24 -53 -53 -53s-53 24 -53 53z" />
    <glyph glyph-name="ring" unicode="&#x2da;" horiz-adv-x="333" 
d="M174 561c0 51 42 94 95 94c52 0 94 -42 94 -94c0 -53 -43 -94 -94 -94c-52 0 -95 42 -95 94zM211 561c0 -32 26 -56 56 -56s56 24 56 56c0 31 -25 56 -56 56s-56 -25 -56 -56z" />
    <glyph glyph-name="cedilla" unicode="&#xb8;" horiz-adv-x="333" 
d="M46 -97l55 103l47 -6l-20 -41c46 -6 80 -29 80 -76c0 -53 -44 -83 -89 -99c-50 -17 -90 -17 -169 -17l19 45c29 -1 54 -1 81 4c26 5 58 24 58 53c0 34 -49 34 -62 34z" />
    <glyph glyph-name="hungarumlaut" unicode="&#x2dd;" horiz-adv-x="333" 
d="M186 643h128l-144 -167h-35zM349 643h128l-144 -167h-34z" />
    <glyph glyph-name="ogonek" unicode="&#x2db;" horiz-adv-x="333" 
d="M157 8h40c-33 -25 -54 -41 -54 -76c0 -5 0 -94 111 -111l12 -17c-20 -11 -39 -21 -76 -21c-81 0 -134 64 -134 118c0 13 0 80 101 107z" />
    <glyph glyph-name="caron" unicode="&#x2c7;" horiz-adv-x="333" 
d="M243 546l155 106h29l-141 -172h-117l-28 172h28z" />
    <glyph glyph-name="emdash" unicode="&#x2014;" horiz-adv-x="1000" 
d="M-6 281h1012v-64h-1012v64z" />
    <glyph glyph-name="AE" unicode="&#xc6;" horiz-adv-x="938" 
d="M588 319l-56 -184c-8 -25 -10 -30 -10 -41c0 -36 27 -46 95 -46c56 0 151 1 217 131h48l-52 -179h-560l15 45c73 0 88 7 108 74l61 200h-169l-115 -140c-34 -42 -49 -60 -49 -87c0 -47 52 -47 77 -47l-14 -45h-245l14 45c47 13 94 63 143 122l304 366c16 20 27 31 27 49
c0 29 -28 35 -61 35h-20l14 45h576l3 -162h-43c-35 97 -70 114 -141 114h-77l-75 -247h26c57 0 107 2 133 98h49l-80 -262h-49c29 96 4 116 -65 116h-29zM324 367h144l87 279z" />
    <glyph glyph-name="ordfeminine" unicode="&#xaa;" horiz-adv-x="344" 
d="M397 669l-56 -172c-3 -9 -9 -27 -9 -31c0 -3 2 -7 6 -7c11 0 28 24 37 39h41c-33 -65 -78 -85 -110 -85c-51 0 -54 33 -56 54c-21 -22 -52 -54 -100 -54c-37 0 -60 29 -60 72c0 77 70 189 166 189c34 0 43 -13 53 -27l7 22h81zM265 643c-48 0 -90 -101 -90 -144
c0 -16 5 -31 19 -31c40 0 92 85 92 143c0 3 0 32 -21 32z" />
    <glyph glyph-name="Lslash" unicode="&#x141;" horiz-adv-x="594" 
d="M289 305l-46 -150c-8 -25 -13 -57 -13 -63c0 -39 49 -44 92 -44c100 0 181 12 241 132h48l-55 -180h-556l14 45c61 0 70 32 83 74l27 86l-103 -65l24 80l103 64l79 258c9 30 9 75 -52 75h-15l15 45h301l-14 -45c-58 0 -79 -3 -100 -73l-48 -158l156 97l-26 -84z" />
    <glyph glyph-name="Oslash" unicode="&#xd8;" horiz-adv-x="792" 
d="M219 129l406 449c-21 34 -68 51 -120 51c-78 0 -150 -38 -204 -136c-39 -71 -89 -199 -89 -304c0 -16 1 -44 7 -60zM239 84c28 -38 70 -51 118 -51c112 0 187 78 236 192c33 78 61 158 61 243c0 38 -5 54 -8 66zM156 59c-62 62 -79 139 -79 197c0 186 164 418 433 418
c84 0 133 -23 164 -42l37 42l34 -30l-35 -40c62 -62 79 -139 79 -203c0 -178 -166 -413 -428 -413c-84 0 -134 23 -169 43l-40 -43l-33 30z" />
    <glyph glyph-name="OE" unicode="&#x152;" horiz-adv-x="1021" 
d="M662 319l-55 -179c-8 -25 -10 -35 -10 -46c0 -45 86 -46 104 -46c131 0 179 53 220 131h45l-50 -179h-537c-51 0 -128 0 -201 51c-64 45 -100 120 -100 208c0 177 159 403 451 403h492l4 -161h-44c-36 100 -62 113 -140 113h-90l-73 -247h32c71 0 96 -1 128 86
c1 1 3 8 4 9h47l-79 -260h-48l6 22c2 5 8 26 8 43c0 19 -14 52 -63 52h-51zM483 172l93 306c8 25 15 48 15 67c0 32 -23 72 -96 72c-187 0 -276 -299 -276 -406c0 -109 64 -166 136 -166c92 0 116 89 128 127z" />
    <glyph glyph-name="ordmasculine" unicode="&#xba;" horiz-adv-x="344" 
d="M101 520c0 82 78 154 178 154c86 0 128 -53 128 -105c0 -80 -72 -156 -177 -156c-77 0 -129 44 -129 107zM279 642c-62 0 -92 -103 -92 -145c0 -22 9 -52 41 -52c63 0 93 101 93 143c0 31 -12 54 -42 54z" />
    <glyph glyph-name="ae" unicode="&#xe6;" horiz-adv-x="719" 
d="M591 122h54c-58 -78 -142 -136 -238 -136c-108 0 -126 83 -131 107c-27 -33 -99 -107 -164 -107c-54 0 -84 50 -84 112c0 152 128 314 243 314c65 0 77 -51 81 -72l18 64h91l-20 -63c57 55 101 71 148 71c71 0 111 -38 111 -76c0 -110 -214 -187 -301 -188
c-2 -8 -4 -18 -4 -35c0 -59 44 -69 65 -69c62 0 108 52 131 78zM287 369c-65 0 -143 -149 -143 -252c0 -16 0 -55 33 -55c38 0 74 46 101 100c27 55 45 118 45 155c0 18 -5 52 -36 52zM411 191c127 22 186 97 186 142c0 17 -12 39 -42 39c-50 0 -113 -70 -144 -181z" />
    <glyph glyph-name="dotlessi" unicode="&#x131;" horiz-adv-x="313" 
d="M56 279h-43c40 88 108 135 167 135c42 0 75 -22 75 -58c0 -19 -4 -38 -11 -56l-76 -205c-5 -13 -8 -25 -8 -34s7 -17 15 -17c18 0 37 15 69 73h45c-13 -28 -65 -131 -161 -131c-61 0 -82 36 -82 68c0 28 7 49 18 79l63 172c4 10 9 23 9 32c0 7 -7 14 -14 14
c-26 0 -58 -56 -66 -72z" />
    <glyph glyph-name="lslash" unicode="&#x142;" horiz-adv-x="313" 
d="M229 347l-71 -233c-9 -28 -13 -43 -13 -52c0 -11 6 -18 14 -18c17 0 51 31 71 75h46c-11 -21 -69 -133 -164 -133c-52 0 -81 32 -81 69c0 23 6 44 15 74l36 117l-101 -74l24 81l100 68l66 216c22 71 19 80 -54 80l12 45c62 0 115 -3 167 12h33l-78 -254l114 86l-24 -81z
" />
    <glyph glyph-name="oslash" unicode="&#xf8;" horiz-adv-x="531" 
d="M391 394l35 41l35 -29l-32 -37c35 -29 57 -75 57 -126c0 -129 -106 -257 -269 -257c-50 0 -84 15 -95 20l-39 -47l-36 29l37 43c-45 36 -58 87 -58 130c0 132 115 253 270 253c32 0 66 -7 95 -20zM143 101l208 245c-8 10 -21 27 -56 27c-105 0 -160 -185 -152 -272z
M369 297l-207 -244c20 -26 43 -26 53 -26c111 0 163 194 154 270z" />
    <glyph glyph-name="oe" unicode="&#x153;" horiz-adv-x="750" 
d="M628 123h54c-29 -37 -106 -137 -223 -137c-59 0 -87 24 -110 44c-19 -11 -74 -44 -141 -44c-93 0 -180 65 -180 175c0 144 133 251 257 251c60 0 117 -28 152 -76c64 52 131 76 187 76s112 -29 112 -79c0 -95 -165 -166 -292 -186c-2 -8 -3 -16 -3 -28
c0 -25 7 -75 56 -75c28 0 74 12 131 79zM287 375c-94 0 -145 -178 -145 -263c0 -35 12 -83 66 -83c96 0 145 177 145 259c0 50 -21 87 -66 87zM453 191c176 39 181 126 181 143s-10 40 -34 40c-58 0 -119 -91 -147 -183z" />
    <glyph glyph-name="germandbls" unicode="&#xdf;" horiz-adv-x="563" 
d="M295 346l13 42c139 -9 153 148 153 175c0 49 -32 70 -68 70c-71 0 -95 -78 -123 -171l-133 -436c-48 -156 -116 -271 -248 -271c-73 0 -113 36 -113 80c0 20 15 54 56 54c30 0 51 -20 51 -51c0 -23 12 -40 29 -40c41 0 62 77 71 105l161 525c32 104 75 246 250 246
c102 0 172 -50 172 -143c0 -81 -60 -154 -172 -167c72 -17 124 -60 124 -142c0 -117 -95 -236 -220 -236c-54 0 -102 30 -102 80c0 40 25 55 46 55c11 0 43 -4 43 -49c0 -26 0 -45 22 -45c56 0 97 152 97 209c0 108 -87 109 -109 110z" />
    <glyph glyph-name="logicalnot" unicode="&#xac;" horiz-adv-x="667" 
d="M82 484h538v-322h-90v232h-448v90z" />
    <glyph glyph-name="mu" unicode="&#xb5;" horiz-adv-x="542" 
d="M135 400h115l-69 -243c-6 -21 -13 -51 -13 -69c0 -30 27 -34 33 -34c50 0 105 88 129 170l51 176h116l-89 -306c-10 -33 -5 -56 19 -56c22 0 44 45 52 65l17 -9c-8 -24 -38 -108 -123 -108c-66 0 -78 53 -78 76c0 16 1 33 5 45c-41 -64 -91 -121 -161 -121
c-47 0 -61 24 -71 41c-12 -35 -20 -62 -23 -125c-2 -42 -5 -108 -60 -108c-28 0 -45 24 -45 50c0 25 17 57 37 90c34 57 46 80 65 145z" />
    <glyph glyph-name="trademark" unicode="&#x2122;" horiz-adv-x="948" 
d="M34 662h360v-105h-16c-3 61 -32 81 -90 81h-18v-273c0 -50 8 -61 48 -61v-17h-210v17c49 0 47 15 47 63v271h-16c-79 0 -87 -48 -90 -81h-15v105zM445 662h171l107 -230l106 230h161v-18c-44 0 -47 -17 -47 -62v-219c0 -42 7 -59 47 -59v-17h-214v17c44 0 53 6 53 59v239
l-148 -315h-12l-147 314v-236c0 -44 0 -61 53 -61v-17h-130v17c47 0 51 12 51 62v217c0 52 -4 62 -51 61v18z" />
    <glyph glyph-name="Eth" unicode="&#xd0;" horiz-adv-x="740" 
d="M283 301l-50 -164c-3 -11 -9 -30 -9 -42c0 -36 37 -47 83 -47c129 0 199 85 237 176s44 185 44 206c0 167 -103 184 -185 184h-24l-78 -255h140l-22 -58h-136zM167 359l52 170c7 24 9 30 9 43c0 44 -43 44 -62 45l13 45h233c56 0 120 0 185 -37
c123 -70 132 -187 132 -239c0 -107 -42 -243 -173 -326c-95 -60 -207 -60 -289 -60h-263l14 45c53 0 64 39 75 74l56 182h-79l18 58h79z" />
    <glyph glyph-name="onehalf" unicode="&#xbd;" horiz-adv-x="771" 
d="M119 0l543 664h57l-547 -664h-53zM329 657l-94 -267c-7 -20 -9 -25 -9 -31c0 -11 5 -11 47 -13l-10 -28h-184l11 28h18c30 0 31 -1 44 37l66 189c5 14 5 14 5 19c0 8 -5 13 -35 13h-29l10 28c79 5 99 11 126 25h34zM644 -16h-38c2 4 2 5 4 8c3 6 0 8 -5 8h-169l13 38
c32 22 105 79 148 119c33 31 60 74 60 108c0 26 -14 46 -47 46c-18 0 -44 -6 -44 -30c0 -15 17 -28 20 -30c2 -2 3 -3 3 -6s-30 -22 -45 -22c-13 0 -37 21 -37 46c0 34 39 71 114 71c71 0 115 -32 115 -77c0 -56 -48 -107 -153 -170l-50 -30c-2 -2 -12 -8 -15 -7v-2h152z
" />
    <glyph glyph-name="plusminus" unicode="&#xb1;" horiz-adv-x="667" 
d="M82 491h224v224h90v-224h224v-90h-224v-224h-90v224h-224v90zM82 90h538v-90h-538v90z" />
    <glyph glyph-name="Thorn" unicode="&#xde;" horiz-adv-x="646" 
d="M449 662l-14 -45c-48 0 -62 -29 -73 -67l-6 -20h50c51 0 100 -2 146 -30c66 -40 85 -91 85 -138c0 -58 -29 -125 -109 -164c-65 -32 -176 -31 -218 -31h-63l-13 -35c-4 -10 -8 -28 -8 -41c0 -36 38 -46 62 -46h14l-14 -45h-282l14 45c42 0 59 20 76 74l126 411
c7 24 9 31 9 41c0 46 -50 46 -71 46l14 45h275zM343 482l-82 -267h59c26 0 79 -1 114 30c33 30 66 83 66 142c0 95 -84 95 -110 95h-47z" />
    <glyph glyph-name="onequarter" unicode="&#xbc;" horiz-adv-x="771" 
d="M449 98l6 36l216 206h64l-73 -204c25 0 28 0 37 21h36l-19 -59h-68l-8 -23c-3 -9 -10 -29 -10 -35c0 -13 31 -13 48 -12l-9 -28h-184l9 28h18c28 0 32 -3 45 38l10 32h-118zM119 0l543 664h57l-547 -664h-53zM504 136h78l41 116zM329 657l-94 -267c-7 -20 -9 -25 -9 -31
c0 -11 5 -11 47 -13l-10 -28h-184l11 28h18c30 0 31 -1 44 37l66 189c5 14 5 14 5 19c0 8 -5 13 -35 13h-29l10 28c79 5 99 11 126 25h34z" />
    <glyph glyph-name="divide" unicode="&#xf7;" horiz-adv-x="667" 
d="M82 368h538v-90h-538v90zM352 177c31 0 55 -25 55 -56s-24 -55 -55 -55s-56 24 -56 55s25 56 56 56zM352 580c31 0 55 -25 55 -56s-24 -55 -55 -55s-56 24 -56 55s25 56 56 56z" />
    <glyph glyph-name="brokenbar" unicode="&#xa6;" horiz-adv-x="563" 
d="M254 142h91v-375h-91v375zM254 674h91v-375h-91v375z" />
    <glyph glyph-name="degree" unicode="&#xb0;" horiz-adv-x="375" 
d="M233 657c93 0 171 -77 171 -171c0 -93 -78 -171 -171 -171s-171 78 -171 171c0 94 78 171 171 171zM233 587c-57 0 -101 -42 -101 -101c0 -58 43 -101 101 -101s101 44 101 101c0 59 -43 101 -101 101z" />
    <glyph glyph-name="thorn" unicode="&#xfe;" horiz-adv-x="573" 
d="M138 617l12 43c40 1 117 1 167 14h25l-104 -346c39 41 87 86 162 86c114 0 135 -101 135 -145c0 -137 -112 -283 -260 -283c-65 0 -94 27 -114 52l-51 -168c-5 -15 -8 -24 -8 -32c0 -23 24 -28 71 -28h26l-15 -43h-309l13 43h19c63 0 71 6 91 74l196 662
c5 16 12 36 12 44c0 27 -28 27 -68 27zM354 359c-49 0 -91 -49 -120 -106s-46 -122 -46 -154c0 -40 26 -77 70 -77c114 0 157 204 157 259c0 36 -19 78 -61 78z" />
    <glyph glyph-name="threequarters" unicode="&#xbe;" horiz-adv-x="771" 
d="M449 98l6 36l216 206h64l-73 -204c25 0 28 0 37 21h36l-19 -59h-68l-8 -23c-3 -9 -10 -29 -10 -35c0 -13 31 -13 48 -12l-9 -28h-184l9 28h18c28 0 32 -3 45 38l10 32h-118zM119 0l543 664h57l-547 -664h-53zM504 136h78l41 116zM207 579c0 -4 -6 -7 -18 -14
c-5 -3 -14 -9 -21 -9c-11 0 -22 21 -22 35c0 34 36 66 104 66c65 0 101 -28 101 -59c0 -45 -78 -77 -115 -93c57 -5 65 -52 65 -69c0 -77 -84 -126 -167 -126c-57 0 -93 27 -93 52c0 16 15 28 34 28c22 0 35 -12 41 -27c5 -13 10 -25 28 -25c52 0 84 93 84 124
c0 2 -2 25 -19 25c-11 0 -20 -6 -34 -15c-6 -4 -8 -5 -12 -5c-8 0 -17 6 -17 15c0 11 34 25 52 34c49 25 85 44 85 81c0 14 -12 32 -38 32c-25 0 -42 -15 -42 -35c0 -2 4 -13 4 -15z" />
    <glyph glyph-name="registered" unicode="&#xae;" horiz-adv-x="708" 
d="M187 529h176c88 0 111 -12 129 -24c15 -10 45 -37 45 -83c0 -12 0 -77 -87 -101l66 -122c15 -28 31 -44 51 -48v-17h-117l-100 180h-23v-97c0 -53 7 -64 59 -66v-17h-207v17c32 -1 51 2 51 66v231c0 51 -7 61 -43 64v17zM327 508v-169c5 -1 17 -2 27 -2c32 0 78 23 78 87
c0 84 -68 84 -87 84h-18zM372 674c190 0 347 -153 347 -346c0 -191 -156 -346 -347 -346s-346 155 -346 346c0 193 157 346 346 346zM372 630c-167 0 -302 -135 -302 -302s135 -302 302 -302s303 135 303 302s-136 302 -303 302z" />
    <glyph glyph-name="minus" unicode="&#x2212;" horiz-adv-x="667" 
d="M82 368h538v-90h-538v90z" />
    <glyph glyph-name="eth" unicode="&#xf0;" horiz-adv-x="521" 
d="M361 527l-101 -41l-15 40l101 41c-20 47 -35 70 -44 84l45 23c28 -35 36 -48 57 -84l72 29l15 -40l-67 -27c55 -103 62 -196 62 -241c0 -182 -108 -325 -272 -325c-134 0 -188 93 -188 173c0 124 113 255 257 255c46 0 77 -17 98 -34c2 41 1 78 -20 147zM294 373
c-104 0 -152 -180 -152 -251c0 -54 25 -95 73 -95c109 0 155 179 155 249c0 59 -26 97 -76 97z" />
    <glyph glyph-name="multiply" unicode="&#xd7;" horiz-adv-x="667" 
d="M163 575l189 -189l188 188l63 -63l-188 -188l189 -189l-64 -64l-189 189l-188 -188l-64 64l188 188l-188 188z" />
    <glyph glyph-name="copyright" unicode="&#xa9;" horiz-adv-x="708" 
d="M536 537v-129h-19c-18 94 -93 105 -120 105c-109 0 -126 -114 -126 -177c0 -48 2 -99 32 -137c21 -27 55 -46 92 -46c72 0 112 49 127 68v-35c-40 -42 -97 -62 -155 -62c-103 0 -206 65 -206 199c0 132 99 215 215 215c37 0 62 -8 96 -20c13 -5 17 -6 23 -6
c19 0 21 18 22 25h19zM372 674c190 0 347 -153 347 -346c0 -191 -156 -346 -347 -346s-346 155 -346 346c0 193 157 346 346 346zM372 630c-167 0 -302 -135 -302 -302s135 -302 302 -302s303 135 303 302s-136 302 -303 302z" />
    <glyph glyph-name="Aacute" unicode="&#xc1;" horiz-adv-x="615" 
d="M393 236h-208l-71 -104c-13 -19 -26 -41 -26 -56c0 -30 42 -31 60 -31h28l-14 -45h-237l14 45c50 4 96 58 140 120l359 509h85l-7 -552c-1 -63 18 -77 81 -77l-13 -45h-301l14 45c73 0 96 21 96 108v83zM218 281h175l5 259zM485 891h128l-144 -167h-35z" />
    <glyph glyph-name="Acircumflex" unicode="&#xc2;" horiz-adv-x="615" 
d="M393 236h-208l-71 -104c-13 -19 -26 -41 -26 -56c0 -30 42 -31 60 -31h28l-14 -45h-237l14 45c50 4 96 58 140 120l359 509h85l-7 -552c-1 -63 18 -77 81 -77l-13 -45h-301l14 45c73 0 96 21 96 108v83zM218 281h175l5 259zM498 834l-155 -106h-29l141 172h117l28 -172
h-28z" />
    <glyph glyph-name="Adieresis" unicode="&#xc4;" horiz-adv-x="615" 
d="M393 236h-208l-71 -104c-13 -19 -26 -41 -26 -56c0 -30 42 -31 60 -31h28l-14 -45h-237l14 45c50 4 96 58 140 120l359 509h85l-7 -552c-1 -63 18 -77 81 -77l-13 -45h-301l14 45c73 0 96 21 96 108v83zM218 281h175l5 259zM330 808c0 28 23 53 54 53c30 0 53 -25 53 -53
c0 -29 -24 -53 -53 -53s-54 23 -54 53zM519 808c0 28 22 53 53 53s53 -25 53 -53c0 -29 -24 -53 -53 -53s-53 24 -53 53z" />
    <glyph glyph-name="Agrave" unicode="&#xc0;" horiz-adv-x="615" 
d="M393 236h-208l-71 -104c-13 -19 -26 -41 -26 -56c0 -30 42 -31 60 -31h28l-14 -45h-237l14 45c50 4 96 58 140 120l359 509h85l-7 -552c-1 -63 18 -77 81 -77l-13 -45h-301l14 45c73 0 96 21 96 108v83zM218 281h175l5 259zM483 891l51 -167h-35l-144 167h128z" />
    <glyph glyph-name="Aring" unicode="&#xc5;" horiz-adv-x="615" 
d="M393 236h-208l-71 -104c-13 -19 -26 -41 -26 -56c0 -30 42 -31 60 -31h28l-14 -45h-237l14 45c50 4 96 58 140 120l359 509h85l-7 -552c-1 -63 18 -77 81 -77l-13 -45h-301l14 45c73 0 96 21 96 108v83zM218 281h175l5 259zM380 809c0 51 42 94 95 94c52 0 94 -42 94 -94
c0 -53 -43 -94 -94 -94c-52 0 -95 42 -95 94zM417 809c0 -32 26 -56 56 -56s56 24 56 56c0 31 -25 56 -56 56s-56 -25 -56 -56z" />
    <glyph glyph-name="Atilde" unicode="&#xc3;" horiz-adv-x="615" 
d="M393 236h-208l-71 -104c-13 -19 -26 -41 -26 -56c0 -30 42 -31 60 -31h28l-14 -45h-237l14 45c50 4 96 58 140 120l359 509h85l-7 -552c-1 -63 18 -77 81 -77l-13 -45h-301l14 45c73 0 96 21 96 108v83zM218 281h175l5 259zM325 743h-31c12 64 42 130 109 130
c25 0 47 -8 82 -25c40 -20 57 -28 80 -28c43 0 52 32 58 53h30c-9 -76 -51 -131 -108 -131c-24 0 -51 10 -91 30c-16 8 -56 24 -75 24c-41 0 -49 -33 -54 -53z" />
    <glyph glyph-name="Ccedilla" unicode="&#xc7;" horiz-adv-x="688" 
d="M343 -12l-14 -29c48 -6 80 -30 80 -76c0 -53 -44 -83 -90 -99c-50 -17 -89 -17 -168 -17l19 45c23 0 69 -2 96 9c23 8 42 25 42 48c0 34 -48 34 -62 34l47 88c-138 23 -213 137 -213 254c0 239 210 429 393 429c110 0 162 -65 180 -87c20 21 31 46 40 71h45l-49 -226h-47
c7 185 -118 197 -150 197c-158 0 -271 -255 -271 -429c0 -79 36 -162 127 -162c79 0 189 66 237 186h47l-65 -219h-41c1 11 2 25 2 44c0 12 -1 17 -2 23c-30 -33 -92 -80 -183 -84z" />
    <glyph glyph-name="Eacute" unicode="&#xc9;" horiz-adv-x="646" 
d="M293 319l-58 -188c-6 -18 -7 -29 -7 -39c0 -24 15 -44 106 -44c132 0 177 69 212 131h49l-55 -179h-532l14 45c53 0 66 41 76 74l126 414c7 22 9 29 9 39c0 38 -35 45 -62 45l13 45h461l5 -161h-46c-45 113 -76 113 -149 113h-72l-75 -247h33c92 0 111 27 133 98h48
l-80 -261h-48c6 19 12 38 12 60c0 55 -55 55 -81 55h-32zM471 891h128l-144 -167h-35z" />
    <glyph glyph-name="Ecircumflex" unicode="&#xca;" horiz-adv-x="646" 
d="M293 319l-58 -188c-6 -18 -7 -29 -7 -39c0 -24 15 -44 106 -44c132 0 177 69 212 131h49l-55 -179h-532l14 45c53 0 66 41 76 74l126 414c7 22 9 29 9 39c0 38 -35 45 -62 45l13 45h461l5 -161h-46c-45 113 -76 113 -149 113h-72l-75 -247h33c92 0 111 27 133 98h48
l-80 -261h-48c6 19 12 38 12 60c0 55 -55 55 -81 55h-32zM479 834l-155 -106h-29l141 172h117l28 -172h-28z" />
    <glyph glyph-name="Edieresis" unicode="&#xcb;" horiz-adv-x="646" 
d="M293 319l-58 -188c-6 -18 -7 -29 -7 -39c0 -24 15 -44 106 -44c132 0 177 69 212 131h49l-55 -179h-532l14 45c53 0 66 41 76 74l126 414c7 22 9 29 9 39c0 38 -35 45 -62 45l13 45h461l5 -161h-46c-45 113 -76 113 -149 113h-72l-75 -247h33c92 0 111 27 133 98h48
l-80 -261h-48c6 19 12 38 12 60c0 55 -55 55 -81 55h-32zM311 808c0 28 23 53 54 53c30 0 53 -25 53 -53c0 -29 -24 -53 -53 -53s-54 23 -54 53zM500 808c0 28 22 53 53 53s53 -25 53 -53c0 -29 -24 -53 -53 -53s-53 24 -53 53z" />
    <glyph glyph-name="Egrave" unicode="&#xc8;" horiz-adv-x="646" 
d="M293 319l-58 -188c-6 -18 -7 -29 -7 -39c0 -24 15 -44 106 -44c132 0 177 69 212 131h49l-55 -179h-532l14 45c53 0 66 41 76 74l126 414c7 22 9 29 9 39c0 38 -35 45 -62 45l13 45h461l5 -161h-46c-45 113 -76 113 -149 113h-72l-75 -247h33c92 0 111 27 133 98h48
l-80 -261h-48c6 19 12 38 12 60c0 55 -55 55 -81 55h-32zM464 891l51 -167h-35l-144 167h128z" />
    <glyph glyph-name="Iacute" unicode="&#xcd;" horiz-adv-x="385" 
d="M190 662h258l-14 -45c-43 -2 -55 -22 -71 -74l-124 -408c-8 -25 -9 -32 -9 -43c0 -38 37 -47 68 -47l-13 -45h-275l14 45c53 0 65 39 75 74l125 408c7 24 9 33 9 43c0 45 -47 46 -57 47zM320 891h128l-144 -167h-35z" />
    <glyph glyph-name="Icircumflex" unicode="&#xce;" horiz-adv-x="385" 
d="M190 662h258l-14 -45c-43 -2 -55 -22 -71 -74l-124 -408c-8 -25 -9 -32 -9 -43c0 -38 37 -47 68 -47l-13 -45h-275l14 45c53 0 65 39 75 74l125 408c7 24 9 33 9 43c0 45 -47 46 -57 47zM368 834l-155 -106h-29l141 172h117l28 -172h-28z" />
    <glyph glyph-name="Idieresis" unicode="&#xcf;" horiz-adv-x="385" 
d="M190 662h258l-14 -45c-43 -2 -55 -22 -71 -74l-124 -408c-8 -25 -9 -32 -9 -43c0 -38 37 -47 68 -47l-13 -45h-275l14 45c53 0 65 39 75 74l125 408c7 24 9 33 9 43c0 45 -47 46 -57 47zM200 808c0 28 23 53 54 53c30 0 53 -25 53 -53c0 -29 -24 -53 -53 -53
s-54 23 -54 53zM389 808c0 28 22 53 53 53s53 -25 53 -53c0 -29 -24 -53 -53 -53s-53 24 -53 53z" />
    <glyph glyph-name="Igrave" unicode="&#xcc;" horiz-adv-x="385" 
d="M190 662h258l-14 -45c-43 -2 -55 -22 -71 -74l-124 -408c-8 -25 -9 -32 -9 -43c0 -38 37 -47 68 -47l-13 -45h-275l14 45c53 0 65 39 75 74l125 408c7 24 9 33 9 43c0 45 -47 46 -57 47zM353 891l51 -167h-35l-144 167h128z" />
    <glyph glyph-name="Ntilde" unicode="&#xd1;" horiz-adv-x="729" 
d="M149 662h180l222 -493l95 311c5 17 19 55 19 77c0 20 -14 60 -83 60l14 45h231l-13 -45c-46 -4 -76 -12 -106 -111l-157 -511h-62l-224 496l-103 -338c-5 -17 -10 -33 -10 -50c0 -49 50 -58 80 -58l-14 -45h-222l14 45c68 10 88 74 103 124l119 392l-11 18
c-23 37 -36 38 -86 38zM357 743h-31c12 64 42 130 109 130c25 0 47 -8 82 -25c40 -20 57 -28 80 -28c43 0 52 32 58 53h30c-9 -76 -51 -131 -108 -131c-24 0 -51 10 -91 30c-16 8 -56 24 -75 24c-41 0 -49 -33 -54 -53z" />
    <glyph glyph-name="Oacute" unicode="&#xd3;" horiz-adv-x="792" 
d="M361 -12c-215 0 -284 152 -284 268c0 186 165 418 433 418c208 0 279 -146 279 -273c0 -178 -166 -413 -428 -413zM357 33c112 0 187 78 236 192c33 78 61 159 61 243c0 89 -35 161 -149 161c-78 0 -150 -38 -204 -136c-39 -71 -89 -199 -89 -304c0 -33 0 -156 145 -156z
M514 891h128l-144 -167h-35z" />
    <glyph glyph-name="Ocircumflex" unicode="&#xd4;" horiz-adv-x="792" 
d="M361 -12c-215 0 -284 152 -284 268c0 186 165 418 433 418c208 0 279 -146 279 -273c0 -178 -166 -413 -428 -413zM357 33c112 0 187 78 236 192c33 78 61 159 61 243c0 89 -35 161 -149 161c-78 0 -150 -38 -204 -136c-39 -71 -89 -199 -89 -304c0 -33 0 -156 145 -156z
M552 834l-155 -106h-29l141 172h117l28 -172h-28z" />
    <glyph glyph-name="Odieresis" unicode="&#xd6;" horiz-adv-x="792" 
d="M361 -12c-215 0 -284 152 -284 268c0 186 165 418 433 418c208 0 279 -146 279 -273c0 -178 -166 -413 -428 -413zM357 33c112 0 187 78 236 192c33 78 61 159 61 243c0 89 -35 161 -149 161c-78 0 -150 -38 -204 -136c-39 -71 -89 -199 -89 -304c0 -33 0 -156 145 -156z
M384 808c0 28 23 53 54 53c30 0 53 -25 53 -53c0 -29 -24 -53 -53 -53s-54 23 -54 53zM573 808c0 28 22 53 53 53s53 -25 53 -53c0 -29 -24 -53 -53 -53s-53 24 -53 53z" />
    <glyph glyph-name="Ograve" unicode="&#xd2;" horiz-adv-x="792" 
d="M361 -12c-215 0 -284 152 -284 268c0 186 165 418 433 418c208 0 279 -146 279 -273c0 -178 -166 -413 -428 -413zM357 33c112 0 187 78 236 192c33 78 61 159 61 243c0 89 -35 161 -149 161c-78 0 -150 -38 -204 -136c-39 -71 -89 -199 -89 -304c0 -33 0 -156 145 -156z
M547 891l51 -167h-35l-144 167h128z" />
    <glyph glyph-name="Otilde" unicode="&#xd5;" horiz-adv-x="792" 
d="M361 -12c-215 0 -284 152 -284 268c0 186 165 418 433 418c208 0 279 -146 279 -273c0 -178 -166 -413 -428 -413zM357 33c112 0 187 78 236 192c33 78 61 159 61 243c0 89 -35 161 -149 161c-78 0 -150 -38 -204 -136c-39 -71 -89 -199 -89 -304c0 -33 0 -156 145 -156z
M379 743h-31c12 64 42 130 109 130c25 0 47 -8 82 -25c40 -20 57 -28 80 -28c43 0 52 32 58 53h30c-9 -76 -51 -131 -108 -131c-24 0 -51 10 -91 30c-16 8 -56 24 -75 24c-41 0 -49 -33 -54 -53z" />
    <glyph glyph-name="Scaron" unicode="&#x160;" horiz-adv-x="552" 
d="M45 5l31 231h46c5 -156 100 -200 165 -200c59 0 100 45 100 99c0 55 -31 82 -109 156c-85 80 -112 126 -112 187c0 107 96 196 203 196c76 0 121 -40 145 -63c6 8 19 23 32 51h45l-30 -198h-47c-6 41 -24 162 -144 162c-57 0 -102 -33 -102 -89s46 -100 106 -151
c66 -57 125 -113 125 -200c0 -97 -80 -198 -215 -198c-59 0 -109 20 -162 72c-8 -8 -24 -39 -31 -55h-46zM403 794l155 106h29l-141 -172h-117l-28 172h28z" />
    <glyph glyph-name="Uacute" unicode="&#xda;" horiz-adv-x="688" 
d="M149 662h300l-14 -45c-65 0 -83 -8 -103 -73l-102 -336c-7 -24 -14 -50 -14 -74c0 -60 55 -96 122 -96c149 0 187 133 204 193l83 291c3 10 7 25 7 36c0 57 -62 58 -84 59l14 45h246l-14 -45c-71 -5 -100 -42 -118 -107l-78 -279c-25 -88 -68 -243 -278 -243
c-132 0 -232 64 -232 158c0 36 11 73 19 100l86 282c7 24 10 34 10 44c0 43 -51 44 -68 45zM512 891h128l-144 -167h-35z" />
    <glyph glyph-name="Ucircumflex" unicode="&#xdb;" horiz-adv-x="688" 
d="M149 662h300l-14 -45c-65 0 -83 -8 -103 -73l-102 -336c-7 -24 -14 -50 -14 -74c0 -60 55 -96 122 -96c149 0 187 133 204 193l83 291c3 10 7 25 7 36c0 57 -62 58 -84 59l14 45h246l-14 -45c-71 -5 -100 -42 -118 -107l-78 -279c-25 -88 -68 -243 -278 -243
c-132 0 -232 64 -232 158c0 36 11 73 19 100l86 282c7 24 10 34 10 44c0 43 -51 44 -68 45zM520 834l-155 -106h-29l141 172h117l28 -172h-28z" />
    <glyph glyph-name="Udieresis" unicode="&#xdc;" horiz-adv-x="688" 
d="M149 662h300l-14 -45c-65 0 -83 -8 -103 -73l-102 -336c-7 -24 -14 -50 -14 -74c0 -60 55 -96 122 -96c149 0 187 133 204 193l83 291c3 10 7 25 7 36c0 57 -62 58 -84 59l14 45h246l-14 -45c-71 -5 -100 -42 -118 -107l-78 -279c-25 -88 -68 -243 -278 -243
c-132 0 -232 64 -232 158c0 36 11 73 19 100l86 282c7 24 10 34 10 44c0 43 -51 44 -68 45zM352 808c0 28 23 53 54 53c30 0 53 -25 53 -53c0 -29 -24 -53 -53 -53s-54 23 -54 53zM541 808c0 28 22 53 53 53s53 -25 53 -53c0 -29 -24 -53 -53 -53s-53 24 -53 53z" />
    <glyph glyph-name="Ugrave" unicode="&#xd9;" horiz-adv-x="688" 
d="M149 662h300l-14 -45c-65 0 -83 -8 -103 -73l-102 -336c-7 -24 -14 -50 -14 -74c0 -60 55 -96 122 -96c149 0 187 133 204 193l83 291c3 10 7 25 7 36c0 57 -62 58 -84 59l14 45h246l-14 -45c-71 -5 -100 -42 -118 -107l-78 -279c-25 -88 -68 -243 -278 -243
c-132 0 -232 64 -232 158c0 36 11 73 19 100l86 282c7 24 10 34 10 44c0 43 -51 44 -68 45zM505 891l51 -167h-35l-144 167h128z" />
    <glyph glyph-name="Yacute" unicode="&#xdd;" horiz-adv-x="635" 
d="M278 288l-75 267c-12 46 -22 62 -87 62l13 45h292l-14 -45c-29 0 -75 0 -75 -46c0 -12 3 -22 7 -37l53 -194l113 159c25 35 37 55 37 74c0 44 -44 44 -68 44l13 45h244l-11 -45c-56 0 -86 -21 -147 -106l-161 -223l-47 -153c-7 -24 -9 -32 -9 -43c0 -47 52 -47 90 -47
l-14 -45h-326l14 45c74 0 86 10 106 74zM445 891h128l-144 -167h-35z" />
    <glyph glyph-name="Ydieresis" unicode="&#x178;" horiz-adv-x="635" 
d="M278 288l-75 267c-12 46 -22 62 -87 62l13 45h292l-14 -45c-29 0 -75 0 -75 -46c0 -12 3 -22 7 -37l53 -194l113 159c25 35 37 55 37 74c0 44 -44 44 -68 44l13 45h244l-11 -45c-56 0 -86 -21 -147 -106l-161 -223l-47 -153c-7 -24 -9 -32 -9 -43c0 -47 52 -47 90 -47
l-14 -45h-326l14 45c74 0 86 10 106 74zM305 808c0 28 23 53 54 53c30 0 53 -25 53 -53c0 -29 -24 -53 -53 -53s-54 23 -54 53zM494 808c0 28 22 53 53 53s53 -25 53 -53c0 -29 -24 -53 -53 -53s-53 24 -53 53z" />
    <glyph glyph-name="Zcaron" unicode="&#x17d;" horiz-adv-x="615" 
d="M167 662h507v-38l-489 -576h150c65 0 163 15 222 149h48l-61 -197h-526v47l484 567h-150c-39 0 -125 1 -192 -129h-47zM434 794l155 106h29l-141 -172h-117l-28 172h28z" />
    <glyph glyph-name="aacute" unicode="&#xe1;" horiz-adv-x="531" 
d="M487 402l-91 -298c-5 -16 -10 -35 -10 -39c0 -9 7 -15 14 -15c27 0 56 45 68 67h47c-37 -77 -97 -131 -159 -131c-81 0 -80 73 -80 105c-36 -42 -90 -105 -164 -105c-60 0 -85 56 -85 116c0 128 107 312 250 312c67 0 78 -50 84 -73l18 61h108zM291 370
c-79 0 -148 -163 -148 -245c0 -18 2 -59 37 -59c36 0 74 37 103 87c33 56 50 114 50 159c0 25 -7 58 -42 58zM323 643h128l-144 -167h-35z" />
    <glyph glyph-name="acircumflex" unicode="&#xe2;" horiz-adv-x="531" 
d="M487 402l-91 -298c-5 -16 -10 -35 -10 -39c0 -9 7 -15 14 -15c27 0 56 45 68 67h47c-37 -77 -97 -131 -159 -131c-81 0 -80 73 -80 105c-36 -42 -90 -105 -164 -105c-60 0 -85 56 -85 116c0 128 107 312 250 312c67 0 78 -50 84 -73l18 61h108zM291 370
c-79 0 -148 -163 -148 -245c0 -18 2 -59 37 -59c36 0 74 37 103 87c33 56 50 114 50 159c0 25 -7 58 -42 58zM361 586l-155 -106h-29l141 172h117l28 -172h-28z" />
    <glyph glyph-name="adieresis" unicode="&#xe4;" horiz-adv-x="531" 
d="M487 402l-91 -298c-5 -16 -10 -35 -10 -39c0 -9 7 -15 14 -15c27 0 56 45 68 67h47c-37 -77 -97 -131 -159 -131c-81 0 -80 73 -80 105c-36 -42 -90 -105 -164 -105c-60 0 -85 56 -85 116c0 128 107 312 250 312c67 0 78 -50 84 -73l18 61h108zM291 370
c-79 0 -148 -163 -148 -245c0 -18 2 -59 37 -59c36 0 74 37 103 87c33 56 50 114 50 159c0 25 -7 58 -42 58zM193 560c0 28 23 53 54 53c30 0 53 -25 53 -53c0 -29 -24 -53 -53 -53s-54 23 -54 53zM382 560c0 28 22 53 53 53s53 -25 53 -53c0 -29 -24 -53 -53 -53
s-53 24 -53 53z" />
    <glyph glyph-name="agrave" unicode="&#xe0;" horiz-adv-x="531" 
d="M487 402l-91 -298c-5 -16 -10 -35 -10 -39c0 -9 7 -15 14 -15c27 0 56 45 68 67h47c-37 -77 -97 -131 -159 -131c-81 0 -80 73 -80 105c-36 -42 -90 -105 -164 -105c-60 0 -85 56 -85 116c0 128 107 312 250 312c67 0 78 -50 84 -73l18 61h108zM291 370
c-79 0 -148 -163 -148 -245c0 -18 2 -59 37 -59c36 0 74 37 103 87c33 56 50 114 50 159c0 25 -7 58 -42 58zM346 643l51 -167h-35l-144 167h128z" />
    <glyph glyph-name="aring" unicode="&#xe5;" horiz-adv-x="531" 
d="M487 402l-91 -298c-5 -16 -10 -35 -10 -39c0 -9 7 -15 14 -15c27 0 56 45 68 67h47c-37 -77 -97 -131 -159 -131c-81 0 -80 73 -80 105c-36 -42 -90 -105 -164 -105c-60 0 -85 56 -85 116c0 128 107 312 250 312c67 0 78 -50 84 -73l18 61h108zM291 370
c-79 0 -148 -163 -148 -245c0 -18 2 -59 37 -59c36 0 74 37 103 87c33 56 50 114 50 159c0 25 -7 58 -42 58zM273 561c0 51 42 94 95 94c52 0 94 -42 94 -94c0 -53 -43 -94 -94 -94c-52 0 -95 42 -95 94zM310 561c0 -32 26 -56 56 -56s56 24 56 56c0 31 -25 56 -56 56
s-56 -25 -56 -56z" />
    <glyph glyph-name="atilde" unicode="&#xe3;" horiz-adv-x="531" 
d="M487 402l-91 -298c-5 -16 -10 -35 -10 -39c0 -9 7 -15 14 -15c27 0 56 45 68 67h47c-37 -77 -97 -131 -159 -131c-81 0 -80 73 -80 105c-36 -42 -90 -105 -164 -105c-60 0 -85 56 -85 116c0 128 107 312 250 312c67 0 78 -50 84 -73l18 61h108zM291 370
c-79 0 -148 -163 -148 -245c0 -18 2 -59 37 -59c36 0 74 37 103 87c33 56 50 114 50 159c0 25 -7 58 -42 58zM188 495h-31c12 64 42 130 109 130c25 0 47 -8 82 -25c40 -20 57 -28 80 -28c43 0 52 32 58 53h30c-9 -76 -51 -131 -108 -131c-24 0 -51 10 -91 30
c-16 8 -56 24 -75 24c-41 0 -49 -33 -54 -53z" />
    <glyph glyph-name="ccedilla" unicode="&#xe7;" horiz-adv-x="458" 
d="M170 -13l-20 -39c46 -3 75 -35 75 -67c0 -37 -32 -114 -193 -114h-30l13 41c71 -3 124 21 124 59c0 33 -33 38 -66 37l54 85c-58 5 -109 45 -109 122c0 135 123 303 301 303c81 0 127 -50 127 -102c0 -38 -24 -70 -63 -70c-29 0 -47 18 -47 42c0 9 1 15 4 26
c4 13 4 18 4 24c0 36 -37 39 -45 39c-95 0 -161 -185 -161 -260c0 -69 53 -69 65 -69c67 0 117 48 141 78h53c-37 -56 -126 -135 -227 -135z" />
    <glyph glyph-name="eacute" unicode="&#xe9;" horiz-adv-x="469" 
d="M344 123h52c-26 -39 -109 -137 -238 -137c-70 0 -142 36 -142 124c0 149 135 304 311 304c97 0 126 -40 126 -81c0 -39 -44 -147 -301 -184l-12 -1c-2 -10 -4 -21 -4 -36c0 -50 26 -68 68 -68c63 0 114 48 140 79zM150 192c139 23 200 85 200 143c0 18 -13 43 -42 43
c-98 0 -150 -161 -158 -186zM292 643h128l-144 -167h-35z" />
    <glyph glyph-name="ecircumflex" unicode="&#xea;" horiz-adv-x="469" 
d="M344 123h52c-26 -39 -109 -137 -238 -137c-70 0 -142 36 -142 124c0 149 135 304 311 304c97 0 126 -40 126 -81c0 -39 -44 -147 -301 -184l-12 -1c-2 -10 -4 -21 -4 -36c0 -50 26 -68 68 -68c63 0 114 48 140 79zM150 192c139 23 200 85 200 143c0 18 -13 43 -42 43
c-98 0 -150 -161 -158 -186zM330 586l-155 -106h-29l141 172h117l28 -172h-28z" />
    <glyph glyph-name="edieresis" unicode="&#xeb;" horiz-adv-x="469" 
d="M344 123h52c-26 -39 -109 -137 -238 -137c-70 0 -142 36 -142 124c0 149 135 304 311 304c97 0 126 -40 126 -81c0 -39 -44 -147 -301 -184l-12 -1c-2 -10 -4 -21 -4 -36c0 -50 26 -68 68 -68c63 0 114 48 140 79zM150 192c139 23 200 85 200 143c0 18 -13 43 -42 43
c-98 0 -150 -161 -158 -186zM162 560c0 28 23 53 54 53c30 0 53 -25 53 -53c0 -29 -24 -53 -53 -53s-54 23 -54 53zM351 560c0 28 22 53 53 53s53 -25 53 -53c0 -29 -24 -53 -53 -53s-53 24 -53 53z" />
    <glyph glyph-name="egrave" unicode="&#xe8;" horiz-adv-x="469" 
d="M344 123h52c-26 -39 -109 -137 -238 -137c-70 0 -142 36 -142 124c0 149 135 304 311 304c97 0 126 -40 126 -81c0 -39 -44 -147 -301 -184l-12 -1c-2 -10 -4 -21 -4 -36c0 -50 26 -68 68 -68c63 0 114 48 140 79zM150 192c139 23 200 85 200 143c0 18 -13 43 -42 43
c-98 0 -150 -161 -158 -186zM315 643l51 -167h-35l-144 167h128z" />
    <glyph glyph-name="iacute" unicode="&#xed;" horiz-adv-x="313" 
d="M56 279h-43c40 88 108 135 167 135c42 0 75 -22 75 -58c0 -19 -4 -38 -11 -56l-76 -205c-5 -13 -8 -25 -8 -34s7 -17 15 -17c18 0 37 15 69 73h45c-13 -28 -65 -131 -161 -131c-61 0 -82 36 -82 68c0 28 7 49 18 79l63 172c4 10 9 23 9 32c0 7 -7 14 -14 14
c-26 0 -58 -56 -66 -72zM214 643h128l-144 -167h-35z" />
    <glyph glyph-name="icircumflex" unicode="&#xee;" horiz-adv-x="313" 
d="M56 279h-43c40 88 108 135 167 135c42 0 75 -22 75 -58c0 -19 -4 -38 -11 -56l-76 -205c-5 -13 -8 -25 -8 -34s7 -17 15 -17c18 0 37 15 69 73h45c-13 -28 -65 -131 -161 -131c-61 0 -82 36 -82 68c0 28 7 49 18 79l63 172c4 10 9 23 9 32c0 7 -7 14 -14 14
c-26 0 -58 -56 -66 -72zM252 586l-155 -106h-29l141 172h117l28 -172h-28z" />
    <glyph glyph-name="idieresis" unicode="&#xef;" horiz-adv-x="313" 
d="M56 279h-43c40 88 108 135 167 135c42 0 75 -22 75 -58c0 -19 -4 -38 -11 -56l-76 -205c-5 -13 -8 -25 -8 -34s7 -17 15 -17c18 0 37 15 69 73h45c-13 -28 -65 -131 -161 -131c-61 0 -82 36 -82 68c0 28 7 49 18 79l63 172c4 10 9 23 9 32c0 7 -7 14 -14 14
c-26 0 -58 -56 -66 -72zM84 560c0 28 23 53 54 53c30 0 53 -25 53 -53c0 -29 -24 -53 -53 -53s-54 23 -54 53zM273 560c0 28 22 53 53 53s53 -25 53 -53c0 -29 -24 -53 -53 -53s-53 24 -53 53z" />
    <glyph glyph-name="igrave" unicode="&#xec;" horiz-adv-x="313" 
d="M56 279h-43c40 88 108 135 167 135c42 0 75 -22 75 -58c0 -19 -4 -38 -11 -56l-76 -205c-5 -13 -8 -25 -8 -34s7 -17 15 -17c18 0 37 15 69 73h45c-13 -28 -65 -131 -161 -131c-61 0 -82 36 -82 68c0 28 7 49 18 79l63 172c4 10 9 23 9 32c0 7 -7 14 -14 14
c-26 0 -58 -56 -66 -72zM237 643l51 -167h-35l-144 167h128z" />
    <glyph glyph-name="ntilde" unicode="&#xf1;" horiz-adv-x="583" 
d="M27 0l88 286c3 11 12 39 12 50c0 5 -2 18 -14 18c-30 0 -57 -54 -66 -76h-41c18 52 66 136 155 136c56 0 76 -39 76 -64c0 -18 -8 -56 -18 -87l-17 -50c59 91 135 201 232 201c56 0 72 -43 72 -69c0 -22 -7 -41 -12 -59l-51 -170c-4 -14 -9 -29 -9 -44c0 -6 4 -14 12 -14
c17 0 48 26 74 70h49c-21 -38 -83 -135 -176 -135c-49 0 -78 27 -78 64c0 20 4 35 12 61l36 118c9 29 15 50 15 66c0 12 -8 28 -25 28c-52 0 -151 -146 -210 -330h-116zM214 495h-31c12 64 42 130 109 130c25 0 47 -8 82 -25c40 -20 57 -28 80 -28c43 0 52 32 58 53h30
c-9 -76 -51 -131 -108 -131c-24 0 -51 10 -91 30c-16 8 -56 24 -75 24c-41 0 -49 -33 -54 -53z" />
    <glyph glyph-name="oacute" unicode="&#xf3;" horiz-adv-x="531" 
d="M26 162c0 134 119 252 269 252c126 0 191 -83 191 -172c0 -130 -108 -256 -268 -256c-116 0 -192 72 -192 176zM294 373c-104 0 -152 -180 -152 -251c0 -54 25 -95 73 -95c109 0 155 179 155 249c0 59 -26 97 -76 97zM323 643h128l-144 -167h-35z" />
    <glyph glyph-name="ocircumflex" unicode="&#xf4;" horiz-adv-x="531" 
d="M26 162c0 134 119 252 269 252c126 0 191 -83 191 -172c0 -130 -108 -256 -268 -256c-116 0 -192 72 -192 176zM294 373c-104 0 -152 -180 -152 -251c0 -54 25 -95 73 -95c109 0 155 179 155 249c0 59 -26 97 -76 97zM361 586l-155 -106h-29l141 172h117l28 -172h-28z
" />
    <glyph glyph-name="odieresis" unicode="&#xf6;" horiz-adv-x="531" 
d="M26 162c0 134 119 252 269 252c126 0 191 -83 191 -172c0 -130 -108 -256 -268 -256c-116 0 -192 72 -192 176zM294 373c-104 0 -152 -180 -152 -251c0 -54 25 -95 73 -95c109 0 155 179 155 249c0 59 -26 97 -76 97zM193 560c0 28 23 53 54 53c30 0 53 -25 53 -53
c0 -29 -24 -53 -53 -53s-54 23 -54 53zM382 560c0 28 22 53 53 53s53 -25 53 -53c0 -29 -24 -53 -53 -53s-53 24 -53 53z" />
    <glyph glyph-name="ograve" unicode="&#xf2;" horiz-adv-x="531" 
d="M26 162c0 134 119 252 269 252c126 0 191 -83 191 -172c0 -130 -108 -256 -268 -256c-116 0 -192 72 -192 176zM294 373c-104 0 -152 -180 -152 -251c0 -54 25 -95 73 -95c109 0 155 179 155 249c0 59 -26 97 -76 97zM346 643l51 -167h-35l-144 167h128z" />
    <glyph glyph-name="otilde" unicode="&#xf5;" horiz-adv-x="531" 
d="M26 162c0 134 119 252 269 252c126 0 191 -83 191 -172c0 -130 -108 -256 -268 -256c-116 0 -192 72 -192 176zM294 373c-104 0 -152 -180 -152 -251c0 -54 25 -95 73 -95c109 0 155 179 155 249c0 59 -26 97 -76 97zM188 495h-31c12 64 42 130 109 130
c25 0 47 -8 82 -25c40 -20 57 -28 80 -28c43 0 52 32 58 53h30c-9 -76 -51 -131 -108 -131c-24 0 -51 10 -91 30c-16 8 -56 24 -75 24c-41 0 -49 -33 -54 -53z" />
    <glyph glyph-name="scaron" unicode="&#x161;" horiz-adv-x="458" 
d="M106 297c0 35 26 117 186 117c126 0 150 -52 150 -83c0 -24 -16 -50 -50 -50c-36 0 -44 23 -57 62c-5 15 -12 35 -54 35c-33 0 -66 -17 -66 -48c0 -30 28 -54 66 -86c48 -40 91 -73 91 -132c0 -60 -47 -126 -190 -126c-147 0 -174 78 -174 104c0 27 20 55 55 55
c48 0 55 -47 57 -64c3 -25 7 -59 65 -59c45 0 75 25 75 59c0 14 -3 30 -37 59c-73 62 -117 103 -117 157zM306 546l155 106h29l-141 -172h-117l-28 172h28z" />
    <glyph glyph-name="uacute" unicode="&#xfa;" horiz-adv-x="583" 
d="M38 276h-45c24 39 82 133 176 133c26 0 74 -9 74 -70c0 -15 -3 -33 -6 -43l-40 -130c-5 -16 -14 -43 -14 -65c0 -12 8 -30 25 -30c42 0 127 93 208 329h116l-91 -298c-4 -14 -9 -30 -9 -38c0 -9 7 -18 15 -18c29 0 57 62 64 77h46c-12 -29 -58 -137 -160 -137
c-59 0 -73 41 -73 71c0 19 5 37 17 77l16 55c-44 -72 -127 -203 -231 -203c-50 0 -72 34 -72 67c0 26 7 48 14 70l49 161c3 9 10 33 10 42c0 5 -3 18 -16 18c-31 0 -65 -56 -73 -68zM349 643h128l-144 -167h-35z" />
    <glyph glyph-name="ucircumflex" unicode="&#xfb;" horiz-adv-x="583" 
d="M38 276h-45c24 39 82 133 176 133c26 0 74 -9 74 -70c0 -15 -3 -33 -6 -43l-40 -130c-5 -16 -14 -43 -14 -65c0 -12 8 -30 25 -30c42 0 127 93 208 329h116l-91 -298c-4 -14 -9 -30 -9 -38c0 -9 7 -18 15 -18c29 0 57 62 64 77h46c-12 -29 -58 -137 -160 -137
c-59 0 -73 41 -73 71c0 19 5 37 17 77l16 55c-44 -72 -127 -203 -231 -203c-50 0 -72 34 -72 67c0 26 7 48 14 70l49 161c3 9 10 33 10 42c0 5 -3 18 -16 18c-31 0 -65 -56 -73 -68zM387 586l-155 -106h-29l141 172h117l28 -172h-28z" />
    <glyph glyph-name="udieresis" unicode="&#xfc;" horiz-adv-x="583" 
d="M38 276h-45c24 39 82 133 176 133c26 0 74 -9 74 -70c0 -15 -3 -33 -6 -43l-40 -130c-5 -16 -14 -43 -14 -65c0 -12 8 -30 25 -30c42 0 127 93 208 329h116l-91 -298c-4 -14 -9 -30 -9 -38c0 -9 7 -18 15 -18c29 0 57 62 64 77h46c-12 -29 -58 -137 -160 -137
c-59 0 -73 41 -73 71c0 19 5 37 17 77l16 55c-44 -72 -127 -203 -231 -203c-50 0 -72 34 -72 67c0 26 7 48 14 70l49 161c3 9 10 33 10 42c0 5 -3 18 -16 18c-31 0 -65 -56 -73 -68zM219 560c0 28 23 53 54 53c30 0 53 -25 53 -53c0 -29 -24 -53 -53 -53s-54 23 -54 53z
M408 560c0 28 22 53 53 53s53 -25 53 -53c0 -29 -24 -53 -53 -53s-53 24 -53 53z" />
    <glyph glyph-name="ugrave" unicode="&#xf9;" horiz-adv-x="583" 
d="M38 276h-45c24 39 82 133 176 133c26 0 74 -9 74 -70c0 -15 -3 -33 -6 -43l-40 -130c-5 -16 -14 -43 -14 -65c0 -12 8 -30 25 -30c42 0 127 93 208 329h116l-91 -298c-4 -14 -9 -30 -9 -38c0 -9 7 -18 15 -18c29 0 57 62 64 77h46c-12 -29 -58 -137 -160 -137
c-59 0 -73 41 -73 71c0 19 5 37 17 77l16 55c-44 -72 -127 -203 -231 -203c-50 0 -72 34 -72 67c0 26 7 48 14 70l49 161c3 9 10 33 10 42c0 5 -3 18 -16 18c-31 0 -65 -56 -73 -68zM312 643l51 -167h-35l-144 167h128z" />
    <glyph glyph-name="yacute" unicode="&#xfd;" horiz-adv-x="531" 
d="M56 254h-40c17 152 104 160 127 160c110 0 128 -159 128 -270c0 -46 -2 -103 -10 -150c29 34 80 91 94 112c22 33 51 80 51 127c0 23 -5 36 -17 66c-14 35 -17 46 -17 62c0 33 21 53 42 53c32 0 65 -32 65 -92c0 -235 -362 -567 -562 -567c-40 0 -80 16 -80 54
c0 30 28 48 56 48c25 0 36 -5 61 -14c9 -3 38 -14 61 -14c50 0 84 38 102 69c20 35 40 85 40 198c0 52 -5 147 -19 203c-5 19 -18 41 -35 41c-38 0 -45 -67 -47 -86zM323 643h128l-144 -167h-35z" />
    <glyph glyph-name="ydieresis" unicode="&#xff;" horiz-adv-x="531" 
d="M56 254h-40c17 152 104 160 127 160c110 0 128 -159 128 -270c0 -46 -2 -103 -10 -150c29 34 80 91 94 112c22 33 51 80 51 127c0 23 -5 36 -17 66c-14 35 -17 46 -17 62c0 33 21 53 42 53c32 0 65 -32 65 -92c0 -235 -362 -567 -562 -567c-40 0 -80 16 -80 54
c0 30 28 48 56 48c25 0 36 -5 61 -14c9 -3 38 -14 61 -14c50 0 84 38 102 69c20 35 40 85 40 198c0 52 -5 147 -19 203c-5 19 -18 41 -35 41c-38 0 -45 -67 -47 -86zM193 560c0 28 23 53 54 53c30 0 53 -25 53 -53c0 -29 -24 -53 -53 -53s-54 23 -54 53zM382 560
c0 28 22 53 53 53s53 -25 53 -53c0 -29 -24 -53 -53 -53s-53 24 -53 53z" />
    <glyph glyph-name="zcaron" unicode="&#x17e;" horiz-adv-x="490" 
d="M122 287h-42c12 28 55 127 150 127c27 0 48 -8 82 -28c30 -17 38 -24 56 -24c26 0 38 19 45 31c7 11 13 21 27 21c20 0 26 -16 26 -24c0 -32 -93 -133 -233 -230c-59 -41 -71 -49 -103 -75c27 8 48 16 95 16c34 0 60 -7 75 -11c22 -6 27 -6 33 -6c35 0 49 23 59 39h44
c-18 -48 -71 -137 -165 -137c-33 0 -58 12 -80 26c-25 16 -49 32 -76 32c-25 0 -40 -18 -46 -28c-11 -19 -18 -30 -34 -30c-14 0 -24 13 -24 24c0 43 88 106 195 184c85 62 119 89 158 126c-13 -6 -43 -14 -77 -14c-26 0 -36 3 -69 11c-22 5 -33 7 -41 7
c-34 0 -45 -20 -55 -37zM322 546l155 106h29l-141 -172h-117l-28 172h28z" />
    <glyph glyph-name="twodotenleader" unicode="&#x2025;" horiz-adv-x="500" 
d="M374 113c35 0 64 -28 64 -63s-29 -64 -64 -64s-63 29 -63 64s28 63 63 63zM125 113c35 0 64 -28 64 -63s-29 -64 -64 -64s-63 29 -63 64s28 63 63 63z" />
    <glyph glyph-name="onedotenleader" unicode="&#x2024;" horiz-adv-x="500" 
d="M249 113c35 0 64 -28 64 -63s-29 -64 -64 -64s-63 29 -63 64s28 63 63 63z" />
    <glyph glyph-name="colonmonetary" unicode="&#x20a1;" horiz-adv-x="688" 
d="M270 -4l-31 -95h-44l35 108c-110 50 -150 153 -150 237c0 173 127 393 366 429l6 17h44l-6 -17c23 -2 34 -3 61 -13l10 30h44l-15 -47c20 -13 38 -26 63 -58c20 21 31 46 40 71h45l-49 -226h-47c2 44 5 120 -66 172l-181 -559c12 3 135 40 190 179h47l-65 -219h-41
c1 11 2 25 2 44c0 12 -1 17 -2 23c-51 -55 -116 -76 -148 -81l-30 -90h-44l28 86c-29 1 -46 4 -62 9zM475 628l-186 -575c25 -14 44 -14 60 -14l189 583c-30 9 -47 7 -63 6zM254 84l172 529c-156 -80 -205 -320 -205 -409c0 -56 13 -93 33 -120z" />
    <glyph glyph-name="figuredash" unicode="&#x2012;" horiz-adv-x="500" 
d="M-6 295h512v-90h-512v90z" />
    <glyph glyph-name="oneeighth" unicode="&#x215b;" horiz-adv-x="771" 
d="M596 160c-11 0 -29 -7 -39 -25c-13 -23 -28 -63 -28 -87c0 -11 1 -28 28 -28c23 0 34 9 44 30c15 31 24 69 24 83c0 12 -3 27 -29 27zM640 174v-2c33 -11 54 -35 54 -70c0 -49 -49 -110 -133 -110c-55 0 -107 29 -107 82c0 62 55 99 111 102v2c-37 15 -45 49 -45 64
c0 42 41 97 122 97c67 0 95 -41 95 -75c0 -42 -37 -82 -97 -90zM645 311c-9 0 -23 -5 -32 -22c-7 -13 -24 -61 -24 -79c0 -11 4 -22 21 -22c25 0 34 21 37 30c6 12 21 58 21 72c0 15 -11 21 -23 21zM119 0l543 664h57l-547 -664h-53zM329 657l-94 -266c-7 -20 -9 -26 -9 -32
c0 -11 5 -11 47 -13l-10 -28h-184l11 28h18c30 0 31 0 44 38l66 188c5 12 5 14 5 19c0 8 -5 13 -35 13h-29l10 28c77 5 99 10 126 25h34z" />
    <glyph glyph-name="threeeighths" unicode="&#x215c;" horiz-adv-x="771" 
d="M596 160c-11 0 -29 -7 -39 -25c-13 -23 -28 -63 -28 -87c0 -11 1 -28 28 -28c23 0 34 9 44 30c15 31 24 69 24 83c0 12 -3 27 -29 27zM640 174v-2c33 -11 54 -35 54 -70c0 -49 -49 -110 -133 -110c-55 0 -107 29 -107 82c0 62 55 99 111 102v2c-37 15 -45 49 -45 64
c0 42 41 97 122 97c67 0 95 -41 95 -75c0 -42 -37 -82 -97 -90zM645 311c-9 0 -23 -5 -32 -22c-7 -13 -24 -61 -24 -79c0 -11 4 -22 21 -22c25 0 34 21 37 30c6 12 21 58 21 72c0 15 -11 21 -23 21zM119 0l543 664h57l-547 -664h-53zM239 507v-2c52 -7 62 -48 62 -69
c0 -77 -84 -126 -167 -126c-57 0 -93 27 -93 52c0 16 15 28 34 28c28 0 36 -17 41 -27c5 -13 10 -25 28 -25c53 0 84 95 84 124c0 2 -2 25 -19 25c-8 0 -39 -20 -46 -20c-8 0 -17 6 -17 15s20 19 36 26c62 31 100 51 100 89c0 14 -11 32 -37 32c-25 0 -42 -15 -42 -35
c0 -2 4 -13 4 -15c0 -4 -30 -23 -39 -23c-11 0 -22 21 -22 35c0 34 36 66 104 66c65 0 101 -28 101 -59c0 -46 -82 -79 -112 -91z" />
    <glyph glyph-name="fiveeighths" unicode="&#x215d;" horiz-adv-x="771" 
d="M596 160c-11 0 -29 -7 -39 -25c-13 -23 -28 -63 -28 -87c0 -11 1 -28 28 -28c23 0 34 9 44 30c15 31 24 69 24 83c0 12 -3 27 -29 27zM640 174v-2c33 -11 54 -35 54 -70c0 -49 -49 -110 -133 -110c-55 0 -107 29 -107 82c0 62 55 99 111 102v2c-37 15 -45 49 -45 64
c0 42 41 97 122 97c67 0 95 -41 95 -75c0 -42 -37 -82 -97 -90zM645 311c-9 0 -23 -5 -32 -22c-7 -13 -24 -61 -24 -79c0 -11 4 -22 21 -22c25 0 34 21 37 30c6 12 21 58 21 72c0 15 -11 21 -23 21zM119 0l543 664h57l-547 -664h-53zM182 651h184l-9 -20
c-15 -34 -31 -34 -57 -34h-100l-21 -54c9 4 21 10 41 10c42 0 92 -32 92 -96c0 -87 -89 -147 -172 -147c-53 0 -93 24 -93 49c0 18 18 28 35 28c23 0 33 -17 39 -26c8 -14 12 -23 27 -23c64 0 95 131 95 157c0 5 0 30 -30 30c-24 0 -44 -20 -59 -42h-37z" />
    <glyph glyph-name="seveneighths" unicode="&#x215e;" horiz-adv-x="771" 
d="M595 160c-11 0 -29 -7 -39 -25c-13 -23 -28 -63 -28 -87c0 -11 1 -28 28 -28c23 0 34 9 44 30c15 31 24 69 24 83c0 12 -3 27 -29 27zM639 174v-2c33 -11 54 -35 54 -70c0 -49 -49 -110 -133 -110c-55 0 -107 29 -107 82c0 62 55 99 111 102v2c-37 15 -45 49 -45 64
c0 42 41 97 122 97c67 0 95 -41 95 -75c0 -42 -37 -82 -97 -90zM644 311c-9 0 -23 -5 -32 -22c-7 -13 -24 -61 -24 -79c0 -11 4 -22 21 -22c25 0 34 21 37 30c6 12 21 58 21 72c0 15 -11 21 -23 21zM108 0l542 664h57l-546 -664h-53zM168 670h37c-2 -5 -4 -14 -4 -15
c0 -4 3 -4 5 -4h176v-14l-180 -267c-31 -45 -42 -60 -70 -60c-17 0 -33 10 -33 25c0 16 10 26 35 55l179 207h-90c-39 0 -43 0 -55 -30h-36z" />
    <glyph glyph-name="onethird" unicode="&#x2153;" horiz-adv-x="771" 
d="M127 0l543 664h57l-547 -664h-53zM638 189v-2c52 -7 62 -48 62 -69c0 -77 -84 -126 -167 -126c-57 0 -93 27 -93 52c0 16 15 28 34 28c28 0 36 -17 41 -27c5 -13 10 -25 28 -25c53 0 84 95 84 124c0 2 -2 25 -19 25c-8 0 -39 -20 -46 -20c-8 0 -17 6 -17 15s20 19 36 26
c62 31 100 51 100 89c0 14 -11 32 -37 32c-25 0 -42 -15 -42 -35c0 -2 4 -13 4 -15c0 -4 -30 -23 -39 -23c-11 0 -22 21 -22 35c0 34 36 66 104 66c65 0 101 -28 101 -59c0 -46 -82 -79 -112 -91zM337 657l-94 -266c-7 -20 -9 -26 -9 -32c0 -11 5 -11 47 -13l-10 -28h-184
l11 28h18c30 0 31 0 44 38l66 188c5 12 5 14 5 19c0 8 -5 13 -35 13h-29l10 28c77 5 99 10 126 25h34z" />
    <glyph glyph-name="twothirds" unicode="&#x2154;" horiz-adv-x="771" 
d="M119 0l543 664h57l-547 -664h-53zM630 189v-2c52 -7 62 -48 62 -69c0 -77 -84 -126 -167 -126c-57 0 -93 27 -93 52c0 16 15 28 34 28c28 0 36 -17 41 -27c5 -13 10 -25 28 -25c53 0 84 95 84 124c0 2 -2 25 -19 25c-8 0 -39 -20 -46 -20c-8 0 -17 6 -17 15s20 19 36 26
c62 31 100 51 100 89c0 14 -11 32 -37 32c-25 0 -42 -15 -42 -35c0 -2 4 -13 4 -15c0 -4 -30 -23 -39 -23c-11 0 -22 21 -22 35c0 34 36 66 104 66c65 0 101 -28 101 -59c0 -46 -82 -79 -112 -91zM254 302h-39c1 1 5 11 5 12c0 3 -2 3 -6 3l-19 1h-149l13 37
c32 23 105 80 148 120c33 31 59 74 59 108c0 25 -14 46 -46 46c-18 0 -44 -6 -44 -31c0 -10 5 -17 14 -25c1 -1 9 -9 9 -10c0 -4 -30 -23 -46 -23c-13 0 -36 21 -36 47c0 33 38 70 113 70c72 0 115 -32 115 -76c0 -76 -77 -123 -218 -208v-2h153z" />
    <glyph glyph-name="dollar.oldstyle" unicode="&#xf724;" horiz-adv-x="323" 
d="M109 40l48 158c-44 46 -74 78 -74 133c0 61 50 131 153 126l3 12h43l-6 -19c35 -10 70 -41 70 -72c0 -14 -13 -30 -31 -30c-17 0 -28 13 -31 18c-4 5 -19 30 -24 34l-42 -138c16 -17 43 -45 48 -52c17 -24 30 -52 30 -81c0 -44 -36 -137 -161 -138l-18 -59h-42l20 64
c-31 7 -87 37 -87 76c0 17 13 32 33 32c23 0 33 -18 43 -36c12 -22 18 -25 25 -28zM186 294l37 122c-51 -4 -65 -39 -65 -62c0 -30 20 -52 28 -60zM189 165l-41 -133c55 1 75 32 75 62c0 31 -19 53 -34 71z" />
    <glyph glyph-name="dollar.superior" unicode="&#xf6e4;" horiz-adv-x="281" 
d="M152 353l43 121c-39 34 -64 61 -64 99c0 42 37 96 132 94l3 9h38l-5 -14c60 -18 61 -51 61 -52c0 -9 -9 -23 -27 -23c-13 0 -22 7 -26 12c-4 4 -18 23 -21 27l-37 -106c28 -23 68 -57 68 -97c0 -39 -29 -69 -54 -84c-26 -15 -46 -18 -86 -21l-15 -44h-38l17 48
c-56 16 -75 38 -75 56c0 13 11 23 28 23c20 0 28 -11 33 -18c12 -18 15 -23 25 -30zM220 545l33 94c-44 -4 -56 -30 -56 -48c0 -20 11 -33 23 -46zM223 448l-36 -102c20 2 65 5 65 49c0 23 -14 38 -29 53z" />
    <glyph glyph-name="parenleft.superior" unicode="&#x207d;" horiz-adv-x="167" 
d="M159 186l-37 -14c-18 38 -43 111 -43 191c0 190 129 290 221 361l29 -26c-54 -45 -93 -78 -139 -195c-47 -120 -47 -200 -47 -215c0 -7 0 -56 16 -102z" />
    <glyph glyph-name="parenright.superior" unicode="&#x207e;" horiz-adv-x="167" 
d="M134 710l38 14c39 -89 43 -168 43 -194c0 -188 -133 -290 -222 -358l-29 26c54 45 93 78 139 195c48 120 48 201 48 215c0 10 -1 57 -17 102z" />
    <glyph glyph-name="zero.oldstyle" unicode="&#xf730;" horiz-adv-x="479" 
d="M27 140c0 193 143 300 260 300c16 0 145 -4 145 -157c0 -172 -123 -297 -260 -297c-86 0 -145 60 -145 154zM142 183c-10 -36 -21 -68 -21 -106c0 -24 19 -49 56 -49c59 0 82 44 107 114c8 22 54 154 54 206c0 34 -25 50 -54 50c-63 0 -97 -61 -142 -215z" />
    <glyph glyph-name="one.oldstyle" unicode="&#xf731;" horiz-adv-x="479" 
d="M437 424l-12 -42c-58 -1 -82 -2 -103 -70l-60 -195c-4 -14 -6 -20 -6 -30c0 -39 45 -43 66 -45l-11 -42h-284l13 42c78 2 81 10 103 70l54 173c8 26 13 44 13 57c0 35 -52 39 -67 40l12 42h282z" />
    <glyph glyph-name="two.oldstyle" unicode="&#xf732;" horiz-adv-x="479" 
d="M360 81l-32 -112h-44c0 30 -7 31 -37 31h-250l18 62c76 34 147 77 162 87c89 59 152 115 152 178c0 38 -31 68 -75 68c-36 0 -83 -21 -83 -61c0 -20 11 -36 23 -48c2 -3 17 -15 17 -18c0 -7 -55 -39 -75 -39c-17 0 -37 36 -37 71c0 60 51 140 187 140
c79 0 159 -34 159 -103c0 -109 -101 -157 -306 -254v-2h221z" />
    <glyph glyph-name="three.oldstyle" unicode="&#xf733;" horiz-adv-x="479" 
d="M183 302l3 -10c0 -11 -56 -42 -57 -42c-5 0 -27 29 -27 64c0 71 69 126 173 126c109 0 156 -60 156 -107c0 -92 -126 -149 -202 -183v-2c106 -6 116 -99 116 -132c0 -158 -150 -238 -276 -238c-83 0 -163 38 -163 98c0 26 20 45 42 45c30 0 42 -23 58 -52
c8 -14 27 -49 69 -49c137 0 164 219 164 249c0 26 -16 51 -41 51c-19 0 -44 -18 -44 -19c-24 -18 -27 -20 -34 -20s-21 9 -21 20c0 17 16 26 88 66c94 52 147 100 147 159c0 46 -37 72 -71 72c-35 0 -83 -28 -83 -77c0 -7 1 -13 3 -19z" />
    <glyph glyph-name="four.oldstyle" unicode="&#xf734;" horiz-adv-x="479" 
d="M403 54l-17 -54h-83l-31 -99c-3 -10 -6 -22 -6 -34c0 -36 36 -40 61 -43l-10 -42h-280l12 42c63 1 84 1 107 77l30 99h-190l15 87l343 357h85l-122 -390h86zM38 54h164l77 249l-2 2z" />
    <glyph glyph-name="five.oldstyle" unicode="&#xf735;" horiz-adv-x="479" 
d="M108 110h-43l105 314h289c-26 -81 -34 -81 -62 -81h-209l-48 -138l2 -2c15 12 41 33 86 33c85 0 147 -80 147 -182c0 -174 -158 -278 -282 -278c-52 0 -151 24 -151 89c0 20 13 48 42 48c30 0 42 -25 53 -46c12 -23 26 -49 63 -49c130 0 175 265 175 309c0 3 0 67 -59 67
c-53 0 -81 -43 -108 -84z" />
    <glyph glyph-name="six.oldstyle" unicode="&#xf736;" horiz-adv-x="479" 
d="M229 419c35 14 51 19 73 19c49 0 132 -31 132 -156c0 -158 -114 -296 -260 -296c-88 0 -143 66 -143 149c0 127 72 275 119 352c65 106 147 167 258 167c56 0 111 -26 111 -80c0 -20 -19 -39 -37 -39c-30 0 -49 33 -50 34c-12 22 -21 39 -52 39c-48 0 -90 -46 -151 -189z
M140 163c-13 -46 -15 -73 -15 -83c0 -37 22 -52 56 -52c55 0 81 55 106 123c17 47 53 150 53 190c0 31 -21 57 -55 57c-50 0 -88 -25 -145 -235z" />
    <glyph glyph-name="seven.oldstyle" unicode="&#xf737;" horiz-adv-x="479" 
d="M115 469h44c0 -3 -7 -28 -7 -31c0 -12 12 -14 46 -14h259v-24l-320 -537c-18 -31 -50 -87 -93 -87c0 0 -47 3 -47 47c0 27 10 40 58 102l312 406h-192c-53 0 -66 -27 -76 -62h-44z" />
    <glyph glyph-name="eight.oldstyle" unicode="&#xf738;" horiz-adv-x="479" 
d="M306 337v-2c81 -18 111 -77 111 -143c0 -93 -79 -206 -221 -206c-99 0 -169 65 -169 160c0 89 64 191 210 190l2 2c-65 16 -100 72 -100 130c0 88 72 186 199 186c104 0 152 -76 152 -143c0 -11 0 -152 -184 -174zM234 443c-5 -19 -6 -35 -6 -43c0 -44 43 -43 48 -43
c47 0 69 48 73 57c5 11 45 107 45 151c0 36 -29 47 -48 47c-58 0 -94 -100 -112 -169zM135 141c-3 -9 -10 -33 -10 -55c0 -18 11 -60 58 -60c50 0 77 42 91 77c8 19 45 111 45 158c0 25 -19 54 -61 54c-69 0 -87 -59 -123 -174z" />
    <glyph glyph-name="nine.oldstyle" unicode="&#xf739;" horiz-adv-x="479" 
d="M231 3l-2 2c-13 -8 -33 -19 -66 -19c-76 0 -136 57 -136 153c0 159 115 301 262 301c80 0 141 -60 141 -151c0 -147 -128 -513 -376 -513c-89 0 -112 52 -112 79c0 17 13 40 41 40c26 0 39 -21 52 -42c3 -6 20 -32 45 -32c42 0 85 28 151 182zM132 138
c-2 -6 -11 -36 -11 -57c0 -28 22 -56 61 -56c62 0 84 63 106 129c32 95 50 151 50 186c0 24 -16 58 -55 58c-72 0 -104 -87 -151 -260z" />
    <glyph glyph-name="comma.superior" unicode="&#xf6e2;" horiz-adv-x="167" 
d="M18 205l11 32c47 5 93 30 93 62c0 8 -8 9 -14 9c-20 0 -38 15 -38 40c0 24 21 40 46 40c37 0 54 -30 54 -60c0 -37 -32 -113 -152 -123z" />
    <glyph glyph-name="uni2014.alt" unicode="&#xe000;" horiz-adv-x="750" 
d="M-6 295h762v-90h-762v90z" />
    <glyph glyph-name="period.superior" unicode="&#xf6e8;" horiz-adv-x="167" 
d="M73 347c0 24 22 41 46 41c25 0 46 -17 46 -41c0 -22 -20 -40 -46 -40c-24 0 -46 17 -46 40z" />
    <glyph glyph-name="a.superior" unicode="&#xf6e9;" horiz-adv-x="344" 
d="M320 566l-56 -170c-10 -31 -10 -41 -3 -41c10 0 29 25 37 40h41c-17 -32 -36 -54 -55 -67c-18 -13 -37 -18 -55 -18c-50 0 -54 33 -56 54c-43 -44 -66 -54 -99 -54c-38 0 -60 29 -60 72c0 77 70 189 165 189c35 0 44 -13 54 -27l7 22h80zM189 539
c-49 0 -90 -100 -90 -143c0 -16 5 -31 18 -31c41 0 93 85 93 143c0 3 -1 31 -21 31z" />
    <glyph glyph-name="b.superior" unicode="&#xf6ea;" horiz-adv-x="344" 
d="M230 724l-60 -181l2 -2c17 13 42 30 86 30c45 0 90 -27 90 -87c0 -83 -87 -174 -194 -174c-69 0 -113 36 -113 83c0 20 7 42 12 57l69 209c2 6 3 8 3 13c0 6 -1 11 -30 11h-17l11 32c70 0 88 4 112 9h29zM223 526c-74 0 -102 -127 -102 -148c0 -22 15 -36 38 -36
c68 0 100 97 100 139c0 9 -2 45 -36 45z" />
    <glyph glyph-name="cent.superior" unicode="&#xf6e0;" horiz-adv-x="271" 
d="M236 541l52 85h40l-57 -93c14 -8 37 -20 37 -47c0 -23 -16 -40 -42 -40c-18 0 -31 7 -34 23l-72 -119c17 2 44 4 79 41h43c-50 -68 -118 -74 -144 -76l-41 -67h-39l42 70c-33 9 -55 27 -55 63c0 63 63 162 191 160zM130 366l89 147c-63 -2 -93 -107 -93 -127
c0 -7 3 -16 4 -20z" />
    <glyph glyph-name="d.superior" unicode="&#xf6eb;" horiz-adv-x="365" 
d="M411 724l-114 -344c-5 -14 -5 -16 -5 -21c0 -2 0 -7 5 -7c6 0 21 8 40 40h42c-7 -16 -21 -36 -39 -53c-19 -16 -42 -29 -71 -29c-54 0 -58 30 -60 50c-9 -8 -23 -20 -42 -31c-18 -10 -40 -19 -66 -19c-45 0 -74 27 -74 73c0 89 80 188 180 188c32 0 45 -11 59 -23l34 102
c5 15 6 17 6 21c0 7 -1 12 -31 12h-14l11 32c22 0 78 0 109 9h30zM141 363c56 0 105 86 105 138c0 20 -10 40 -33 40c-53 0 -101 -93 -101 -144c0 -25 13 -34 29 -34z" />
    <glyph glyph-name="e.superior" unicode="&#xf6ec;" 
d="M213 398h44c-26 -39 -83 -88 -160 -88c-37 0 -96 15 -96 77c0 85 83 184 205 184c79 0 85 -40 85 -52c0 -13 -8 -83 -199 -112c-1 -5 -2 -13 -2 -21c0 -23 13 -34 36 -34c34 0 65 21 87 46zM99 440c83 12 115 53 115 81c0 11 -7 22 -21 22c-54 0 -84 -77 -94 -103z" />
    <glyph glyph-name="i.superior" unicode="&#xf6ed;" horiz-adv-x="198" 
d="M119 683c0 22 22 40 47 40c26 0 47 -18 47 -41c0 -22 -21 -40 -47 -40c-25 0 -47 18 -47 41zM38 484h-38c29 62 77 87 114 87c27 0 54 -13 54 -38c0 -15 -6 -30 -8 -35l-39 -97c-9 -21 -13 -33 -13 -39c0 -5 4 -9 7 -9c9 -1 27 21 36 42h40c-16 -34 -51 -85 -110 -85
c-38 0 -59 19 -59 43c0 18 7 34 13 50l31 77c15 37 16 44 10 44c-13 0 -34 -35 -38 -40z" />
    <glyph glyph-name="l.superior" unicode="&#xf6ee;" horiz-adv-x="198" 
d="M224 723l-112 -336c-1 -2 -8 -25 -8 -26c0 -4 3 -9 7 -9c7 0 25 20 39 43h40c-14 -26 -51 -85 -111 -85c-32 0 -58 16 -58 43c0 16 5 31 10 47l81 238c2 7 9 28 9 34c0 11 -21 11 -33 11h-14l11 32c41 0 80 1 110 8h29z" />
    <glyph glyph-name="m.superior" unicode="&#xf6ef;" horiz-adv-x="604" 
d="M12 318l48 152c7 22 13 39 13 45c0 2 3 13 -6 13c-10 0 -24 -25 -35 -45h-39c20 51 59 88 110 88c11 0 57 -2 57 -46c0 -15 -5 -29 -9 -40l2 -2c20 26 72 88 141 88c27 0 64 -13 64 -50c0 -13 -4 -26 -7 -36l2 -2c22 29 71 88 143 88c43 0 63 -28 63 -50
c0 -13 -3 -22 -10 -44l-33 -100c0 -1 -3 -8 -3 -12s3 -7 7 -7c3 0 19 3 43 41h42c-14 -25 -31 -47 -51 -62s-43 -23 -70 -23c-35 0 -57 19 -57 42c0 11 4 22 8 33l24 76c3 8 8 24 8 31c0 12 -8 18 -19 18c-50 0 -117 -93 -146 -181l-5 -15h-85l49 151c2 5 6 18 6 26
c0 12 -6 19 -18 19c-43 0 -110 -71 -152 -196h-85z" />
    <glyph glyph-name="n.superior" unicode="&#x207f;" horiz-adv-x="375" 
d="M32 318l57 175c6 18 7 24 7 29c0 2 0 6 -4 6c-6 0 -19 -8 -37 -45h-37c9 25 23 47 41 63s40 25 65 25c35 0 55 -20 55 -42c0 -10 -3 -18 -11 -44l2 -2c25 34 68 88 128 88c36 0 53 -22 53 -44c0 -14 -5 -27 -8 -38l-30 -89c-4 -12 -9 -32 -9 -34c0 -5 3 -6 5 -6
c11 0 34 29 40 40h44c-13 -22 -30 -43 -50 -59s-43 -27 -70 -27c-32 0 -57 15 -57 41c0 12 3 21 9 38l23 70c5 15 9 28 9 38c0 5 -3 13 -10 13c-21 0 -80 -58 -129 -196h-86z" />
    <glyph glyph-name="o.superior" unicode="&#xf6f0;" horiz-adv-x="344" 
d="M13 417c0 82 78 154 178 154c86 0 127 -53 127 -105c0 -80 -71 -156 -177 -156c-77 0 -128 44 -128 107zM191 539c-62 0 -93 -103 -93 -145c0 -22 9 -52 42 -52c63 0 93 101 93 143c0 31 -13 54 -42 54z" />
    <glyph glyph-name="r.superior" unicode="&#xf6f1;" 
d="M-6 479c46 86 93 92 114 92c45 0 45 -40 45 -46c0 -13 -4 -32 -6 -41l2 -2c20 32 58 89 106 89c31 0 44 -19 44 -41c0 -25 -17 -50 -43 -50c-11 0 -21 5 -24 8c-14 14 -15 16 -20 16c-13 0 -67 -66 -103 -174l-4 -12h-85l52 174c2 6 5 18 5 24c0 3 -2 6 -5 6
s-15 -2 -37 -43h-41z" />
    <glyph glyph-name="s.superior" unicode="&#xf6f2;" horiz-adv-x="302" 
d="M67 499c0 53 64 72 125 72c84 0 101 -34 101 -52s-13 -34 -38 -34c-28 0 -35 19 -41 38c-3 8 -7 20 -30 20c-3 0 -36 -1 -36 -26c0 -16 13 -28 39 -48c33 -25 61 -46 61 -81c0 -34 -29 -78 -128 -78c-93 0 -116 45 -116 65c0 18 15 36 40 36c36 0 41 -29 42 -40
c3 -17 6 -33 36 -33c25 0 43 12 43 32c0 15 -3 18 -37 46c-32 26 -61 51 -61 83z" />
    <glyph glyph-name="t.superior" unicode="&#xf6f3;" horiz-adv-x="219" 
d="M81 562l28 88h86l-29 -88h62l-11 -32h-62l-46 -142c-5 -14 -5 -16 -5 -20c0 -10 6 -13 10 -13c21 0 40 30 52 51h41c-47 -96 -109 -96 -123 -96c-39 0 -63 22 -63 56c0 16 5 31 10 47l39 117h-58l11 32h58z" />
    <glyph glyph-name="parenleft.inferior" unicode="&#x208d;" horiz-adv-x="167" 
d="M100 -140l-37 -14c-18 38 -43 111 -43 191c0 190 130 290 222 361l28 -26c-54 -45 -93 -78 -139 -195c-47 -120 -47 -200 -47 -215c0 -7 0 -56 16 -102z" />
    <glyph glyph-name="parenright.inferior" unicode="&#x208e;" horiz-adv-x="167" 
d="M75 384l38 14c40 -89 43 -168 43 -194c0 -188 -133 -290 -222 -358l-29 26c55 46 93 79 139 195c48 120 48 201 48 215c0 10 -1 57 -17 102z" />
    <glyph glyph-name="hyphen.superior" unicode="&#xf6e6;" horiz-adv-x="198" 
d="M63 409l19 57h161l-19 -57h-161z" />
    <glyph glyph-name="one.fitted" unicode="&#xf6dc;" horiz-adv-x="469" 
d="M485 678l-165 -543c-7 -24 -10 -32 -10 -42c0 -42 43 -48 71 -48l-14 -45h-317l14 45c73 0 86 10 106 74l104 342c12 40 17 55 17 71c0 40 -44 40 -81 40h-18l14 45c36 0 154 0 239 61h40z" />
    <glyph glyph-name="R_p" unicode="&#xf6dd;" horiz-adv-x="1260" 
d="M288 302l-51 -167c-8 -25 -9 -32 -9 -42c0 -48 54 -48 84 -48l-14 -45h-301l14 45c52 0 69 14 87 74l125 414c7 23 9 31 9 40c0 35 -32 46 -57 46h-19l14 43h314c58 0 105 -3 151 -27s88 -70 88 -140c0 -59 -37 -172 -225 -184c38 -31 43 -44 82 -158
c15 -45 37 -94 115 -108l-13 -45h-170c-17 22 -27 39 -63 143c-40 116 -44 128 -66 143c-23 16 -41 16 -67 16h-28zM846 38l-52 -169c-5 -17 -6 -22 -6 -29c0 -23 24 -28 70 -28h24l-13 -45h-309l14 45h18c66 0 70 7 91 74l129 418c2 7 6 20 6 31s-7 21 -16 21
c-13 0 -38 -12 -68 -80h-47c26 65 73 141 156 141c81 0 82 -62 83 -86c32 35 61 57 87 69c27 13 51 17 72 17c111 0 135 -98 135 -147c0 -139 -112 -286 -260 -286c-64 0 -93 27 -114 54zM383 617l-81 -267h52c42 0 109 0 152 24c50 28 80 86 80 138
c0 103 -104 105 -144 105h-59zM911 237c-4 -11 -38 -89 -38 -138c0 -40 26 -76 70 -76c114 0 157 203 157 258c0 36 -18 78 -61 78c-41 0 -93 -43 -128 -122z" />
    <glyph glyph-name="cent.oldstyle" unicode="&#xf7a2;" horiz-adv-x="313" 
d="M228 293l59 114h46l-65 -124c14 -8 42 -28 42 -64c0 -31 -20 -55 -49 -55c-5 0 -33 0 -38 33l-83 -156c32 0 65 22 92 53h49c-46 -72 -105 -101 -168 -104l-46 -89h-46l49 94c-16 5 -62 19 -62 87c0 94 88 218 220 211zM105 60l101 193c-58 5 -105 -121 -105 -168
c0 -9 1 -15 4 -25z" />
    <glyph glyph-name="hyphen.inferior" unicode="&#xf6e5;" horiz-adv-x="198" 
d="M4 83l19 57h161l-19 -57h-161z" />
    <glyph glyph-name="zero.superior" unicode="&#x2070;" 
d="M260 657c82 0 89 -64 89 -85c0 -62 -45 -262 -189 -262c-84 0 -90 66 -90 87c0 44 40 260 190 260zM261 629c-26 0 -44 -28 -49 -37c-32 -57 -77 -199 -77 -225c0 -3 -2 -29 22 -29c19 0 38 10 64 69c6 13 63 170 63 197c0 7 0 25 -23 25z" />
    <glyph glyph-name="one.superior" unicode="&#xb9;" 
d="M329 657l-94 -267c-7 -20 -9 -25 -9 -31c0 -11 5 -11 47 -13l-10 -28h-184l11 28h18c30 0 31 -1 44 37l66 189c5 14 5 14 5 19c0 8 -5 13 -35 13h-29l10 28c79 5 99 11 126 25h34z" />
    <glyph glyph-name="two.superior" unicode="&#xb2;" 
d="M254 302h-39c7 12 5 16 -8 16h-161l13 37c32 23 105 80 148 120c33 31 59 74 59 108c0 25 -14 46 -46 46c-18 0 -44 -6 -44 -31c0 -10 4 -14 10 -22c4 -6 13 -8 13 -13c0 -6 -32 -23 -46 -23c-13 0 -36 21 -36 47c0 33 38 70 113 70c72 0 115 -32 115 -76
c0 -57 -47 -108 -153 -170l-69 -40h157z" />
    <glyph glyph-name="three.superior" unicode="&#xb3;" 
d="M207 579c0 -4 -6 -7 -18 -14c-5 -3 -14 -9 -21 -9c-11 0 -22 21 -22 35c0 34 36 66 104 66c65 0 101 -28 101 -59c0 -45 -78 -77 -115 -93c57 -5 65 -52 65 -69c0 -77 -84 -126 -167 -126c-57 0 -93 27 -93 52c0 16 15 28 34 28c22 0 35 -12 41 -27c5 -13 10 -25 28 -25
c52 0 84 93 84 124c0 2 -2 25 -19 25c-11 0 -20 -6 -34 -15c-6 -4 -8 -5 -12 -5c-8 0 -17 6 -17 15c0 11 34 25 52 34c49 25 85 44 85 81c0 14 -12 32 -38 32c-25 0 -42 -15 -42 -35c0 -2 4 -13 4 -15z" />
    <glyph glyph-name="four.superior" unicode="&#x2074;" 
d="M59 415l6 35l216 207h64l-74 -204c25 0 28 0 37 20h37l-19 -58h-68l-10 -27c-6 -16 -9 -23 -9 -30c0 -13 31 -12 48 -12l-9 -28h-184l10 28h17c28 0 31 0 45 39l11 30h-118zM113 453h78l40 110l-2 2z" />
    <glyph glyph-name="five.superior" unicode="&#x2075;" 
d="M182 651h184l-9 -20c-15 -34 -31 -34 -57 -34h-100l-21 -54c9 4 21 10 41 10c42 0 92 -32 92 -96c0 -87 -89 -147 -172 -147c-53 0 -93 24 -93 49c0 18 18 28 35 28c23 0 33 -17 39 -26c8 -14 12 -23 27 -23c64 0 95 131 95 157c0 5 0 30 -30 30c-24 0 -44 -20 -59 -42
h-37z" />
    <glyph glyph-name="six.superior" unicode="&#x2076;" 
d="M208 541c13 4 21 6 33 6c53 0 85 -36 85 -81c0 -74 -61 -156 -161 -156c-53 0 -87 35 -87 82c0 35 45 265 226 265c67 0 72 -34 72 -42c0 -9 -7 -24 -28 -24c-15 0 -23 7 -33 18c-16 17 -17 20 -27 20c-19 0 -41 -14 -80 -88zM143 367c0 -26 16 -29 28 -29
c25 0 39 18 53 55c9 24 33 82 33 103c0 16 -12 23 -24 23c-30 0 -44 -27 -49 -36c-1 -2 -41 -86 -41 -116z" />
    <glyph glyph-name="seven.superior" unicode="&#x2077;" 
d="M168 670h37c-2 -5 -4 -14 -4 -15c0 -4 3 -4 5 -4h176v-14l-180 -267c-31 -45 -42 -60 -70 -60c-17 0 -33 10 -33 25c0 16 9 26 35 55l179 207h-90c-39 0 -43 0 -55 -30h-36z" />
    <glyph glyph-name="eight.superior" unicode="&#x2078;" 
d="M249 492v-2c33 -11 54 -35 54 -70c0 -49 -49 -110 -133 -110c-55 0 -107 29 -107 82c0 62 55 99 111 102v2c-37 15 -45 49 -45 64c0 42 41 97 122 97c67 0 95 -41 95 -75c0 -42 -37 -82 -97 -90zM254 629c-9 0 -23 -5 -32 -22c-7 -13 -24 -61 -24 -79c0 -11 4 -22 21 -22
c25 0 34 21 37 30c6 12 21 58 21 72c0 15 -11 21 -23 21zM205 478c-11 0 -29 -7 -39 -25c-13 -23 -28 -63 -28 -87c0 -11 1 -28 28 -28c23 0 34 9 44 30c15 31 24 69 24 83c0 12 -3 27 -29 27z" />
    <glyph glyph-name="nine.superior" unicode="&#x2079;" 
d="M225 426c-13 -4 -21 -6 -33 -6c-53 0 -85 36 -85 81c0 74 61 156 161 156c53 0 87 -35 87 -82c0 -35 -45 -265 -226 -265c-67 0 -72 34 -72 42c0 9 7 24 28 24c15 0 23 -7 33 -18c16 -17 17 -20 27 -20c19 0 41 14 80 88zM290 600c0 26 -16 29 -28 29
c-25 0 -39 -18 -53 -55c-9 -24 -33 -82 -33 -103c0 -16 12 -23 24 -23c30 0 44 27 49 36c1 2 41 86 41 116z" />
    <glyph glyph-name="zero.inferior" unicode="&#x2080;" 
d="M207 340c82 0 89 -64 89 -86c0 -61 -45 -262 -189 -262c-84 0 -90 66 -90 88c0 43 39 260 190 260zM208 313c-26 0 -44 -29 -49 -39c-30 -57 -79 -199 -79 -225c0 -3 0 -29 24 -29c19 0 38 10 64 69c5 13 63 171 63 198c0 7 0 26 -23 26z" />
    <glyph glyph-name="one.inferior" unicode="&#x2081;" 
d="M276 339l-94 -266c-7 -20 -9 -26 -9 -32c0 -11 5 -11 47 -13l-10 -28h-184l11 28h18c30 0 31 0 44 38l66 188c5 12 5 14 5 19c0 8 -5 13 -35 13h-29l10 28c77 5 99 10 126 25h34z" />
    <glyph glyph-name="two.inferior" unicode="&#x2082;" 
d="M201 -16h-39c1 1 5 11 5 12c0 3 -2 3 -6 3l-19 1h-149l13 37c32 23 105 80 148 120c33 31 59 74 59 108c0 25 -14 46 -46 46c-18 0 -44 -6 -44 -31c0 -10 5 -17 14 -25c1 -1 9 -9 9 -10c0 -4 -30 -23 -46 -23c-13 0 -36 21 -36 47c0 33 38 70 113 70
c72 0 115 -32 115 -76c0 -76 -77 -123 -218 -208v-2h153z" />
    <glyph glyph-name="three.inferior" unicode="&#x2083;" 
d="M186 189v-2c52 -7 62 -48 62 -69c0 -77 -84 -126 -167 -126c-57 0 -93 27 -93 52c0 16 15 28 34 28c28 0 36 -17 41 -27c5 -13 10 -25 28 -25c53 0 84 95 84 124c0 2 -2 25 -19 25c-8 0 -39 -20 -46 -20c-8 0 -17 6 -17 15s20 19 36 26c62 31 100 51 100 89
c0 14 -11 32 -37 32c-25 0 -42 -15 -42 -35c0 -2 4 -13 4 -15c0 -4 -30 -23 -39 -23c-11 0 -22 21 -22 35c0 34 36 66 104 66c65 0 101 -28 101 -59c0 -46 -82 -79 -112 -91z" />
    <glyph glyph-name="four.inferior" unicode="&#x2084;" 
d="M6 97l6 35l216 207h64l-74 -204c25 0 28 0 37 20h37l-19 -58h-68l-10 -27c-6 -16 -9 -23 -9 -30c0 -13 31 -12 48 -12l-9 -28h-184l10 28h17c28 0 31 0 45 39l11 30h-118zM60 135h78l40 110l-2 2z" />
    <glyph glyph-name="five.inferior" unicode="&#x2085;" 
d="M129 333h184l-9 -20c-15 -34 -31 -34 -57 -34h-100l-21 -54c9 4 21 10 41 10c42 0 92 -32 92 -96c0 -87 -89 -147 -172 -147c-53 0 -93 24 -93 49c0 18 18 28 35 28c23 0 33 -17 39 -26c8 -14 12 -23 27 -23c64 0 95 131 95 157c0 5 0 30 -30 30c-24 0 -44 -20 -59 -42
h-37z" />
    <glyph glyph-name="six.inferior" unicode="&#x2086;" 
d="M155 223c13 4 21 6 33 6c53 0 85 -36 85 -81c0 -74 -61 -156 -161 -156c-53 0 -87 35 -87 82c0 35 45 265 226 265c67 0 72 -34 72 -42c0 -9 -7 -24 -28 -24c-15 0 -23 7 -33 18c-16 17 -17 20 -27 20c-19 0 -41 -14 -80 -88zM90 49c0 -26 16 -29 28 -29
c25 0 39 18 53 55c9 24 33 82 33 103c0 16 -12 23 -24 23c-30 0 -44 -27 -49 -36c-1 -2 -41 -86 -41 -116z" />
    <glyph glyph-name="seven.inferior" unicode="&#x2087;" 
d="M115 352h37c-2 -5 -4 -14 -4 -15c0 -4 3 -4 5 -4h176v-14l-180 -266c-31 -45 -42 -61 -70 -61c-17 0 -33 10 -33 25c0 16 9 26 35 56l179 206h-90c-39 0 -43 0 -55 -29h-36z" />
    <glyph glyph-name="eight.inferior" unicode="&#x2088;" 
d="M196 174v-2c33 -11 54 -35 54 -70c0 -49 -49 -110 -133 -110c-55 0 -107 29 -107 82c0 62 55 99 111 102v2c-37 15 -45 49 -45 64c0 42 41 97 122 97c67 0 95 -41 95 -75c0 -42 -37 -82 -97 -90zM201 311c-9 0 -23 -5 -32 -22c-7 -13 -24 -61 -24 -79c0 -11 4 -22 21 -22
c25 0 34 21 37 30c6 12 21 58 21 72c0 15 -11 21 -23 21zM152 160c-11 0 -29 -7 -39 -25c-13 -23 -28 -63 -28 -87c0 -11 1 -28 28 -28c23 0 34 9 44 30c15 31 24 69 24 83c0 12 -3 27 -29 27z" />
    <glyph glyph-name="nine.inferior" unicode="&#x2089;" 
d="M173 109c-13 -4 -21 -6 -33 -6c-53 0 -85 36 -85 81c0 74 61 156 161 156c53 0 87 -35 87 -82c0 -35 -45 -265 -226 -265c-67 0 -72 34 -72 42c0 9 7 24 28 24c15 0 23 -7 33 -18c16 -17 17 -20 27 -20c19 0 41 14 80 88zM238 283c0 26 -16 29 -28 29
c-25 0 -39 -18 -53 -55c-9 -24 -33 -82 -33 -103c0 -16 12 -23 24 -23c30 0 44 27 49 36c1 2 41 86 41 116z" />
    <glyph glyph-name="cent.inferior" unicode="&#xf6df;" horiz-adv-x="271" 
d="M203 218l52 85h40l-57 -93c14 -8 37 -20 37 -47c0 -23 -16 -40 -42 -40c-18 0 -31 7 -34 23l-72 -119c17 2 44 4 79 41h43c-50 -68 -118 -74 -144 -76l-41 -67h-39l42 70c-33 9 -55 27 -55 63c0 63 63 162 191 160zM97 43l89 147c-63 -2 -93 -107 -93 -127
c0 -7 3 -16 4 -20z" />
    <glyph glyph-name="dollar.inferior" unicode="&#xf6e3;" horiz-adv-x="281" 
d="M99 27l43 121c-39 34 -64 61 -64 99c0 42 37 96 132 94l3 9h38l-5 -14c60 -18 61 -51 61 -52c0 -9 -9 -23 -27 -23c-13 0 -22 7 -26 12c-4 4 -18 23 -21 27l-37 -106c28 -23 68 -57 68 -97c0 -39 -29 -69 -54 -84c-26 -15 -46 -18 -86 -21l-15 -44h-38l17 48
c-56 16 -75 38 -75 56c0 13 11 23 28 23c20 0 28 -11 33 -18c13 -18 15 -23 25 -30zM167 219l33 94c-44 -4 -56 -30 -56 -48c0 -20 11 -33 23 -46zM170 122l-36 -102c20 2 65 5 65 49c0 23 -14 38 -29 53z" />
    <glyph glyph-name="period.inferior" unicode="&#xf6e7;" horiz-adv-x="167" 
d="M14 21c0 24 23 41 46 41c25 0 47 -17 47 -41c0 -22 -21 -40 -47 -40c-24 0 -46 17 -46 40z" />
    <glyph glyph-name="comma.inferior" unicode="&#xf6e1;" horiz-adv-x="167" 
d="M-40 -120l11 32c47 5 93 30 93 62c0 8 -8 9 -14 9c-20 0 -38 15 -38 40c0 24 21 40 46 40c37 0 54 -30 54 -60c0 -37 -32 -113 -152 -123z" />
    <glyph glyph-name="Delta" unicode="&#x2206;" horiz-adv-x="479" 
d="M459 0h-435l164 712h110zM325 48l-115 490l-122 -490h237z" />
    <glyph glyph-name="Omega" unicode="&#x2126;" horiz-adv-x="626" 
d="M586 0h-235v153c63 44 86 164 86 253c0 177 -47 266 -125 266c-89 0 -129 -114 -129 -265c0 -117 33 -230 94 -259v-148h-237v171h31c0 -42 1 -89 63 -89h92v33c-87 37 -180 128 -180 290c0 176 99 307 266 307c168 0 268 -151 268 -302c0 -123 -67 -249 -178 -291v-37
h89c62 0 63 47 63 89h32v-171z" />
    <glyph glyph-name="uni03BC" unicode="&#x3bc;" horiz-adv-x="521" 
d="M58 400h126v-254c0 -58 2 -98 42 -98c43 0 67 36 79 56v296h126v-259c0 -51 0 -87 32 -87c13 0 30 11 35 67h20c-4 -121 -87 -137 -119 -137c-70 0 -87 54 -93 73c-23 -26 -66 -73 -135 -73c-29 0 -55 11 -69 26c0 -24 4 -60 10 -81c10 -33 17 -59 17 -75
c0 -20 -4 -62 -55 -62c-50 0 -50 49 -50 55c0 20 2 27 18 90c13 52 16 99 16 180v283z" />
    <glyph glyph-name="pi" unicode="&#x3c0;" horiz-adv-x="360" 
d="M349 109c-15 -87 -39 -121 -65 -121c-20 0 -34 12 -43 32c-17 35 -16 91 -16 124v243h-70v-169c0 -91 -7 -160 -26 -197c-10 -20 -26 -33 -45 -33c-15 0 -33 14 -33 41c0 17 11 33 27 42c29 16 30 76 30 169v147h-12c-23 0 -34 -15 -41 -61l-29 8c1 95 38 148 82 148h225
v-95h-60v-193c0 -47 1 -80 6 -100c4 -19 11 -29 19 -29c15 0 21 27 29 60z" />
    <glyph glyph-name="Euro" unicode="&#x20ac;" horiz-adv-x="500" 
d="M427 297l-15 -47h-233c-2 -16 -3 -32 -3 -48c0 -60 14 -164 94 -164s124 96 148 159l44 -7c-33 -101 -93 -205 -212 -205c-139 0 -186 151 -184 265h-46l15 47h34c2 18 5 37 8 55h-42l15 47h39c35 116 125 258 262 258c54 0 100 -20 129 -69c9 18 13 34 20 53h41
l-30 -191h-43c0 68 -12 156 -98 156s-144 -140 -163 -207h251l-15 -47h-248c-4 -18 -8 -37 -11 -55h243z" />
    <glyph glyph-name="afii61289" unicode="&#x2113;" horiz-adv-x="271" 
d="M300 124c-18 -92 -57 -136 -121 -136c-36 0 -60 9 -83 30c-28 27 -40 75 -40 112v56c-7 -13 -29 -39 -39 -52l-22 32c15 18 48 55 61 77v235c0 109 43 234 144 234c60 0 86 -37 86 -99c0 -87 -29 -169 -58 -229c-13 -26 -32 -62 -47 -81v-168c0 -60 13 -83 33 -83
s34 28 47 85zM247 607h-1c0 33 -6 61 -30 61c-23 0 -35 -40 -35 -126v-162c3 9 17 36 25 58c24 54 41 129 41 169z" />
    <glyph glyph-name="estimated" unicode="&#x212e;" horiz-adv-x="571" 
d="M532 248h-385v-181c37 -38 83 -56 137 -56c73 0 146 39 190 118l25 -14c-57 -82 -118 -127 -215 -127c-152 0 -243 114 -243 260s91 261 241 261c156 0 242 -112 250 -261zM420 273v153c-41 43 -86 60 -139 60c-54 0 -97 -19 -134 -57v-156h273z" />
    <glyph glyph-name="partialdiff" unicode="&#x2202;" horiz-adv-x="432" 
d="M404 488c0 -75 -23 -200 -50 -272c-67 -171 -113 -229 -193 -229c-97 0 -141 83 -141 196c0 146 77 283 204 283c71 0 100 -52 109 -85h1c2 29 2 53 2 78c0 75 -26 187 -107 187c-50 0 -85 -25 -115 -65l-17 21c30 56 77 122 171 122c116 0 136 -107 136 -236zM328 328
c-7 34 -20 90 -74 90c-65 0 -114 -122 -114 -264c0 -81 33 -116 67 -116c64 0 105 160 121 290z" />
    <glyph glyph-name="product" unicode="&#x220f;" horiz-adv-x="574" 
d="M542 -131h-216v32h11c32 0 35 40 35 81v671h-172v-671c0 -41 3 -81 33 -81h12v-32h-213v32h11c31 0 34 40 34 81v605c0 43 -3 81 -33 81h-12v32h510v-32h-11c-32 0 -34 -38 -34 -81v-605c0 -42 3 -81 33 -81h12v-32z" />
    <glyph glyph-name="summation" unicode="&#x2211;" horiz-adv-x="416" 
d="M405 51l-10 -182h-379l-1 37l172 358l-166 400v36h363l7 -153h-30c-6 82 -13 105 -53 105h-175l136 -320l-177 -364h225c43 0 50 23 57 87z" />
    <glyph glyph-name="uni2219" unicode="&#x2219;" horiz-adv-x="271" 
d="M152 384c35 0 64 -28 64 -63s-29 -64 -64 -64s-63 29 -63 64s28 63 63 63z" />
    <glyph glyph-name="radical" unicode="&#x221a;" horiz-adv-x="273" 
d="M234 728l-66 -740h-56l-80 323l-28 -22l-23 31l93 69l65 -298h2l57 637h36z" />
    <glyph glyph-name="infinity" unicode="&#x221e;" horiz-adv-x="573" 
d="M412 155c-61 0 -92 29 -120 77h-1c-27 -41 -65 -77 -129 -77c-69 0 -120 53 -120 123c0 73 48 127 118 127c64 0 98 -41 117 -76h1c31 46 68 76 131 76c66 0 118 -50 118 -124c0 -72 -50 -126 -115 -126zM414 362c-56 0 -75 -46 -100 -92c22 -48 52 -73 98 -73
c50 0 74 42 74 83c0 45 -21 82 -72 82zM161 362c-43 0 -78 -30 -78 -82c0 -48 26 -83 76 -83c51 0 79 60 97 95c-17 35 -47 70 -95 70z" />
    <glyph glyph-name="integral" unicode="&#x222b;" horiz-adv-x="223" 
d="M216 693c0 -14 -3 -39 -27 -39c-13 0 -21 3 -29 14c-7 7 -15 11 -23 11c-11 0 -16 -7 -16 -23c-1 -36 16 -86 24 -144c10 -51 21 -168 21 -242c0 -70 -1 -178 -10 -245c-8 -59 -15 -121 -27 -160c-13 -42 -30 -76 -69 -76c-27 0 -56 20 -56 53c0 21 11 41 35 41
c11 0 16 -5 25 -18c4 -6 14 -7 19 -7c7 0 15 2 16 41c1 25 -20 93 -29 147c-11 72 -15 161 -15 222c0 56 2 128 8 200c4 66 14 158 22 195c14 57 43 84 71 84c40 0 60 -26 60 -54z" />
    <glyph glyph-name="approxequal" unicode="&#x2248;" horiz-adv-x="667" 
d="M652 486c-36 -88 -93 -161 -187 -161c-50 0 -87 10 -162 38c-37 14 -78 27 -106 27c-56 0 -95 -15 -128 -84l-54 25c39 96 93 159 188 159c56 0 106 -17 146 -32c62 -24 89 -32 126 -32c59 0 93 26 123 85zM652 307c-36 -88 -93 -160 -187 -160c-50 0 -87 9 -162 38
c-37 14 -78 27 -106 27c-56 0 -95 -15 -128 -86l-54 27c39 96 93 159 188 159c56 0 106 -18 146 -32c62 -25 89 -32 126 -32c59 0 93 26 123 85z" />
    <glyph glyph-name="notequal" unicode="&#x2260;" horiz-adv-x="668" 
d="M613 194h-311l-100 -154h-95l101 154h-154v84h208l54 80h-262v84h314l98 148h95l-98 -148h150v-84h-203l-54 -80h257v-84z" />
    <glyph glyph-name="lessequal" unicode="&#x2264;" horiz-adv-x="667" 
d="M613 0h-559v84h559v-84zM613 144l-559 194v90l559 195v-88l-437 -151l437 -152v-88z" />
    <glyph glyph-name="greaterequal" unicode="&#x2265;" horiz-adv-x="667" 
d="M613 0h-559v84h559v-84zM613 338l-559 -195v88l437 151l-437 152v88l559 -194v-90z" />
    <glyph glyph-name="lozenge" unicode="&#x25ca;" horiz-adv-x="254" 
d="M268 349l-124 -361h-36l-122 361l122 363h36zM219 349l-92 283l-91 -283l91 -282z" />
    <glyph glyph-name="uni00A0" unicode="&#xa0;" horiz-adv-x="250" 
 />
    <glyph glyph-name="uni00AD" unicode="&#xad;" horiz-adv-x="313" 
d="M19 157l26 87h234l-27 -87h-233z" />
    <glyph glyph-name="uni02C9" unicode="&#x2c9;" horiz-adv-x="333" 
d="M30 529v67h273v-67h-273z" />
    <glyph glyph-name="uni2215" unicode="&#x2215;" horiz-adv-x="188" 
d="M-155 0l543 664h57l-546 -664h-54z" />
    <glyph glyph-name="uni03A9" unicode="&#x3a9;" horiz-adv-x="626" 
d="M586 0h-235v153c63 44 86 164 86 253c0 177 -47 266 -125 266c-89 0 -129 -114 -129 -265c0 -117 33 -230 94 -259v-148h-237v171h31c0 -42 1 -89 63 -89h92v33c-87 37 -180 128 -180 290c0 176 99 307 266 307c168 0 268 -151 268 -302c0 -123 -67 -249 -178 -291v-37
h89c62 0 63 47 63 89h32v-171z" />
    </font>
</defs>
</svg>
