<?xml version="1.0" standalone="no"?>
<!DOCTYPE svg PUBLIC "-//W3C//DTD SVG 1.1//EN" "http://www.w3.org/Graphics/SVG/1.1/DTD/svg11.dtd" >
<svg xmlns="http://www.w3.org/2000/svg" width="100%" height="100%">
<metadata>
Created by FontXChange 20110222 at Wed Mar 25 17:52:42 2015
 By MikaDo Nguyen
Font software Copyright 1994 Adobe Systems Incorporated. Typeface designs Copyright 1994 The Monotype Corporation. All rights reserved. "Baskerville" is a trademark or registered trademark of The Monotype Corporation in the United States and/or other countries; "Monotype" is a trademark of Monotype Imaging, Inc. Registered in U.S. Patent and Trademark Office and may be registered in certain other jurisdictions.
</metadata>
<defs>
<font id="BaskervilleMTStd-SemiBd" horiz-adv-x="292" >
  <font-face 
    font-family="BaskervilleMTStd"
    font-weight="600"
    font-stretch="normal"
    units-per-em="1000"
    panose-1="2 2 7 3 5 4 5 2 3 4"
    ascent="682"
    descent="-318"
    x-height="400"
    cap-height="662"
    bbox="-153 -247 1251 896"
    underline-thickness="50"
    underline-position="-50"
    stemh="45"
    stemv="126"
    unicode-range="U+0020-FB04"
  />
<missing-glyph horiz-adv-x="500" 
d="M12 0v665h475v-665h-475zM88 618l162 -243l161 243h-323zM60 575v-484c0 -1 161 242 161 242zM440 575l-162 -242l162 -243v485zM411 48l-161 242l-162 -242h323z" />
    <glyph glyph-name="fi" unicode="fi" horiz-adv-x="646" 
d="M30 355v45h74v40c0 41 2 94 29 137c45 72 149 98 219 98c108 0 180 -51 180 -103c0 -32 -28 -56 -60 -56c-42 0 -60 36 -70 58c-14 31 -27 56 -78 56c-64 0 -94 -34 -94 -125v-105h161c31 0 96 3 152 17h11v-301c0 -44 0 -71 60 -71h16v-45h-272v45c69 0 70 21 70 71v186
c0 53 -36 53 -70 53h-128v-239c0 -58 8 -71 72 -71v-45h-267v45c68 0 69 22 69 71v239h-74z" />
    <glyph glyph-name="fl" unicode="fl" horiz-adv-x="646" 
d="M230 355v-239c0 -52 1 -71 72 -71v-45h-266v45c67 0 68 23 68 71v239h-74v45h74v48c0 69 20 117 37 141c32 45 116 86 210 86c19 0 55 -1 92 -13c32 0 67 4 104 13h7v-559c0 -50 5 -71 61 -71h15v-45h-272v45c65 0 70 16 70 71v239h-198zM230 513v-113h198v134
c-11 8 -23 25 -35 50c-11 23 -29 46 -69 46c-59 0 -94 -34 -94 -117z" />
    <glyph glyph-name="f_f" unicode="ff" horiz-adv-x="667" 
d="M433 354h-203v-237c0 -53 2 -71 73 -71v-46h-271v46c70 0 72 19 72 71v237h-82v46h82v53c0 63 0 222 213 222c107 0 144 -47 161 -68c23 26 59 68 156 68c129 0 146 -71 146 -98c0 -31 -20 -59 -58 -59c-45 0 -57 34 -69 71c-8 26 -23 40 -43 40c-51 0 -51 -53 -51 -94
v-135h88v-46h-88v-237c0 -53 2 -71 74 -71v-46h-270v46c69 0 70 20 70 71v237zM230 400h203v36c0 22 1 61 7 82c-35 -4 -54 8 -72 44c-18 35 -34 67 -79 67c-59 0 -59 -45 -59 -111v-118z" />
    <glyph glyph-name="f_f_i" unicode="ffi" horiz-adv-x="969" 
d="M229 354v-237c0 -50 0 -71 71 -71v-46h-264v46c67 0 67 23 67 71v237h-81v46h81v47c0 62 1 104 26 145c40 66 125 83 179 83c114 0 155 -50 173 -71c36 34 87 71 190 71c134 0 184 -64 184 -105c0 -37 -37 -55 -61 -55c-42 0 -61 41 -68 57c-15 33 -28 61 -81 61
c-93 0 -92 -83 -92 -110v-123h124c84 0 152 4 189 16h12v-299c0 -44 -1 -71 60 -71h15v-46h-270v46c68 0 69 22 69 71v178c0 46 -13 59 -62 59h-137v-237c0 -52 1 -71 73 -71v-46h-266v46c67 0 67 25 67 71v237h-198zM229 544v-144h198v35c0 54 3 67 9 85
c-42 -5 -58 17 -64 30c-29 55 -43 83 -83 83c-60 0 -60 -54 -60 -89z" />
    <glyph glyph-name="f_f_l" unicode="ffl" horiz-adv-x="969" 
d="M230 354v-237c0 -51 1 -71 71 -71v-46h-266v46c69 0 69 23 69 71v237h-82v46h82v32c0 87 8 124 21 150c18 36 68 93 185 93c52 0 124 -10 172 -70c49 47 117 70 185 70c11 0 50 0 99 -14c32 1 74 7 99 14h14v-558c0 -44 -1 -71 60 -71h14v-46h-270v46c69 0 70 22 70 71
v237h-200v-237c0 -51 0 -71 73 -71v-46h-266v46c67 0 67 24 67 71v237h-197zM230 526v-126h197v29c0 64 4 76 9 91c-44 -7 -63 28 -74 49c-18 34 -33 64 -74 64c-18 0 -35 -8 -46 -21s-12 -26 -12 -86zM553 506v-106h200v134c-13 13 -19 21 -29 45c-11 26 -24 54 -77 54
c-95 0 -94 -75 -94 -127z" />
    <glyph glyph-name=".notdef" horiz-adv-x="500" 
d="M12 0v665h475v-665h-475zM88 618l162 -243l161 243h-323zM60 575v-484c0 -1 161 242 161 242zM440 575l-162 -242l162 -243v485zM411 48l-161 242l-162 -242h323z" />
    <glyph glyph-name="space" unicode=" " horiz-adv-x="250" 
 />
    <glyph glyph-name="exclam" unicode="!" horiz-adv-x="281" 
d="M64 60c0 43 34 77 76 77c43 0 77 -35 77 -77s-34 -76 -77 -76c-41 0 -76 33 -76 76zM162 220h-44l-38 320c-2 17 -5 47 -5 66c0 53 36 72 64 72c35 0 66 -21 66 -72c0 -19 -3 -49 -5 -66z" />
    <glyph glyph-name="quotedbl" unicode="&#x22;" horiz-adv-x="521" 
d="M384 366h-22l-49 177c-3 12 -9 36 -9 61c0 38 29 70 68 70c45 0 69 -37 69 -68c0 -21 -9 -55 -12 -67zM160 366h-22l-49 177c-3 12 -9 36 -9 61c0 38 29 70 68 70c45 0 69 -37 69 -68c0 -21 -9 -55 -12 -67z" />
    <glyph glyph-name="numbersign" unicode="#" horiz-adv-x="667" 
d="M195 489l40 191h81l-40 -191h183l40 191h81l-40 -191h87v-81h-104l-33 -159h137v-81h-154l-40 -190h-81l40 190h-183l-40 -190h-81l40 190h-88v81h105l33 159h-138v81h155zM442 408h-183l-33 -159h183z" />
    <glyph glyph-name="dollar" unicode="$" horiz-adv-x="490" 
d="M209 34v243c-137 61 -169 117 -169 197c0 95 74 163 169 172v31h48v-30c71 -4 175 -48 175 -108c0 -25 -21 -49 -45 -49c-29 0 -40 28 -51 52c-11 25 -27 48 -79 57v-205c106 -46 197 -95 197 -208c0 -94 -73 -187 -197 -197v-118h-48v117c-98 4 -173 48 -173 96
c0 22 18 47 47 47c28 0 40 -21 52 -45c16 -32 33 -46 74 -52zM209 417v182c-78 -14 -79 -74 -79 -82c0 -56 58 -88 79 -100zM257 254v-219c89 12 106 76 106 102c0 62 -59 95 -106 117z" />
    <glyph glyph-name="percent" unicode="%" horiz-adv-x="844" 
d="M644 -8c-49 0 -136 27 -136 165c0 39 0 184 136 184s136 -148 136 -178c0 -148 -86 -171 -136 -171zM644 22c44 0 48 52 48 143c0 105 -7 146 -48 146c-35 0 -48 -30 -48 -144c0 -75 -1 -145 48 -145zM200 308c-49 0 -136 27 -136 165c0 39 0 184 136 184
s136 -148 136 -178c0 -148 -86 -171 -136 -171zM200 338c44 0 48 52 48 143c0 105 -7 146 -48 146c-35 0 -48 -30 -48 -144c0 -75 -1 -145 48 -145zM209 -28l354 693h57l-354 -693h-57z" />
    <glyph glyph-name="ampersand" unicode="&#x26;" horiz-adv-x="750" 
d="M324 392l151 -197c23 29 69 87 69 136c0 0 0 44 -51 43v45h201v-45c-54 -12 -69 -31 -116 -109l-21 -34c-24 -38 -39 -56 -53 -72c24 -35 72 -89 113 -89c25 0 52 17 60 79h45c-4 -68 -41 -161 -140 -161c-44 0 -84 16 -157 90c-69 -66 -140 -91 -196 -91
c-111 0 -183 86 -183 177c0 33 6 130 151 210c-27 46 -51 92 -51 148c0 104 84 153 158 153c89 0 139 -67 139 -128c0 -54 -37 -112 -119 -155zM396 112l-172 223c-22 -13 -73 -46 -73 -109c0 -73 64 -157 142 -157c47 0 83 28 103 43zM297 430c27 20 79 57 79 119
c0 38 -22 77 -68 77c-44 0 -66 -35 -66 -64c0 -26 11 -72 55 -132z" />
    <glyph glyph-name="quoteright" unicode="&#x2019;" horiz-adv-x="281" 
d="M58 351v45c68 13 121 49 121 108c0 14 -6 24 -17 24c-8 0 -21 -5 -40 -5c-34 0 -71 30 -71 74c0 49 39 77 79 77c42 0 103 -41 103 -134c0 -96 -61 -174 -175 -189z" />
    <glyph glyph-name="parenleft" unicode="(" horiz-adv-x="271" 
d="M206 674h55c-95 -129 -147 -281 -147 -452c0 -164 49 -325 148 -466h-56c-98 125 -155 284 -155 458c0 234 101 381 155 460z" />
    <glyph glyph-name="parenright" unicode=")" horiz-adv-x="271" 
d="M65 -244h-55c95 129 147 281 147 452c0 164 -49 325 -148 466h56c98 -125 155 -284 155 -458c0 -234 -101 -381 -155 -460z" />
    <glyph glyph-name="asterisk" unicode="*" horiz-adv-x="542" 
d="M254 449c2 29 -3 58 -12 87c-10 32 -20 57 -20 79c0 39 25 59 48 59c31 0 50 -30 50 -55c0 -19 -2 -26 -19 -85c-14 -49 -15 -63 -15 -85c38 11 75 35 92 48c31 24 54 35 80 35c32 0 50 -22 50 -45c0 -35 -36 -56 -83 -56c-72 0 -94 -1 -128 -12c9 -14 20 -30 68 -66
c37 -27 69 -50 69 -87c0 -23 -16 -47 -44 -47c-43 0 -59 46 -75 91c-23 64 -32 76 -43 90c-21 -26 -34 -63 -37 -73c-18 -59 -35 -107 -81 -107c-31 0 -45 25 -45 45c0 33 26 55 57 78s63 49 79 76c-36 13 -87 13 -102 13c-44 0 -109 0 -109 56c0 27 22 45 47 45
c20 0 40 -6 84 -37c31 -22 44 -32 89 -47z" />
    <glyph glyph-name="plus" unicode="+" horiz-adv-x="667" 
d="M64 368h224v224h90v-224h224v-90h-224v-224h-90v224h-224v90z" />
    <glyph glyph-name="comma" unicode="," horiz-adv-x="281" 
d="M58 -186v45c68 13 121 49 121 108c0 14 -6 24 -17 24c-4 0 -9 -1 -16 -2c-6 -2 -14 -3 -24 -3c-34 0 -71 30 -71 74c0 49 39 77 79 77c42 0 103 -41 103 -134c0 -96 -61 -174 -175 -189z" />
    <glyph glyph-name="hyphen" unicode="-" horiz-adv-x="344" 
d="M40 152v98h264v-98h-264z" />
    <glyph glyph-name="period" unicode="." horiz-adv-x="281" 
d="M64 60c0 43 34 77 76 77c43 0 77 -35 77 -77s-34 -76 -77 -76c-41 0 -76 33 -76 76z" />
    <glyph glyph-name="slash" unicode="/" 
d="M292 674l-204 -690h-88l204 690h88z" />
    <glyph glyph-name="zero" unicode="0" horiz-adv-x="500" 
d="M250 -15c-91 0 -221 66 -221 318c0 177 34 231 61 269c29 41 76 85 160 85c80 0 129 -40 160 -85c26 -37 61 -95 61 -257c0 -144 -28 -209 -73 -260c-50 -56 -107 -70 -148 -70zM340 321c0 135 9 289 -90 289c-87 0 -90 -106 -90 -289c0 -176 3 -289 90 -289
c94 0 90 138 90 289z" />
    <glyph glyph-name="one" unicode="1" horiz-adv-x="500" 
d="M314 657v-549c0 -44 10 -61 58 -61h28v-47h-301v47h23c63 0 64 21 64 68v380c0 55 -8 67 -79 67h-17v45c115 15 143 26 178 50h46z" />
    <glyph glyph-name="two" unicode="2" horiz-adv-x="500" 
d="M434 -37h-41c5 22 4 37 -22 37h-322v46c114 108 272 286 272 440c0 87 -54 124 -104 124c-53 0 -91 -40 -91 -86c0 -26 11 -49 20 -67c4 -8 2 -9 -19 -17l-32 -13c-9 -4 -18 -7 -19 -7c-9 0 -28 38 -28 84c0 83 64 153 199 153c175 0 202 -124 202 -172
c0 -103 -88 -197 -166 -275c-20 -20 -115 -107 -134 -125h307z" />
    <glyph glyph-name="three" unicode="3" horiz-adv-x="500" 
d="M158 467l-41 -18c-6 -3 -13 -6 -19 -6c-15 0 -36 34 -36 69c0 37 33 145 211 145c96 0 174 -35 174 -115c0 -82 -89 -135 -126 -158c24 -1 73 -7 105 -48c17 -22 39 -52 39 -116c0 -131 -120 -235 -264 -235c-96 0 -166 41 -166 100c0 36 27 54 50 54c35 0 48 -27 64 -60
c15 -31 29 -47 62 -47c123 0 124 133 124 163c0 86 -12 139 -61 139c-20 0 -39 -13 -50 -22c-20 -17 -28 -24 -40 -24c-11 0 -24 8 -24 24s11 26 29 38c99 66 141 99 141 172c0 60 -47 88 -92 88c-47 0 -90 -34 -90 -73c0 -17 6 -32 17 -46c8 -10 8 -10 8 -12
c0 -6 -9 -9 -15 -12z" />
    <glyph glyph-name="four" unicode="4" horiz-adv-x="500" 
d="M31 212v63l287 382h66v-389h89v-56h-89v-97c0 -61 8 -68 73 -68h16v-47h-301v47h17c74 0 76 16 76 68v97h-234zM83 268h182v244z" />
    <glyph glyph-name="five" unicode="5" horiz-adv-x="500" 
d="M106 642h300l-21 -43c-19 -39 -26 -39 -50 -39h-186l-4 -175c26 22 56 46 119 46c126 0 200 -109 200 -214c0 -113 -91 -232 -264 -232c-107 0 -159 50 -159 96c0 35 27 53 49 53c25 0 34 -16 45 -36c29 -52 59 -66 93 -66c105 0 106 112 106 165c0 103 -18 187 -99 187
c-20 0 -62 -8 -86 -68h-52z" />
    <glyph glyph-name="six" unicode="6" horiz-adv-x="500" 
d="M173 381c27 18 60 36 105 36c85 0 186 -57 186 -206c0 -150 -113 -226 -209 -226c-80 0 -219 61 -219 288c0 204 100 384 287 384c96 0 127 -45 127 -76c0 -20 -15 -45 -45 -45c-26 0 -37 16 -55 39c-6 8 -26 35 -61 35c-97 0 -110 -166 -116 -229zM162 197
c0 -70 8 -165 90 -165c81 0 82 83 82 186c0 54 -3 152 -83 152c-84 0 -89 -118 -89 -173z" />
    <glyph glyph-name="seven" unicode="7" horiz-adv-x="500" 
d="M114 678h46c-4 -16 -6 -25 -1 -30s17 -6 39 -6h273l-184 -570c-13 -41 -29 -87 -75 -87c-30 0 -57 23 -57 57c0 24 21 58 27 70l206 424h-206c-54 0 -65 0 -81 -48l-5 -15h-49z" />
    <glyph glyph-name="eight" unicode="8" horiz-adv-x="500" 
d="M320 342c113 -7 152 -109 152 -166c0 -121 -91 -191 -218 -191c-142 0 -225 80 -225 191c0 101 70 153 156 167c-91 24 -138 77 -138 151c0 87 76 163 201 163c124 0 207 -73 207 -166c0 -37 -10 -112 -135 -149zM335 490c0 85 -35 123 -82 123c-42 0 -86 -27 -86 -124
c0 -21 0 -124 85 -124c83 0 83 104 83 125zM252 318c-94 0 -93 -113 -93 -150c0 -71 22 -136 92 -136c92 0 91 113 91 155c0 105 -50 131 -90 131z" />
    <glyph glyph-name="nine" unicode="9" horiz-adv-x="500" 
d="M327 261c-14 -8 -29 -17 -46 -24s-36 -12 -59 -12c-68 0 -186 52 -186 206c0 150 113 226 209 226c80 0 219 -61 219 -288c0 -204 -100 -384 -287 -384c-96 0 -127 45 -127 76c0 20 15 45 45 45c26 0 37 -16 55 -39c6 -8 26 -35 61 -35c97 0 110 166 116 229zM338 444
c0 70 -9 166 -90 166c-83 0 -82 -92 -82 -186c0 -42 -1 -152 83 -152s89 114 89 172z" />
    <glyph glyph-name="colon" unicode=":" horiz-adv-x="281" 
d="M64 339c0 43 34 77 76 77c43 0 77 -35 77 -77s-34 -76 -77 -76c-41 0 -76 33 -76 76zM64 60c0 43 34 77 76 77c43 0 77 -35 77 -77s-34 -76 -77 -76c-41 0 -76 33 -76 76z" />
    <glyph glyph-name="semicolon" unicode=";" horiz-adv-x="281" 
d="M58 -186v45c68 13 121 49 121 108c0 14 -6 24 -17 24c-4 0 -9 -1 -16 -2c-6 -2 -14 -3 -24 -3c-34 0 -71 30 -71 74c0 49 39 77 79 77c42 0 103 -41 103 -134c0 -96 -61 -174 -175 -189zM64 339c0 43 34 77 76 77c43 0 77 -35 77 -77s-34 -76 -77 -76
c-41 0 -76 33 -76 76z" />
    <glyph glyph-name="less" unicode="&#x3c;" horiz-adv-x="667" 
d="M601 589v-97l-416 -169l416 -169v-97l-538 225v82z" />
    <glyph glyph-name="equal" unicode="=" horiz-adv-x="667" 
d="M64 484h538v-90h-538v90zM64 252h538v-90h-538v90z" />
    <glyph glyph-name="greater" unicode="&#x3e;" horiz-adv-x="667" 
d="M64 57v97l416 169l-416 169v97l538 -225v-82z" />
    <glyph glyph-name="question" unicode="?" horiz-adv-x="448" 
d="M133 220v165h40c5 -7 9 -14 17 -19c7 -5 17 -8 31 -8c43 0 71 47 71 125c0 121 -57 149 -96 149c-52 0 -66 -40 -73 -60c-5 -14 -14 -42 -46 -42c-26 0 -45 24 -45 45c0 61 93 103 181 103c135 0 202 -105 202 -198c0 -94 -67 -178 -159 -178c-37 0 -62 13 -78 21v-103
h-45zM79 60c0 43 34 77 76 77c43 0 77 -35 77 -77s-34 -76 -77 -76c-41 0 -76 33 -76 76z" />
    <glyph glyph-name="at" unicode="@" horiz-adv-x="885" 
d="M562 449l119 5l-90 -307c-3 -11 -14 -51 -14 -77c0 -18 16 -38 38 -38c68 0 212 114 212 304c0 159 -107 308 -313 308c-278 0 -432 -226 -432 -451c0 -237 171 -385 382 -385c137 0 325 70 400 270h30c-13 -33 -34 -84 -84 -143c-97 -114 -229 -154 -347 -154
c-243 0 -432 172 -432 429c0 255 186 464 472 464c246 0 351 -168 351 -329c0 -173 -109 -348 -293 -348c-99 0 -99 79 -99 84c0 27 7 52 14 77c-31 -54 -87 -161 -171 -161c-65 0 -82 67 -82 108c0 201 166 362 253 362c51 0 66 -40 69 -79zM489 432
c-64 0 -140 -219 -140 -301c0 -24 12 -45 29 -45c46 0 145 159 145 283c0 35 -16 63 -34 63z" />
    <glyph glyph-name="A" unicode="A" horiz-adv-x="688" 
d="M191 185l-16 -43c-7 -18 -14 -37 -14 -52c0 -45 53 -45 76 -45v-45h-228v45c52 0 79 22 120 130l191 500h46l202 -516c33 -84 44 -114 111 -114v-45h-312v45c41 0 76 0 76 32c0 6 -1 17 -6 30l-31 78h-215zM297 464l-87 -231h178z" />
    <glyph glyph-name="B" unicode="B" horiz-adv-x="656" 
d="M356 0h-332v45c87 0 95 28 95 78v418c0 54 -13 78 -95 78v46c140 3 236 6 298 6c20 0 271 13 271 -165c0 -66 -42 -118 -159 -152c118 -21 187 -83 187 -179c0 -159 -189 -175 -265 -175zM338 325h-79v-159c0 -71 -3 -112 82 -112c56 0 130 29 130 129
c0 90 -48 142 -133 142zM259 616v-237h40c108 0 154 51 154 123c0 68 -49 114 -143 114h-51z" />
    <glyph glyph-name="C" unicode="C" horiz-adv-x="740" 
d="M677 257v-250h-46c-11 43 -26 64 -34 75c-25 -27 -87 -94 -214 -94c-178 0 -333 139 -333 340c0 186 138 346 342 346c119 0 179 -55 205 -81c10 19 16 40 21 61h44l8 -244h-47c-27 130 -121 210 -220 210c-110 0 -195 -87 -195 -279c0 -262 138 -295 194 -295
c127 0 209 120 228 211h47z" />
    <glyph glyph-name="D" unicode="D" horiz-adv-x="771" 
d="M25 619v46l142 3c15 0 103 2 120 2c104 0 179 -11 243 -37c120 -49 194 -174 194 -308c0 -151 -88 -248 -170 -284c-84 -37 -164 -41 -227 -41h-302v45c88 0 98 25 98 78v418c0 51 -8 78 -98 78zM263 615v-465c0 -67 0 -96 86 -96c177 0 217 162 217 274
c0 141 -60 235 -146 269c-42 17 -81 18 -157 18z" />
    <glyph glyph-name="E" unicode="E" horiz-adv-x="656" 
d="M619 218l-5 -218h-590v45c88 0 96 27 96 78v416c0 48 -5 78 -96 78v45h549l9 -172h-45c-30 117 -73 118 -153 118h-124v-234h67c67 0 81 12 85 83h47v-220h-45c-4 73 -22 83 -86 83h-68v-156c0 -86 0 -110 95 -110h53c41 0 141 0 165 164h46z" />
    <glyph glyph-name="F" unicode="F" horiz-adv-x="594" 
d="M259 320v-197c0 -42 2 -78 91 -78h14v-45h-340v45c86 0 95 27 95 78v416c0 48 -6 78 -95 78v45h542l5 -172h-46c-26 118 -77 118 -148 118h-118v-234h62c56 0 74 11 78 82h45v-220h-46c-4 70 -17 84 -79 84h-60z" />
    <glyph glyph-name="G" unicode="G" horiz-adv-x="771" 
d="M472 306h295v-45c-55 -6 -68 -14 -68 -76v-155c-34 0 -75 -1 -153 -19c-58 -13 -101 -23 -160 -23c-228 0 -337 182 -337 342c0 196 151 344 338 344c43 0 121 -7 205 -78c10 19 14 37 18 58h47l5 -217h-45c-21 98 -97 179 -202 179c-90 0 -208 -55 -208 -281
c0 -109 22 -289 201 -289c139 0 151 77 151 135c0 60 -6 80 -87 80v45z" />
    <glyph glyph-name="H" unicode="H" horiz-adv-x="823" 
d="M258 322v-199c0 -46 5 -78 95 -78v-45h-328v45c85 0 93 29 93 78v416c0 47 -6 78 -93 78v45h328v-45c-87 0 -95 -29 -95 -78v-163h307v163c0 47 -5 78 -93 78v45h326v-45c-87 0 -93 -31 -93 -78v-416c0 -44 4 -78 93 -78v-45h-326v45c85 0 93 29 93 78v199h-307z" />
    <glyph glyph-name="I" unicode="I" horiz-adv-x="375" 
d="M19 617v45h336v-45c-88 0 -98 -25 -98 -78v-416c0 -50 8 -78 98 -78v-45h-336v45c88 0 98 25 98 78v416c0 51 -8 78 -98 78z" />
    <glyph glyph-name="J" unicode="J" horiz-adv-x="375" 
d="M16 617v45h342v-45c-88 0 -99 -24 -99 -78v-501c0 -66 1 -106 -27 -160c-56 -108 -185 -117 -221 -117c-93 0 -164 36 -164 103c0 32 23 68 67 68c36 0 63 -26 63 -54c0 -7 -1 -12 -3 -18c-3 -8 -4 -12 -4 -17c0 -29 44 -28 50 -28c99 0 99 70 99 170v554
c0 58 -12 78 -103 78z" />
    <glyph glyph-name="K" unicode="K" horiz-adv-x="792" 
d="M258 266v-143c0 -57 19 -78 96 -78v-45h-331v45c87 0 95 28 95 78v416c0 48 -5 78 -95 78v45h331v-45c-87 0 -96 -26 -96 -78v-199l206 180c23 20 41 38 41 62c0 27 -33 35 -67 35v45h302v-45c-92 -8 -105 -21 -225 -125l-69 -60l195 -278c59 -84 82 -106 155 -109v-45
h-368v45h30c52 0 66 6 66 21s-17 41 -40 73l-142 201z" />
    <glyph glyph-name="L" unicode="L" horiz-adv-x="646" 
d="M618 221l-4 -221h-590v45c88 0 96 27 96 78v416c0 49 -6 78 -96 78v45h333v-45c-87 0 -97 -25 -97 -78v-381c0 -75 0 -104 92 -104c76 0 202 0 221 167h45z" />
    <glyph glyph-name="M" unicode="M" horiz-adv-x="969" 
d="M428 0l-253 538v-394c0 -68 1 -99 96 -99v-45h-245v45c94 0 95 31 95 99v375c0 70 0 98 -95 98v45h242l220 -467l220 467h237v-45c-88 0 -97 -27 -97 -78v-416c0 -48 7 -78 97 -78v-45h-332v45c87 0 95 28 95 78v415l-250 -538h-30z" />
    <glyph glyph-name="N" unicode="N" horiz-adv-x="760" 
d="M168 509v-365c0 -69 2 -99 99 -99v-45h-246v45c94 0 93 32 93 99v338c0 88 -2 125 -92 135v45h193l377 -445v302c0 64 -3 98 -95 98v45h247v-45c-97 0 -98 -27 -98 -98v-525h-45z" />
    <glyph glyph-name="O" unicode="O" horiz-adv-x="833" 
d="M47 332c0 171 120 342 366 342c299 0 373 -223 373 -343c0 -176 -127 -343 -369 -343c-263 0 -370 188 -370 344zM205 333c0 -73 6 -287 213 -287c203 0 210 219 210 287c0 135 -40 283 -211 283c-181 0 -212 -157 -212 -283z" />
    <glyph glyph-name="P" unicode="P" horiz-adv-x="646" 
d="M261 296v-173c0 -52 9 -78 98 -78v-45h-333v45c87 0 95 28 95 78v418c0 48 -6 78 -95 78v46l189 5c41 1 85 2 127 1c35 -1 275 1 275 -185c0 -179 -200 -190 -312 -190h-44zM261 616v-266h45c70 0 161 7 161 135c0 136 -118 134 -206 131z" />
    <glyph glyph-name="Q" unicode="Q" horiz-adv-x="833" 
d="M891 -102h52c-23 -44 -70 -137 -216 -137c-99 0 -157 47 -192 77c-66 57 -99 63 -127 63c-37 0 -61 -19 -78 -36c-25 -25 -35 -34 -53 -34c-14 0 -29 10 -29 27c0 23 30 43 57 62c40 28 108 67 109 68c-268 3 -367 194 -367 345c0 159 108 341 372 341
c275 0 367 -203 367 -343c0 -120 -63 -273 -246 -327c-55 -28 -79 -42 -101 -60c21 -1 60 -4 113 -25c100 -40 146 -57 211 -57c38 0 87 6 128 36zM205 333c0 -71 5 -287 213 -287c202 0 210 219 210 287c0 135 -40 283 -211 283c-181 0 -212 -158 -212 -283z" />
    <glyph glyph-name="R" unicode="R" horiz-adv-x="740" 
d="M261 296v-173c0 -49 7 -78 97 -78v-45h-332v45c86 0 95 26 95 78v418c0 50 -7 78 -95 78v46l153 5c25 0 77 3 133 1c57 -2 118 -6 160 -17c69 -18 144 -70 144 -169c0 -65 -38 -130 -145 -159c51 -30 73 -65 139 -166c62 -95 81 -111 130 -115v-45h-177
c-26 30 -55 78 -84 125l-45 74c-56 92 -60 97 -148 97h-25zM261 616v-266h31c62 0 174 1 174 136c0 134 -123 132 -205 130z" />
    <glyph glyph-name="S" unicode="S" horiz-adv-x="573" 
d="M58 12v227h45c19 -76 67 -197 191 -197c68 0 110 43 110 96c0 63 -51 88 -154 136c-167 78 -192 156 -192 214c0 85 71 186 201 186c63 0 122 -32 161 -78c5 12 10 29 16 58h46v-185h-46c-10 32 -48 151 -170 151c-59 0 -97 -34 -97 -83c0 -62 56 -87 148 -130
c109 -51 213 -101 213 -217c0 -75 -65 -202 -214 -202c-66 0 -142 27 -193 91c-5 -11 -15 -32 -20 -67h-45z" />
    <glyph glyph-name="T" unicode="T" horiz-adv-x="708" 
d="M284 608h-70c-60 0 -135 0 -141 -134h-46v188h654v-188h-46c-13 134 -85 134 -127 134h-84v-485c0 -49 6 -78 96 -78v-45h-332v45c87 0 96 26 96 78v485z" />
    <glyph glyph-name="U" unicode="U" horiz-adv-x="750" 
d="M11 617v45h334v-45c-88 0 -97 -26 -97 -78v-276c0 -61 5 -99 17 -130c22 -54 81 -87 144 -87c68 0 134 37 157 90c20 47 22 93 22 145v238c0 69 -1 98 -98 98v45h244v-45c-92 0 -92 -33 -92 -98v-244c0 -76 0 -119 -29 -170c-57 -103 -178 -117 -232 -117
c-79 0 -201 28 -246 123c-27 56 -27 97 -27 152l-1 276c0 50 -7 78 -96 78z" />
    <glyph glyph-name="V" unicode="V" horiz-adv-x="760" 
d="M362 -12l-226 528c-36 85 -44 101 -122 101v45h337v-45c-54 -2 -85 -3 -85 -37c0 -13 5 -32 12 -47l152 -354l141 331c13 31 18 43 18 59c0 47 -47 47 -88 48v45h245v-45c-66 -3 -77 -19 -123 -126l-216 -503h-45z" />
    <glyph glyph-name="W" unicode="W" horiz-adv-x="979" 
d="M262 -12l-153 523c-28 94 -41 106 -96 106v45h287v-45c-35 0 -65 0 -65 -34c0 -12 2 -22 11 -53l97 -331l155 463h64l164 -463l83 311c4 14 9 37 9 51c0 54 -51 55 -79 56v45h227v-45c-69 -6 -76 -19 -103 -120l-138 -509h-68l-169 476l-159 -476h-67z" />
    <glyph glyph-name="X" unicode="X" horiz-adv-x="823" 
d="M371 268l-103 -120c-14 -16 -36 -45 -36 -63c0 -40 44 -40 87 -40v-45h-291v45c60 2 92 12 192 129l118 138l-160 210c-59 77 -71 95 -150 95v45h361v-45h-25c-28 0 -56 0 -56 -26c0 -13 19 -38 30 -53l92 -119l105 123c12 15 23 28 23 45c0 20 -12 30 -58 30h-23v45h274
v-45c-79 0 -111 -39 -170 -107l-118 -136l161 -211c68 -90 93 -117 170 -118v-45h-387v45h31c18 0 66 0 66 36c0 12 -17 34 -26 46z" />
    <glyph glyph-name="Y" unicode="Y" horiz-adv-x="708" 
d="M284 271l-166 277c-4 5 -6 10 -7 11c-30 48 -46 56 -88 58v45h310v-45c-36 0 -68 0 -68 -29c0 -13 5 -25 33 -72l103 -174l98 155c20 32 32 53 32 74c0 46 -42 46 -76 46v45h241v-45c-55 -4 -70 -25 -133 -122l-139 -215v-157c0 -45 4 -78 96 -78v-45h-333v45
c87 0 97 25 97 78v148z" />
    <glyph glyph-name="Z" unicode="Z" horiz-adv-x="646" 
d="M27 0v46l396 562h-155c-86 0 -162 0 -179 -123h-47l12 177h545v-44l-396 -564h190c70 0 157 0 184 143h45l-11 -197h-584z" />
    <glyph glyph-name="bracketleft" unicode="[" horiz-adv-x="396" 
d="M132 -233v895h254v-45h-63c-75 0 -80 -15 -80 -67v-670c0 -47 0 -67 80 -67h63v-46h-254z" />
    <glyph glyph-name="backslash" unicode="\" 
d="M0 674h88l204 -690h-88z" />
    <glyph glyph-name="bracketright" unicode="]" horiz-adv-x="396" 
d="M264 662v-895h-254v45h63c75 0 80 15 80 67v670c0 47 0 67 -80 67h-63v46h254z" />
    <glyph glyph-name="asciicircum" unicode="^" horiz-adv-x="552" 
d="M58 311l200 351h40l198 -351h-78l-144 250l-142 -250h-74z" />
    <glyph glyph-name="underscore" unicode="_" horiz-adv-x="500" 
d="M-6 -75h512v-50h-512v50z" />
    <glyph glyph-name="quoteleft" unicode="&#x2018;" horiz-adv-x="281" 
d="M223 674v-45c-68 -13 -121 -49 -121 -108c0 -14 6 -24 17 -24c8 0 21 5 40 5c34 0 71 -30 71 -74c0 -49 -39 -77 -79 -77c-42 0 -103 41 -103 134c0 96 61 174 175 189z" />
    <glyph glyph-name="a" unicode="a" horiz-adv-x="542" 
d="M318 269v28c0 41 -14 74 -77 74c-53 0 -69 -24 -76 -63c-3 -18 -8 -51 -58 -51c-24 0 -52 14 -52 46c0 52 53 113 201 113c156 0 188 -65 188 -133v-154c0 -49 0 -71 30 -71c16 0 32 19 32 45h36c1 -78 -52 -114 -114 -114c-56 0 -94 31 -101 65
c-67 -54 -128 -65 -164 -65c-70 0 -120 36 -120 93c0 96 98 142 275 187zM318 99v121c-143 -45 -143 -92 -143 -112c0 -29 18 -50 52 -50c40 0 70 24 91 41z" />
    <glyph glyph-name="b" unicode="b" horiz-adv-x="594" 
d="M80 -16v541c0 57 -17 60 -76 62v44l202 43v-316c20 19 62 58 144 58c138 0 205 -112 205 -213c0 -129 -100 -219 -220 -219c-75 0 -124 35 -152 72c-20 -20 -50 -52 -65 -72h-38zM206 296v-199c45 -59 97 -59 110 -59c90 0 104 106 104 169c0 56 -10 155 -100 155
c-43 0 -85 -28 -114 -66z" />
    <glyph glyph-name="c" unicode="c" horiz-adv-x="490" 
d="M425 118l41 -19c-44 -86 -117 -115 -190 -115c-120 0 -236 76 -236 208c0 117 101 224 248 224c81 0 170 -34 170 -100c0 -29 -25 -52 -53 -52c-43 0 -48 36 -55 63c-9 33 -27 44 -62 44c-42 0 -113 -20 -113 -156c0 -95 38 -177 131 -177c76 0 108 62 119 80z" />
    <glyph glyph-name="d" unicode="d" horiz-adv-x="604" 
d="M393 357v160c0 66 -11 68 -74 70v45l200 42v-547c0 -61 0 -74 72 -76v-45c-45 -2 -120 -8 -189 -22c-7 15 -8 34 -9 51c-16 -13 -62 -51 -137 -51c-117 0 -214 99 -214 223c0 99 67 209 211 209c81 0 117 -36 140 -59zM393 98v198c-18 21 -56 66 -116 66
c-33 0 -62 -20 -79 -47c-22 -35 -21 -94 -21 -114c0 -115 50 -163 106 -163c44 0 83 24 110 60z" />
    <glyph glyph-name="e" unicode="e" horiz-adv-x="510" 
d="M432 102l38 -26c-43 -69 -106 -92 -183 -92c-154 0 -247 91 -247 213c0 117 90 219 232 219c141 0 203 -103 203 -201h-300c2 -23 -8 -177 131 -177c18 0 84 5 126 64zM176 260h178c0 30 -1 111 -88 111c-59 0 -88 -48 -90 -111z" />
    <glyph glyph-name="f" unicode="f" horiz-adv-x="333" 
d="M228 355v-239c0 -48 0 -71 60 -71h18v-45h-286v45h22c55 0 60 22 60 71v239h-82v45h82v57c0 32 1 72 22 116c38 79 118 101 181 101c123 0 145 -70 145 -97c0 -37 -33 -60 -61 -60c-45 0 -58 41 -66 72c-2 8 -13 40 -46 40c-49 0 -49 -49 -49 -100v-129h99v-45h-99z" />
    <glyph glyph-name="g" unicode="g" horiz-adv-x="542" 
d="M194 146c-74 14 -131 48 -131 123c0 53 36 147 199 147c34 0 101 -4 148 -45c18 26 42 44 79 44c35 0 52 -21 52 -42c0 -27 -17 -39 -31 -39c-15 0 -22 6 -31 13c-7 5 -19 16 -26 16c-11 0 -17 -3 -24 -10c15 -19 35 -43 35 -88c0 -113 -116 -128 -201 -139
c-31 -4 -115 -15 -115 -47c0 -20 25 -25 69 -25h74c36 0 217 5 217 -140c0 -60 -45 -158 -249 -158c-39 0 -219 0 -219 107c0 25 14 62 56 62c16 0 26 -2 37 -9c-5 -8 -11 -19 -11 -36c0 -38 42 -79 150 -79c104 0 163 32 163 79c0 53 -58 58 -181 59c-94 1 -192 9 -192 98
c0 78 83 98 132 109zM186 277c0 -37 9 -107 78 -107c44 0 77 33 77 101c0 48 -19 103 -77 103c-64 0 -78 -55 -78 -97z" />
    <glyph glyph-name="h" unicode="h" horiz-adv-x="583" 
d="M500 262v-146c0 -46 0 -71 66 -71v-45h-251v45c48 0 59 18 59 47v164c0 31 0 95 -62 95c-31 0 -67 -19 -83 -45c-20 -32 -21 -59 -21 -93v-84c0 -56 0 -84 59 -84v-45h-256v45c70 0 71 20 71 71v410c0 45 -4 61 -71 62v44l197 42v-330c15 17 60 72 146 72
c49 0 105 -22 126 -61c16 -29 20 -63 20 -93z" />
    <glyph glyph-name="i" unicode="i" horiz-adv-x="313" 
d="M224 416v-300c0 -46 0 -71 65 -71v-45h-265v45h14c60 0 60 27 60 71v145c0 52 0 67 -74 68v45zM163 678c39 0 71 -32 71 -71s-32 -71 -71 -71s-71 32 -71 71s32 71 71 71z" />
    <glyph glyph-name="j" unicode="j" horiz-adv-x="313" 
d="M235 416v-428c0 -48 0 -99 -24 -141c-45 -79 -124 -91 -168 -91c-100 0 -135 45 -135 85c0 33 29 56 60 56c40 0 53 -34 61 -57c6 -17 15 -35 37 -35c41 0 43 43 43 127v339c0 51 -11 58 -80 58v45zM180 678c39 0 71 -32 71 -71s-32 -71 -71 -71s-71 32 -71 71
s32 71 71 71z" />
    <glyph glyph-name="k" unicode="k" horiz-adv-x="583" 
d="M211 169v-61c0 -61 18 -63 56 -63v-45h-253v45c57 0 71 12 71 71v416c0 48 -19 53 -71 54v45l197 43v-450l137 94c13 9 21 15 21 24c0 8 -5 13 -23 13h-27v45h207v-45c-31 -3 -66 -15 -111 -46l-50 -35l131 -177c17 -23 40 -52 65 -52v-45h-242v45c14 0 43 1 43 17
c0 8 -3 15 -11 25l-89 117z" />
    <glyph glyph-name="l" unicode="l" horiz-adv-x="313" 
d="M220 674v-558c0 -44 0 -71 60 -71h14v-45h-281v45h21c60 0 60 27 60 71v416c0 49 -20 55 -81 55v45z" />
    <glyph glyph-name="m" unicode="m" horiz-adv-x="948" 
d="M866 267v-151c0 -44 0 -71 60 -71h17v-45h-271v45c68 0 68 23 68 71v148c0 21 0 87 -80 87c-75 0 -119 -62 -119 -140v-95c0 -50 1 -71 72 -71v-45h-266v45c68 0 68 23 68 71v154c0 80 -69 81 -77 81c-42 0 -86 -23 -105 -54c-18 -29 -17 -51 -17 -78v-103
c0 -50 2 -71 72 -71v-45h-267v45c69 0 69 22 69 71v167c0 18 -7 46 -59 46h-25v45l206 42c4 -26 4 -59 4 -74c41 41 89 74 163 74c47 0 123 -12 156 -87c65 78 127 87 170 87c99 0 161 -45 161 -149z" />
    <glyph glyph-name="n" unicode="n" horiz-adv-x="594" 
d="M509 281v-165c0 -46 0 -71 67 -71v-45h-253v45c61 0 60 23 60 78v138c0 44 -6 90 -62 90c-75 0 -102 -71 -102 -130v-109c0 -49 8 -67 60 -67v-45h-258v45c63 0 72 12 72 71v158c0 45 -11 55 -72 55v45l190 42c4 -25 5 -40 4 -74c28 30 72 74 147 74
c82 0 147 -43 147 -135z" />
    <glyph glyph-name="o" unicode="o" horiz-adv-x="563" 
d="M41 200c0 152 124 216 244 216c155 0 237 -101 237 -215c0 -137 -110 -217 -240 -217c-116 0 -241 68 -241 216zM176 197c0 -74 5 -168 107 -168c97 0 104 96 104 175c0 99 -17 167 -107 167c-83 0 -104 -56 -104 -174z" />
    <glyph glyph-name="p" unicode="p" horiz-adv-x="604" 
d="M213 38v-156c0 -49 5 -70 60 -70h27v-45h-284v45c66 0 71 13 71 70v382c0 51 -4 65 -71 65v45l190 42c4 -13 6 -23 7 -62c42 42 86 62 146 62c134 0 205 -108 205 -209c0 -121 -90 -223 -217 -223c-64 0 -107 28 -134 54zM213 294v-193c25 -38 68 -63 112 -63
c104 0 104 131 104 174c0 100 -34 150 -105 150c-49 0 -90 -38 -111 -68z" />
    <glyph glyph-name="q" unicode="q" horiz-adv-x="594" 
d="M414 343l61 73h44v-534c0 -52 2 -70 74 -70v-45h-286v45h26c60 0 60 27 60 70v162c-20 -19 -66 -60 -145 -60c-118 0 -207 90 -207 212c0 118 85 220 220 220c96 0 135 -50 153 -73zM393 105v192c-17 27 -52 65 -107 65c-74 0 -110 -52 -110 -171c0 -25 0 -153 100 -153
c70 0 110 56 117 67z" />
    <glyph glyph-name="r" unicode="r" horiz-adv-x="438" 
d="M219 201v-85c0 -46 0 -71 66 -71h26v-45h-303v45h25c60 0 60 27 60 71v143c0 63 -14 70 -85 70v45l190 42c10 -32 12 -80 14 -106c26 55 84 106 142 106c56 0 87 -37 87 -77c0 -41 -31 -61 -58 -61c-17 0 -33 6 -49 27c-9 11 -17 23 -34 23c-56 0 -81 -77 -81 -127z" />
    <glyph glyph-name="s" unicode="s" horiz-adv-x="479" 
d="M49 -13l-5 127h41c10 -33 51 -85 161 -85c17 0 101 0 101 55c0 31 -30 39 -96 56c-99 25 -213 53 -213 151c0 78 79 125 192 125c81 0 123 -20 140 -28l12 25h39v-113h-40c-10 40 -61 71 -148 71c-17 0 -102 0 -102 -42c0 -32 37 -36 134 -61c58 -15 182 -39 182 -152
c0 -86 -84 -132 -195 -132c-45 0 -105 8 -146 30l-19 -27h-38z" />
    <glyph glyph-name="t" unicode="t" horiz-adv-x="365" 
d="M213 355v-233c0 -46 -1 -80 33 -80c37 0 59 47 68 64l42 -19c-36 -76 -83 -103 -144 -103c-125 0 -125 95 -125 141v230h-74v45c98 0 149 62 160 129h40v-129h138v-45h-138z" />
    <glyph glyph-name="u" unicode="u" horiz-adv-x="594" 
d="M85 141v144c0 48 0 70 -70 70v45h196v-269c0 -16 0 -83 64 -83c59 0 97 69 101 76v161c0 51 -2 70 -73 70v45h199v-294c0 -40 5 -56 72 -58v-45c-9 -1 -140 -7 -198 -19v71c-50 -57 -104 -72 -151 -72c-140 0 -140 112 -140 158z" />
    <glyph glyph-name="v" unicode="v" horiz-adv-x="531" 
d="M237 -11l-168 323c-21 40 -22 40 -57 43v45h239v-45c-27 -1 -50 -2 -50 -20c0 -6 6 -20 10 -28l102 -198l97 195c6 13 10 22 10 30c0 21 -22 21 -49 21v45h148v-45c-35 0 -48 -32 -67 -70l-147 -296h-68z" />
    <glyph glyph-name="w" unicode="w" horiz-adv-x="813" 
d="M232 -16l-141 301c-28 59 -35 69 -80 70v45h251v-45c-23 1 -50 2 -50 -24c0 -11 4 -21 9 -32l77 -165l132 266h35l134 -266l72 152c4 9 15 31 15 45c0 24 -23 24 -57 24v45h172v-45c-43 0 -50 -10 -78 -69l-144 -302h-42l-133 263l-130 -263h-42z" />
    <glyph glyph-name="x" unicode="x" horiz-adv-x="552" 
d="M245 147l-62 -52c-26 -21 -24 -27 -24 -33c0 -17 26 -17 52 -17v-45h-190v45c32 6 62 23 132 82l62 53l-119 127c-34 37 -45 46 -77 48v45h268v-45c-27 0 -46 0 -46 -16c0 -5 5 -13 20 -28l48 -51l52 48c19 17 27 22 27 33c0 7 -15 14 -46 14v45h180v-45
c-28 0 -54 -15 -123 -76l-59 -52l139 -151c12 -13 26 -23 47 -31v-45h-273v45h17c18 0 46 0 46 19c0 9 -14 23 -22 31z" />
    <glyph glyph-name="y" unicode="y" horiz-adv-x="531" 
d="M317 124l76 155c9 18 16 33 16 45c0 21 -24 31 -48 31v45h158v-45c-42 -6 -49 -20 -88 -101l-143 -297c-70 -146 -92 -201 -159 -201c-29 0 -56 20 -56 48c0 45 45 58 73 66c67 19 96 97 106 120l-186 328c-19 34 -31 37 -54 37v45h237v-45h-15c-21 0 -34 -4 -34 -16
c0 -9 6 -20 14 -34z" />
    <glyph glyph-name="z" unicode="z" horiz-adv-x="490" 
d="M38 0v36l232 319h-106c-18 0 -44 0 -63 -71h-46l9 116h364v-39l-230 -316h93c34 0 65 0 96 87h47l-13 -132h-383z" />
    <glyph glyph-name="braceleft" unicode="{" horiz-adv-x="375" 
d="M51 201v25c59 11 104 49 104 107c0 42 -24 116 -24 161c0 36 28 168 192 180v-21c-43 -4 -104 -42 -104 -107c0 -42 21 -116 21 -166c0 -43 -32 -138 -151 -165c83 -21 152 -91 152 -166c0 -40 -22 -125 -22 -165c0 -64 45 -96 104 -110v-20c-138 5 -192 114 -192 177
c0 56 24 113 24 166c0 45 -23 88 -104 104z" />
    <glyph glyph-name="bar" unicode="|" horiz-adv-x="563" 
d="M236 674h91v-907h-91v907z" />
    <glyph glyph-name="braceright" unicode="}" horiz-adv-x="375" 
d="M324 201c-81 -16 -104 -59 -104 -104c0 -53 24 -110 24 -166c0 -63 -54 -172 -192 -177v20c59 14 104 46 104 110c0 40 -22 125 -22 165c0 75 69 145 152 166c-119 27 -151 122 -151 165c0 50 21 124 21 166c0 65 -61 103 -104 107v21c164 -12 192 -144 192 -180
c0 -45 -24 -119 -24 -161c0 -58 45 -96 104 -107v-25z" />
    <glyph glyph-name="asciitilde" unicode="~" horiz-adv-x="667" 
d="M571 412h31c-6 -145 -94 -167 -137 -167s-70 10 -184 57c-55 24 -80 30 -101 30c-69 0 -80 -65 -84 -87h-31c1 23 3 69 25 105c29 48 75 62 108 62c24 0 55 0 187 -57c68 -30 84 -31 102 -31c31 0 76 17 84 88z" />
    <glyph glyph-name="exclamdown" unicode="&#xa1;" horiz-adv-x="281" 
d="M216 374c0 -43 -34 -77 -76 -77c-43 0 -77 35 -77 77s34 76 77 76c41 0 76 -33 76 -76zM118 214h44l38 -320c2 -17 5 -47 5 -66c0 -53 -36 -72 -64 -72c-35 0 -66 21 -66 72c0 19 3 49 5 66z" />
    <glyph glyph-name="cent" unicode="&#xa2;" horiz-adv-x="490" 
d="M206 -7l-62 -176h-46l67 190c-106 48 -125 134 -125 186c0 134 123 232 268 223l67 191h46l-69 -197c84 -20 106 -60 106 -93c0 -27 -23 -52 -55 -52c-37 0 -44 28 -49 47c-8 35 -12 39 -20 47l-103 -295c16 -12 32 -25 73 -25c78 0 109 58 120 79l42 -19
c-31 -61 -89 -116 -191 -116c-34 0 -54 6 -69 10zM199 104l94 270c-65 2 -118 -48 -118 -159c0 -64 17 -97 24 -111z" />
    <glyph glyph-name="sterling" unicode="&#xa3;" horiz-adv-x="740" 
d="M68 89l15 66h148c6 41 33 196 63 279c53 148 148 223 268 223c94 0 144 -49 144 -90c0 -35 -33 -51 -52 -51c-25 0 -38 18 -56 42c-16 22 -34 47 -76 47c-79 0 -94 -78 -119 -204c-24 -123 -37 -181 -62 -246h163l-17 -66h-171c-20 -45 -45 -93 -77 -129
c16 4 39 14 67 14c50 0 79 -25 114 -53c75 -61 101 -75 135 -75c42 0 54 33 54 50c0 10 -4 18 -11 40c-8 26 -10 34 -10 42c0 29 19 51 46 51c24 0 58 -18 58 -69c0 -99 -103 -185 -199 -185c-75 0 -123 44 -152 70c-48 43 -72 60 -98 60c-2 0 -17 0 -36 -8
c-41 -96 -66 -122 -101 -122c-28 0 -44 21 -44 43c0 33 29 73 101 108c26 57 50 148 54 163h-149z" />
    <glyph glyph-name="fraction" unicode="&#x2044;" horiz-adv-x="198" 
d="M-106 -28l354 693h57l-354 -693h-57z" />
    <glyph glyph-name="yen" unicode="&#xa5;" horiz-adv-x="708" 
d="M284 186v85l-8 15h-194v56h160l-130 216c-25 42 -43 59 -89 59v45h310v-45c-35 0 -67 0 -67 -29c0 -13 4 -24 32 -72l103 -174l98 155c20 32 32 52 32 74c0 46 -41 46 -76 46v45h241v-45c-55 -4 -69 -26 -132 -122l-100 -153h163v-56h-199l-3 -6v-94h202v-56h-202
c0 -50 0 -85 96 -85v-45h-334v45c93 0 97 29 97 85h-202v56h202z" />
    <glyph glyph-name="florin" unicode="&#x192;" horiz-adv-x="479" 
d="M326 360l-49 -244c-42 -209 -66 -247 -98 -287c-8 -10 -54 -68 -124 -68c-49 0 -76 29 -76 57c0 19 16 48 50 48c15 0 45 -7 45 -38c0 -12 -6 -20 -6 -26c0 -5 6 -11 14 -11c17 0 37 17 37 63c0 27 -4 70 -4 88c0 56 6 85 20 156l53 262h-69l12 59c62 0 88 15 123 111
c26 71 66 125 146 125c45 0 79 -21 79 -63c0 -29 -19 -56 -52 -56c-32 0 -43 29 -43 40c0 22 15 35 15 45c0 7 -7 11 -13 11c-23 0 -46 -23 -46 -68c0 -29 4 -64 4 -85c0 -22 -3 -43 -6 -60h75l-12 -59h-75z" />
    <glyph glyph-name="section" unicode="&#xa7;" horiz-adv-x="521" 
d="M346 567c-6 20 -25 61 -88 61c-53 0 -90 -33 -90 -68c0 -44 44 -73 92 -102c148 -89 219 -144 219 -251c0 -126 -99 -145 -125 -151c45 -34 92 -85 92 -143c0 -82 -79 -157 -194 -157c-98 0 -173 54 -173 118c0 25 16 48 46 48c36 0 45 -30 49 -43c6 -21 23 -77 95 -77
c51 0 83 32 83 67c0 36 -24 65 -146 144c-106 69 -164 128 -164 213c0 108 98 142 124 151c-45 41 -89 80 -89 142c0 75 77 155 196 155c93 0 173 -49 173 -115c0 -23 -15 -48 -47 -48c-30 0 -43 22 -53 56zM114 268c0 -40 27 -71 85 -116c64 -50 101 -63 133 -63
c39 0 74 30 74 71c0 46 -35 88 -93 132c-33 25 -76 51 -119 51c-37 0 -80 -25 -80 -75z" />
    <glyph glyph-name="currency" unicode="&#xa4;" horiz-adv-x="467" 
d="M454 175l-37 -39l-67 65c-43 -28 -81 -39 -117 -39c-33 0 -71 9 -117 39l-67 -65l-38 39l66 63c-29 49 -38 86 -38 116c0 31 9 69 38 116l-66 64l38 39l67 -65c47 29 84 38 117 38c34 0 73 -10 117 -38l67 65l37 -39l-65 -64c30 -49 39 -87 39 -116
c0 -30 -10 -67 -39 -116zM373 355c0 80 -69 138 -140 138c-78 0 -139 -63 -139 -138c0 -76 63 -139 139 -139s140 63 140 139z" />
    <glyph glyph-name="quotesingle" unicode="'" horiz-adv-x="271" 
d="M147 366h-22l-49 177c-3 12 -9 36 -9 61c0 38 29 70 68 70c45 0 69 -37 69 -68c0 -21 -9 -55 -12 -67z" />
    <glyph glyph-name="quotedblleft" unicode="&#x201c;" horiz-adv-x="562" 
d="M228 674v-45c-68 -13 -121 -49 -121 -108c0 -14 6 -24 17 -24c8 0 21 5 40 5c34 0 71 -30 71 -74c0 -49 -39 -77 -79 -77c-42 0 -103 41 -103 134c0 96 61 174 175 189zM504 674v-45c-68 -13 -121 -49 -121 -108c0 -14 6 -24 17 -24c8 0 21 5 40 5c34 0 71 -30 71 -74
c0 -49 -39 -77 -79 -77c-42 0 -103 41 -103 134c0 96 61 174 175 189z" />
    <glyph glyph-name="guillemotleft" unicode="&#xab;" horiz-adv-x="563" 
d="M436 217l96 -217h-45l-191 217l191 217h45zM174 217l96 -217h-45l-191 217l191 217h45z" />
    <glyph glyph-name="guilsinglleft" unicode="&#x2039;" horiz-adv-x="302" 
d="M175 217l96 -217h-46l-191 217l191 217h46z" />
    <glyph glyph-name="guilsinglright" unicode="&#x203a;" horiz-adv-x="302" 
d="M127 217l-96 217h46l191 -217l-191 -217h-46z" />
    <glyph glyph-name="endash" unicode="&#x2013;" horiz-adv-x="500" 
d="M-6 281h512v-64h-512v64z" />
    <glyph glyph-name="dagger" unicode="&#x2020;" horiz-adv-x="521" 
d="M236 -244v114c0 65 0 122 -14 246l-8 69c-2 21 -2 41 -2 53c0 68 19 101 30 141c-25 -1 -44 -9 -72 -20c-12 -5 -51 -18 -79 -18c-27 0 -64 16 -64 57c0 24 15 56 66 56c31 0 56 -9 79 -18c43 -17 55 -18 70 -19c-2 23 -5 34 -17 66s-24 67 -24 111c0 66 38 81 60 81
c28 0 59 -22 59 -78c0 -43 -13 -83 -23 -112c-14 -40 -16 -45 -17 -68c19 2 31 5 53 13c43 15 65 24 97 24c51 0 65 -35 65 -56c0 -34 -27 -56 -63 -56c-28 0 -62 9 -98 23c-25 10 -32 11 -54 14c20 -59 31 -93 31 -138c0 -39 -4 -72 -10 -127c-13 -123 -14 -189 -14 -248
v-110h-51z" />
    <glyph glyph-name="daggerdbl" unicode="&#x2021;" horiz-adv-x="542" 
d="M246 251c0 23 -14 55 -14 93c0 31 6 46 20 75c-28 -5 -43 -9 -73 -19c-28 -9 -51 -17 -75 -17c-36 0 -68 20 -68 55c0 14 8 57 69 57c19 0 34 -5 69 -16c16 -5 52 -17 78 -20c-2 30 -14 62 -21 81c-13 36 -15 49 -15 65c0 42 23 70 54 70c26 0 56 -20 56 -66
c0 -27 -7 -48 -13 -68c-8 -27 -19 -49 -22 -82c12 2 23 3 66 17c37 12 57 18 85 18c49 0 64 -33 64 -55c0 -33 -29 -57 -69 -57c-23 0 -40 7 -73 18c-6 2 -37 13 -73 19c12 -30 19 -49 19 -72c0 -33 -12 -62 -13 -96h-51zM246 177h51c1 -34 13 -63 13 -96
c0 -23 -7 -42 -19 -72c36 6 67 17 73 19c33 11 50 18 73 18c40 0 69 -24 69 -57c0 -22 -15 -55 -64 -55c-28 0 -48 6 -85 18c-43 14 -54 15 -66 17c3 -33 14 -55 22 -82c6 -20 13 -41 13 -68c0 -46 -30 -66 -56 -66c-31 0 -54 28 -54 70c0 16 2 29 15 65c7 19 19 51 21 81
c-26 -3 -62 -15 -78 -20c-35 -11 -50 -16 -69 -16c-61 0 -69 43 -69 57c0 35 32 55 68 55c24 0 47 -8 75 -17c30 -10 45 -14 73 -19c-14 29 -20 44 -20 75c0 38 14 70 14 93z" />
    <glyph glyph-name="periodcentered" unicode="&#xb7;" horiz-adv-x="281" 
d="M64 321c0 42 34 76 76 76c44 0 77 -35 77 -76c0 -42 -34 -77 -77 -77c-41 0 -76 33 -76 77z" />
    <glyph glyph-name="paragraph" unicode="&#xb6;" horiz-adv-x="510" 
d="M294 627v-799h-46v404c-43 2 -132 6 -191 64c-48 48 -59 115 -59 156c0 59 14 118 86 171c37 27 72 39 224 39h204v-21h-20c-68 0 -68 -37 -68 -94v-719h-45v799h-85z" />
    <glyph glyph-name="bullet" unicode="&#x2022;" horiz-adv-x="333" 
d="M166 446c73 0 133 -59 133 -132s-59 -133 -133 -133c-73 0 -132 60 -132 133c0 74 60 132 132 132z" />
    <glyph glyph-name="quotesinglbase" unicode="&#x201a;" horiz-adv-x="281" 
d="M58 -186v45c68 13 121 49 121 108c0 14 -6 24 -17 24c-4 0 -9 -1 -16 -2c-6 -2 -14 -3 -24 -3c-34 0 -71 30 -71 74c0 49 39 77 79 77c42 0 103 -41 103 -134c0 -96 -61 -174 -175 -189z" />
    <glyph glyph-name="quotedblbase" unicode="&#x201e;" horiz-adv-x="562" 
d="M334 -186v45c68 13 121 49 121 108c0 14 -6 24 -17 24c-4 0 -9 -1 -16 -2c-6 -2 -14 -3 -24 -3c-34 0 -71 30 -71 74c0 49 39 77 79 77c42 0 103 -41 103 -134c0 -96 -61 -174 -175 -189zM58 -186v45c68 13 121 49 121 108c0 14 -6 24 -17 24c-4 0 -9 -1 -16 -2
c-6 -2 -14 -3 -24 -3c-34 0 -71 30 -71 74c0 49 39 77 79 77c42 0 103 -41 103 -134c0 -96 -61 -174 -175 -189z" />
    <glyph glyph-name="quotedblright" unicode="&#x201d;" horiz-adv-x="562" 
d="M335 351v45c68 13 121 49 121 108c0 14 -6 24 -17 24c-8 0 -21 -5 -40 -5c-34 0 -71 30 -71 74c0 49 39 77 79 77c42 0 103 -41 103 -134c0 -96 -61 -174 -175 -189zM59 351v45c68 13 121 49 121 108c0 14 -6 24 -17 24c-8 0 -21 -5 -40 -5c-34 0 -71 30 -71 74
c0 49 39 77 79 77c42 0 103 -41 103 -134c0 -96 -61 -174 -175 -189z" />
    <glyph glyph-name="guillemotright" unicode="&#xbb;" horiz-adv-x="563" 
d="M127 217l-96 217h45l191 -217l-191 -217h-45zM389 217l-96 217h45l191 -217l-191 -217h-45z" />
    <glyph glyph-name="ellipsis" unicode="&#x2026;" horiz-adv-x="1000" 
d="M91 60c0 43 34 77 76 77c43 0 77 -35 77 -77s-34 -76 -77 -76c-41 0 -76 33 -76 76zM757 60c0 43 35 77 77 77s76 -34 76 -77s-35 -76 -76 -76c-42 0 -77 33 -77 76zM424 60c0 43 34 77 76 77c43 0 77 -35 77 -77s-34 -76 -77 -76c-41 0 -76 33 -76 76z" />
    <glyph glyph-name="perthousand" unicode="&#x2030;" horiz-adv-x="1115" 
d="M936 -8c-49 0 -136 27 -136 165c0 39 0 184 136 184s136 -148 136 -178c0 -148 -86 -171 -136 -171zM936 22c44 0 48 52 48 143c0 105 -7 146 -48 146c-35 0 -48 -30 -48 -144c0 -75 -1 -145 48 -145zM610 -8c-49 0 -136 27 -136 165c0 39 0 184 136 184
s136 -148 136 -178c0 -148 -86 -171 -136 -171zM610 22c44 0 48 52 48 143c0 105 -7 146 -48 146c-35 0 -48 -30 -48 -144c0 -75 -1 -145 48 -145zM178 308c-49 0 -136 27 -136 165c0 39 0 184 136 184s136 -148 136 -178c0 -148 -86 -171 -136 -171zM178 338
c44 0 48 52 48 143c0 105 -7 146 -48 146c-35 0 -48 -30 -48 -144c0 -75 -1 -145 48 -145zM185 -28l354 693h57l-354 -693h-57z" />
    <glyph glyph-name="questiondown" unicode="&#xbf;" horiz-adv-x="448" 
d="M315 214v-165h-40c-4 7 -9 14 -16 19c-8 5 -17 8 -32 8c-43 0 -71 -47 -71 -125c0 -121 57 -149 96 -149c52 0 66 40 73 60c5 14 14 42 46 42c26 0 45 -24 45 -45c0 -61 -93 -103 -181 -103c-135 0 -202 105 -202 198c0 94 67 178 159 178c37 0 62 -13 78 -21v103h45z
M369 374c0 -43 -34 -77 -76 -77c-43 0 -77 35 -77 77s34 76 77 76c41 0 76 -33 76 -76z" />
    <glyph glyph-name="grave" unicode="`" horiz-adv-x="333" 
d="M240 476h-35l-144 167h126z" />
    <glyph glyph-name="acute" unicode="&#xb4;" horiz-adv-x="333" 
d="M93 476l53 167h126l-144 -167h-35z" />
    <glyph glyph-name="circumflex" unicode="&#x2c6;" horiz-adv-x="333" 
d="M167 575l-115 -106h-28l85 184h115l85 -184h-28z" />
    <glyph glyph-name="tilde" unicode="&#x2dc;" horiz-adv-x="333" 
d="M317 628h30c-7 -72 -52 -131 -107 -131c-20 0 -42 5 -92 29c-43 20 -54 25 -76 25c-27 0 -51 -20 -55 -53h-31c7 80 58 131 112 131c32 0 79 -24 91 -31c39 -20 49 -25 67 -25c37 0 57 29 61 55z" />
    <glyph glyph-name="macron" unicode="&#xaf;" horiz-adv-x="333" 
d="M30 529v67h273v-67h-273z" />
    <glyph glyph-name="breve" unicode="&#x2d8;" horiz-adv-x="333" 
d="M48 636h33c10 -75 72 -76 85 -76c38 0 82 23 86 76h34c5 -103 -52 -150 -120 -150c-49 0 -126 33 -118 150z" />
    <glyph glyph-name="dotaccent" unicode="&#x2d9;" horiz-adv-x="333" 
d="M112 561c0 30 25 54 55 54c31 0 54 -25 54 -54c0 -30 -24 -55 -54 -55s-55 23 -55 55z" />
    <glyph glyph-name="dieresis" unicode="&#xa8;" horiz-adv-x="333" 
d="M21 561c0 30 25 54 55 54c31 0 55 -25 55 -54c0 -30 -25 -55 -55 -55c-29 0 -55 23 -55 55zM202 561c0 30 25 54 55 54c31 0 55 -26 55 -54c0 -30 -24 -55 -55 -55c-29 0 -55 23 -55 55z" />
    <glyph glyph-name="ring" unicode="&#x2da;" horiz-adv-x="333" 
d="M73 561c0 53 43 93 93 93c52 0 94 -42 94 -93s-42 -93 -94 -93c-50 0 -93 40 -93 93zM109 561c0 -33 27 -57 57 -57c32 0 58 26 58 57s-25 57 -58 57c-30 0 -57 -25 -57 -57z" />
    <glyph glyph-name="cedilla" unicode="&#xb8;" horiz-adv-x="333" 
d="M133 -86l12 79h39l-5 -35c68 -4 85 -54 85 -81c0 -41 -33 -89 -108 -89c-9 0 -47 0 -87 18l15 39c22 -12 43 -12 48 -12c32 0 47 24 47 44c0 33 -34 36 -46 37z" />
    <glyph glyph-name="hungarumlaut" unicode="&#x2dd;" horiz-adv-x="333" 
d="M83 476l52 167h127l-144 -167h-35zM245 476l53 167h126l-144 -167h-35z" />
    <glyph glyph-name="ogonek" unicode="&#x2db;" horiz-adv-x="333" 
d="M141 8h40c-16 -13 -44 -34 -44 -70c0 -23 21 -103 127 -104l14 -15c-20 -15 -44 -33 -93 -33c-70 0 -130 53 -130 113c0 65 60 96 86 109z" />
    <glyph glyph-name="caron" unicode="&#x2c7;" horiz-adv-x="333" 
d="M167 547l114 106h28l-85 -184h-115l-85 184h28z" />
    <glyph glyph-name="emdash" unicode="&#x2014;" horiz-adv-x="1000" 
d="M-6 281h1012v-64h-1012v64z" />
    <glyph glyph-name="AE" unicode="&#xc6;" horiz-adv-x="979" 
d="M280 320l-90 -159c-24 -42 -31 -60 -31 -76c0 -40 47 -40 66 -40v-45h-218v45c34 3 63 10 130 130l207 373c6 10 17 30 17 43c0 21 -21 26 -81 26h-16v45h633l9 -171h-46c-26 117 -73 117 -146 117h-123v-234h70c42 0 78 0 81 83h45v-219h-45c-4 71 -24 82 -82 82h-69
v-158c0 -87 0 -108 112 -108c103 0 169 20 194 164h45l-5 -218h-583v45c86 0 97 25 97 78v197h-171zM451 630l-141 -256h141v256z" />
    <glyph glyph-name="ordfeminine" unicode="&#xaa;" horiz-adv-x="344" 
d="M195 586v14c0 17 -4 41 -43 41c-22 0 -41 -12 -41 -32c0 -18 -19 -35 -45 -35c-22 0 -39 10 -39 29c0 29 33 71 135 71c84 0 125 -25 125 -85v-88c0 -32 3 -38 14 -38c14 0 15 17 15 26h34c0 -60 -45 -73 -79 -73c-45 0 -56 17 -67 33c-36 -24 -70 -33 -101 -33
c-52 0 -83 23 -83 56c0 46 38 84 175 114zM195 484v65c-56 -17 -80 -33 -80 -60c0 -16 10 -27 27 -27c21 0 38 11 53 22z" />
    <glyph glyph-name="Lslash" unicode="&#x141;" horiz-adv-x="646" 
d="M260 365v-207c0 -75 0 -104 92 -104c76 0 202 0 221 167h45l-4 -221h-590v45c88 0 96 28 96 78v117l-94 -84v65l94 86v232c0 49 -6 78 -96 78v45h333v-45c-87 0 -97 -25 -97 -78v-105l112 101v-70z" />
    <glyph glyph-name="Oslash" unicode="&#xd8;" horiz-adv-x="833" 
d="M235 159l338 387c-28 35 -71 70 -156 70c-181 0 -212 -157 -212 -283c0 -61 8 -125 30 -174zM259 119c25 -33 69 -73 159 -73c203 0 210 220 210 287c0 68 -11 126 -31 173zM196 47l-51 -59l-34 29l49 57c-82 72 -113 180 -113 258c0 171 118 342 366 342
c121 0 183 -36 222 -56l52 59l34 -29l-50 -57c38 -34 115 -122 115 -260c0 -176 -125 -343 -369 -343c-99 0 -174 31 -221 59z" />
    <glyph glyph-name="OE" unicode="&#x152;" horiz-adv-x="1000" 
d="M622 320v-168c0 -78 0 -99 116 -99c62 0 160 1 181 164h44l-5 -217h-248c-86 0 -137 -1 -174 -3c-36 -1 -58 -3 -87 -3c-62 0 -159 4 -238 46c-117 62 -167 183 -167 286c0 141 97 344 404 344c29 0 56 -2 90 -4c35 -2 76 -4 131 -4h250l10 -173h-46
c-30 119 -66 119 -154 119h-107v-234h54c72 0 87 10 92 83h45v-219h-46c-1 82 -32 82 -90 82h-55zM482 144v393c0 48 -11 75 -71 75c-133 0 -209 -127 -209 -282c0 -129 55 -277 194 -277c86 0 86 40 86 91z" />
    <glyph glyph-name="ordmasculine" unicode="&#xba;" horiz-adv-x="354" 
d="M17 542c0 94 87 132 162 132c102 0 158 -61 158 -131c0 -83 -76 -131 -159 -131s-161 46 -161 130zM115 541c0 -48 6 -96 63 -96c53 0 61 46 61 100c0 72 -19 96 -63 96c-45 0 -61 -26 -61 -100z" />
    <glyph glyph-name="ae" unicode="&#xe6;" horiz-adv-x="740" 
d="M306 268v23c0 25 0 80 -68 80c-60 0 -64 -32 -73 -62c-3 -10 -14 -50 -60 -50c-29 0 -52 19 -52 46c0 63 85 111 194 111c83 0 124 -22 149 -36c13 8 54 36 124 36c109 0 188 -80 186 -201h-274c-1 -8 -13 -177 114 -177c32 0 75 15 116 58l39 -25
c-30 -39 -90 -87 -177 -87c-46 0 -109 12 -179 81c-65 -50 -124 -81 -185 -81c-39 0 -118 17 -118 101c0 60 40 126 264 183zM306 88v131c-54 -19 -133 -46 -133 -112c0 -33 23 -52 55 -52c18 0 44 6 78 33zM433 260h151c0 26 0 111 -72 111c-73 0 -78 -81 -79 -111z" />
    <glyph glyph-name="dotlessi" unicode="&#x131;" horiz-adv-x="313" 
d="M224 416v-300c0 -46 0 -71 65 -71v-45h-265v45h14c60 0 60 27 60 71v145c0 52 0 67 -74 68v45z" />
    <glyph glyph-name="lslash" unicode="&#x142;" horiz-adv-x="313" 
d="M94 312v220c0 49 -20 55 -81 55v45l207 42v-252l82 71v-70l-82 -71v-236c0 -44 0 -71 60 -71h14v-45h-281v45h21c60 0 60 27 60 71v126l-81 -72v70z" />
    <glyph glyph-name="oslash" unicode="&#xf8;" horiz-adv-x="563" 
d="M414 387l43 50l34 -30l-40 -45c20 -18 71 -68 71 -162c0 -135 -109 -216 -239 -216c-49 0 -92 10 -135 33l-45 -51l-33 30l41 46c-18 15 -70 62 -70 159c0 145 118 215 244 215c70 0 111 -20 129 -29zM181 122l183 208c-7 11 -25 41 -85 41c-82 0 -103 -57 -103 -174
c0 -42 3 -61 5 -75zM381 282l-184 -209c6 -11 27 -44 86 -44c98 0 104 98 104 176c0 44 -3 64 -6 77z" />
    <glyph glyph-name="oe" unicode="&#x153;" horiz-adv-x="792" 
d="M758 215h-273c-2 -94 24 -177 113 -177c39 0 81 19 116 61l38 -24c-26 -44 -91 -91 -175 -91c-54 0 -107 19 -150 52c-41 -25 -84 -52 -157 -52c-105 0 -230 68 -230 219c0 155 124 213 232 213c89 0 136 -37 155 -53c47 42 96 53 142 53c86 0 186 -49 189 -201zM175 201
c0 -48 0 -172 92 -172s92 122 92 182c0 42 0 160 -91 160c-87 0 -93 -107 -93 -170zM485 260h151c0 49 -9 111 -75 111c-75 0 -76 -89 -76 -111z" />
    <glyph glyph-name="germandbls" unicode="&#xdf;" horiz-adv-x="604" 
d="M301 344v45c81 -1 113 59 113 119c0 34 -12 120 -105 120c-97 0 -97 -71 -97 -127v-382c0 -44 0 -72 47 -74v-45h-237v45c64 0 64 26 64 71v309c0 123 31 249 232 249c145 0 218 -80 218 -159c0 -49 -31 -113 -127 -147c71 -22 156 -72 156 -197
c0 -127 -94 -180 -164 -180c-56 0 -94 37 -94 75c0 20 16 27 23 27c22 0 21 -30 22 -35s6 -24 32 -24c52 0 52 97 52 124c0 169 -73 184 -135 186z" />
    <glyph glyph-name="logicalnot" unicode="&#xac;" horiz-adv-x="667" 
d="M64 484h538v-322h-90v232h-448v90z" />
    <glyph glyph-name="mu" unicode="&#xb5;" horiz-adv-x="521" 
d="M58 400h126v-254c0 -58 2 -98 42 -98c43 0 67 36 79 56v296h126v-259c0 -51 0 -87 32 -87c13 0 30 11 35 67h20c-4 -121 -87 -137 -119 -137c-70 0 -87 54 -93 73c-23 -26 -66 -73 -135 -73c-29 0 -55 11 -69 26c0 -24 4 -60 10 -81c10 -33 17 -59 17 -75
c0 -20 -4 -62 -55 -62c-50 0 -50 49 -50 55c0 20 2 27 18 90c13 52 16 99 16 180v283z" />
    <glyph glyph-name="trademark" unicode="&#x2122;" horiz-adv-x="948" 
d="M-4 662h360v-105h-16c-3 61 -32 81 -90 81h-18v-273c0 -50 8 -61 48 -61v-17h-210v17c49 0 47 15 47 63v271h-16c-79 0 -87 -48 -90 -81h-15v105zM407 662h171l107 -230l106 230h161v-18c-44 0 -47 -17 -47 -62v-219c0 -42 7 -59 47 -59v-17h-214v17c44 0 53 6 53 59v239
l-148 -315h-12l-147 314v-236c0 -44 0 -61 53 -61v-17h-130v17c47 0 51 12 51 62v217c0 52 -4 62 -51 61v18z" />
    <glyph glyph-name="Eth" unicode="&#xd0;" horiz-adv-x="771" 
d="M123 359v182c0 51 -8 78 -98 78v46l142 3c15 0 103 2 120 2c104 0 179 -11 243 -37c120 -49 194 -174 194 -308c0 -151 -88 -248 -170 -284c-84 -37 -164 -41 -227 -41h-302v45c88 0 98 25 98 78v182h-86v54h86zM263 305v-155c0 -67 0 -96 86 -96c177 0 217 162 217 274
c0 141 -60 235 -146 269c-37 15 -81 18 -157 18v-256h154v-54h-154z" />
    <glyph glyph-name="onehalf" unicode="&#xbd;" horiz-adv-x="792" 
d="M231 657v-284c0 -24 6 -27 28 -27h22v-30h-189v30h20c30 0 32 5 32 31v194c0 28 -3 31 -41 31h-16v29c68 8 85 12 108 26h36zM182 -29l354 693h57l-354 -693h-57zM723 -19h-36c2 9 3 14 2 16c-2 3 -5 3 -13 3h-192v27c35 28 161 133 161 224c0 41 -27 60 -55 60
s-48 -19 -48 -40c0 -7 2 -20 10 -32c1 -1 2 -4 2 -6c0 -3 -3 -4 -8 -6l-29 -10c-3 -1 -8 -3 -12 -3c-12 0 -21 27 -21 47c0 40 36 80 123 80c103 0 125 -60 125 -90c0 -68 -75 -123 -175 -201h180z" />
    <glyph glyph-name="plusminus" unicode="&#xb1;" horiz-adv-x="667" 
d="M64 491h224v224h90v-224h224v-90h-224v-224h-90v224h-224v90zM64 90h538v-90h-538v90z" />
    <glyph glyph-name="Thorn" unicode="&#xde;" horiz-adv-x="646" 
d="M359 662v-46c-95 0 -98 -29 -98 -86h35c41 0 321 18 321 -183c0 -180 -200 -191 -312 -191h-44v-33c0 -52 9 -78 98 -78v-45h-333v45c95 0 95 35 95 78v415c0 48 -6 78 -95 78v46h333zM261 476v-266h45c70 0 161 9 161 137c0 136 -118 132 -206 129z" />
    <glyph glyph-name="onequarter" unicode="&#xbc;" horiz-adv-x="792" 
d="M475 108v36l171 197h49v-198h53v-35h-53v-48c0 -30 -2 -31 53 -30v-30h-190v30h16c38 0 39 2 39 30v48h-138zM521 143h92v105zM231 657v-284c0 -24 6 -27 28 -27h22v-30h-189v30h20c30 0 32 5 32 31v194c0 28 -3 31 -41 31h-16v29c68 8 85 12 108 26h36zM193 -29l354 693
h58l-355 -693h-57z" />
    <glyph glyph-name="divide" unicode="&#xf7;" horiz-adv-x="667" 
d="M64 368h538v-90h-538v90zM334 177c31 0 55 -25 55 -56s-24 -55 -55 -55s-56 24 -56 55s25 56 56 56zM334 580c31 0 55 -25 55 -56s-24 -55 -55 -55s-56 24 -56 55s25 56 56 56z" />
    <glyph glyph-name="brokenbar" unicode="&#xa6;" horiz-adv-x="563" 
d="M236 142h91v-375h-91v375zM236 674h91v-375h-91v375z" />
    <glyph glyph-name="degree" unicode="&#xb0;" horiz-adv-x="375" 
d="M188 657c93 0 171 -77 171 -171c0 -93 -78 -171 -171 -171s-171 78 -171 171c0 94 78 171 171 171zM188 587c-57 0 -101 -42 -101 -101c0 -58 43 -101 101 -101s101 44 101 101c0 59 -43 101 -101 101z" />
    <glyph glyph-name="thorn" unicode="&#xfe;" horiz-adv-x="604" 
d="M213 38v-156c0 -43 0 -70 60 -70h27v-45h-284v45c69 0 71 18 71 70v658c0 31 -10 47 -71 47v45l197 42v-321c34 31 68 63 147 63c127 0 204 -101 204 -210c0 -122 -91 -222 -217 -222c-71 0 -108 31 -134 54zM213 294v-193c25 -38 68 -63 112 -63c104 0 104 131 104 174
c0 78 -19 150 -105 150c-57 0 -95 -43 -111 -68z" />
    <glyph glyph-name="threequarters" unicode="&#xbe;" horiz-adv-x="792" 
d="M475 108v36l171 197h49v-198h53v-35h-53v-48c0 -29 -3 -31 53 -30v-30h-190v30h16c38 0 39 2 39 30v48h-138zM521 143h92v105zM128 554l-23 -9c-7 -3 -10 -4 -14 -4c-15 0 -27 22 -27 39c0 7 9 77 130 77c70 0 109 -19 109 -61c0 -40 -33 -62 -68 -79
c47 -6 80 -35 80 -86c0 -72 -74 -123 -164 -123c-69 0 -102 28 -102 55c0 20 16 30 36 30c13 0 30 -9 37 -23c13 -27 21 -31 43 -31c37 0 61 31 61 82c0 38 -6 65 -30 65c-11 0 -23 -9 -28 -12c-11 -8 -15 -12 -25 -12c-9 0 -20 5 -20 16c0 9 8 15 21 23c60 37 79 47 79 84
c0 31 -28 42 -49 42c-31 0 -47 -21 -47 -34c0 -12 4 -16 7 -20s7 -8 7 -10c0 -3 -1 -5 -13 -9zM193 -29l354 693h58l-355 -693h-57z" />
    <glyph glyph-name="registered" unicode="&#xae;" horiz-adv-x="708" 
d="M169 529h176c88 0 111 -12 129 -24c15 -10 45 -37 45 -83c0 -12 0 -77 -87 -101l66 -122c15 -28 31 -44 51 -48v-17h-117l-100 180h-23v-97c0 -53 7 -64 59 -66v-17h-207v17c32 -1 51 2 51 66v231c0 51 -7 61 -43 64v17zM309 508v-169c5 -1 17 -2 27 -2c32 0 78 23 78 87
c0 84 -68 84 -87 84h-18zM354 674c190 0 347 -153 347 -346c0 -191 -156 -346 -347 -346s-346 155 -346 346c0 193 157 346 346 346zM354 630c-167 0 -302 -135 -302 -302s135 -302 302 -302s303 135 303 302s-136 302 -303 302z" />
    <glyph glyph-name="minus" unicode="&#x2212;" horiz-adv-x="667" 
d="M64 368h538v-90h-538v90z" />
    <glyph glyph-name="eth" unicode="&#xf0;" horiz-adv-x="563" 
d="M308 533l-91 -67l-27 37l90 66c-23 26 -55 52 -85 72l48 33c40 -19 70 -44 94 -63l74 54l30 -34l-70 -51c111 -120 151 -234 151 -347c0 -148 -94 -249 -241 -249c-141 0 -240 86 -240 216c0 152 131 216 234 216c38 0 67 -7 101 -28c-11 53 -30 91 -68 145zM176 197
c0 -74 5 -168 107 -168c97 0 104 96 104 175c0 99 -17 167 -107 167c-82 0 -104 -55 -104 -174z" />
    <glyph glyph-name="multiply" unicode="&#xd7;" horiz-adv-x="667" 
d="M145 575l189 -189l188 188l63 -63l-188 -188l189 -189l-64 -64l-189 189l-188 -188l-64 64l188 188l-188 188z" />
    <glyph glyph-name="copyright" unicode="&#xa9;" horiz-adv-x="708" 
d="M518 537v-129h-19c-18 94 -93 105 -120 105c-109 0 -126 -114 -126 -177c0 -48 2 -99 32 -137c21 -27 55 -46 92 -46c72 0 112 49 127 68v-35c-40 -42 -97 -62 -155 -62c-103 0 -206 65 -206 199c0 132 99 215 215 215c37 0 62 -8 96 -20c13 -5 17 -6 23 -6
c19 0 21 18 22 25h19zM354 674c190 0 347 -153 347 -346c0 -191 -156 -346 -347 -346s-346 155 -346 346c0 193 157 346 346 346zM354 630c-167 0 -302 -135 -302 -302s135 -302 302 -302s303 135 303 302s-136 302 -303 302z" />
    <glyph glyph-name="Aacute" unicode="&#xc1;" horiz-adv-x="688" 
d="M191 185l-16 -43c-7 -18 -14 -37 -14 -52c0 -45 53 -45 76 -45v-45h-228v45c52 0 79 22 120 130l191 500h46l202 -516c33 -84 44 -114 111 -114v-45h-312v45c41 0 76 0 76 32c0 6 -1 17 -6 30l-31 78h-215zM297 464l-87 -231h178zM271 718l53 167h126l-144 -167h-35z" />
    <glyph glyph-name="Acircumflex" unicode="&#xc2;" horiz-adv-x="688" 
d="M191 185l-16 -43c-7 -18 -14 -37 -14 -52c0 -45 53 -45 76 -45v-45h-228v45c52 0 79 22 120 130l191 500h46l202 -516c33 -84 44 -114 111 -114v-45h-312v45c41 0 76 0 76 32c0 6 -1 17 -6 30l-31 78h-215zM297 464l-87 -231h178zM345 817l-115 -106h-28l85 184h115
l85 -184h-28z" />
    <glyph glyph-name="Adieresis" unicode="&#xc4;" horiz-adv-x="688" 
d="M191 185l-16 -43c-7 -18 -14 -37 -14 -52c0 -45 53 -45 76 -45v-45h-228v45c52 0 79 22 120 130l191 500h46l202 -516c33 -84 44 -114 111 -114v-45h-312v45c41 0 76 0 76 32c0 6 -1 17 -6 30l-31 78h-215zM297 464l-87 -231h178zM199 803c0 30 25 54 55 54
c31 0 55 -25 55 -54c0 -30 -25 -55 -55 -55c-29 0 -55 23 -55 55zM380 803c0 30 25 54 55 54c31 0 55 -26 55 -54c0 -30 -24 -55 -55 -55c-29 0 -55 23 -55 55z" />
    <glyph glyph-name="Agrave" unicode="&#xc0;" horiz-adv-x="688" 
d="M191 185l-16 -43c-7 -18 -14 -37 -14 -52c0 -45 53 -45 76 -45v-45h-228v45c52 0 79 22 120 130l191 500h46l202 -516c33 -84 44 -114 111 -114v-45h-312v45c41 0 76 0 76 32c0 6 -1 17 -6 30l-31 78h-215zM297 464l-87 -231h178zM418 718h-35l-144 167h126z" />
    <glyph glyph-name="Aring" unicode="&#xc5;" horiz-adv-x="688" 
d="M191 185l-16 -43c-7 -18 -14 -37 -14 -52c0 -45 53 -45 76 -45v-45h-228v45c52 0 79 22 120 130l191 500h46l202 -516c33 -84 44 -114 111 -114v-45h-312v45c41 0 76 0 76 32c0 6 -1 17 -6 30l-31 78h-215zM297 464l-87 -231h178zM251 803c0 53 43 93 93 93
c52 0 94 -42 94 -93s-42 -93 -94 -93c-50 0 -93 40 -93 93zM287 803c0 -33 27 -57 57 -57c32 0 58 26 58 57s-25 57 -58 57c-30 0 -57 -25 -57 -57z" />
    <glyph glyph-name="Atilde" unicode="&#xc3;" horiz-adv-x="688" 
d="M191 185l-16 -43c-7 -18 -14 -37 -14 -52c0 -45 53 -45 76 -45v-45h-228v45c52 0 79 22 120 130l191 500h46l202 -516c33 -84 44 -114 111 -114v-45h-312v45c41 0 76 0 76 32c0 6 -1 17 -6 30l-31 78h-215zM297 464l-87 -231h178zM495 870h30c-7 -72 -52 -131 -107 -131
c-20 0 -42 5 -92 29c-43 20 -54 25 -76 25c-27 0 -51 -20 -55 -53h-31c7 80 58 131 112 131c32 0 79 -24 91 -31c39 -20 49 -25 67 -25c37 0 57 29 61 55z" />
    <glyph glyph-name="Ccedilla" unicode="&#xc7;" horiz-adv-x="740" 
d="M412 -11l-7 -36c90 -5 114 -59 114 -89c0 -51 -50 -100 -143 -100c-13 0 -65 0 -117 21l20 43c19 -9 42 -14 64 -14c41 0 63 26 63 49c0 37 -49 41 -62 42l15 83c-160 12 -309 139 -309 340c0 186 138 346 342 346c119 0 179 -55 205 -81c10 19 16 40 21 61h44l8 -244
h-47c-27 130 -121 210 -220 210c-110 0 -195 -87 -195 -279c0 -262 138 -295 194 -295c127 0 209 120 228 211h47v-250h-46c-11 43 -28 66 -34 75c-25 -27 -79 -84 -185 -93z" />
    <glyph glyph-name="Eacute" unicode="&#xc9;" horiz-adv-x="656" 
d="M619 218l-5 -218h-590v45c88 0 96 27 96 78v416c0 48 -5 78 -96 78v45h549l9 -172h-45c-30 117 -73 118 -153 118h-124v-234h67c67 0 81 12 85 83h47v-220h-45c-4 73 -22 83 -86 83h-68v-156c0 -86 0 -110 95 -110h53c41 0 141 0 165 164h46zM305 718l53 167h126
l-144 -167h-35z" />
    <glyph glyph-name="Ecircumflex" unicode="&#xca;" horiz-adv-x="656" 
d="M619 218l-5 -218h-590v45c88 0 96 27 96 78v416c0 48 -5 78 -96 78v45h549l9 -172h-45c-30 117 -73 118 -153 118h-124v-234h67c67 0 81 12 85 83h47v-220h-45c-4 73 -22 83 -86 83h-68v-156c0 -86 0 -110 95 -110h53c41 0 141 0 165 164h46zM329 817l-115 -106h-28
l85 184h115l85 -184h-28z" />
    <glyph glyph-name="Edieresis" unicode="&#xcb;" horiz-adv-x="656" 
d="M619 218l-5 -218h-590v45c88 0 96 27 96 78v416c0 48 -5 78 -96 78v45h549l9 -172h-45c-30 117 -73 118 -153 118h-124v-234h67c67 0 81 12 85 83h47v-220h-45c-4 73 -22 83 -86 83h-68v-156c0 -86 0 -110 95 -110h53c41 0 141 0 165 164h46zM183 803c0 30 25 54 55 54
c31 0 55 -25 55 -54c0 -30 -25 -55 -55 -55c-29 0 -55 23 -55 55zM364 803c0 30 25 54 55 54c31 0 55 -26 55 -54c0 -30 -24 -55 -55 -55c-29 0 -55 23 -55 55z" />
    <glyph glyph-name="Egrave" unicode="&#xc8;" horiz-adv-x="656" 
d="M619 218l-5 -218h-590v45c88 0 96 27 96 78v416c0 48 -5 78 -96 78v45h549l9 -172h-45c-30 117 -73 118 -153 118h-124v-234h67c67 0 81 12 85 83h47v-220h-45c-4 73 -22 83 -86 83h-68v-156c0 -86 0 -110 95 -110h53c41 0 141 0 165 164h46zM402 718h-35l-144 167h126z
" />
    <glyph glyph-name="Iacute" unicode="&#xcd;" horiz-adv-x="375" 
d="M19 617v45h336v-45c-88 0 -98 -25 -98 -78v-416c0 -50 8 -78 98 -78v-45h-336v45c88 0 98 25 98 78v416c0 51 -8 78 -98 78zM114 718l53 167h126l-144 -167h-35z" />
    <glyph glyph-name="Icircumflex" unicode="&#xce;" horiz-adv-x="375" 
d="M19 617v45h336v-45c-88 0 -98 -25 -98 -78v-416c0 -50 8 -78 98 -78v-45h-336v45c88 0 98 25 98 78v416c0 51 -8 78 -98 78zM188 817l-115 -106h-28l85 184h115l85 -184h-28z" />
    <glyph glyph-name="Idieresis" unicode="&#xcf;" horiz-adv-x="375" 
d="M19 617v45h336v-45c-88 0 -98 -25 -98 -78v-416c0 -50 8 -78 98 -78v-45h-336v45c88 0 98 25 98 78v416c0 51 -8 78 -98 78zM42 803c0 30 25 54 55 54c31 0 55 -25 55 -54c0 -30 -25 -55 -55 -55c-29 0 -55 23 -55 55zM223 803c0 30 25 54 55 54c31 0 55 -26 55 -54
c0 -30 -24 -55 -55 -55c-29 0 -55 23 -55 55z" />
    <glyph glyph-name="Igrave" unicode="&#xcc;" horiz-adv-x="375" 
d="M19 617v45h336v-45c-88 0 -98 -25 -98 -78v-416c0 -50 8 -78 98 -78v-45h-336v45c88 0 98 25 98 78v416c0 51 -8 78 -98 78zM261 718h-35l-144 167h126z" />
    <glyph glyph-name="Ntilde" unicode="&#xd1;" horiz-adv-x="760" 
d="M168 509v-365c0 -69 2 -99 99 -99v-45h-246v45c94 0 93 32 93 99v338c0 88 -2 125 -92 135v45h193l377 -445v302c0 64 -3 98 -95 98v45h247v-45c-97 0 -98 -27 -98 -98v-525h-45zM531 870h30c-7 -72 -52 -131 -107 -131c-20 0 -42 5 -92 29c-43 20 -54 25 -76 25
c-27 0 -51 -20 -55 -53h-31c7 80 58 131 112 131c32 0 79 -24 91 -31c39 -20 49 -25 67 -25c37 0 57 29 61 55z" />
    <glyph glyph-name="Oacute" unicode="&#xd3;" horiz-adv-x="833" 
d="M47 332c0 171 120 342 366 342c299 0 373 -223 373 -343c0 -176 -127 -343 -369 -343c-263 0 -370 188 -370 344zM205 333c0 -73 6 -287 213 -287c203 0 210 219 210 287c0 135 -40 283 -211 283c-181 0 -212 -157 -212 -283zM343 718l53 167h126l-144 -167h-35z" />
    <glyph glyph-name="Ocircumflex" unicode="&#xd4;" horiz-adv-x="833" 
d="M47 332c0 171 120 342 366 342c299 0 373 -223 373 -343c0 -176 -127 -343 -369 -343c-263 0 -370 188 -370 344zM205 333c0 -73 6 -287 213 -287c203 0 210 219 210 287c0 135 -40 283 -211 283c-181 0 -212 -157 -212 -283zM417 817l-115 -106h-28l85 184h115l85 -184
h-28z" />
    <glyph glyph-name="Odieresis" unicode="&#xd6;" horiz-adv-x="833" 
d="M47 332c0 171 120 342 366 342c299 0 373 -223 373 -343c0 -176 -127 -343 -369 -343c-263 0 -370 188 -370 344zM205 333c0 -73 6 -287 213 -287c203 0 210 219 210 287c0 135 -40 283 -211 283c-181 0 -212 -157 -212 -283zM271 803c0 30 25 54 55 54
c31 0 55 -25 55 -54c0 -30 -25 -55 -55 -55c-29 0 -55 23 -55 55zM452 803c0 30 25 54 55 54c31 0 55 -26 55 -54c0 -30 -24 -55 -55 -55c-29 0 -55 23 -55 55z" />
    <glyph glyph-name="Ograve" unicode="&#xd2;" horiz-adv-x="833" 
d="M47 332c0 171 120 342 366 342c299 0 373 -223 373 -343c0 -176 -127 -343 -369 -343c-263 0 -370 188 -370 344zM205 333c0 -73 6 -287 213 -287c203 0 210 219 210 287c0 135 -40 283 -211 283c-181 0 -212 -157 -212 -283zM490 718h-35l-144 167h126z" />
    <glyph glyph-name="Otilde" unicode="&#xd5;" horiz-adv-x="833" 
d="M47 332c0 171 120 342 366 342c299 0 373 -223 373 -343c0 -176 -127 -343 -369 -343c-263 0 -370 188 -370 344zM205 333c0 -73 6 -287 213 -287c203 0 210 219 210 287c0 135 -40 283 -211 283c-181 0 -212 -157 -212 -283zM567 870h30c-7 -72 -52 -131 -107 -131
c-20 0 -42 5 -92 29c-43 20 -54 25 -76 25c-27 0 -51 -20 -55 -53h-31c7 80 58 131 112 131c32 0 79 -24 91 -31c39 -20 49 -25 67 -25c37 0 57 29 61 55z" />
    <glyph glyph-name="Scaron" unicode="&#x160;" horiz-adv-x="573" 
d="M58 12v227h45c19 -76 67 -197 191 -197c68 0 110 43 110 96c0 63 -51 88 -154 136c-167 78 -192 156 -192 214c0 85 71 186 201 186c63 0 122 -32 161 -78c5 12 10 29 16 58h46v-185h-46c-10 32 -48 151 -170 151c-59 0 -97 -34 -97 -83c0 -62 56 -87 148 -130
c109 -51 213 -101 213 -217c0 -75 -65 -202 -214 -202c-66 0 -142 27 -193 91c-5 -11 -15 -32 -20 -67h-45zM287 789l114 106h28l-85 -184h-115l-85 184h28z" />
    <glyph glyph-name="Uacute" unicode="&#xda;" horiz-adv-x="750" 
d="M11 617v45h334v-45c-88 0 -97 -26 -97 -78v-276c0 -61 5 -99 17 -130c22 -54 81 -87 144 -87c68 0 134 37 157 90c20 47 22 93 22 145v238c0 69 -1 98 -98 98v45h244v-45c-92 0 -92 -33 -92 -98v-244c0 -76 0 -119 -29 -170c-57 -103 -178 -117 -232 -117
c-79 0 -201 28 -246 123c-27 56 -27 97 -27 152l-1 276c0 50 -7 78 -96 78zM342 718l53 167h126l-144 -167h-35z" />
    <glyph glyph-name="Ucircumflex" unicode="&#xdb;" horiz-adv-x="750" 
d="M11 617v45h334v-45c-88 0 -97 -26 -97 -78v-276c0 -61 5 -99 17 -130c22 -54 81 -87 144 -87c68 0 134 37 157 90c20 47 22 93 22 145v238c0 69 -1 98 -98 98v45h244v-45c-92 0 -92 -33 -92 -98v-244c0 -76 0 -119 -29 -170c-57 -103 -178 -117 -232 -117
c-79 0 -201 28 -246 123c-27 56 -27 97 -27 152l-1 276c0 50 -7 78 -96 78zM386 817l-115 -106h-28l85 184h115l85 -184h-28z" />
    <glyph glyph-name="Udieresis" unicode="&#xdc;" horiz-adv-x="750" 
d="M11 617v45h334v-45c-88 0 -97 -26 -97 -78v-276c0 -61 5 -99 17 -130c22 -54 81 -87 144 -87c68 0 134 37 157 90c20 47 22 93 22 145v238c0 69 -1 98 -98 98v45h244v-45c-92 0 -92 -33 -92 -98v-244c0 -76 0 -119 -29 -170c-57 -103 -178 -117 -232 -117
c-79 0 -201 28 -246 123c-27 56 -27 97 -27 152l-1 276c0 50 -7 78 -96 78zM240 803c0 30 25 54 55 54c31 0 55 -25 55 -54c0 -30 -25 -55 -55 -55c-29 0 -55 23 -55 55zM421 803c0 30 25 54 55 54c31 0 55 -26 55 -54c0 -30 -24 -55 -55 -55c-29 0 -55 23 -55 55z" />
    <glyph glyph-name="Ugrave" unicode="&#xd9;" horiz-adv-x="750" 
d="M11 617v45h334v-45c-88 0 -97 -26 -97 -78v-276c0 -61 5 -99 17 -130c22 -54 81 -87 144 -87c68 0 134 37 157 90c20 47 22 93 22 145v238c0 69 -1 98 -98 98v45h244v-45c-92 0 -92 -33 -92 -98v-244c0 -76 0 -119 -29 -170c-57 -103 -178 -117 -232 -117
c-79 0 -201 28 -246 123c-27 56 -27 97 -27 152l-1 276c0 50 -7 78 -96 78zM459 718h-35l-144 167h126z" />
    <glyph glyph-name="Yacute" unicode="&#xdd;" horiz-adv-x="708" 
d="M284 271l-166 277c-4 5 -6 10 -7 11c-30 48 -46 56 -88 58v45h310v-45c-36 0 -68 0 -68 -29c0 -13 5 -25 33 -72l103 -174l98 155c20 32 32 53 32 74c0 46 -42 46 -76 46v45h241v-45c-55 -4 -70 -25 -133 -122l-139 -215v-157c0 -45 4 -78 96 -78v-45h-333v45
c87 0 97 25 97 78v148zM321 718l53 167h126l-144 -167h-35z" />
    <glyph glyph-name="Ydieresis" unicode="&#x178;" horiz-adv-x="708" 
d="M284 271l-166 277c-4 5 -6 10 -7 11c-30 48 -46 56 -88 58v45h310v-45c-36 0 -68 0 -68 -29c0 -13 5 -25 33 -72l103 -174l98 155c20 32 32 53 32 74c0 46 -42 46 -76 46v45h241v-45c-55 -4 -70 -25 -133 -122l-139 -215v-157c0 -45 4 -78 96 -78v-45h-333v45
c87 0 97 25 97 78v148zM219 803c0 30 25 54 55 54c31 0 55 -25 55 -54c0 -30 -25 -55 -55 -55c-29 0 -55 23 -55 55zM400 803c0 30 25 54 55 54c31 0 55 -26 55 -54c0 -30 -24 -55 -55 -55c-29 0 -55 23 -55 55z" />
    <glyph glyph-name="Zcaron" unicode="&#x17d;" horiz-adv-x="646" 
d="M27 0v46l396 562h-155c-86 0 -162 0 -179 -123h-47l12 177h545v-44l-396 -564h190c70 0 157 0 184 143h45l-11 -197h-584zM324 789l114 106h28l-85 -184h-115l-85 184h28z" />
    <glyph glyph-name="aacute" unicode="&#xe1;" horiz-adv-x="542" 
d="M318 269v28c0 41 -14 74 -77 74c-53 0 -69 -24 -76 -63c-3 -18 -8 -51 -58 -51c-24 0 -52 14 -52 46c0 52 53 113 201 113c156 0 188 -65 188 -133v-154c0 -49 0 -71 30 -71c16 0 32 19 32 45h36c1 -78 -52 -114 -114 -114c-56 0 -94 31 -101 65
c-67 -54 -128 -65 -164 -65c-70 0 -120 36 -120 93c0 96 98 142 275 187zM318 99v121c-143 -45 -143 -92 -143 -112c0 -29 18 -50 52 -50c40 0 70 24 91 41zM198 478l53 167h126l-144 -167h-35z" />
    <glyph glyph-name="acircumflex" unicode="&#xe2;" horiz-adv-x="542" 
d="M318 269v28c0 41 -14 74 -77 74c-53 0 -69 -24 -76 -63c-3 -18 -8 -51 -58 -51c-24 0 -52 14 -52 46c0 52 53 113 201 113c156 0 188 -65 188 -133v-154c0 -49 0 -71 30 -71c16 0 32 19 32 45h36c1 -78 -52 -114 -114 -114c-56 0 -94 31 -101 65
c-67 -54 -128 -65 -164 -65c-70 0 -120 36 -120 93c0 96 98 142 275 187zM318 99v121c-143 -45 -143 -92 -143 -112c0 -29 18 -50 52 -50c40 0 70 24 91 41zM271 577l-115 -106h-28l85 184h115l85 -184h-28z" />
    <glyph glyph-name="adieresis" unicode="&#xe4;" horiz-adv-x="542" 
d="M318 269v28c0 41 -14 74 -77 74c-53 0 -69 -24 -76 -63c-3 -18 -8 -51 -58 -51c-24 0 -52 14 -52 46c0 52 53 113 201 113c156 0 188 -65 188 -133v-154c0 -49 0 -71 30 -71c16 0 32 19 32 45h36c1 -78 -52 -114 -114 -114c-56 0 -94 31 -101 65
c-67 -54 -128 -65 -164 -65c-70 0 -120 36 -120 93c0 96 98 142 275 187zM318 99v121c-143 -45 -143 -92 -143 -112c0 -29 18 -50 52 -50c40 0 70 24 91 41zM125 563c0 30 25 54 55 54c31 0 55 -25 55 -54c0 -30 -25 -55 -55 -55c-29 0 -55 23 -55 55zM306 563
c0 30 25 54 55 54c31 0 55 -26 55 -54c0 -30 -24 -55 -55 -55c-29 0 -55 23 -55 55z" />
    <glyph glyph-name="agrave" unicode="&#xe0;" horiz-adv-x="542" 
d="M318 269v28c0 41 -14 74 -77 74c-53 0 -69 -24 -76 -63c-3 -18 -8 -51 -58 -51c-24 0 -52 14 -52 46c0 52 53 113 201 113c156 0 188 -65 188 -133v-154c0 -49 0 -71 30 -71c16 0 32 19 32 45h36c1 -78 -52 -114 -114 -114c-56 0 -94 31 -101 65
c-67 -54 -128 -65 -164 -65c-70 0 -120 36 -120 93c0 96 98 142 275 187zM318 99v121c-143 -45 -143 -92 -143 -112c0 -29 18 -50 52 -50c40 0 70 24 91 41zM315 478h-35l-144 167h126z" />
    <glyph glyph-name="aring" unicode="&#xe5;" horiz-adv-x="542" 
d="M318 269v28c0 41 -14 74 -77 74c-53 0 -69 -24 -76 -63c-3 -18 -8 -51 -58 -51c-24 0 -52 14 -52 46c0 52 53 113 201 113c156 0 188 -65 188 -133v-154c0 -49 0 -71 30 -71c16 0 32 19 32 45h36c1 -78 -52 -114 -114 -114c-56 0 -94 31 -101 65
c-67 -54 -128 -65 -164 -65c-70 0 -120 36 -120 93c0 96 98 142 275 187zM318 99v121c-143 -45 -143 -92 -143 -112c0 -29 18 -50 52 -50c40 0 70 24 91 41zM148 563c0 53 43 93 93 93c52 0 94 -42 94 -93s-42 -93 -94 -93c-50 0 -93 40 -93 93zM184 563
c0 -33 27 -57 57 -57c32 0 58 26 58 57s-25 57 -58 57c-30 0 -57 -25 -57 -57z" />
    <glyph glyph-name="atilde" unicode="&#xe3;" horiz-adv-x="542" 
d="M318 269v28c0 41 -14 74 -77 74c-53 0 -69 -24 -76 -63c-3 -18 -8 -51 -58 -51c-24 0 -52 14 -52 46c0 52 53 113 201 113c156 0 188 -65 188 -133v-154c0 -49 0 -71 30 -71c16 0 32 19 32 45h36c1 -78 -52 -114 -114 -114c-56 0 -94 31 -101 65
c-67 -54 -128 -65 -164 -65c-70 0 -120 36 -120 93c0 96 98 142 275 187zM318 99v121c-143 -45 -143 -92 -143 -112c0 -29 18 -50 52 -50c40 0 70 24 91 41zM422 630h30c-7 -72 -52 -131 -107 -131c-20 0 -42 5 -92 29c-43 20 -54 25 -76 25c-27 0 -51 -20 -55 -53h-31
c7 80 58 131 112 131c32 0 79 -24 91 -31c39 -20 49 -25 67 -25c37 0 57 29 61 55z" />
    <glyph glyph-name="ccedilla" unicode="&#xe7;" horiz-adv-x="490" 
d="M285 -16l-5 -35c63 -3 102 -43 102 -92c0 -33 -19 -96 -128 -96c-43 0 -86 7 -126 23l22 41c30 -12 62 -16 78 -16c35 0 60 22 60 46c0 42 -53 44 -67 44l11 89c-39 1 -192 48 -192 204c0 117 101 224 248 224c81 0 170 -34 170 -100c0 -29 -25 -52 -53 -52
c-43 0 -48 36 -55 63c-9 33 -27 44 -62 44c-42 0 -113 -20 -113 -156c0 -95 38 -177 131 -177c76 0 108 62 119 80l41 -19c-41 -81 -114 -115 -181 -115z" />
    <glyph glyph-name="eacute" unicode="&#xe9;" horiz-adv-x="510" 
d="M432 102l38 -26c-43 -69 -106 -92 -183 -92c-154 0 -247 91 -247 213c0 117 90 219 232 219c141 0 203 -103 203 -201h-300c2 -23 -8 -177 131 -177c18 0 84 5 126 64zM176 260h178c0 30 -1 111 -88 111c-59 0 -88 -48 -90 -111zM182 478l53 167h126l-144 -167h-35z" />
    <glyph glyph-name="ecircumflex" unicode="&#xea;" horiz-adv-x="510" 
d="M432 102l38 -26c-43 -69 -106 -92 -183 -92c-154 0 -247 91 -247 213c0 117 90 219 232 219c141 0 203 -103 203 -201h-300c2 -23 -8 -177 131 -177c18 0 84 5 126 64zM176 260h178c0 30 -1 111 -88 111c-59 0 -88 -48 -90 -111zM256 577l-115 -106h-28l85 184h115
l85 -184h-28z" />
    <glyph glyph-name="edieresis" unicode="&#xeb;" horiz-adv-x="510" 
d="M432 102l38 -26c-43 -69 -106 -92 -183 -92c-154 0 -247 91 -247 213c0 117 90 219 232 219c141 0 203 -103 203 -201h-300c2 -23 -8 -177 131 -177c18 0 84 5 126 64zM176 260h178c0 30 -1 111 -88 111c-59 0 -88 -48 -90 -111zM110 563c0 30 25 54 55 54
c31 0 55 -25 55 -54c0 -30 -25 -55 -55 -55c-29 0 -55 23 -55 55zM291 563c0 30 25 54 55 54c31 0 55 -26 55 -54c0 -30 -24 -55 -55 -55c-29 0 -55 23 -55 55z" />
    <glyph glyph-name="egrave" unicode="&#xe8;" horiz-adv-x="510" 
d="M432 102l38 -26c-43 -69 -106 -92 -183 -92c-154 0 -247 91 -247 213c0 117 90 219 232 219c141 0 203 -103 203 -201h-300c2 -23 -8 -177 131 -177c18 0 84 5 126 64zM176 260h178c0 30 -1 111 -88 111c-59 0 -88 -48 -90 -111zM329 478h-35l-144 167h126z" />
    <glyph glyph-name="iacute" unicode="&#xed;" horiz-adv-x="313" 
d="M224 416v-300c0 -46 0 -71 65 -71v-45h-265v45h14c60 0 60 27 60 71v145c0 52 0 67 -74 68v45zM83 478l53 167h126l-144 -167h-35z" />
    <glyph glyph-name="icircumflex" unicode="&#xee;" horiz-adv-x="313" 
d="M224 416v-300c0 -46 0 -71 65 -71v-45h-265v45h14c60 0 60 27 60 71v145c0 52 0 67 -74 68v45zM157 577l-115 -106h-28l85 184h115l85 -184h-28z" />
    <glyph glyph-name="idieresis" unicode="&#xef;" horiz-adv-x="313" 
d="M224 416v-300c0 -46 0 -71 65 -71v-45h-265v45h14c60 0 60 27 60 71v145c0 52 0 67 -74 68v45zM11 563c0 30 25 54 55 54c31 0 55 -25 55 -54c0 -30 -25 -55 -55 -55c-29 0 -55 23 -55 55zM192 563c0 30 25 54 55 54c31 0 55 -26 55 -54c0 -30 -24 -55 -55 -55
c-29 0 -55 23 -55 55z" />
    <glyph glyph-name="igrave" unicode="&#xec;" horiz-adv-x="313" 
d="M224 416v-300c0 -46 0 -71 65 -71v-45h-265v45h14c60 0 60 27 60 71v145c0 52 0 67 -74 68v45zM230 478h-35l-144 167h126z" />
    <glyph glyph-name="ntilde" unicode="&#xf1;" horiz-adv-x="594" 
d="M509 281v-165c0 -46 0 -71 67 -71v-45h-253v45c61 0 60 23 60 78v138c0 44 -6 90 -62 90c-75 0 -102 -71 -102 -130v-109c0 -49 8 -67 60 -67v-45h-258v45c63 0 72 12 72 71v158c0 45 -11 55 -72 55v45l190 42c4 -25 5 -40 4 -74c28 30 72 74 147 74
c82 0 147 -43 147 -135zM448 630h30c-7 -72 -52 -131 -107 -131c-20 0 -42 5 -92 29c-43 20 -54 25 -76 25c-27 0 -51 -20 -55 -53h-31c7 80 58 131 112 131c32 0 79 -24 91 -31c39 -20 49 -25 67 -25c37 0 57 29 61 55z" />
    <glyph glyph-name="oacute" unicode="&#xf3;" horiz-adv-x="563" 
d="M41 200c0 152 124 216 244 216c155 0 237 -101 237 -215c0 -137 -110 -217 -240 -217c-116 0 -241 68 -241 216zM176 197c0 -74 5 -168 107 -168c97 0 104 96 104 175c0 99 -17 167 -107 167c-83 0 -104 -56 -104 -174zM208 478l53 167h126l-144 -167h-35z" />
    <glyph glyph-name="ocircumflex" unicode="&#xf4;" horiz-adv-x="563" 
d="M41 200c0 152 124 216 244 216c155 0 237 -101 237 -215c0 -137 -110 -217 -240 -217c-116 0 -241 68 -241 216zM176 197c0 -74 5 -168 107 -168c97 0 104 96 104 175c0 99 -17 167 -107 167c-83 0 -104 -56 -104 -174zM282 577l-115 -106h-28l85 184h115l85 -184h-28z
" />
    <glyph glyph-name="odieresis" unicode="&#xf6;" horiz-adv-x="563" 
d="M41 200c0 152 124 216 244 216c155 0 237 -101 237 -215c0 -137 -110 -217 -240 -217c-116 0 -241 68 -241 216zM176 197c0 -74 5 -168 107 -168c97 0 104 96 104 175c0 99 -17 167 -107 167c-83 0 -104 -56 -104 -174zM136 563c0 30 25 54 55 54c31 0 55 -25 55 -54
c0 -30 -25 -55 -55 -55c-29 0 -55 23 -55 55zM317 563c0 30 25 54 55 54c31 0 55 -26 55 -54c0 -30 -24 -55 -55 -55c-29 0 -55 23 -55 55z" />
    <glyph glyph-name="ograve" unicode="&#xf2;" horiz-adv-x="563" 
d="M41 200c0 152 124 216 244 216c155 0 237 -101 237 -215c0 -137 -110 -217 -240 -217c-116 0 -241 68 -241 216zM176 197c0 -74 5 -168 107 -168c97 0 104 96 104 175c0 99 -17 167 -107 167c-83 0 -104 -56 -104 -174zM355 478h-35l-144 167h126z" />
    <glyph glyph-name="otilde" unicode="&#xf5;" horiz-adv-x="563" 
d="M41 200c0 152 124 216 244 216c155 0 237 -101 237 -215c0 -137 -110 -217 -240 -217c-116 0 -241 68 -241 216zM176 197c0 -74 5 -168 107 -168c97 0 104 96 104 175c0 99 -17 167 -107 167c-83 0 -104 -56 -104 -174zM432 630h30c-7 -72 -52 -131 -107 -131
c-20 0 -42 5 -92 29c-43 20 -54 25 -76 25c-27 0 -51 -20 -55 -53h-31c7 80 58 131 112 131c32 0 79 -24 91 -31c39 -20 49 -25 67 -25c37 0 57 29 61 55z" />
    <glyph glyph-name="scaron" unicode="&#x161;" horiz-adv-x="479" 
d="M49 -13l-5 127h41c10 -33 51 -85 161 -85c17 0 101 0 101 55c0 31 -30 39 -96 56c-99 25 -213 53 -213 151c0 78 79 125 192 125c81 0 123 -20 140 -28l12 25h39v-113h-40c-10 40 -61 71 -148 71c-17 0 -102 0 -102 -42c0 -32 37 -36 134 -61c58 -15 182 -39 182 -152
c0 -86 -84 -132 -195 -132c-45 0 -105 8 -146 30l-19 -27h-38zM240 549l114 106h28l-85 -184h-115l-85 184h28z" />
    <glyph glyph-name="uacute" unicode="&#xfa;" horiz-adv-x="594" 
d="M85 141v144c0 48 0 70 -70 70v45h196v-269c0 -16 0 -83 64 -83c59 0 97 69 101 76v161c0 51 -2 70 -73 70v45h199v-294c0 -40 5 -56 72 -58v-45c-9 -1 -140 -7 -198 -19v71c-50 -57 -104 -72 -151 -72c-140 0 -140 112 -140 158zM224 478l53 167h126l-144 -167h-35z" />
    <glyph glyph-name="ucircumflex" unicode="&#xfb;" horiz-adv-x="594" 
d="M85 141v144c0 48 0 70 -70 70v45h196v-269c0 -16 0 -83 64 -83c59 0 97 69 101 76v161c0 51 -2 70 -73 70v45h199v-294c0 -40 5 -56 72 -58v-45c-9 -1 -140 -7 -198 -19v71c-50 -57 -104 -72 -151 -72c-140 0 -140 112 -140 158zM298 577l-115 -106h-28l85 184h115
l85 -184h-28z" />
    <glyph glyph-name="udieresis" unicode="&#xfc;" horiz-adv-x="594" 
d="M85 141v144c0 48 0 70 -70 70v45h196v-269c0 -16 0 -83 64 -83c59 0 97 69 101 76v161c0 51 -2 70 -73 70v45h199v-294c0 -40 5 -56 72 -58v-45c-9 -1 -140 -7 -198 -19v71c-50 -57 -104 -72 -151 -72c-140 0 -140 112 -140 158zM152 563c0 30 25 54 55 54
c31 0 55 -25 55 -54c0 -30 -25 -55 -55 -55c-29 0 -55 23 -55 55zM333 563c0 30 25 54 55 54c31 0 55 -26 55 -54c0 -30 -24 -55 -55 -55c-29 0 -55 23 -55 55z" />
    <glyph glyph-name="ugrave" unicode="&#xf9;" horiz-adv-x="594" 
d="M85 141v144c0 48 0 70 -70 70v45h196v-269c0 -16 0 -83 64 -83c59 0 97 69 101 76v161c0 51 -2 70 -73 70v45h199v-294c0 -40 5 -56 72 -58v-45c-9 -1 -140 -7 -198 -19v71c-50 -57 -104 -72 -151 -72c-140 0 -140 112 -140 158zM371 478h-35l-144 167h126z" />
    <glyph glyph-name="yacute" unicode="&#xfd;" horiz-adv-x="531" 
d="M317 124l76 155c9 18 16 33 16 45c0 21 -24 31 -48 31v45h158v-45c-42 -6 -49 -20 -88 -101l-143 -297c-70 -146 -92 -201 -159 -201c-29 0 -56 20 -56 48c0 45 45 58 73 66c67 19 96 97 106 120l-186 328c-19 34 -31 37 -54 37v45h237v-45h-15c-21 0 -34 -4 -34 -16
c0 -9 6 -20 14 -34zM242 478l53 167h126l-144 -167h-35z" />
    <glyph glyph-name="ydieresis" unicode="&#xff;" horiz-adv-x="531" 
d="M317 124l76 155c9 18 16 33 16 45c0 21 -24 31 -48 31v45h158v-45c-42 -6 -49 -20 -88 -101l-143 -297c-70 -146 -92 -201 -159 -201c-29 0 -56 20 -56 48c0 45 45 58 73 66c67 19 96 97 106 120l-186 328c-19 34 -31 37 -54 37v45h237v-45h-15c-21 0 -34 -4 -34 -16
c0 -9 6 -20 14 -34zM120 563c0 30 25 54 55 54c31 0 55 -25 55 -54c0 -30 -25 -55 -55 -55c-29 0 -55 23 -55 55zM301 563c0 30 25 54 55 54c31 0 55 -26 55 -54c0 -30 -24 -55 -55 -55c-29 0 -55 23 -55 55z" />
    <glyph glyph-name="zcaron" unicode="&#x17e;" horiz-adv-x="490" 
d="M38 0v36l232 319h-106c-18 0 -44 0 -63 -71h-46l9 116h364v-39l-230 -316h93c34 0 65 0 96 87h47l-13 -132h-383zM246 549l114 106h28l-85 -184h-115l-85 184h28z" />
    <glyph glyph-name="twodotenleader" unicode="&#x2025;" horiz-adv-x="500" 
d="M48 60c0 43 35 77 77 77c43 0 76 -35 76 -77s-34 -76 -76 -76s-77 33 -77 76zM299 60c0 43 34 77 76 77s77 -34 77 -77s-35 -76 -77 -76c-41 0 -76 33 -76 76z" />
    <glyph glyph-name="onedotenleader" unicode="&#x2024;" horiz-adv-x="500" 
d="M173 60c0 43 35 77 77 77c43 0 76 -35 76 -77s-34 -76 -76 -76c-41 0 -77 33 -77 76z" />
    <glyph glyph-name="colonmonetary" unicode="&#x20a1;" horiz-adv-x="740" 
d="M249 16l-43 -145h-48l49 167c-102 64 -157 171 -157 291c0 194 149 349 345 345l17 58h49l-18 -61c27 -5 44 -9 61 -16l23 77h49l-29 -98c26 -16 37 -28 50 -40c10 19 16 40 21 61h44l8 -244h-47c-14 69 -42 119 -94 164l-156 -526c6 -1 16 -3 28 -3
c128 0 209 120 229 210h47v-249h-46c-11 43 -26 64 -34 75c-26 -28 -98 -105 -241 -93l-35 -118h-49l37 125c-25 5 -43 12 -60 20zM428 621l-152 -514c16 -20 33 -33 53 -43l160 538c-23 11 -41 16 -61 19zM242 157l138 464c-159 -22 -172 -206 -172 -282
c0 -19 0 -113 34 -182z" />
    <glyph glyph-name="figuredash" unicode="&#x2012;" horiz-adv-x="500" 
d="M-6 295h512v-90h-512v90z" />
    <glyph glyph-name="oneeighth" unicode="&#x215b;" horiz-adv-x="792" 
d="M670 179v-2c62 -15 79 -51 79 -84c0 -62 -55 -101 -135 -101c-84 0 -138 41 -138 101c0 48 38 76 80 84v2c-43 12 -69 42 -69 75c0 47 48 86 124 86c75 0 128 -38 128 -87c0 -46 -46 -68 -69 -74zM614 310c-23 0 -45 -13 -45 -58c0 -11 0 -60 44 -60s44 46 44 60
c0 43 -19 58 -43 58zM613 162c-49 0 -49 -53 -49 -74c0 -38 15 -66 49 -66c47 0 48 54 48 76c0 45 -21 64 -48 64zM231 657v-284c0 -24 7 -27 28 -27h22v-30h-189v30h20c30 0 31 5 31 31v192c0 27 -2 31 -40 31h-16v30c68 8 85 12 108 27h36zM182 -29l354 693h57l-354 -693
h-57z" />
    <glyph glyph-name="threeeighths" unicode="&#x215c;" horiz-adv-x="792" 
d="M670 179v-2c62 -15 79 -51 79 -84c0 -62 -55 -101 -135 -101c-84 0 -138 41 -138 101c0 48 38 76 80 84v2c-43 12 -69 42 -69 75c0 47 48 86 124 86c75 0 128 -38 128 -87c0 -46 -46 -68 -69 -74zM614 310c-23 0 -45 -13 -45 -58c0 -11 0 -60 44 -60s44 46 44 60
c0 43 -19 58 -43 58zM613 162c-49 0 -49 -53 -49 -74c0 -38 15 -66 49 -66c47 0 48 54 48 76c0 45 -21 64 -48 64zM129 553l-23 -9c-7 -3 -9 -4 -14 -4c-15 0 -27 21 -27 39c0 22 25 77 130 77c61 0 109 -20 109 -62c0 -38 -41 -64 -67 -76v-2c72 -12 78 -63 78 -85
c0 -66 -70 -123 -164 -123c-57 0 -102 23 -102 55c0 20 20 30 36 30c24 0 33 -16 42 -31c11 -18 15 -24 32 -24c64 0 68 59 68 83c0 38 -7 65 -31 65c-11 0 -23 -9 -28 -13c-11 -8 -15 -11 -25 -11c-9 0 -20 5 -20 15c0 11 6 14 56 45c15 9 45 26 45 62c0 35 -30 42 -49 42
c-25 0 -47 -14 -47 -34c0 -8 2 -16 7 -21c6 -6 7 -7 7 -10c0 -2 -1 -4 -13 -8zM182 -29l354 693h57l-354 -693h-57z" />
    <glyph glyph-name="fiveeighths" unicode="&#x215d;" horiz-adv-x="792" 
d="M670 179v-2c62 -15 79 -51 79 -84c0 -62 -55 -101 -135 -101c-84 0 -138 41 -138 101c0 48 38 76 80 84v2c-43 12 -69 42 -69 75c0 47 48 86 124 86c75 0 128 -38 128 -87c0 -46 -46 -68 -69 -74zM614 310c-23 0 -45 -13 -45 -58c0 -11 0 -60 44 -60s44 46 44 60
c0 43 -19 58 -43 58zM613 162c-49 0 -49 -53 -49 -74c0 -38 15 -66 49 -66c47 0 48 54 48 76c0 45 -21 64 -48 64zM182 -29l354 693h57l-354 -693h-57zM91 649h191l-14 -25c-13 -23 -13 -23 -46 -23h-94l-1 -74c12 7 28 15 63 15c77 0 125 -56 125 -112
c0 -62 -61 -122 -162 -122c-67 0 -100 28 -100 52c0 21 19 30 34 30c18 0 22 -5 36 -24c11 -15 21 -28 46 -28c53 0 55 48 55 81c0 59 -12 93 -51 93c-14 0 -33 -6 -46 -35h-41z" />
    <glyph glyph-name="seveneighths" unicode="&#x215e;" horiz-adv-x="792" 
d="M670 179v-2c62 -15 79 -51 79 -84c0 -62 -55 -101 -135 -101c-84 0 -138 41 -138 101c0 48 38 76 80 84v2c-43 12 -69 42 -69 75c0 47 48 86 124 86c75 0 128 -38 128 -87c0 -46 -46 -68 -69 -74zM614 310c-23 0 -45 -13 -45 -58c0 -11 0 -60 44 -60s44 46 44 60
c0 43 -19 58 -43 58zM613 162c-49 0 -49 -53 -49 -74c0 -38 15 -66 49 -66c47 0 48 54 48 76c0 45 -21 64 -48 64zM97 671h39c-3 -11 -4 -13 -4 -15c0 -4 2 -4 20 -4h168l-111 -296c-8 -21 -17 -46 -49 -46c-23 0 -40 14 -40 32c0 9 2 12 17 39l118 211h-113
c-34 0 -35 -4 -46 -33h-41zM164 -29l354 693h57l-354 -693h-57z" />
    <glyph glyph-name="onethird" unicode="&#x2153;" horiz-adv-x="792" 
d="M557 237l-23 -9c-7 -3 -9 -4 -14 -4c-15 0 -27 21 -27 39c0 22 25 77 130 77c61 0 109 -20 109 -62c0 -38 -41 -64 -67 -76v-2c72 -12 78 -63 78 -85c0 -66 -70 -123 -164 -123c-57 0 -102 23 -102 55c0 20 20 30 36 30c24 0 33 -16 42 -31c11 -18 15 -24 32 -24
c64 0 68 59 68 83c0 38 -7 65 -31 65c-11 0 -23 -9 -28 -13c-11 -8 -15 -11 -25 -11c-9 0 -20 5 -20 15c0 11 6 14 56 45c15 9 45 26 45 62c0 31 -28 42 -49 42c-23 0 -47 -15 -47 -34c0 -8 2 -16 7 -21c6 -6 7 -7 7 -10c0 -2 -1 -4 -13 -8zM182 -29l354 693h57l-354 -693
h-57zM231 657v-284c0 -24 7 -27 28 -27h22v-30h-189v30h20c30 0 31 5 31 31v192c0 27 -2 31 -40 31h-16v30c68 8 85 12 108 27h36z" />
    <glyph glyph-name="twothirds" unicode="&#x2154;" horiz-adv-x="792" 
d="M557 237l-23 -9c-7 -3 -9 -4 -14 -4c-15 0 -27 21 -27 39c0 22 25 77 130 77c61 0 109 -20 109 -62c0 -38 -41 -64 -67 -76v-2c72 -12 78 -63 78 -85c0 -66 -70 -123 -164 -123c-57 0 -102 23 -102 55c0 20 20 30 36 30c24 0 33 -16 42 -31c11 -18 15 -24 32 -24
c64 0 68 59 68 83c0 38 -7 65 -31 65c-11 0 -23 -9 -28 -13c-11 -8 -15 -11 -25 -11c-9 0 -20 5 -20 15c0 11 6 14 56 45c15 9 45 26 45 62c0 31 -28 42 -49 42c-23 0 -47 -15 -47 -34c0 -8 2 -16 7 -21c6 -6 7 -7 7 -10c0 -2 -1 -4 -13 -8zM196 -29l354 693h58l-355 -693
h-57zM296 297h-36c2 9 3 12 3 14c0 5 -2 5 -14 5h-192v27c35 29 160 132 160 223c0 40 -26 60 -54 60c-29 0 -48 -19 -48 -41c0 -7 2 -17 7 -26c1 -2 5 -10 5 -11c0 -3 -1 -3 -17 -9l-23 -8c-3 -1 -5 -2 -9 -2c-12 0 -21 27 -21 47c0 39 36 80 123 80c104 0 125 -60 125 -91
c0 -63 -70 -119 -172 -198v-2h177z" />
    <glyph glyph-name="dollar.oldstyle" unicode="&#xf724;" horiz-adv-x="333" 
d="M135 37v156c-30 12 -55 29 -76 48c-18 17 -41 40 -41 88c0 75 56 120 117 127v22h45v-21c60 -7 120 -40 120 -79c0 -23 -18 -40 -37 -40c-15 0 -28 11 -35 26c-10 25 -16 39 -48 47v-130c9 -5 50 -24 58 -28c56 -33 77 -73 77 -119c0 -8 0 -120 -135 -141v-82h-45v81
c-79 6 -119 41 -119 71c0 20 15 39 37 39c24 0 33 -18 42 -34c13 -23 23 -28 40 -31zM135 303v108c-43 -12 -43 -43 -43 -49c0 -31 29 -50 43 -59zM180 171v-134c61 13 61 59 61 64c0 37 -34 56 -61 70z" />
    <glyph glyph-name="dollar.superior" unicode="&#xf6e4;" 
d="M118 347v119c-46 19 -100 42 -100 100c0 45 34 83 100 92v16h40v-15c51 -5 103 -30 103 -58c0 -16 -17 -28 -32 -28c-21 0 -29 15 -35 29c-8 15 -18 22 -36 26v-100c55 -22 116 -46 116 -107c0 -42 -35 -94 -116 -103v-61h-40v60c-70 4 -102 31 -102 51c0 15 14 28 33 28
c22 0 29 -14 35 -24c10 -17 17 -21 34 -25zM118 545v83c-19 -4 -35 -20 -35 -39c0 -23 24 -38 35 -44zM158 449v-102c27 5 51 23 51 49c0 29 -28 43 -51 53z" />
    <glyph glyph-name="parenleft.superior" unicode="&#x207d;" horiz-adv-x="167" 
d="M125 722h47c-64 -80 -97 -167 -97 -269c0 -151 66 -238 97 -279h-47c-95 112 -101 225 -101 274c0 138 64 225 101 274z" />
    <glyph glyph-name="parenright.superior" unicode="&#x207e;" horiz-adv-x="167" 
d="M42 174h-47c32 42 97 128 97 279c0 150 -74 240 -97 269h47c36 -48 101 -135 101 -275c0 -103 -37 -198 -101 -273z" />
    <glyph glyph-name="zero.oldstyle" unicode="&#xf730;" horiz-adv-x="521" 
d="M38 218c0 119 97 222 220 222c137 0 225 -111 225 -227c0 -127 -98 -226 -224 -226c-102 0 -221 75 -221 231zM168 215c0 -163 48 -182 93 -182c43 0 92 12 92 191c0 131 -38 170 -94 170c-16 0 -50 -2 -69 -45c-18 -42 -22 -96 -22 -134z" />
    <glyph glyph-name="one.oldstyle" unicode="&#xf731;" horiz-adv-x="521" 
d="M399 425v-46c-53 -1 -76 -2 -76 -58v-222c0 -50 28 -51 76 -53v-46h-277v46c52 2 75 3 75 54v229c0 45 -24 46 -75 50v46h277z" />
    <glyph glyph-name="two.oldstyle" unicode="&#xf732;" horiz-adv-x="521" 
d="M468 83l-20 -122h-42c2 7 2 8 2 22c0 7 0 17 -22 17h-326v44c118 61 272 158 272 264c0 40 -38 77 -93 77c-53 0 -99 -30 -99 -72c0 -18 8 -46 14 -57c2 -3 5 -8 5 -10c0 -4 -2 -6 -6 -8l-56 -24c-3 -1 -8 -4 -10 -4c-7 0 -27 40 -27 72c0 76 81 157 222 157
c114 0 180 -58 180 -123c0 -101 -106 -156 -254 -231v-2h260z" />
    <glyph glyph-name="three.oldstyle" unicode="&#xf733;" horiz-adv-x="521" 
d="M164 248l-50 -22c-5 -3 -10 -4 -11 -4c-15 0 -38 33 -38 67c0 73 81 151 217 151c97 0 172 -45 172 -113c0 -84 -83 -132 -124 -155v-2c25 -3 55 -8 84 -31c28 -23 59 -65 59 -130c0 -134 -125 -234 -268 -234c-108 0 -164 50 -164 100c0 28 19 53 49 53
c36 0 47 -24 62 -54c10 -20 24 -53 70 -53c28 0 61 15 78 34c28 31 39 77 39 133c0 82 -12 130 -57 130c-14 0 -31 -3 -63 -30c-15 -13 -18 -16 -29 -16c-16 0 -26 11 -26 23c0 20 7 25 72 67c35 23 99 64 99 141c0 59 -49 87 -88 87c-37 0 -92 -25 -92 -74
c0 -15 6 -29 11 -38c2 -3 12 -15 12 -19s-11 -9 -14 -11z" />
    <glyph glyph-name="four.oldstyle" unicode="&#xf734;" horiz-adv-x="521" 
d="M483 57v-57h-87v-124c0 -17 2 -37 35 -47c8 -2 45 -1 52 -2v-46h-303v46c67 0 94 2 94 55v118h-235v63l287 383h70v-389h87zM93 57h181v242h-2z" />
    <glyph glyph-name="five.oldstyle" unicode="&#xf735;" horiz-adv-x="521" 
d="M158 104h-53l9 320h300l-28 -61c-9 -20 -14 -23 -37 -23h-191l-4 -168c48 46 93 47 115 47c115 0 204 -92 204 -212c0 -135 -113 -233 -261 -233c-115 0 -164 56 -164 93c0 34 25 55 50 55c17 0 32 -10 40 -25c20 -38 42 -77 97 -77c106 0 106 105 106 158
c0 84 -6 120 -23 151c-16 25 -49 44 -74 44c-10 0 -59 -1 -86 -69z" />
    <glyph glyph-name="six.oldstyle" unicode="&#xf736;" horiz-adv-x="521" 
d="M184 376c28 28 68 39 100 39c94 0 193 -76 193 -207c0 -122 -95 -222 -212 -222c-101 0 -221 81 -221 280c0 213 112 387 293 387c70 0 123 -33 123 -79c0 -26 -22 -45 -42 -45c-28 0 -39 15 -55 36c-20 26 -45 38 -62 38c-102 0 -114 -188 -117 -227zM347 197
c0 71 -7 98 -15 118c-9 23 -35 50 -71 50c-86 0 -87 -119 -87 -160c0 -64 1 -173 89 -173c80 0 84 95 84 165z" />
    <glyph glyph-name="seven.oldstyle" unicode="&#xf737;" horiz-adv-x="521" 
d="M122 464h48c-3 -7 -6 -13 -6 -22c0 -19 20 -18 33 -18h282l-172 -525c-28 -86 -41 -125 -89 -125c-27 0 -57 18 -57 57c0 16 6 34 13 48l221 440h-212c-47 0 -64 0 -82 -63h-50z" />
    <glyph glyph-name="eight.oldstyle" unicode="&#xf738;" horiz-adv-x="521" 
d="M332 340v-2c95 -20 151 -73 151 -166c0 -108 -79 -188 -219 -188c-142 0 -226 79 -226 189c0 90 55 145 148 165v2c-62 22 -130 60 -130 149c0 115 113 166 205 166c107 0 206 -61 206 -166c0 -100 -96 -137 -135 -149zM178 487c0 -25 0 -126 83 -126c66 0 84 61 84 121
c0 36 0 127 -87 127c-53 0 -80 -46 -80 -122zM168 173c0 -36 1 -143 92 -143c93 0 93 110 93 147c0 28 0 138 -92 138s-93 -105 -93 -142z" />
    <glyph glyph-name="nine.oldstyle" unicode="&#xf739;" horiz-adv-x="521" 
d="M337 49c-28 -28 -68 -39 -100 -39c-94 0 -193 76 -193 207c0 122 95 222 212 222c101 0 221 -81 221 -280c0 -213 -112 -384 -293 -384c-70 0 -123 33 -123 79c0 26 22 45 42 45c28 0 39 -15 55 -36c20 -26 45 -38 62 -38c102 0 114 185 117 224zM174 228
c0 -71 7 -98 15 -118c9 -23 35 -50 71 -50c86 0 87 119 87 160c0 64 -1 173 -89 173c-80 0 -84 -95 -84 -165z" />
    <glyph glyph-name="comma.superior" unicode="&#xf6e2;" horiz-adv-x="177" 
d="M30 209v32c38 6 78 25 78 62c0 7 -3 10 -6 10c-1 0 -6 -1 -10 -1c-4 -1 -8 -2 -10 -2c-37 0 -56 25 -56 47c0 28 26 49 56 49c37 0 71 -31 71 -82c0 -13 0 -102 -123 -115z" />
    <glyph glyph-name="uni2014.alt" unicode="&#xe000;" horiz-adv-x="750" 
d="M-6 295h762v-90h-762v90z" />
    <glyph glyph-name="period.superior" unicode="&#xf6e8;" horiz-adv-x="177" 
d="M34 357c0 27 25 48 54 48c31 0 55 -22 55 -48c0 -27 -24 -49 -55 -49c-29 0 -54 22 -54 49z" />
    <glyph glyph-name="a.superior" unicode="&#xf6e9;" horiz-adv-x="344" 
d="M196 480v14c0 30 -13 40 -43 40s-39 -10 -43 -34c-4 -22 -21 -32 -43 -32c-19 0 -39 10 -39 30c0 36 45 70 135 70c55 0 124 -12 124 -73v-102c0 -19 1 -39 15 -39s15 18 15 26h34c1 -35 -15 -54 -33 -63s-38 -10 -46 -10c-45 0 -56 17 -67 34c-45 -31 -84 -34 -101 -34
c-42 0 -83 19 -83 57c0 68 91 96 175 116zM196 376v68c-45 -15 -80 -31 -80 -63c0 -17 10 -27 27 -27c24 0 41 12 53 22z" />
    <glyph glyph-name="b.superior" unicode="&#xf6ea;" horiz-adv-x="375" 
d="M42 307v325c0 31 -5 32 -48 33v30l141 28v-181c12 5 40 27 85 27c95 0 138 -64 138 -129c0 -80 -70 -133 -147 -133c-56 0 -81 25 -98 40c-13 -13 -15 -16 -36 -40h-35zM135 494v-117c18 -18 34 -32 63 -32c61 0 61 74 61 97c0 22 -2 88 -56 88c-34 0 -55 -22 -68 -36z
" />
    <glyph glyph-name="cent.superior" unicode="&#xf6e0;" 
d="M127 318l-36 -89h-38l39 99c-39 21 -73 44 -73 97c0 58 60 118 160 116l39 98h39l-42 -102c14 -4 62 -16 62 -49c0 -16 -16 -30 -38 -30c-15 0 -27 7 -31 17c-1 4 -7 21 -8 24l-57 -141c8 -9 25 -10 37 -10c46 0 57 28 67 43l34 -13c-25 -50 -66 -64 -117 -64
c-18 0 -28 2 -37 4zM118 391l50 123c-21 -5 -58 -12 -58 -80c0 -19 3 -29 8 -43z" />
    <glyph glyph-name="d.superior" unicode="&#xf6eb;" horiz-adv-x="385" 
d="M245 542v84c0 36 -5 36 -47 38v32l138 27v-327c0 -41 1 -41 47 -41v-34c-29 -1 -79 -4 -130 -15c-5 8 -6 12 -8 26c-25 -15 -45 -25 -81 -25c-80 0 -144 61 -144 135c0 64 50 127 141 127c48 0 68 -15 84 -27zM245 378v116c-20 20 -37 37 -68 37c-59 0 -59 -71 -59 -89
c0 -13 0 -97 63 -97c30 0 46 14 64 33z" />
    <glyph glyph-name="e.superior" unicode="&#xf6ec;" horiz-adv-x="323" 
d="M273 384l32 -20c-35 -53 -95 -57 -124 -57c-92 0 -163 49 -163 129c0 74 64 132 154 132c88 0 137 -56 136 -125h-191c1 -35 3 -98 76 -98c28 0 57 8 80 39zM117 477h101c-1 22 -1 57 -49 57c-45 0 -49 -35 -52 -57z" />
    <glyph glyph-name="i.superior" unicode="&#xf6ed;" horiz-adv-x="198" 
d="M149 568v-179c0 -33 3 -39 42 -39v-34h-181v34h15c33 0 33 13 33 39v85c0 33 0 37 -48 37v32zM55 677c0 25 22 45 51 45c28 0 50 -20 50 -45c0 -24 -22 -44 -50 -44s-51 20 -51 44z" />
    <glyph glyph-name="l.superior" unicode="&#xf6ee;" horiz-adv-x="198" 
d="M146 720v-331c0 -26 0 -39 33 -39h15v-34h-191v34h19c33 0 33 13 33 39v244c0 30 -10 30 -52 30v32z" />
    <glyph glyph-name="m.superior" unicode="&#xf6ef;" horiz-adv-x="604" 
d="M558 478v-89c0 -27 0 -39 33 -39h17v-34h-185v34c40 0 44 4 44 39v87c0 17 0 48 -46 48c-37 0 -71 -26 -71 -79v-56c0 -36 4 -39 47 -39v-34h-182v34c40 0 44 5 44 39v91c0 44 -34 44 -44 44c-22 0 -72 -5 -72 -75v-60c0 -36 4 -39 46 -39v-34h-182v34c41 0 45 4 45 39
v98c0 24 -19 24 -54 24v32l142 25c2 -10 2 -15 3 -36c18 14 48 36 98 36c66 0 88 -28 101 -46c27 24 52 46 109 46c42 0 107 -11 107 -90z" />
    <glyph glyph-name="n.superior" unicode="&#x207f;" horiz-adv-x="375" 
d="M329 485v-96c0 -33 2 -39 43 -39v-34h-173v34c38 -1 39 7 39 43v86c0 14 -1 45 -36 45c-33 0 -60 -27 -60 -70v-72c0 -26 1 -30 40 -32v-34h-177v34c42 0 46 2 46 39v92c0 30 -8 30 -46 30v32l133 26c3 -15 3 -21 3 -35c21 17 42 34 88 34c38 0 100 -15 100 -83z" />
    <glyph glyph-name="o.superior" unicode="&#xf6f0;" horiz-adv-x="354" 
d="M17 437c0 94 86 131 162 131c102 0 158 -61 158 -130c0 -83 -76 -131 -159 -131s-161 45 -161 130zM115 436c0 -49 6 -95 63 -95c53 0 61 45 61 98c0 73 -20 95 -63 95c-45 0 -61 -25 -61 -98z" />
    <glyph glyph-name="r.superior" unicode="&#xf6f1;" horiz-adv-x="281" 
d="M146 439v-50c0 -30 1 -39 37 -39h22v-34h-205v34h21c33 0 34 13 34 39v84c0 33 -2 40 -55 38v32l132 25c4 -13 6 -20 8 -49c14 17 40 49 87 49c36 0 61 -22 61 -48c0 -23 -20 -39 -43 -39c-11 0 -22 4 -31 13c-16 16 -16 17 -22 17c-17 0 -46 -20 -46 -72z" />
    <glyph glyph-name="s.superior" unicode="&#xf6f2;" horiz-adv-x="302" 
d="M24 309l-3 79h36c6 -11 13 -23 27 -33c14 -9 36 -16 72 -16c11 0 58 0 58 30c0 17 -12 19 -56 30c-68 17 -141 32 -141 93c0 44 51 76 128 76c46 0 70 -8 87 -15l6 13h35v-70h-35c-6 10 -12 19 -25 27c-13 7 -33 13 -68 13c-13 0 -58 -1 -58 -24c0 -13 16 -16 56 -26
c86 -21 146 -34 146 -98c0 -56 -63 -81 -131 -81c-10 0 -49 0 -90 16l-11 -14h-33z" />
    <glyph glyph-name="t.superior" unicode="&#xf6f3;" horiz-adv-x="240" 
d="M144 525v-134c0 -27 1 -44 19 -44c21 0 35 31 38 40l36 -15c-7 -17 -32 -65 -95 -65c-38 0 -69 18 -80 38c-9 14 -9 34 -9 48v132h-47v34c66 -1 96 33 103 75h35v-75h89v-34h-89z" />
    <glyph glyph-name="parenleft.inferior" unicode="&#x208d;" horiz-adv-x="167" 
d="M125 398h47c-64 -80 -97 -167 -97 -269c0 -151 66 -238 97 -279h-47c-95 112 -101 225 -101 274c0 138 64 225 101 274z" />
    <glyph glyph-name="parenright.inferior" unicode="&#x208e;" horiz-adv-x="167" 
d="M42 -150h-47c32 42 97 128 97 279c0 150 -74 240 -97 269h47c36 -48 101 -135 101 -275c0 -103 -37 -198 -101 -273z" />
    <glyph glyph-name="hyphen.superior" unicode="&#xf6e6;" horiz-adv-x="219" 
d="M19 408v64h181v-64h-181z" />
    <glyph glyph-name="one.fitted" unicode="&#xf6dc;" horiz-adv-x="417" 
d="M42 564v53c75 0 151 20 200 55h52v-542c0 -63 0 -77 67 -77h14v-53h-327v53h17c68 0 69 16 69 80v348c0 70 -4 83 -77 83h-15z" />
    <glyph glyph-name="R_p" unicode="&#xf6dd;" horiz-adv-x="1292" 
d="M262 615v-265h30c62 0 174 0 174 135s-122 132 -204 130zM262 296v-173c0 -49 6 -77 96 -77v-46h-332v46c86 0 95 25 95 77v418c0 50 -7 78 -95 78v45l153 6c50 2 209 6 293 -16c69 -18 144 -70 144 -170c0 -65 -39 -129 -145 -158c51 -30 73 -65 139 -166
c62 -95 81 -110 130 -114v-46h-177c-30 34 -133 206 -156 240c-32 47 -38 56 -121 56h-24zM901 38v-155c0 -43 0 -70 60 -70h27v-46h-284v46c68 0 71 18 71 70v400c0 31 -10 47 -71 47v45l190 41c2 -9 6 -22 7 -62c24 24 67 62 146 62c129 0 204 -101 204 -209
c0 -121 -90 -223 -216 -223c-64 0 -108 28 -134 54zM901 293v-193c24 -37 67 -63 111 -63c104 0 104 131 104 173c0 75 -17 151 -104 151c-57 0 -95 -44 -111 -68z" />
    <glyph glyph-name="cent.oldstyle" unicode="&#xf7a2;" horiz-adv-x="333" 
d="M143 -6l-42 -120h-44l47 134c-23 12 -84 44 -84 131c0 90 79 164 186 159l46 132h44l-48 -138c25 -8 72 -23 72 -68c0 -21 -18 -42 -45 -42c-18 0 -31 12 -36 26c-1 5 -7 28 -9 33l-66 -189c11 -8 23 -13 44 -13c50 0 70 38 80 56l39 -18c-37 -74 -94 -89 -141 -89
c-20 0 -30 3 -43 6zM134 93l58 165c-55 -8 -68 -58 -68 -106c0 -26 4 -39 10 -59z" />
    <glyph glyph-name="hyphen.inferior" unicode="&#xf6e5;" horiz-adv-x="219" 
d="M19 84v64h181v-64h-181z" />
    <glyph glyph-name="zero.superior" unicode="&#x2070;" 
d="M146 308c-49 0 -136 28 -136 166c0 39 0 183 136 183s136 -147 136 -177c0 -70 -14 -106 -45 -136c-32 -31 -71 -36 -91 -36zM146 338c10 0 21 5 29 14c16 16 19 70 19 131c0 25 0 101 -15 126c-4 6 -14 18 -33 18c-15 0 -24 -8 -29 -13c-20 -20 -19 -98 -19 -130
c0 -24 0 -102 15 -127c7 -12 20 -19 33 -19z" />
    <glyph glyph-name="one.superior" unicode="&#xb9;" 
d="M195 657v-284c0 -24 7 -27 28 -27h22v-30h-189v30h20c30 0 32 5 32 31v194c0 28 -3 31 -41 31h-16v29c68 8 85 12 108 26h36z" />
    <glyph glyph-name="two.superior" unicode="&#xb2;" 
d="M260 297h-36c4 18 4 19 -11 19h-192v27c35 28 161 133 161 224c0 41 -27 60 -55 60s-48 -19 -48 -40c0 -7 2 -20 10 -32c1 -1 2 -4 2 -6c0 -3 -3 -4 -8 -6l-29 -10c-3 -1 -8 -3 -12 -3c-12 0 -21 27 -21 47c0 40 36 80 123 80c103 0 125 -60 125 -90
c0 -68 -75 -123 -175 -201h180z" />
    <glyph glyph-name="three.superior" unicode="&#xb3;" 
d="M92 554l-23 -9c-7 -3 -10 -4 -14 -4c-15 0 -27 22 -27 39c0 7 9 77 130 77c70 0 109 -19 109 -61c0 -40 -33 -62 -68 -79c47 -6 80 -35 80 -86c0 -72 -74 -123 -164 -123c-69 0 -102 28 -102 55c0 20 16 30 36 30c13 0 30 -9 37 -23c13 -27 21 -31 43 -31
c37 0 61 31 61 82c0 38 -6 65 -30 65c-11 0 -23 -9 -28 -12c-11 -8 -15 -12 -25 -12c-9 0 -20 5 -20 16c0 9 8 15 21 23c60 37 79 47 79 84c0 31 -28 42 -49 42c-31 0 -47 -21 -47 -34c0 -12 4 -16 7 -20s7 -8 7 -10c0 -3 -1 -5 -13 -9z" />
    <glyph glyph-name="four.superior" unicode="&#x2074;" 
d="M11 426v35l169 196h51v-197h53v-34h-53v-48c0 -30 0 -34 53 -32v-30h-190v30h16c35 0 39 1 39 32v48h-138zM57 460h92v107z" />
    <glyph glyph-name="five.superior" unicode="&#x2075;" 
d="M55 649h191l-14 -25c-13 -23 -13 -23 -46 -23h-94l-2 -76c13 8 29 17 64 17c77 0 125 -56 125 -112c0 -62 -61 -122 -162 -122c-67 0 -100 28 -100 52c0 21 19 30 34 30c18 0 22 -5 36 -24c11 -15 21 -28 46 -28c53 0 55 48 55 81c0 59 -12 93 -51 93
c-14 0 -33 -6 -46 -35h-41z" />
    <glyph glyph-name="six.superior" unicode="&#x2076;" 
d="M111 520c6 3 13 7 22 9c9 3 20 5 33 5c43 0 116 -28 116 -107s-71 -119 -130 -119c-46 0 -136 29 -136 149c0 110 66 200 176 200c59 0 81 -24 81 -42c0 -12 -11 -26 -32 -26c-19 0 -28 11 -36 20c-5 5 -14 16 -33 16c-47 0 -56 -67 -61 -105zM104 419
c0 -33 3 -81 47 -81c43 0 43 46 43 93c0 20 0 71 -44 71c-46 0 -46 -59 -46 -83z" />
    <glyph glyph-name="seven.superior" unicode="&#x2077;" 
d="M61 668h39c-3 -11 -4 -13 -4 -15c0 -4 2 -4 20 -4h168l-111 -295c-8 -21 -17 -46 -49 -46c-23 0 -40 14 -40 32c0 9 2 12 17 39l118 210h-113c-34 0 -35 -4 -46 -33h-41z" />
    <glyph glyph-name="eight.superior" unicode="&#x2078;" 
d="M206 495v-2c62 -15 79 -51 79 -84c0 -62 -55 -101 -135 -101c-84 0 -138 41 -138 101c0 48 38 76 80 84v2c-43 12 -69 42 -69 75c0 47 48 87 124 87c75 0 128 -39 128 -88c0 -46 -46 -68 -69 -74zM150 627c-23 0 -45 -14 -45 -59c0 -11 0 -60 44 -60s44 46 44 60
c0 43 -19 59 -43 59zM149 478c-49 0 -49 -53 -49 -74c0 -38 15 -66 49 -66c47 0 48 54 48 76c0 45 -21 64 -48 64z" />
    <glyph glyph-name="nine.superior" unicode="&#x2079;" 
d="M186 446c-10 -5 -28 -14 -55 -14c-34 0 -116 21 -116 108c0 83 77 117 130 117c50 0 135 -31 135 -150c0 -118 -77 -199 -175 -199c-40 0 -81 13 -81 43c0 11 9 26 32 26c7 0 20 -1 35 -19c8 -9 15 -18 33 -18c48 0 58 74 62 106zM147 627c-37 0 -44 -29 -44 -80
c0 -35 0 -83 43 -83c46 0 46 57 46 79c0 40 -4 84 -45 84z" />
    <glyph glyph-name="zero.inferior" unicode="&#x2080;" 
d="M146 -8c-49 0 -136 28 -136 166c0 39 0 183 136 183s136 -147 136 -177c0 -70 -14 -106 -45 -136c-32 -31 -71 -36 -91 -36zM146 22c10 0 21 5 29 14c16 16 19 70 19 131c0 25 0 101 -15 126c-4 6 -14 18 -33 18c-15 0 -24 -8 -29 -13c-20 -20 -19 -98 -19 -130
c0 -24 0 -102 15 -127c7 -12 20 -19 33 -19z" />
    <glyph glyph-name="one.inferior" unicode="&#x2081;" 
d="M195 341v-284c0 -24 7 -27 28 -27h22v-30h-189v30h20c30 0 31 5 31 31v192c0 27 -2 31 -40 31h-16v30c68 8 85 12 108 27h36z" />
    <glyph glyph-name="two.inferior" unicode="&#x2082;" 
d="M260 -19h-36c2 9 3 12 3 14c0 5 -2 5 -14 5h-192v27c35 29 160 133 160 224c0 40 -26 60 -54 60c-29 0 -48 -19 -48 -41c0 -7 2 -17 7 -26c1 -2 5 -10 5 -11c0 -3 -1 -3 -17 -9l-23 -8c-3 -1 -5 -2 -9 -2c-12 0 -21 27 -21 47c0 39 36 80 123 80c104 0 125 -60 125 -91
c0 -63 -70 -120 -172 -199v-2h177z" />
    <glyph glyph-name="three.inferior" unicode="&#x2083;" 
d="M93 237l-23 -9c-7 -3 -9 -4 -14 -4c-15 0 -27 21 -27 39c0 22 25 78 130 78c61 0 109 -21 109 -63c0 -38 -41 -64 -67 -76v-2c72 -12 78 -63 78 -85c0 -66 -70 -123 -164 -123c-57 0 -102 23 -102 55c0 20 20 30 36 30c24 0 33 -16 42 -31c11 -18 15 -24 32 -24
c64 0 68 59 68 83c0 38 -7 65 -31 65c-11 0 -23 -9 -28 -13c-11 -8 -15 -11 -25 -11c-9 0 -20 5 -20 15c0 11 6 14 56 45c15 9 45 26 45 62c0 31 -28 43 -49 43c-23 0 -47 -16 -47 -35c0 -8 2 -16 7 -21c6 -6 7 -7 7 -10c0 -2 -1 -4 -13 -8z" />
    <glyph glyph-name="four.inferior" unicode="&#x2084;" 
d="M11 110v35l169 196h51v-197h53v-34h-53v-48c0 -30 0 -34 53 -32v-30h-190v30h16c35 0 39 1 39 32v48h-138zM57 144h92v107z" />
    <glyph glyph-name="five.inferior" unicode="&#x2085;" 
d="M55 333h191l-14 -25c-13 -23 -13 -23 -46 -23h-94l-2 -76c13 8 29 17 64 17c77 0 125 -56 125 -112c0 -62 -61 -122 -162 -122c-67 0 -100 28 -100 52c0 21 19 30 34 30c18 0 22 -5 36 -24c11 -15 21 -28 46 -28c53 0 55 48 55 81c0 59 -12 93 -51 93
c-14 0 -33 -6 -46 -35h-41z" />
    <glyph glyph-name="six.inferior" unicode="&#x2086;" 
d="M111 204c6 3 13 7 22 9c9 3 20 5 33 5c43 0 116 -28 116 -107s-71 -119 -130 -119c-46 0 -136 29 -136 149c0 110 66 200 176 200c59 0 81 -24 81 -42c0 -12 -11 -26 -32 -26c-19 0 -28 11 -36 20c-5 5 -14 16 -33 16c-47 0 -56 -67 -61 -105zM104 103
c0 -33 3 -81 47 -81c43 0 43 46 43 93c0 20 0 71 -44 71c-46 0 -46 -59 -46 -83z" />
    <glyph glyph-name="seven.inferior" unicode="&#x2087;" 
d="M60 352h39c-3 -11 -4 -13 -4 -15c0 -4 2 -4 20 -4h168l-111 -295c-8 -21 -17 -46 -49 -46c-23 0 -40 14 -40 32c0 9 2 12 17 39l118 210h-113c-34 0 -35 -4 -46 -33h-41z" />
    <glyph glyph-name="eight.inferior" unicode="&#x2088;" 
d="M206 179v-2c62 -15 79 -51 79 -84c0 -62 -55 -101 -135 -101c-84 0 -138 41 -138 101c0 48 38 76 80 84v2c-43 12 -69 42 -69 75c0 47 48 87 124 87c75 0 128 -39 128 -88c0 -46 -46 -68 -69 -74zM150 311c-23 0 -45 -14 -45 -59c0 -11 0 -60 44 -60s44 46 44 60
c0 43 -19 59 -43 59zM149 162c-49 0 -49 -53 -49 -74c0 -38 15 -66 49 -66c47 0 48 54 48 76c0 45 -21 64 -48 64z" />
    <glyph glyph-name="nine.inferior" unicode="&#x2089;" 
d="M187 130c-10 -5 -28 -14 -55 -14c-34 0 -116 21 -116 108c0 83 77 117 130 117c50 0 135 -31 135 -150c0 -118 -77 -199 -175 -199c-40 0 -81 13 -81 43c0 11 9 26 32 26c7 0 20 -1 35 -19c8 -9 15 -18 33 -18c48 0 58 74 62 106zM148 311c-37 0 -44 -29 -44 -80
c0 -35 0 -83 43 -83c46 0 46 57 46 79c0 40 -4 84 -45 84z" />
    <glyph glyph-name="cent.inferior" unicode="&#xf6df;" 
d="M127 -6l-36 -89h-38l39 99c-39 21 -73 44 -73 97c0 58 60 118 160 116l39 98h39l-42 -102c14 -4 62 -16 62 -49c0 -16 -16 -30 -38 -30c-15 0 -27 7 -31 17c-1 4 -7 21 -8 24l-57 -141c8 -9 25 -10 37 -10c46 0 57 28 67 43l34 -13c-25 -50 -66 -64 -117 -64
c-18 0 -28 2 -37 4zM118 67l50 123c-21 -5 -58 -12 -58 -80c0 -19 3 -29 8 -43z" />
    <glyph glyph-name="dollar.inferior" unicode="&#xf6e3;" 
d="M118 23v119c-46 19 -100 42 -100 100c0 45 34 83 100 92v16h40v-15c51 -5 103 -30 103 -58c0 -16 -17 -28 -32 -28c-21 0 -29 15 -35 29c-8 15 -18 22 -36 26v-100c55 -22 116 -46 116 -107c0 -42 -35 -94 -116 -103v-61h-40v60c-70 4 -102 31 -102 51c0 15 14 28 33 28
c22 0 29 -14 35 -24c10 -17 17 -21 34 -25zM118 221v83c-19 -4 -35 -20 -35 -39c0 -23 24 -38 35 -44zM158 125v-102c27 5 51 23 51 49c0 29 -28 43 -51 53z" />
    <glyph glyph-name="period.inferior" unicode="&#xf6e7;" horiz-adv-x="177" 
d="M34 33c0 27 25 48 54 48c31 0 55 -22 55 -48c0 -27 -24 -49 -55 -49c-29 0 -54 22 -54 49z" />
    <glyph glyph-name="comma.inferior" unicode="&#xf6e1;" horiz-adv-x="177" 
d="M30 -115v32c38 6 78 25 78 62c0 7 -3 10 -6 10c-1 0 -6 -1 -10 -1c-4 -1 -8 -2 -10 -2c-37 0 -56 25 -56 47c0 28 26 49 56 49c37 0 71 -31 71 -82c0 -13 0 -102 -123 -115z" />
    <glyph glyph-name="Delta" unicode="&#x2206;" horiz-adv-x="479" 
d="M459 0h-435l164 712h110zM325 48l-115 490l-122 -490h237z" />
    <glyph glyph-name="Omega" unicode="&#x2126;" horiz-adv-x="626" 
d="M586 0h-235v153c63 44 86 164 86 253c0 177 -47 266 -125 266c-89 0 -129 -114 -129 -265c0 -117 33 -230 94 -259v-148h-237v171h31c0 -42 1 -89 63 -89h92v33c-87 37 -180 128 -180 290c0 176 99 307 266 307c168 0 268 -151 268 -302c0 -123 -67 -249 -178 -291v-37
h89c62 0 63 47 63 89h32v-171z" />
    <glyph glyph-name="uni03BC" unicode="&#x3bc;" horiz-adv-x="521" 
d="M58 400h126v-254c0 -58 2 -98 42 -98c43 0 67 36 79 56v296h126v-259c0 -51 0 -87 32 -87c13 0 30 11 35 67h20c-4 -121 -87 -137 -119 -137c-70 0 -87 54 -93 73c-23 -26 -66 -73 -135 -73c-29 0 -55 11 -69 26c0 -24 4 -60 10 -81c10 -33 17 -59 17 -75
c0 -20 -4 -62 -55 -62c-50 0 -50 49 -50 55c0 20 2 27 18 90c13 52 16 99 16 180v283z" />
    <glyph glyph-name="pi" unicode="&#x3c0;" horiz-adv-x="360" 
d="M349 109c-15 -87 -39 -121 -65 -121c-20 0 -34 12 -43 32c-17 35 -16 91 -16 124v243h-70v-169c0 -91 -7 -160 -26 -197c-10 -20 -26 -33 -45 -33c-15 0 -33 14 -33 41c0 17 11 33 27 42c29 16 30 76 30 169v147h-12c-23 0 -34 -15 -41 -61l-29 8c1 95 38 148 82 148h225
v-95h-60v-193c0 -47 1 -80 6 -100c4 -19 11 -29 19 -29c15 0 21 27 29 60z" />
    <glyph glyph-name="Euro" unicode="&#x20ac;" horiz-adv-x="500" 
d="M470 190c-18 -110 -64 -205 -188 -205c-141 0 -204 139 -220 265h-47l7 47h35v21c0 11 0 22 1 34h-43l7 47h41c19 125 83 257 223 257c49 0 96 -14 127 -53l3 35h47l2 -188h-47c-15 71 -19 152 -114 152c-73 0 -106 -61 -115 -203h234l-7 -47h-229c-1 -17 -1 -36 -1 -55
h221l-7 -47h-213c5 -144 41 -210 108 -210c76 0 114 88 128 158z" />
    <glyph glyph-name="afii61289" unicode="&#x2113;" horiz-adv-x="271" 
d="M300 124c-18 -92 -57 -136 -121 -136c-36 0 -60 9 -83 30c-28 27 -40 75 -40 112v56c-7 -13 -29 -39 -39 -52l-22 32c15 18 48 55 61 77v235c0 109 43 234 144 234c60 0 86 -37 86 -99c0 -87 -29 -169 -58 -229c-13 -26 -32 -62 -47 -81v-168c0 -60 13 -83 33 -83
s34 28 47 85zM247 607h-1c0 33 -6 61 -30 61c-23 0 -35 -40 -35 -126v-162c3 9 17 36 25 58c24 54 41 129 41 169z" />
    <glyph glyph-name="estimated" unicode="&#x212e;" horiz-adv-x="571" 
d="M532 248h-385v-181c37 -38 83 -56 137 -56c73 0 146 39 190 118l25 -14c-57 -82 -118 -127 -215 -127c-152 0 -243 114 -243 260s91 261 241 261c156 0 242 -112 250 -261zM420 273v153c-41 43 -86 60 -139 60c-54 0 -97 -19 -134 -57v-156h273z" />
    <glyph glyph-name="partialdiff" unicode="&#x2202;" horiz-adv-x="432" 
d="M404 488c0 -75 -23 -200 -50 -272c-67 -171 -113 -229 -193 -229c-97 0 -141 83 -141 196c0 146 77 283 204 283c71 0 100 -52 109 -85h1c2 29 2 53 2 78c0 75 -26 187 -107 187c-50 0 -85 -25 -115 -65l-17 21c30 56 77 122 171 122c116 0 136 -107 136 -236zM328 328
c-7 34 -20 90 -74 90c-65 0 -114 -122 -114 -264c0 -81 33 -116 67 -116c64 0 105 160 121 290z" />
    <glyph glyph-name="product" unicode="&#x220f;" horiz-adv-x="574" 
d="M542 -131h-216v32h11c32 0 35 40 35 81v671h-172v-671c0 -41 3 -81 33 -81h12v-32h-213v32h11c31 0 34 40 34 81v605c0 43 -3 81 -33 81h-12v32h510v-32h-11c-32 0 -34 -38 -34 -81v-605c0 -42 3 -81 33 -81h12v-32z" />
    <glyph glyph-name="summation" unicode="&#x2211;" horiz-adv-x="416" 
d="M405 51l-10 -182h-379l-1 37l172 358l-166 400v36h363l7 -153h-30c-6 82 -13 105 -53 105h-175l136 -320l-177 -364h225c43 0 50 23 57 87z" />
    <glyph glyph-name="uni2219" unicode="&#x2219;" horiz-adv-x="281" 
d="M64 321c0 42 34 76 76 76c44 0 77 -35 77 -76c0 -42 -34 -77 -77 -77c-41 0 -76 33 -76 77z" />
    <glyph glyph-name="radical" unicode="&#x221a;" horiz-adv-x="273" 
d="M234 728l-66 -740h-56l-80 323l-28 -22l-23 31l93 69l65 -298h2l57 637h36z" />
    <glyph glyph-name="infinity" unicode="&#x221e;" horiz-adv-x="573" 
d="M412 155c-61 0 -92 29 -120 77h-1c-27 -41 -65 -77 -129 -77c-69 0 -120 53 -120 123c0 73 48 127 118 127c64 0 98 -41 117 -76h1c31 46 68 76 131 76c66 0 118 -50 118 -124c0 -72 -50 -126 -115 -126zM414 362c-56 0 -75 -46 -100 -92c22 -48 52 -73 98 -73
c50 0 74 42 74 83c0 45 -21 82 -72 82zM161 362c-43 0 -78 -30 -78 -82c0 -48 26 -83 76 -83c51 0 79 60 97 95c-17 35 -47 70 -95 70z" />
    <glyph glyph-name="integral" unicode="&#x222b;" horiz-adv-x="223" 
d="M216 693c0 -14 -3 -39 -27 -39c-13 0 -21 3 -29 14c-7 7 -15 11 -23 11c-11 0 -16 -7 -16 -23c-1 -36 16 -86 24 -144c10 -51 21 -168 21 -242c0 -70 -1 -178 -10 -245c-8 -59 -15 -121 -27 -160c-13 -42 -30 -76 -69 -76c-27 0 -56 20 -56 53c0 21 11 41 35 41
c11 0 16 -5 25 -18c4 -6 14 -7 19 -7c7 0 15 2 16 41c1 25 -20 93 -29 147c-11 72 -15 161 -15 222c0 56 2 128 8 200c4 66 14 158 22 195c14 57 43 84 71 84c40 0 60 -26 60 -54z" />
    <glyph glyph-name="approxequal" unicode="&#x2248;" horiz-adv-x="667" 
d="M652 486c-36 -88 -93 -161 -187 -161c-50 0 -87 10 -162 38c-37 14 -78 27 -106 27c-56 0 -95 -15 -128 -84l-54 25c39 96 93 159 188 159c56 0 106 -17 146 -32c62 -24 89 -32 126 -32c59 0 93 26 123 85zM652 307c-36 -88 -93 -160 -187 -160c-50 0 -87 9 -162 38
c-37 14 -78 27 -106 27c-56 0 -95 -15 -128 -86l-54 27c39 96 93 159 188 159c56 0 106 -18 146 -32c62 -25 89 -32 126 -32c59 0 93 26 123 85z" />
    <glyph glyph-name="notequal" unicode="&#x2260;" horiz-adv-x="668" 
d="M613 194h-311l-100 -154h-95l101 154h-154v84h208l54 80h-262v84h314l98 148h95l-98 -148h150v-84h-203l-54 -80h257v-84z" />
    <glyph glyph-name="lessequal" unicode="&#x2264;" horiz-adv-x="667" 
d="M613 0h-559v84h559v-84zM613 144l-559 194v90l559 195v-88l-437 -151l437 -152v-88z" />
    <glyph glyph-name="greaterequal" unicode="&#x2265;" horiz-adv-x="667" 
d="M613 0h-559v84h559v-84zM613 338l-559 -195v88l437 151l-437 152v88l559 -194v-90z" />
    <glyph glyph-name="lozenge" unicode="&#x25ca;" horiz-adv-x="254" 
d="M268 349l-124 -361h-36l-122 361l122 363h36zM219 349l-92 283l-91 -283l91 -282z" />
    <glyph glyph-name="uni00A0" unicode="&#xa0;" horiz-adv-x="250" 
 />
    <glyph glyph-name="uni00AD" unicode="&#xad;" horiz-adv-x="344" 
d="M40 152v98h264v-98h-264z" />
    <glyph glyph-name="uni02C9" unicode="&#x2c9;" horiz-adv-x="333" 
d="M30 529v67h273v-67h-273z" />
    <glyph glyph-name="uni2215" unicode="&#x2215;" horiz-adv-x="198" 
d="M-106 -28l354 693h57l-354 -693h-57z" />
    <glyph glyph-name="uni03A9" unicode="&#x3a9;" horiz-adv-x="626" 
d="M586 0h-235v153c63 44 86 164 86 253c0 177 -47 266 -125 266c-89 0 -129 -114 -129 -265c0 -117 33 -230 94 -259v-148h-237v171h31c0 -42 1 -89 63 -89h92v33c-87 37 -180 128 -180 290c0 176 99 307 266 307c168 0 268 -151 268 -302c0 -123 -67 -249 -178 -291v-37
h89c62 0 63 47 63 89h32v-171z" />
    </font>
</defs>
</svg>
