<?xml version="1.0" standalone="no"?>
<!DOCTYPE svg PUBLIC "-//W3C//DTD SVG 1.1//EN" "http://www.w3.org/Graphics/SVG/1.1/DTD/svg11.dtd" >
<svg xmlns="http://www.w3.org/2000/svg" width="100%" height="100%">
<metadata>
Created by FontXChange 20110222 at Wed Mar 25 17:52:42 2015
 By MikaDo Nguyen
Font software Copyright 1994 Adobe Systems Incorporated. Typeface designs Copyright 1994 The Monotype Corporation. All rights reserved. "Baskerville" is a trademark or registered trademark of The Monotype Corporation in the United States and/or other countries; "Monotype" is a trademark of Monotype Imaging, Inc. Registered in U.S. Patent and Trademark Office and may be registered in certain other jurisdictions.
</metadata>
<defs>
<font id="BaskervilleMTStd-BoldIt" horiz-adv-x="333" >
  <font-face 
    font-family="BaskervilleMTStd"
    font-weight="700"
    font-style="italic"
    font-stretch="normal"
    units-per-em="1000"
    panose-1="2 2 9 3 5 4 5 9 3 4"
    ascent="682"
    descent="-318"
    x-height="407"
    cap-height="662"
    bbox="-222 -249.111 1247 898"
    underline-thickness="50"
    underline-position="-50"
    slope="-17"
    stemh="54"
    stemv="152"
    unicode-range="U+0020-FB04"
  />
<missing-glyph horiz-adv-x="500" 
d="M12 0v665h475v-665h-475zM88 618l162 -243l161 243h-323zM60 575v-484c0 -1 161 242 161 242zM440 575l-162 -242l162 -243v485zM411 48l-161 242l-162 -242h323z" />
    <glyph glyph-name="fi" unicode="fi" horiz-adv-x="646" 
d="M138 346h-70l16 54h67c14 53 22 108 85 184c51 61 125 92 204 92c89 0 150 -41 150 -91c0 -31 -27 -57 -57 -57c-43 0 -72 40 -83 58c-12 19 -27 41 -52 41c-48 0 -62 -59 -77 -120l-27 -107h183c31 0 64 0 104 9h41l-91 -298c-5 -16 -8 -28 -8 -34c0 -12 8 -17 15 -17
c28 0 47 42 51 51h44c-21 -68 -78 -126 -162 -126c-42 0 -95 15 -95 65c0 9 4 33 12 61l67 235h-177l-53 -210c-53 -211 -125 -382 -307 -382c-79 0 -110 40 -110 76s32 65 71 65c58 0 64 -42 66 -61c1 -9 4 -30 25 -30c30 0 39 25 79 184z" />
    <glyph glyph-name="fl" unicode="fl" horiz-adv-x="646" 
d="M138 346h-71l17 54h67c19 84 48 135 72 168c40 55 118 108 213 108c65 0 76 -17 90 -17c46 0 96 10 127 17h44l-162 -557c-6 -22 -12 -40 -12 -43c0 -9 7 -15 15 -15c2 0 31 1 52 54h45c-28 -87 -100 -131 -166 -131c-36 0 -93 15 -93 65c0 18 5 36 11 58l68 239h-176
l-54 -211c-41 -162 -102 -381 -309 -381c-77 0 -108 39 -108 74c0 42 34 67 71 67c15 0 59 -3 66 -61c2 -16 8 -30 24 -30c35 0 52 69 59 98zM326 530l-32 -130h177l40 130c-21 9 -39 21 -64 60c-9 13 -24 38 -51 38c-46 0 -64 -75 -70 -98z" />
    <glyph glyph-name="f_f" unicode="ff" horiz-adv-x="646" 
d="M129 346h-57l12 54h56c36 160 118 276 280 276c80 0 121 -35 130 -71c38 42 96 71 159 71c85 0 131 -41 131 -83c0 -35 -30 -60 -60 -60c-38 0 -59 38 -76 69c-2 3 -14 24 -31 24c-21 0 -31 -19 -42 -78l-27 -148h75l-12 -54h-80l-54 -242c-24 -110 -91 -350 -312 -350
c-98 0 -123 47 -134 68c-50 -53 -114 -68 -176 -68c-81 0 -105 44 -105 74c0 33 24 66 67 66c55 0 63 -41 66 -53c6 -24 7 -37 26 -37c24 0 37 25 44 41c18 40 44 163 59 231zM312 529l-29 -129h177c8 34 24 91 48 142c-8 -2 -13 -4 -21 -4c-35 0 -55 28 -78 61
c-14 20 -23 27 -37 27c-38 0 -48 -45 -60 -97zM448 346h-178l-45 -198c-14 -60 -37 -160 -84 -250c34 3 56 -14 71 -36c29 -42 37 -58 62 -58c38 0 60 59 66 74c15 38 44 185 56 237z" />
    <glyph glyph-name="f_f_i" unicode="ffi" horiz-adv-x="969" 
d="M142 346h-73l17 54h71c50 214 152 276 280 276c61 0 119 -15 133 -75c44 50 127 75 187 75c49 0 152 -19 152 -93c0 -38 -33 -54 -56 -54c-38 0 -58 27 -83 62c-21 29 -33 36 -52 36c-31 0 -53 -22 -76 -117l-27 -110h160c11 0 85 0 119 9h46l-89 -291
c-5 -16 -11 -33 -11 -41c0 -10 7 -15 16 -15c29 0 54 43 61 56h51c-28 -63 -88 -133 -186 -133c-47 0 -88 16 -88 63c0 15 6 35 12 57l69 241h-175l-64 -244c-28 -107 -92 -348 -313 -348c-90 0 -117 42 -134 69c-26 -27 -89 -69 -164 -69c-69 0 -114 24 -114 78
c0 61 50 67 71 67c13 0 51 -5 60 -56c3 -18 4 -37 26 -37c31 0 46 48 53 68c9 25 35 137 41 160zM457 346h-175l-57 -222c-10 -37 -41 -161 -79 -226c44 8 67 -31 75 -44c18 -30 26 -46 54 -46c39 0 59 56 64 70c8 22 34 134 40 159zM319 488l-20 -88h172c7 31 24 99 56 142
l-2 2c-8 -3 -13 -4 -20 -4c-11 0 -37 3 -65 43c-19 28 -32 43 -52 43c-39 0 -50 -55 -69 -138z" />
    <glyph glyph-name="f_f_l" unicode="ffl" horiz-adv-x="969" 
d="M140 346h-71l16 54h71c21 82 34 129 79 184c56 68 121 92 200 92c37 0 119 -5 133 -76c36 40 113 76 192 76c44 0 70 -10 86 -17c39 1 98 10 126 17h43l-167 -569c-7 -23 -7 -25 -7 -30c0 -7 6 -15 15 -15c26 0 50 36 61 57h51c-46 -96 -115 -135 -185 -135
c-34 0 -89 13 -89 65c0 15 7 43 12 59l69 238h-176l-57 -222c-35 -138 -96 -370 -321 -370c-91 0 -117 44 -132 68c-48 -46 -102 -68 -169 -68c-87 0 -109 48 -109 80c0 53 52 67 73 67c39 0 54 -30 61 -66c5 -24 27 -27 31 -27c35 0 47 70 54 96c5 20 25 109 30 127z
M321 500l-22 -100h171c8 40 26 97 55 142l-2 2c-3 -2 -8 -4 -19 -4c-34 0 -56 29 -64 40c-24 32 -35 46 -52 46c-5 0 -25 -3 -40 -31c-9 -16 -11 -24 -27 -95zM456 346h-174l-60 -236c-21 -82 -48 -162 -77 -213c5 1 7 2 11 2c27 0 45 -13 61 -39c22 -36 32 -52 59 -52
c43 0 65 74 70 92c9 31 44 184 53 219zM642 512l-28 -112h176l38 134c-15 6 -24 11 -48 42c-32 41 -39 50 -62 50c-35 0 -54 -26 -76 -114z" />
    <glyph glyph-name=".notdef" horiz-adv-x="500" 
d="M12 0v665h475v-665h-475zM88 618l162 -243l161 243h-323zM60 575v-484c0 -1 161 242 161 242zM440 575l-162 -242l162 -243v485zM411 48l-161 242l-162 -242h323z" />
    <glyph glyph-name="space" unicode=" " horiz-adv-x="261" 
 />
    <glyph glyph-name="exclam" unicode="!" horiz-adv-x="344" 
d="M211 61c0 -42 -34 -76 -76 -76c-43 0 -77 34 -77 76c0 43 34 77 77 77c42 0 76 -34 76 -77zM155 212l61 357c9 54 33 107 90 107c49 0 65 -48 65 -70c0 -5 -2 -35 -18 -70l-146 -324h-52z" />
    <glyph glyph-name="quotedbl" unicode="&#x22;" horiz-adv-x="552" 
d="M453 352h-24l3 187c2 132 86 138 102 138c12 0 54 -3 54 -53c0 -11 0 -25 -33 -85zM218 352h-24l3 187c2 132 86 138 102 138c12 0 54 -3 54 -53c0 -11 0 -25 -33 -85z" />
    <glyph glyph-name="numbersign" unicode="#" horiz-adv-x="667" 
d="M85 497h151l40 187h92l-40 -187h173l40 187h92l-40 -187h83v-93h-100l-30 -147h130v-93h-149l-40 -185h-92l40 185h-175l-39 -185h-92l39 185h-83v93h102l31 147h-133v93zM483 404h-173l-31 -147h175z" />
    <glyph glyph-name="dollar" unicode="$" horiz-adv-x="479" 
d="M180 41l70 231c-48 46 -115 110 -115 199c0 71 61 198 233 187l12 32h48l-12 -40c99 -27 112 -87 112 -102c0 -25 -21 -47 -46 -47c-22 0 -39 18 -48 37c-7 15 -17 34 -36 53l-63 -205c70 -70 122 -112 122 -199c0 -112 -105 -206 -245 -203l-27 -88h-50l29 94
c-103 20 -139 70 -139 107c0 25 22 46 46 46c29 0 42 -17 56 -41c13 -23 23 -46 53 -61zM297 426l57 185c-71 3 -107 -47 -107 -88c0 -21 7 -49 50 -97zM289 234l-62 -202c24 1 118 9 118 92c0 46 -32 83 -56 110z" />
    <glyph glyph-name="percent" unicode="%" horiz-adv-x="917" 
d="M584 118c0 72 58 218 194 218c100 0 122 -73 122 -114c0 -89 -57 -233 -191 -233c-79 0 -125 42 -125 129zM680 60c0 -12 -6 -43 25 -43c46 0 99 231 99 263c0 17 -11 28 -26 28c-46 0 -98 -242 -98 -248zM113 458c0 72 58 218 194 218c100 0 122 -73 122 -114
c0 -89 -57 -233 -191 -233c-79 0 -125 42 -125 129zM209 400c0 -12 -6 -43 25 -43c46 0 99 231 99 263c0 17 -11 28 -26 28c-46 0 -98 -242 -98 -248zM197 0l549 662h71l-549 -662h-71z" />
    <glyph glyph-name="ampersand" unicode="&#x26;" horiz-adv-x="771" 
d="M687 151h58c-29 -86 -106 -165 -194 -165c-62 0 -102 41 -130 69c-43 -32 -112 -69 -193 -69c-120 0 -181 77 -181 156c0 101 100 174 201 223c-8 25 -17 52 -17 101c0 90 63 180 178 180c97 0 142 -53 142 -107c0 -86 -90 -132 -161 -166c18 -40 59 -127 104 -189
c22 26 79 93 79 132c0 30 -32 31 -41 31l18 53h208l-17 -53c-33 -5 -47 -11 -103 -71c-16 -17 -96 -114 -113 -133c15 -18 42 -51 81 -51c27 0 59 16 81 59zM387 94c-51 63 -94 152 -122 218c-46 -27 -83 -71 -83 -124c0 -48 34 -119 122 -119c42 0 66 15 83 25zM372 421
c32 17 106 56 106 120c0 19 -15 57 -54 57c-26 0 -68 -22 -68 -89c0 -40 10 -69 16 -88z" />
    <glyph glyph-name="quoteright" unicode="&#x2019;" horiz-adv-x="344" 
d="M123 349l15 48c116 10 161 88 161 117c0 6 -2 12 -8 12c-88 0 -89 67 -89 75c0 44 35 75 75 75c41 0 91 -36 91 -108c0 -102 -92 -218 -245 -219z" />
    <glyph glyph-name="parenleft" unicode="(" 
d="M413 676l40 -40c-190 -143 -286 -506 -286 -690c0 -58 7 -115 24 -170l-50 -20c-28 69 -68 196 -68 325c0 196 68 395 340 595z" />
    <glyph glyph-name="parenright" unicode=")" 
d="M-53 -244l-40 40c190 143 286 506 286 690c0 58 -7 115 -24 170l50 20c28 -69 68 -196 68 -325c0 -196 -68 -395 -340 -595z" />
    <glyph glyph-name="asterisk" unicode="*" horiz-adv-x="552" 
d="M437 469c19 9 48 25 74 25c42 0 62 -35 62 -67s-19 -65 -61 -65c-19 0 -28 4 -55 16c-45 20 -69 24 -86 24c-5 0 -9 -1 -15 -2c7 -25 26 -55 47 -76c37 -37 49 -52 49 -80c0 -36 -38 -60 -73 -60c-59 0 -59 58 -59 76c0 11 5 62 5 72c0 25 -6 40 -12 52
c-28 -13 -47 -47 -64 -78c-14 -25 -33 -62 -72 -62c-35 0 -68 36 -68 72c0 48 54 60 85 67c55 12 71 20 90 38c-15 16 -51 27 -72 31c-50 10 -104 20 -104 71c0 38 33 72 67 72c36 0 58 -36 74 -62c36 -58 51 -67 61 -72c9 19 12 29 12 52c0 16 -6 75 -7 83
c-4 43 23 72 58 72c23 0 71 -15 71 -59c0 -27 -16 -46 -40 -75c-43 -52 -46 -71 -48 -87c15 1 37 1 81 22z" />
    <glyph glyph-name="plus" unicode="+" horiz-adv-x="667" 
d="M109 381h220v220h102v-220h220v-102h-220v-220h-102v220h-220v102z" />
    <glyph glyph-name="comma" unicode="," horiz-adv-x="344" 
d="M-2 -193l15 48c116 10 161 88 161 117c0 6 -2 12 -8 12c-88 0 -89 67 -89 75c0 44 35 75 75 75c41 0 91 -36 91 -108c0 -102 -92 -218 -245 -219z" />
    <glyph glyph-name="hyphen" unicode="-" 
d="M17 133l40 132h288l-40 -132h-288z" />
    <glyph glyph-name="period" unicode="." horiz-adv-x="344" 
d="M231 61c0 -42 -34 -76 -76 -76c-43 0 -77 34 -77 76c0 43 34 77 77 77c42 0 76 -34 76 -77z" />
    <glyph glyph-name="slash" unicode="/" horiz-adv-x="625" 
d="M465 662h139l-349 -678h-140z" />
    <glyph glyph-name="zero" unicode="0" horiz-adv-x="521" 
d="M70 163c0 48 54 513 321 513c95 0 151 -64 151 -182c0 -189 -112 -509 -316 -509c-67 0 -156 35 -156 178zM425 575c0 42 -17 53 -37 53c-44 0 -61 -15 -134 -260c-23 -77 -68 -224 -68 -285c0 -31 11 -50 38 -50c46 0 63 40 99 162l70 234c16 54 32 112 32 146z" />
    <glyph glyph-name="one" unicode="1" horiz-adv-x="521" 
d="M494 676l-166 -543c-4 -13 -7 -34 -7 -38c0 -43 46 -47 70 -47l-15 -48h-318l15 48c70 0 84 0 107 75l105 343c4 13 15 52 15 68c0 37 -47 37 -78 37h-22l14 45c80 1 163 10 240 60h40z" />
    <glyph glyph-name="two" unicode="2" horiz-adv-x="521" 
d="M416 103l-40 -134h-49c3 22 5 31 -17 31h-288l23 75c43 32 174 144 221 194c46 49 119 137 119 255c0 84 -52 106 -85 106c-44 0 -80 -35 -80 -65c0 -14 4 -25 15 -35c14 -13 17 -12 17 -17c0 -10 -53 -42 -64 -42c-17 0 -42 35 -42 72c0 73 68 135 185 135
c140 0 198 -76 198 -157c0 -116 -101 -212 -160 -259c-67 -54 -150 -119 -221 -159h268z" />
    <glyph glyph-name="three" unicode="3" horiz-adv-x="521" 
d="M342 369c69 -9 124 -48 124 -135c0 -136 -150 -249 -289 -249c-72 0 -153 31 -153 94c0 26 15 54 46 54c33 0 47 -27 57 -46c15 -28 34 -54 65 -54c39 0 62 34 84 80c14 30 54 112 54 195c0 35 -21 35 -23 35c-9 0 -33 -15 -45 -23c-11 -8 -36 -27 -50 -27
c-8 0 -22 7 -22 23c0 19 12 23 75 62c93 58 153 92 153 167c0 47 -34 83 -71 83c-29 0 -70 -25 -70 -73c0 -9 1 -14 3 -20c2 -5 4 -9 4 -15c0 -9 -47 -44 -55 -44c-7 0 -35 20 -35 66c0 70 61 134 184 134c122 0 168 -62 168 -111c0 -112 -160 -182 -204 -196z" />
    <glyph glyph-name="four" unicode="4" horiz-adv-x="521" 
d="M252 223h-187l18 106l339 351h111l-121 -397h19c36 0 42 34 48 52h46l-36 -112h-96l-25 -83c-7 -23 -9 -41 -9 -44c0 -40 36 -48 67 -48l-14 -48h-304l15 48c61 0 76 3 98 75zM105 283h165l78 253z" />
    <glyph glyph-name="five" unicode="5" horiz-adv-x="521" 
d="M156 332l107 330h307l-31 -85c-7 -19 -9 -19 -36 -19h-227l-38 -125c17 8 41 20 80 20c69 0 165 -50 165 -187c0 -184 -173 -281 -296 -281c-56 0 -164 24 -164 89c0 22 15 48 47 48c33 0 48 -24 62 -47c6 -10 24 -42 59 -42s75 40 98 81c48 85 61 198 61 223
c0 31 -18 65 -51 65c-49 0 -78 -50 -92 -70h-51z" />
    <glyph glyph-name="six" unicode="6" horiz-adv-x="521" 
d="M297 414c13 4 21 6 35 6c80 0 152 -70 152 -187c0 -174 -145 -248 -221 -248c-96 0 -174 87 -174 210c0 122 77 261 113 317c74 115 167 164 262 164s129 -54 129 -86c0 -13 -7 -47 -46 -47c-37 0 -48 32 -54 45c-7 16 -15 40 -45 40c-35 0 -85 -23 -151 -214zM189 97
c0 -39 14 -58 44 -58c31 0 50 29 70 78c25 61 64 170 64 216c0 36 -33 39 -41 39c-88 0 -137 -244 -137 -275z" />
    <glyph glyph-name="seven" unicode="7" horiz-adv-x="521" 
d="M499 559h-200c-29 0 -51 0 -65 -62h-48l56 182h47c0 -4 1 -9 3 -12c3 -3 8 -5 16 -5h298v-20l-328 -531c-49 -80 -81 -126 -130 -126c-20 0 -53 13 -53 52c0 28 17 54 70 118z" />
    <glyph glyph-name="eight" unicode="8" horiz-adv-x="521" 
d="M253 352c-81 50 -86 112 -86 139c0 108 101 186 212 186c85 0 163 -45 163 -146c0 -118 -103 -180 -177 -190c63 -29 102 -81 102 -152c0 -100 -85 -204 -229 -204c-110 0 -192 62 -192 166c0 142 125 184 207 201zM295 322c-36 0 -50 -19 -78 -90
c-4 -10 -37 -96 -37 -145c0 -31 18 -54 45 -54c75 0 114 215 114 238c0 36 -25 51 -44 51zM385 629c-28 0 -42 -27 -65 -85c-25 -64 -36 -108 -36 -136c0 -30 18 -38 33 -38c60 0 101 196 101 217c0 22 -9 42 -33 42z" />
    <glyph glyph-name="nine" unicode="9" horiz-adv-x="521" 
d="M324 247c-13 -4 -21 -6 -35 -6c-80 0 -152 70 -152 187c0 174 145 248 221 248c96 0 174 -87 174 -210c0 -122 -77 -261 -113 -317c-74 -115 -167 -164 -262 -164s-129 54 -129 86c0 13 7 47 46 47c37 0 48 -32 54 -45c7 -16 15 -40 45 -40c35 0 85 23 151 214zM432 564
c0 39 -14 58 -44 58c-31 0 -50 -29 -70 -78c-25 -61 -64 -170 -64 -216c0 -36 33 -39 41 -39c88 0 137 244 137 275z" />
    <glyph glyph-name="colon" unicode=":" horiz-adv-x="344" 
d="M216 61c0 -42 -34 -76 -76 -76c-43 0 -77 34 -77 76c0 43 34 77 77 77c42 0 76 -34 76 -77zM301 338c0 -42 -34 -76 -76 -76c-43 0 -77 34 -77 76c0 43 34 77 77 77c42 0 76 -34 76 -77z" />
    <glyph glyph-name="semicolon" unicode=";" horiz-adv-x="344" 
d="M-2 -193l15 48c116 10 161 88 161 117c0 6 -2 12 -8 12c-88 0 -89 67 -89 75c0 44 35 75 75 75c41 0 91 -36 91 -108c0 -102 -92 -218 -245 -219zM288 338c0 -42 -34 -76 -76 -76c-43 0 -77 34 -77 76c0 43 34 77 77 77c42 0 76 -34 76 -77z" />
    <glyph glyph-name="less" unicode="&#x3c;" horiz-adv-x="667" 
d="M652 57l-543 226v93l543 226v-110l-403 -162l403 -162v-111z" />
    <glyph glyph-name="equal" unicode="=" horiz-adv-x="667" 
d="M109 497h542v-102h-542v102zM109 265h542v-102h-542v102z" />
    <glyph glyph-name="greater" unicode="&#x3e;" horiz-adv-x="667" 
d="M109 602l543 -226v-93l-543 -226v110l403 162l-403 162v111z" />
    <glyph glyph-name="question" unicode="?" horiz-adv-x="448" 
d="M167 212l50 167h24c1 -17 11 -33 26 -33c25 0 39 31 54 84c13 45 25 97 25 133c0 38 -11 65 -37 65c-32 0 -42 -33 -48 -42c-8 -13 -22 -40 -50 -40c-20 0 -45 18 -45 50c0 42 53 80 127 80c133 0 181 -103 181 -180c0 -109 -86 -196 -184 -196c-19 0 -33 3 -45 5
l-28 -93h-50zM224 61c0 -42 -34 -76 -76 -76c-43 0 -77 34 -77 76c0 43 34 77 77 77c42 0 76 -34 76 -77z" />
    <glyph glyph-name="at" unicode="@" horiz-adv-x="833" 
d="M576 449l119 5l-90 -307c-6 -22 -14 -57 -14 -75c0 -20 15 -40 40 -40c64 0 210 112 210 303c0 159 -107 309 -313 309c-277 0 -432 -225 -432 -451c0 -237 171 -385 382 -385c137 0 325 70 400 270h30c-117 -288 -367 -297 -430 -297c-245 0 -433 173 -433 429
c0 257 188 464 472 464c247 0 351 -168 351 -330c0 -170 -108 -347 -292 -347c-66 0 -100 33 -100 87c0 19 8 50 12 70c-36 -60 -90 -157 -169 -157c-63 0 -82 62 -82 110c0 196 164 360 252 360c60 0 66 -53 70 -81zM503 432c-37 0 -73 -69 -94 -120
c-27 -66 -46 -141 -46 -180c0 -29 14 -46 29 -46c45 0 145 156 145 280c0 51 -21 66 -34 66z" />
    <glyph glyph-name="A" unicode="A" horiz-adv-x="677" 
d="M417 232h-200l-37 -54c-18 -26 -36 -51 -36 -73c0 -45 47 -50 66 -51l-16 -54h-235l16 54c43 7 72 32 126 107l373 515h100v-537c0 -52 0 -85 80 -85l-16 -54h-327l16 54c77 3 90 32 90 109v69zM256 286h161v224z" />
    <glyph glyph-name="B" unicode="B" horiz-adv-x="646" 
d="M338 0h-339l17 54c34 5 57 4 77 68l117 382c2 8 15 47 15 59c0 34 -35 44 -54 45l17 54h277c49 0 124 0 172 -45c16 -15 43 -48 43 -100c0 -129 -145 -157 -223 -170c85 -13 156 -68 156 -155c0 -72 -49 -127 -97 -155c-55 -32 -152 -37 -178 -37zM360 320h-42l-51 -169
c-8 -26 -13 -44 -13 -52c0 -35 39 -45 66 -45c98 0 126 137 126 193c0 60 -35 73 -86 73zM437 608h-31l-71 -234c23 -1 56 -2 83 7c77 26 99 123 99 165c0 35 -18 62 -80 62z" />
    <glyph glyph-name="C" unicode="C" horiz-adv-x="708" 
d="M662 224l-67 -218h-47l3 70c-65 -70 -128 -90 -199 -90c-148 0 -262 99 -262 262c0 216 179 428 407 428c22 0 118 -4 183 -85c12 17 30 47 39 66h49l-49 -227h-51c5 129 -67 192 -144 192c-163 0 -263 -273 -263 -425c0 -80 37 -157 120 -157c129 0 203 144 224 184h57z
" />
    <glyph glyph-name="D" unicode="D" horiz-adv-x="760" 
d="M-5 0l17 54c58 0 70 35 84 80l117 384c4 14 11 36 11 45c0 37 -41 45 -57 45l17 54h253c58 0 135 0 210 -52c67 -46 109 -125 109 -226c0 -122 -56 -238 -154 -310c-77 -56 -163 -74 -296 -74h-311zM406 608l-142 -460c-8 -25 -12 -43 -12 -51c0 -28 33 -43 69 -43
c226 0 264 306 264 377c0 62 -15 95 -29 115c-37 53 -74 62 -150 62z" />
    <glyph glyph-name="E" unicode="E" horiz-adv-x="656" 
d="M621 180l-55 -180h-564l16 54c33 3 56 6 79 80l116 381c3 9 12 39 12 48c0 36 -40 45 -55 45l17 54h485l4 -163h-55c-32 91 -64 109 -151 109h-63l-74 -238h33c79 0 94 17 121 94h57l-80 -261h-57c7 26 11 41 11 56c0 36 -18 57 -80 57h-21l-50 -163
c-4 -12 -13 -37 -13 -52c0 -38 37 -47 88 -47c63 0 167 6 224 126h55z" />
    <glyph glyph-name="F" unicode="F" horiz-adv-x="563" 
d="M317 317l-51 -166c-5 -15 -13 -46 -13 -51c0 -45 58 -46 80 -46l-16 -54h-320l17 54c57 0 69 36 82 80l119 389c3 11 10 32 10 40c0 35 -37 45 -64 45l17 54h485l3 -162h-52c-26 72 -48 108 -129 108h-80l-72 -237h37c66 0 90 16 115 94h59l-80 -262h-59
c11 30 12 50 12 61c0 46 -47 53 -69 53h-31z" />
    <glyph glyph-name="G" unicode="G" horiz-adv-x="771" 
d="M772 287l-12 -54c-33 -6 -50 -16 -67 -73l-48 -157h-11l-55 41c-44 -23 -113 -58 -226 -58c-166 0 -265 101 -265 256c0 183 159 434 414 434c60 0 131 -15 191 -84c20 26 32 57 35 65h53l-50 -228h-55c0 122 -59 188 -143 188c-180 0 -270 -284 -270 -416
c0 -115 64 -156 127 -156c57 0 119 45 133 92l7 24c13 43 -9 72 -56 72l17 54h281z" />
    <glyph glyph-name="H" unicode="H" horiz-adv-x="813" 
d="M573 317h-253l-48 -158c-5 -17 -14 -45 -15 -59c-2 -32 22 -46 59 -46l-17 -54h-303l16 54c63 0 75 37 88 80l120 392c4 14 8 31 8 37c0 27 -30 45 -54 45l16 54h312l-17 -54c-70 0 -82 -21 -97 -69l-50 -163h254l45 150c3 9 8 23 8 36c0 28 -28 46 -56 46l17 54h295
l-11 -54c-41 0 -66 -6 -84 -66l-123 -401c-5 -16 -9 -41 -9 -41c0 -29 29 -46 62 -46l-17 -54h-317l17 54c68 0 80 24 98 82z" />
    <glyph glyph-name="I" unicode="I" horiz-adv-x="396" 
d="M318 54l-16 -54h-298l15 54c45 6 58 11 80 81l117 381c4 14 11 39 11 47c0 32 -33 45 -56 45l17 54h280l-17 -54c-44 -4 -58 -48 -63 -65l-118 -386c-4 -13 -14 -48 -14 -57c0 -31 34 -46 62 -46z" />
    <glyph glyph-name="J" unicode="J" horiz-adv-x="427" 
d="M192 608l17 54h300l-17 -54c-40 0 -66 -5 -84 -65l-134 -437c-74 -243 -151 -343 -331 -343c-111 0 -165 41 -165 92c0 36 30 57 67 57c45 0 63 -31 69 -45c11 -25 18 -52 53 -52c43 0 67 40 111 185l164 538c4 14 5 19 5 25c0 23 -24 45 -55 45z" />
    <glyph glyph-name="K" unicode="K" horiz-adv-x="734" 
d="M303 248l-31 -102c-3 -9 -11 -36 -11 -46c0 -35 37 -46 63 -46l-17 -54h-309l17 54c64 0 76 38 89 80l119 390c5 17 9 30 9 39c0 36 -37 45 -57 45l16 54h307l-17 -54c-62 0 -75 -23 -89 -68l-65 -211l260 186c23 16 48 38 48 60c0 30 -29 31 -61 33l16 54h295l-17 -54
c-50 0 -81 -17 -182 -89l-175 -124l112 -244c39 -84 65 -97 115 -97l-16 -54h-315l17 54c14 0 55 -3 55 30c0 9 -8 27 -14 40l-83 179z" />
    <glyph glyph-name="L" unicode="L" horiz-adv-x="615" 
d="M636 178l-54 -178h-588l17 54c61 0 73 33 87 80l119 388c6 20 10 33 10 41c0 15 -10 45 -65 45l16 54h319l-17 -54c-69 0 -80 -25 -93 -68l-118 -385c-4 -13 -14 -48 -14 -57c0 -45 62 -44 94 -44c54 0 166 -6 230 124h57z" />
    <glyph glyph-name="M" unicode="M" horiz-adv-x="969" 
d="M345 0l-42 549l-142 -372c-9 -23 -17 -51 -17 -67c0 -55 54 -56 73 -56l-17 -54h-216l16 54c55 4 83 75 98 114l130 340c4 11 15 39 15 52c0 41 -43 48 -73 48l16 54h261l35 -476l318 476h256l-17 -54c-74 0 -82 -28 -98 -89l-94 -364c-8 -29 -11 -41 -11 -53
c0 -47 48 -48 76 -48l-17 -54h-328l17 54c77 3 88 36 103 93l104 403l-366 -550h-80z" />
    <glyph glyph-name="N" unicode="N" horiz-adv-x="750" 
d="M263 477l-99 -323c-3 -11 -8 -36 -8 -45c0 -49 62 -54 76 -55l-17 -54h-226l17 54c69 9 87 68 104 124l116 381c-10 24 -23 49 -79 49h-16l16 54h202l228 -469l96 315c6 21 8 33 8 42c0 51 -52 56 -77 58l17 54h229l-17 -54c-35 -8 -73 -18 -98 -101l-158 -514h-75z" />
    <glyph glyph-name="O" unicode="O" horiz-adv-x="802" 
d="M92 287c0 129 147 389 413 389c231 0 295 -174 295 -289c0 -192 -181 -401 -411 -401c-237 0 -297 178 -297 301zM263 186c0 -107 54 -146 117 -146c178 0 249 320 249 433c0 35 0 149 -115 149c-166 0 -251 -292 -251 -436z" />
    <glyph glyph-name="P" unicode="P" horiz-adv-x="615" 
d="M309 294l-51 -169c-5 -17 -5 -22 -5 -25c0 -39 46 -46 73 -46l-17 -54h-311l17 54c43 2 61 14 81 80l123 404c4 13 5 18 5 25c0 34 -33 45 -66 45l16 54h254c71 0 162 -1 218 -48c33 -27 55 -72 55 -119c0 -13 0 -104 -96 -159c-72 -41 -156 -42 -207 -42h-89zM405 608
l-79 -260h46c56 0 90 17 108 35c33 33 54 89 54 133c0 92 -82 92 -109 92h-20z" />
    <glyph glyph-name="Q" unicode="Q" horiz-adv-x="802" 
d="M397 -14l-62 -53c15 3 57 11 88 11c56 0 100 -15 175 -41c64 -22 101 -29 143 -29c57 0 96 13 123 46h57c-18 -59 -102 -156 -239 -156c-81 0 -131 29 -188 58c-45 23 -112 54 -168 54c-13 0 -49 -4 -75 -44c-11 -17 -28 -39 -52 -39c-19 0 -32 14 -32 29
c0 24 21 45 60 81l97 89c-172 22 -232 180 -232 279c0 179 171 405 414 405c206 0 294 -144 294 -289c0 -191 -179 -396 -403 -401zM263 186c0 -107 54 -146 117 -146c178 0 249 320 249 433c0 35 0 149 -115 149c-166 0 -251 -292 -251 -436z" />
    <glyph glyph-name="R" unicode="R" horiz-adv-x="719" 
d="M314 299l-48 -156c-4 -13 -10 -37 -10 -43c0 -45 56 -46 80 -46l-17 -54h-330l15 54c66 0 79 27 95 80l119 391c5 17 9 32 9 38c0 39 -43 45 -69 45l16 54h325c49 0 248 0 248 -169c0 -93 -77 -171 -227 -184c17 -8 45 -28 78 -132c22 -69 42 -123 118 -123l-17 -54h-194
c-23 33 -49 103 -67 161c-41 131 -61 138 -124 138zM407 607l-77 -254c90 0 130 4 167 20c53 23 83 85 83 136c0 92 -85 99 -137 99c-10 0 -19 0 -36 -1z" />
    <glyph glyph-name="S" unicode="S" horiz-adv-x="542" 
d="M24 5l29 230h54c12 -163 121 -190 160 -190c48 0 93 40 93 91c0 46 -35 85 -95 138c-68 60 -120 114 -120 199c0 131 113 203 210 203c14 0 89 0 147 -68c11 12 26 33 33 54h54l-29 -198h-52c-13 74 -54 158 -149 158c-37 0 -87 -26 -87 -82c0 -45 25 -80 93 -138
c73 -62 132 -115 132 -217c0 -95 -72 -199 -211 -199c-101 0 -153 54 -174 75c-16 -19 -24 -31 -33 -56h-55z" />
    <glyph glyph-name="T" unicode="T" horiz-adv-x="667" 
d="M528 608l-146 -479c-9 -29 -11 -75 57 -75h15l-17 -54h-342l16 54h14c44 0 73 9 95 82l144 472h-29c-92 0 -139 -40 -186 -138h-54l58 192h626l-58 -192h-52c2 14 4 32 4 51c0 81 -51 87 -111 87h-34z" />
    <glyph glyph-name="U" unicode="U" horiz-adv-x="729" 
d="M583 608l16 54h239l-16 -54c-81 -9 -99 -69 -108 -101l-91 -306c-46 -155 -144 -215 -281 -215c-149 0 -241 71 -241 175c0 39 7 61 22 109l82 268c4 13 5 19 5 25c0 35 -37 45 -63 45l17 54h318l-17 -54c-69 0 -82 -22 -96 -68l-96 -317c-8 -27 -17 -54 -17 -80
c0 -76 70 -97 120 -97c109 0 165 78 192 172l82 289c5 19 9 32 9 43c0 51 -54 56 -76 58z" />
    <glyph glyph-name="V" unicode="V" horiz-adv-x="646" 
d="M159 -14l18 558c1 40 2 64 -52 64l16 54h282l-16 -54c-67 0 -72 -16 -74 -79l-13 -369l241 349c12 18 26 41 26 58c0 36 -46 41 -73 41l16 54h258l-16 -54c-69 -2 -105 -44 -163 -127l-349 -495h-101z" />
    <glyph glyph-name="W" unicode="W" horiz-adv-x="927" 
d="M143 -14l30 551c3 63 -11 66 -52 71l16 54h285l-16 -54c-58 -3 -72 -10 -76 -84l-18 -336l309 474h85l-18 -474l198 321c8 13 21 39 21 54c0 37 -38 42 -62 45l16 54h211l-16 -54c-51 -17 -66 -41 -131 -143l-304 -479h-99l18 458l-300 -458h-97z" />
    <glyph glyph-name="X" unicode="X" horiz-adv-x="688" 
d="M337 265l-96 -83c-43 -37 -58 -60 -58 -82c0 -29 29 -46 61 -46l-16 -54h-300l16 54c57 7 138 69 158 86l211 185l-75 193c-31 80 -36 90 -88 90l16 54h301l-16 -54c-20 0 -59 -2 -59 -39c0 -18 10 -45 16 -59l30 -76l108 93c15 13 29 29 29 47c0 34 -42 34 -57 34l17 54
h265l-17 -54c-37 0 -59 -8 -145 -83l-175 -153l98 -254c23 -60 50 -56 90 -64l-17 -54h-324l16 54c54 0 73 19 73 39c0 12 -8 32 -10 37z" />
    <glyph glyph-name="Y" unicode="Y" horiz-adv-x="615" 
d="M277 287l-66 236c-20 70 -24 85 -92 85l16 54h311l-17 -54c-23 -2 -62 -5 -62 -41c0 -14 6 -35 9 -48l45 -169l109 150c24 33 29 54 29 67c0 33 -39 41 -59 41l16 54h241l-16 -54c-58 2 -82 -27 -144 -111l-151 -204l-45 -147c-3 -11 -11 -35 -11 -47
c0 -35 31 -45 83 -45l-17 -54h-345l16 54c80 0 89 33 104 82z" />
    <glyph glyph-name="Z" unicode="Z" horiz-adv-x="646" 
d="M13 0v48l477 560h-130c-102 0 -154 -45 -198 -123h-54l54 177h539v-46l-480 -562h143c135 0 185 89 216 142h53l-60 -196h-560z" />
    <glyph glyph-name="bracketleft" unicode="[" horiz-adv-x="365" 
d="M-14 -233l274 895h235l-14 -48c-98 0 -108 -6 -128 -70l-199 -652c-4 -14 -6 -20 -6 -29c0 -45 44 -50 92 -50l-14 -46h-240z" />
    <glyph glyph-name="backslash" unicode="\" horiz-adv-x="625" 
d="M254 662l350 -678h-140l-349 678h139z" />
    <glyph glyph-name="bracketright" unicode="]" horiz-adv-x="365" 
d="M397 662l-274 -895h-235l14 48c98 0 108 6 128 70l199 652c4 14 6 20 6 29c0 45 -44 50 -92 50l14 46h240z" />
    <glyph glyph-name="asciicircum" unicode="^" horiz-adv-x="573" 
d="M114 311l200 351h52l198 -351h-119l-106 191l-109 -191h-116z" />
    <glyph glyph-name="underscore" unicode="_" horiz-adv-x="500" 
d="M-6 -75h512v-50h-512v50z" />
    <glyph glyph-name="quoteleft" unicode="&#x2018;" horiz-adv-x="344" 
d="M399 676l-15 -48c-116 -10 -161 -88 -161 -117c0 -6 2 -12 8 -12c88 0 89 -67 89 -75c0 -44 -35 -75 -75 -75c-41 0 -91 36 -91 108c0 102 92 218 245 219z" />
    <glyph glyph-name="a" unicode="a" horiz-adv-x="563" 
d="M378 335l17 65h140l-88 -288c-4 -12 -8 -26 -8 -30c0 -10 7 -14 13 -14c21 0 39 25 50 45h54c-35 -91 -110 -128 -171 -128c-20 0 -86 5 -86 81c0 11 2 23 4 32c-53 -73 -117 -113 -167 -113c-31 0 -90 19 -90 110c0 144 116 313 261 313c57 0 67 -38 71 -73zM193 117
c0 -25 10 -39 28 -39c36 0 70 48 94 102s41 113 41 136c0 27 -11 44 -31 44c-78 0 -132 -199 -132 -243z" />
    <glyph glyph-name="b" unicode="b" horiz-adv-x="583" 
d="M90 230l96 317c5 18 7 25 7 31c0 21 -15 30 -63 30l16 54c102 0 128 0 179 14h46l-103 -336c27 32 77 75 157 75c98 0 143 -63 143 -141c0 -128 -117 -289 -315 -289c-152 0 -187 92 -187 139c0 30 8 53 24 106zM201 100c0 -39 9 -67 58 -67c113 0 157 165 157 237
c0 47 -25 70 -56 70c-123 0 -159 -239 -159 -240z" />
    <glyph glyph-name="c" unicode="c" horiz-adv-x="490" 
d="M400 120h65c-19 -27 -102 -135 -248 -135c-73 0 -174 21 -174 134c0 135 141 296 310 296c117 0 130 -70 130 -97c0 -28 -15 -77 -66 -77c-28 0 -58 18 -58 57c0 11 2 19 4 25c2 7 4 12 4 20c0 17 -18 24 -34 24c-94 0 -138 -206 -138 -245c0 -49 22 -78 66 -78
c67 0 120 55 139 76z" />
    <glyph glyph-name="d" unicode="d" horiz-adv-x="594" 
d="M400 370l59 192s4 16 4 23c0 24 -34 26 -58 26l15 51c93 0 114 0 173 14h46l-166 -544c-5 -17 -11 -35 -11 -45c0 -21 14 -21 18 -21c8 0 34 10 59 52h54c-45 -78 -118 -133 -195 -133c-45 0 -90 29 -78 95c-38 -45 -92 -96 -173 -96c-59 0 -108 39 -108 125
c0 149 140 306 268 306c18 0 67 -5 93 -45zM186 133c0 -17 0 -61 43 -61c52 0 89 55 114 113s36 119 36 130c0 27 -25 49 -52 49c-77 0 -141 -187 -141 -231z" />
    <glyph glyph-name="e" unicode="e" horiz-adv-x="490" 
d="M390 121h65c-50 -73 -144 -136 -259 -136c-104 0 -163 43 -163 128c0 141 162 302 334 302c19 0 107 0 107 -79c0 -97 -138 -164 -285 -185c-2 -9 -4 -17 -4 -30c0 -51 23 -77 66 -77c8 0 67 -1 139 77zM200 202c85 13 153 85 153 135c0 29 -22 30 -29 30
c-40 0 -88 -47 -124 -165z" />
    <glyph glyph-name="f" unicode="f" 
d="M271 346l-49 -219c-63 -283 -162 -376 -304 -376c-54 0 -111 19 -111 75c0 39 34 67 69 67c19 0 57 -7 66 -61c3 -19 12 -30 26 -30c32 0 49 53 61 96c11 40 17 67 37 159l64 289h-63l16 54h58c36 115 75 276 254 276c80 0 128 -36 128 -81c0 -30 -23 -61 -61 -61
c-40 0 -56 33 -67 55c-7 14 -21 39 -41 39c-25 0 -35 -52 -38 -64l-32 -164h72l-16 -54h-69z" />
    <glyph glyph-name="g" unicode="g" horiz-adv-x="510" 
d="M155 147c-54 28 -77 73 -77 114c0 66 53 154 204 154c50 0 90 -11 120 -34c19 19 42 34 77 34s56 -15 56 -46c0 -33 -12 -48 -36 -48c-18 0 -24 5 -39 20c-6 6 -11 12 -18 12c-5 0 -8 -2 -12 -4c25 -28 27 -59 27 -72c0 -55 -43 -150 -192 -155c-56 -2 -103 -4 -103 -32
c0 -20 18 -27 86 -45c90 -24 186 -52 186 -147c0 -124 -160 -147 -273 -147c-73 0 -227 7 -227 116c0 66 67 90 84 90c12 0 19 -10 19 -19c0 -15 -23 -32 -23 -67c0 -62 80 -72 138 -72c49 0 135 5 135 64c0 33 -43 46 -103 64c-53 16 -137 41 -137 115c0 46 31 81 108 105z
M210 220c0 -25 0 -57 36 -57c55 0 81 134 81 172c0 11 0 41 -33 41c-63 0 -84 -148 -84 -156z" />
    <glyph glyph-name="h" unicode="h" horiz-adv-x="594" 
d="M25 0l161 526c4 14 15 46 15 59c0 16 -13 26 -60 26l17 51c92 0 113 0 172 14h46l-121 -396c35 52 99 135 203 135c64 0 81 -38 81 -66c0 -22 -9 -48 -20 -84l-39 -133c-5 -17 -13 -43 -13 -49c0 -4 0 -13 12 -13c10 0 32 13 59 54h56c-49 -94 -122 -131 -189 -131
c-15 0 -85 0 -85 69c0 19 9 52 14 69l37 115c6 17 12 36 12 51c0 11 -5 21 -20 21c-43 0 -111 -105 -165 -228l-28 -90h-145z" />
    <glyph glyph-name="i" unicode="i" 
d="M277 118h50c-14 -31 -68 -133 -175 -133c-19 0 -92 1 -92 76c0 21 7 40 20 77l57 165c5 15 8 23 8 28c0 9 -8 12 -12 12c-18 0 -43 -37 -58 -63h-47c63 135 157 135 178 135c58 0 86 -31 86 -74c0 -25 -11 -51 -21 -80l-55 -152c-6 -17 -14 -37 -14 -43
c0 -8 8 -12 13 -12c17 0 47 37 62 64zM359 600c0 -42 -34 -76 -76 -76s-76 34 -76 76s34 76 76 76s76 -34 76 -76z" />
    <glyph glyph-name="j" unicode="j" horiz-adv-x="292" 
d="M71 277h-44c30 82 105 141 179 141c67 0 91 -53 76 -112l-73 -289c-14 -55 -73 -266 -271 -266c-80 0 -124 32 -124 74c0 29 25 68 70 68c31 0 61 -16 67 -61c2 -15 10 -30 27 -30c41 0 63 109 68 130l94 381c5 19 5 29 -6 29c-34 0 -56 -52 -63 -65zM345 600
c0 -42 -34 -76 -76 -76s-76 34 -76 76s34 76 76 76s76 -34 76 -76z" />
    <glyph glyph-name="k" unicode="k" horiz-adv-x="594" 
d="M30 0l170 557c13 44 5 54 -55 54l16 51c95 0 115 0 174 14h47l-132 -427c105 105 170 166 263 166c42 0 79 -18 79 -52c0 -18 -13 -50 -56 -50c-18 0 -33 8 -48 16c-8 4 -14 11 -32 11c-48 0 -111 -59 -142 -88c123 -7 130 -86 136 -170c1 -9 5 -27 18 -27
c24 0 56 59 61 69h45c-44 -114 -127 -131 -173 -131c-36 0 -98 17 -98 82c0 12 2 30 5 51c2 14 5 36 5 47c0 32 -18 41 -38 42l-48 -47l-52 -168h-145z" />
    <glyph glyph-name="l" unicode="l" horiz-adv-x="323" 
d="M270 115h50c-21 -49 -81 -130 -185 -130c-52 0 -90 23 -90 69c0 6 0 21 9 51l133 438c7 22 11 35 11 43c0 13 -13 25 -59 25l16 51c92 0 113 0 172 14h46l-174 -570c-6 -20 -7 -24 -7 -30c0 -15 15 -16 18 -16c25 0 52 41 60 55z" />
    <glyph glyph-name="m" unicode="m" horiz-adv-x="969" 
d="M47 0l87 286c3 9 10 33 10 44c0 9 -5 13 -13 13c-22 0 -49 -40 -60 -66h-49c23 43 73 138 178 138c49 0 88 -27 88 -74c0 -21 -10 -58 -18 -88c88 143 176 162 224 162c32 0 99 -13 99 -96c0 -28 -6 -55 -11 -72c24 37 115 168 241 168c39 0 95 -18 95 -71
c0 -20 -4 -36 -11 -58l-52 -171c-4 -13 -8 -28 -8 -33c0 -10 6 -14 13 -14c25 0 46 26 62 53h54c-42 -85 -116 -128 -185 -128c-44 0 -91 24 -91 73c0 15 8 42 12 55l47 150c5 17 7 25 7 34c0 17 -19 20 -25 20c-67 0 -194 -147 -237 -325h-143l77 248c4 12 11 35 11 48
c0 23 -16 30 -30 30c-52 0 -154 -105 -227 -326h-145z" />
    <glyph glyph-name="n" unicode="n" horiz-adv-x="604" 
d="M40 0l89 291c6 21 12 37 12 45c0 7 -5 13 -14 13c-30 0 -55 -55 -62 -71h-40c12 31 54 137 167 137c55 0 82 -29 82 -70c0 -26 -14 -84 -28 -132c75 134 153 202 229 202c33 0 75 -21 75 -69c0 -18 -5 -33 -10 -51l-49 -164c-10 -32 -15 -48 -15 -55c0 -12 9 -16 15 -16
c30 0 59 52 64 62h49c-13 -28 -59 -129 -188 -129c-13 0 -87 0 -87 67c0 16 5 32 14 62l39 131c3 11 14 41 14 51c0 9 -9 15 -16 15c-62 0 -187 -270 -197 -319h-143z" />
    <glyph glyph-name="o" unicode="o" horiz-adv-x="552" 
d="M45 169c0 91 75 246 279 246c185 0 211 -126 211 -178c0 -134 -114 -252 -282 -252c-108 0 -208 50 -208 184zM189 107c0 -52 27 -76 64 -76c99 0 138 202 138 247c0 56 -23 91 -61 91c-103 0 -141 -206 -141 -262z" />
    <glyph glyph-name="p" unicode="p" horiz-adv-x="583" 
d="M216 32l-43 -141c-4 -15 -13 -40 -13 -51c0 -29 41 -29 59 -29h25l-14 -48h-317l15 48c62 0 76 3 98 75l124 404c6 19 8 27 8 35c0 9 -3 18 -16 18c-31 0 -66 -57 -73 -72h-57c21 43 80 144 189 144c82 0 90 -43 91 -87c12 19 69 87 154 87c109 0 115 -121 115 -148
c0 -151 -112 -283 -239 -283c-65 0 -92 32 -106 48zM242 95c0 -46 27 -57 45 -57c82 0 130 213 130 260c0 30 -18 45 -35 45c-45 0 -80 -57 -104 -116c-24 -60 -36 -122 -36 -132z" />
    <glyph glyph-name="q" unicode="q" horiz-adv-x="583" 
d="M497 414h85l-162 -531c-4 -14 -10 -33 -10 -43c0 -28 30 -29 65 -29l-15 -48h-321l15 48h20c64 0 78 2 101 75l58 185c-32 -38 -89 -86 -170 -86c-73 0 -134 40 -134 127c0 96 92 303 271 303c56 0 100 -23 126 -94c24 23 44 47 71 93zM181 133c0 -22 -1 -71 53 -71
c43 0 80 33 107 76s44 96 44 137c0 43 -29 79 -63 79c-94 0 -141 -176 -141 -221z" />
    <glyph glyph-name="r" unicode="r" horiz-adv-x="458" 
d="M53 0l76 247c3 9 19 55 19 75c0 10 -6 15 -15 15c-29 0 -56 -38 -72 -67h-45c43 78 112 145 199 145c48 0 64 -36 64 -67c0 -35 -17 -98 -30 -139c37 64 110 206 195 206c28 0 57 -18 57 -60c0 -38 -25 -88 -68 -88c-17 0 -27 9 -35 18c-7 8 -11 18 -23 18
c-49 0 -142 -190 -174 -303h-148z" />
    <glyph glyph-name="s" unicode="s" horiz-adv-x="490" 
d="M20 87c0 16 10 63 62 63c55 0 62 -45 66 -70c8 -50 56 -52 72 -52c29 0 76 12 76 50c0 23 -36 44 -89 78c-35 22 -96 59 -96 131c0 74 72 128 208 128c38 0 161 -4 161 -82c0 -34 -30 -57 -60 -57c-34 0 -55 26 -59 50c-2 14 -7 46 -60 46c-27 0 -65 -7 -65 -46
c0 -21 14 -31 63 -60c44 -26 118 -68 118 -145c0 -85 -87 -136 -214 -136c-50 0 -183 9 -183 102z" />
    <glyph glyph-name="t" unicode="t" horiz-adv-x="365" 
d="M301 138h54c-18 -47 -78 -153 -185 -153c-66 0 -100 31 -100 95c0 31 11 62 18 86l55 180h-82l16 54h82l46 149h145l-45 -149h89l-17 -54h-89l-62 -205c-5 -18 -16 -51 -16 -62s5 -22 19 -22c20 0 48 28 72 81z" />
    <glyph glyph-name="u" unicode="u" horiz-adv-x="604" 
d="M80 117l49 159c4 14 10 32 11 46c1 15 -11 17 -16 17c-19 0 -41 -19 -61 -65h-50c18 40 61 133 182 133c86 0 92 -60 92 -70c0 -18 -7 -40 -12 -58l-42 -140c-7 -22 -12 -37 -12 -42c0 -13 10 -16 15 -16c45 0 142 150 197 319h142l-80 -256c-12 -40 -21 -67 -21 -75
c0 -9 4 -17 14 -17c18 0 43 22 64 72h39c-43 -127 -131 -139 -166 -139c-48 0 -85 18 -85 75c0 22 15 81 27 124c-52 -101 -132 -199 -227 -199c-57 0 -73 45 -72 74c1 22 4 32 12 58z" />
    <glyph glyph-name="v" unicode="v" horiz-adv-x="563" 
d="M84 301h-39c12 71 55 114 101 114c27 0 49 -12 67 -24s32 -25 41 -25c17 0 20 10 26 25c5 12 11 24 27 24s29 -13 29 -32c0 -29 -14 -55 -55 -122c-18 -29 -55 -92 -55 -137c0 -37 28 -60 59 -60c66 0 164 107 164 189c0 20 -6 40 -11 58c-5 17 -10 32 -10 47
c0 18 11 57 54 57c49 0 60 -48 60 -75c0 -99 -123 -355 -341 -355c-60 0 -114 31 -114 100c0 83 63 132 102 162c63 48 72 64 84 86c-22 -17 -44 -32 -76 -32c-25 0 -39 7 -51 14s-21 14 -34 14c-16 0 -24 -13 -28 -28z" />
    <glyph glyph-name="w" unicode="w" horiz-adv-x="823" 
d="M50 90c0 120 153 165 190 248c-27 -26 -55 -38 -77 -38c-20 0 -36 8 -50 15c-13 7 -23 14 -32 14c-11 0 -23 -9 -27 -24h-34c14 44 37 113 96 113c24 0 43 -11 60 -23s31 -26 44 -26c16 0 19 12 23 23c4 12 9 23 30 23c14 0 29 -9 29 -31c0 -37 -39 -97 -45 -107
c-49 -82 -63 -137 -63 -158c0 -41 30 -61 56 -61c30 0 74 20 110 46c-16 41 -16 83 -16 91c0 130 89 220 174 220c59 0 72 -55 72 -80c0 -87 -63 -145 -98 -178c25 -53 52 -78 87 -78c61 0 133 108 133 169c0 16 -6 37 -12 57s-12 40 -12 53c0 27 17 57 52 57
c47 0 61 -39 61 -75c0 -124 -139 -355 -292 -355c-75 0 -107 47 -129 79c-31 -22 -113 -79 -214 -79c-73 0 -116 44 -116 105zM473 200c64 55 71 116 71 130c0 26 -11 45 -29 45c-7 0 -54 0 -54 -103c0 -26 3 -41 12 -72z" />
    <glyph glyph-name="x" unicode="x" horiz-adv-x="552" 
d="M239 128l-84 -87c-34 -35 -63 -56 -96 -56c-45 0 -48 42 -48 56c0 33 10 62 17 83h59c-6 -13 -18 -44 -18 -58c0 -9 6 -16 12 -16s12 3 31 23l109 114l-29 94c-10 32 -17 45 -30 45c-24 0 -37 -41 -44 -65h-48c30 105 97 154 155 154c62 0 83 -57 103 -111
c50 55 102 111 150 111c54 0 58 -48 58 -73c0 -23 -3 -39 -8 -52h-58c11 30 14 44 14 53c0 21 -10 24 -13 24c-15 0 -60 -48 -64 -52l-62 -68l40 -127c11 -34 15 -49 29 -49c27 0 43 55 46 66h49c-26 -87 -82 -152 -158 -152c-61 0 -75 39 -112 143z" />
    <glyph glyph-name="y" unicode="y" horiz-adv-x="531" 
d="M-86 -131c28 0 51 -10 71 -21c14 -8 37 -22 56 -22c21 0 82 21 108 98c17 51 18 107 18 145c0 186 -16 265 -49 265c-22 0 -42 -31 -45 -82h-47c10 124 82 163 140 163c127 0 140 -174 140 -285c0 -62 -2 -90 -5 -112c51 55 122 136 122 219c0 21 -10 44 -20 67
c-10 22 -19 44 -19 62c0 34 30 49 53 49c14 0 69 -7 69 -88c0 -222 -284 -450 -311 -470c-112 -83 -233 -106 -270 -106c-39 0 -78 21 -78 59c0 33 30 59 67 59z" />
    <glyph glyph-name="z" unicode="z" horiz-adv-x="490" 
d="M400 131h51c-12 -43 -69 -146 -170 -146c-75 0 -115 59 -156 59c-29 0 -40 -17 -47 -29c-9 -15 -16 -30 -38 -30c-16 0 -30 9 -30 24c0 41 78 97 178 168c56 40 126 99 159 126c-26 -11 -61 -14 -75 -14c-40 0 -88 20 -108 20c-12 0 -34 -8 -41 -27h-46
c33 105 119 134 158 134c36 0 59 -14 78 -28c20 -14 36 -29 58 -29c20 0 32 15 42 29s18 27 39 27c15 0 27 -9 27 -23c0 -63 -211 -215 -267 -255l-54 -38c19 6 49 19 78 19c24 0 46 -4 65 -9s35 -10 46 -10c33 0 44 18 53 32z" />
    <glyph glyph-name="braceleft" unicode="{" horiz-adv-x="396" 
d="M381 674v-23c-69 -14 -95 -51 -95 -97c0 -52 23 -120 23 -172c0 -60 -40 -145 -163 -169c90 -22 164 -78 164 -170c0 -47 -24 -108 -24 -167c0 -80 66 -96 95 -101v-24c-146 -4 -203 101 -202 164c1 54 27 121 27 175c0 86 -71 103 -96 107v31c95 16 96 96 96 112
c0 56 -26 119 -26 168c0 11 6 159 201 166z" />
    <glyph glyph-name="bar" unicode="|" horiz-adv-x="583" 
d="M295 662h129v-898h-129v898z" />
    <glyph glyph-name="braceright" unicode="}" horiz-adv-x="396" 
d="M109 -249v23c69 14 95 51 95 97c0 52 -23 120 -23 172c0 60 40 145 163 169c-90 22 -164 78 -164 170c0 47 24 108 24 167c0 80 -66 96 -95 101v24c146 4 203 -101 202 -164c-1 -54 -27 -121 -27 -175c0 -86 71 -103 96 -107v-31c-95 -16 -96 -96 -96 -112
c0 -56 26 -119 26 -168c0 -11 -6 -159 -201 -166z" />
    <glyph glyph-name="asciitilde" unicode="~" horiz-adv-x="667" 
d="M617 426h39c0 -95 -45 -194 -152 -194c-49 0 -85 13 -185 57c-48 21 -74 27 -96 27c-47 0 -72 -30 -79 -84h-39c2 39 9 194 150 194c28 0 62 0 187 -55c61 -27 77 -30 96 -30c43 0 73 30 79 85z" />
    <glyph glyph-name="exclamdown" unicode="&#xa1;" horiz-adv-x="344" 
d="M155 369c0 42 34 76 76 76c43 0 77 -34 77 -76c0 -43 -34 -77 -77 -77c-42 0 -76 34 -76 77zM211 218l-61 -357c-9 -54 -33 -107 -90 -107c-49 0 -65 48 -65 70c0 5 2 35 18 70l146 324h52z" />
    <glyph glyph-name="cent" unicode="&#xa2;" horiz-adv-x="490" 
d="M373 414l74 165h44l-76 -172c48 -15 70 -54 70 -90c0 -28 -15 -76 -66 -76c-35 0 -55 21 -57 50l-109 -247c71 -8 132 57 149 75h65c-20 -27 -96 -128 -240 -133l-60 -136h-45l61 136c-30 3 -138 16 -138 132c0 136 146 307 328 296zM216 61l134 302c-4 2 -8 3 -17 3
c-89 0 -137 -199 -137 -245c0 -10 0 -39 20 -60z" />
    <glyph glyph-name="sterling" unicode="&#xa3;" horiz-adv-x="719" 
d="M138 80h-146l43 76h145l61 127c91 190 227 376 431 376c82 0 131 -32 131 -75c0 -40 -42 -76 -82 -76c-37 0 -46 31 -51 50c-6 22 -18 42 -50 42c-57 0 -93 -49 -150 -167c-27 -56 -94 -193 -154 -277h157l-41 -76h-172c-32 -42 -67 -79 -102 -113c16 6 42 13 59 13
c59 0 90 -39 122 -78c36 -44 55 -57 82 -57c33 0 63 26 63 56c0 6 -3 36 -3 42c0 38 21 87 76 87c39 0 48 -25 48 -48c0 -73 -126 -218 -285 -218c-72 0 -107 45 -130 76c-22 30 -43 51 -67 51c-5 0 -16 -1 -30 -7c-44 -61 -87 -120 -138 -120c-24 0 -48 19 -48 40
c0 58 114 115 144 130c31 45 69 111 87 146z" />
    <glyph glyph-name="fraction" unicode="&#x2044;" horiz-adv-x="167" 
d="M-140 0l550 662h70l-549 -662h-71z" />
    <glyph glyph-name="yen" unicode="&#xa5;" horiz-adv-x="500" 
d="M215 286h-188l18 64h155l-43 173c-18 71 -22 85 -84 85l15 54h279l-15 -54c-21 -2 -55 -5 -55 -40c0 -15 5 -37 8 -50l40 -168l99 150c6 10 26 40 26 67c0 32 -34 41 -54 41l15 54h217l-15 -54c-28 1 -55 1 -107 -77l-121 -181h176l-18 -64h-198l-21 -78h198l-18 -64
h-197c-3 -10 -10 -37 -10 -45c0 -44 48 -45 74 -45l-14 -54h-311l15 54c69 0 77 23 96 90h-189l18 64h189z" />
    <glyph glyph-name="florin" unicode="&#x192;" horiz-adv-x="500" 
d="M375 381l-49 -244c-42 -209 -68 -252 -98 -287c-8 -10 -54 -68 -124 -68c-49 0 -76 29 -76 57c0 19 16 48 50 48c15 0 45 -7 45 -38c0 -10 -6 -22 -6 -26c0 -5 6 -11 14 -11c17 0 37 17 37 63c0 16 -4 76 -4 88c0 56 6 85 20 156l53 262h-69l12 59c65 0 89 19 123 111
c34 93 82 125 146 125c36 0 79 -16 79 -63c0 -29 -19 -56 -52 -56c-32 0 -43 29 -43 40c0 16 15 39 15 45c0 7 -7 11 -13 11c-19 0 -46 -18 -46 -68c0 -22 4 -72 4 -85c0 -22 -3 -43 -6 -60h75l-12 -59h-75z" />
    <glyph glyph-name="section" unicode="&#xa7;" horiz-adv-x="479" 
d="M194 402c-16 22 -30 66 -30 103c0 94 89 152 189 152c95 0 144 -60 144 -117c0 -43 -28 -72 -57 -72c-43 0 -57 43 -60 78c-2 28 -12 63 -53 63c-32 0 -58 -23 -58 -58c0 -37 20 -73 99 -169c34 -42 84 -102 84 -176c0 -69 -38 -134 -148 -155c30 -49 36 -92 36 -114
c0 -29 -14 -170 -183 -170c-57 0 -169 17 -169 117c0 42 27 68 64 68c41 0 58 -30 58 -61c0 -34 0 -76 54 -76s73 46 73 72c0 53 -63 135 -69 143c-81 108 -110 145 -110 216c0 41 15 134 136 156zM152 304c0 -27 17 -65 54 -120c35 -52 64 -82 99 -82c24 0 46 20 46 49
c0 31 -21 68 -36 92c-29 47 -73 113 -114 113c-26 0 -49 -18 -49 -52z" />
    <glyph glyph-name="currency" unicode="&#xa4;" horiz-adv-x="471" 
d="M461 176l-42 -44l-68 65c-47 -28 -83 -37 -117 -37c-32 0 -68 8 -116 37l-68 -65l-42 44l65 63c-30 54 -36 90 -36 115s6 62 36 115l-65 64l42 44l68 -65c49 29 84 37 116 37c33 0 70 -9 117 -37l68 65l42 -44l-65 -64c31 -54 37 -90 37 -115c0 -24 -7 -61 -37 -115z
M371 355c0 77 -67 134 -137 134c-74 0 -134 -60 -134 -134s61 -135 134 -135c75 0 137 61 137 135z" />
    <glyph glyph-name="quotesingle" unicode="'" horiz-adv-x="281" 
d="M197 352h-24l3 187c1 132 86 138 102 138c12 0 54 -3 54 -53c0 -11 0 -25 -33 -85z" />
    <glyph glyph-name="quotedblleft" unicode="&#x201c;" horiz-adv-x="594" 
d="M421 676l-15 -48c-116 -10 -161 -88 -161 -117c0 -6 2 -12 8 -12c88 0 89 -67 89 -75c0 -44 -35 -75 -75 -75c-41 0 -91 36 -91 108c0 102 92 218 245 219zM679 676l-15 -48c-116 -10 -161 -88 -161 -117c0 -6 2 -12 8 -12c88 0 89 -67 89 -75c0 -44 -35 -75 -75 -75
c-41 0 -91 36 -91 108c0 102 92 218 245 219z" />
    <glyph glyph-name="guillemotleft" unicode="&#xab;" horiz-adv-x="552" 
d="M190 202l15 -202h-54l-103 216l199 214h60zM446 202l15 -202h-54l-103 216l200 214h59z" />
    <glyph glyph-name="guilsinglleft" unicode="&#x2039;" horiz-adv-x="302" 
d="M187 202l16 -202h-55l-103 216l200 214h59z" />
    <glyph glyph-name="guilsinglright" unicode="&#x203a;" horiz-adv-x="302" 
d="M147 228l-16 202h55l103 -216l-200 -214h-59z" />
    <glyph glyph-name="endash" unicode="&#x2013;" horiz-adv-x="500" 
d="M41 295h512v-90h-512v90z" />
    <glyph glyph-name="dagger" unicode="&#x2020;" horiz-adv-x="542" 
d="M166 -237h-51l6 20c52 175 72 240 89 350c18 117 26 158 95 242c-32 3 -62 -5 -92 -19c-15 -7 -49 -23 -75 -23c-29 0 -55 23 -55 57c0 43 42 75 88 75c26 0 50 -9 80 -22s41 -16 65 -15c-3 17 -5 31 -5 68c0 45 0 180 89 180c34 0 61 -27 61 -60
c0 -66 -82 -175 -96 -193c27 2 63 14 85 23c28 11 51 20 75 20c32 0 57 -25 57 -60c0 -47 -44 -71 -89 -71c-36 0 -56 11 -79 21c-7 3 -37 18 -69 19c4 -12 9 -25 9 -52c0 -52 -32 -130 -65 -210c-33 -79 -58 -167 -118 -336z" />
    <glyph glyph-name="daggerdbl" unicode="&#x2021;" horiz-adv-x="542" 
d="M184 -37c-23 1 -67 -36 -113 -36c-36 0 -60 32 -60 63c0 32 24 62 66 62s69 -32 128 -37c1 6 3 14 3 25c0 66 0 93 34 135c20 24 28 33 28 55c0 9 -3 47 -3 54c0 52 4 58 55 129c-37 -4 -68 -37 -112 -37c-41 0 -69 27 -69 62c0 43 39 64 69 64c45 0 71 -35 127 -38
c4 35 -3 82 -3 110c0 17 0 102 79 102c35 0 66 -22 66 -59c0 -55 -61 -102 -89 -153c39 8 74 38 113 38c32 0 63 -26 63 -64c0 -31 -23 -61 -64 -61c-49 0 -80 35 -128 36c-2 -10 -3 -16 -3 -29c0 -74 0 -86 -44 -141c-6 -7 -21 -26 -21 -53c0 -8 5 -43 5 -50
c0 -65 -40 -104 -53 -125c38 10 78 38 112 38c42 0 65 -33 65 -62c0 -37 -32 -64 -70 -64c-40 0 -79 39 -123 36c-1 -10 -2 -18 -2 -33c0 -14 4 -78 4 -91c0 -65 -51 -85 -83 -85c-45 0 -61 30 -61 59c0 21 7 42 32 78c8 12 45 62 52 72z" />
    <glyph glyph-name="periodcentered" unicode="&#xb7;" horiz-adv-x="344" 
d="M299 330c0 -42 -34 -76 -76 -76c-43 0 -77 34 -77 76c0 43 34 77 77 77c42 0 76 -34 76 -77z" />
    <glyph glyph-name="paragraph" unicode="&#xb6;" horiz-adv-x="500" 
d="M340 625v-874h-49v459c-44 2 -138 6 -201 67c-52 50 -61 122 -61 164c0 63 15 125 90 180c38 28 76 41 236 41h215v-21h-22c-71 0 -71 -40 -71 -100v-790h-48v874h-89z" />
    <glyph glyph-name="bullet" unicode="&#x2022;" horiz-adv-x="354" 
d="M224 468c75 0 139 -60 139 -139c0 -77 -62 -140 -139 -140s-140 63 -140 140c0 79 64 139 140 139z" />
    <glyph glyph-name="quotesinglbase" unicode="&#x201a;" horiz-adv-x="344" 
d="M-2 -193l15 48c116 10 161 88 161 117c0 6 -2 12 -8 12c-88 0 -89 67 -89 75c0 44 35 75 75 75c41 0 91 -36 91 -108c0 -102 -92 -218 -245 -219z" />
    <glyph glyph-name="quotedblbase" unicode="&#x201e;" horiz-adv-x="594" 
d="M252 -193l15 48c116 10 161 88 161 117c0 6 -2 12 -8 12c-88 0 -89 67 -89 75c0 44 35 75 75 75c41 0 91 -36 91 -108c0 -102 -92 -218 -245 -219zM-6 -193l15 48c116 10 161 88 161 117c0 6 -2 12 -8 12c-88 0 -89 67 -89 75c0 44 35 75 75 75c41 0 91 -36 91 -108
c0 -102 -92 -218 -245 -219z" />
    <glyph glyph-name="quotedblright" unicode="&#x201d;" horiz-adv-x="594" 
d="M366 349l15 48c116 10 161 88 161 117c0 6 -2 12 -8 12c-88 0 -89 67 -89 75c0 44 35 75 75 75c41 0 91 -36 91 -108c0 -102 -92 -218 -245 -219zM108 349l15 48c116 10 161 88 161 117c0 6 -2 12 -8 12c-88 0 -89 67 -89 75c0 44 35 75 75 75c41 0 91 -36 91 -108
c0 -102 -92 -218 -245 -219z" />
    <glyph glyph-name="guillemotright" unicode="&#xbb;" horiz-adv-x="552" 
d="M401 228l-15 202h54l103 -216l-199 -214h-60zM145 228l-15 202h54l103 -216l-200 -214h-59z" />
    <glyph glyph-name="ellipsis" unicode="&#x2026;" horiz-adv-x="1000" 
d="M256 71c0 -49 -40 -89 -88 -89c-49 0 -89 40 -89 89c0 48 40 88 89 88c48 0 88 -40 88 -88zM589 71c0 -49 -40 -89 -89 -89s-88 40 -88 89c0 48 39 88 88 88s89 -40 89 -88zM922 71c0 -49 -39 -89 -88 -89s-89 40 -89 89c0 48 40 88 89 88s88 -40 88 -88z" />
    <glyph glyph-name="perthousand" unicode="&#x2030;" horiz-adv-x="1167" 
d="M467 115c0 72 58 218 194 218c100 0 122 -73 122 -114c0 -89 -57 -233 -191 -233c-79 0 -125 42 -125 129zM563 57c0 -12 -6 -43 25 -43c46 0 99 231 99 263c0 17 -11 28 -26 28c-46 0 -98 -242 -98 -248zM113 458c0 72 58 218 194 218c100 0 122 -73 122 -114
c0 -89 -57 -233 -191 -233c-79 0 -125 42 -125 129zM209 400c0 -12 -6 -43 25 -43c46 0 99 231 99 263c0 17 -11 28 -26 28c-46 0 -98 -242 -98 -248zM804 115c0 72 58 218 194 218c100 0 122 -73 122 -114c0 -89 -57 -233 -191 -233c-79 0 -125 42 -125 129zM900 57
c0 -12 -6 -43 25 -43c46 0 99 231 99 263c0 17 -11 28 -26 28c-46 0 -98 -242 -98 -248zM120 0l549 662h71l-549 -662h-71z" />
    <glyph glyph-name="questiondown" unicode="&#xbf;" horiz-adv-x="448" 
d="M340 218l-50 -167h-24c-1 17 -11 33 -26 33c-25 0 -39 -31 -54 -84c-13 -45 -25 -97 -25 -133c0 -39 11 -65 37 -65c33 0 42 32 48 42c8 13 22 40 50 40c20 0 45 -18 45 -50c0 -42 -53 -80 -127 -80c-133 0 -181 103 -181 180c0 109 86 196 184 196c19 0 33 -3 45 -5
l28 93h50zM283 369c0 42 34 76 76 76c43 0 77 -34 77 -76c0 -43 -34 -77 -77 -77c-42 0 -76 34 -76 77z" />
    <glyph glyph-name="grave" unicode="`" 
d="M349 482h-42l-231 159h200z" />
    <glyph glyph-name="acute" unicode="&#xb4;" 
d="M157 481l73 159h200l-239 -159h-34z" />
    <glyph glyph-name="circumflex" unicode="&#x2c6;" 
d="M245 568l-139 -88h-53l148 171h119l52 -171h-61z" />
    <glyph glyph-name="tilde" unicode="&#x2dc;" 
d="M137 484h-39c-1 35 0 57 9 78c20 47 65 63 95 63c21 0 38 -5 76 -16c47 -14 58 -16 71 -16c36 0 43 28 47 43h38c3 -38 -4 -151 -107 -151c-29 0 -47 5 -100 20c-26 7 -41 10 -53 10c-25 0 -34 -19 -37 -31z" />
    <glyph glyph-name="macron" unicode="&#xaf;" 
d="M50 508l36 108h340l-37 -108h-339z" />
    <glyph glyph-name="breve" unicode="&#x2d8;" 
d="M155 639h35c5 -20 21 -79 85 -79c67 0 92 62 99 79h30c-10 -47 -40 -159 -135 -159c-99 0 -118 112 -114 159z" />
    <glyph glyph-name="dotaccent" unicode="&#x2d9;" 
d="M274 633c38 0 69 -30 69 -69c0 -38 -31 -69 -69 -69s-69 31 -69 69c0 39 31 69 69 69z" />
    <glyph glyph-name="dieresis" unicode="&#xa8;" 
d="M168 633c38 0 69 -30 69 -69c0 -38 -30 -69 -69 -69c-38 0 -69 31 -69 69c0 39 31 69 69 69zM366 633c38 0 69 -30 69 -69c0 -38 -31 -69 -69 -69c-37 0 -69 30 -69 69s32 69 69 69z" />
    <glyph glyph-name="ring" unicode="&#x2da;" 
d="M296 626c-32 0 -57 -26 -57 -58s25 -58 57 -58s58 26 58 58s-26 58 -58 58zM296 663c53 0 96 -42 96 -95s-43 -96 -96 -96s-96 43 -96 96s43 95 96 95z" />
    <glyph glyph-name="cedilla" unicode="&#xb8;" 
d="M60 -113l66 116h57l-27 -45c76 -10 77 -68 77 -77c0 -68 -70 -122 -184 -122c-26 0 -50 3 -64 5l16 50c9 -2 19 -3 34 -3c11 0 86 0 86 45c0 36 -50 32 -61 31z" />
    <glyph glyph-name="hungarumlaut" unicode="&#x2dd;" 
d="M82 481l74 159h200l-239 -159h-35zM309 481l73 159h200l-239 -159h-34z" />
    <glyph glyph-name="ogonek" unicode="&#x2db;" 
d="M106 9h40c-21 -32 -24 -45 -24 -58c0 -33 29 -103 124 -97l10 -27c-21 -11 -50 -26 -90 -26c-60 0 -127 42 -127 110c0 54 41 81 67 98z" />
    <glyph glyph-name="caron" unicode="&#x2c7;" 
d="M265 562l137 87h55l-146 -171h-120l-54 171h64z" />
    <glyph glyph-name="emdash" unicode="&#x2014;" horiz-adv-x="1000" 
d="M41 295h1012v-90h-1012v90z" />
    <glyph glyph-name="AE" unicode="&#xc6;" horiz-adv-x="896" 
d="M433 316h-161l-121 -149c-14 -17 -34 -43 -34 -66c0 -37 39 -47 68 -47l-15 -54h-249l17 54c42 7 93 51 119 84l311 387c10 13 27 35 27 52c0 31 -37 31 -70 31l17 54h601l3 -162h-53c-32 78 -53 108 -140 108h-62l-73 -238c76 1 114 1 141 94h58l-80 -261h-57
c7 25 11 40 11 55c0 56 -41 57 -90 58l-52 -173c-5 -17 -11 -42 -11 -53c0 -43 68 -36 80 -36c58 0 160 6 221 125h54l-54 -179h-576l17 54c68 0 81 25 98 82zM315 370h135l84 275z" />
    <glyph glyph-name="ordfeminine" unicode="&#xaa;" horiz-adv-x="365" 
d="M329 627l11 39h90l-57 -172c-3 -10 -5 -16 -5 -18c0 -6 5 -8 9 -8c14 0 26 15 32 26h36c-9 -23 -26 -43 -46 -56s-43 -21 -66 -21c-8 0 -56 0 -56 49c0 6 1 12 2 19c-36 -46 -77 -68 -107 -68c-23 0 -60 13 -60 67c0 87 79 188 169 188c42 0 45 -26 48 -45zM208 497
c0 -7 2 -24 18 -24c48 0 88 116 88 143c0 15 -6 26 -20 26c-50 0 -86 -118 -86 -145z" />
    <glyph glyph-name="Lslash" unicode="&#x141;" horiz-adv-x="615" 
d="M323 331l-54 -176c-4 -13 -14 -48 -14 -57c0 -45 62 -44 94 -44c54 0 166 -6 230 124h57l-54 -178h-588l17 54c61 0 73 34 87 80l28 92l-115 -64l27 96l117 62l62 202c6 20 10 33 10 41c0 15 -10 45 -65 45l16 54h319l-17 -54c-69 0 -80 -25 -93 -68l-35 -115l148 78
l-28 -94z" />
    <glyph glyph-name="Oslash" unicode="&#xd8;" horiz-adv-x="802" 
d="M264 149l346 420c-12 23 -39 53 -96 53c-166 0 -251 -287 -251 -436c0 -11 0 -20 1 -37zM228 23l-42 -50l-39 34l38 48c-60 53 -93 133 -93 232c0 129 149 389 413 389c72 0 134 -21 161 -38l29 35l41 -35l-27 -30c65 -60 91 -148 91 -221c0 -192 -179 -401 -411 -401
c-83 0 -117 17 -161 37zM284 90c19 -34 57 -50 96 -50c178 0 249 321 249 433c0 18 -1 27 -2 34z" />
    <glyph glyph-name="OE" unicode="&#x152;" horiz-adv-x="1021" 
d="M990 178l-55 -178h-557c-52 0 -147 0 -218 61c-54 47 -82 124 -82 200c0 145 103 260 152 302c87 75 207 99 318 99h493l4 -163h-55c-35 109 -90 109 -144 109h-59l-73 -238c86 0 102 -4 142 94h57l-80 -262h-58c4 16 12 34 12 58c0 51 -29 56 -90 56l-54 -179
c-5 -15 -9 -29 -9 -39c0 -34 32 -44 86 -44c49 0 150 4 215 124h55zM486 159l100 329c5 17 11 35 11 54c0 57 -63 66 -89 66c-158 0 -259 -282 -259 -404c0 -100 44 -150 120 -150c62 0 94 30 117 105z" />
    <glyph glyph-name="ordmasculine" unicode="&#xba;" horiz-adv-x="354" 
d="M110 528c0 55 50 148 180 148c119 0 138 -73 138 -108c0 -76 -70 -151 -183 -151c-27 0 -135 6 -135 111zM204 498c0 -33 13 -53 41 -53c63 0 89 118 89 148c0 40 -19 55 -39 55c-68 0 -91 -131 -91 -150z" />
    <glyph glyph-name="ae" unicode="&#xe6;" horiz-adv-x="708" 
d="M390 343l27 65h90l-33 -73c27 32 66 80 150 80c55 0 100 -24 100 -79c0 -96 -132 -162 -275 -185c-2 -23 -11 -107 58 -107c35 0 86 26 130 76h66c-89 -113 -188 -135 -249 -135c-72 0 -135 28 -154 97c-23 -27 -83 -97 -159 -97c-58 0 -97 50 -97 122
c0 115 115 308 273 308c72 0 72 -57 73 -72zM191 132c0 -20 1 -57 32 -57c45 0 79 60 102 122c23 61 35 124 35 130c0 4 -2 38 -34 38c-74 0 -135 -178 -135 -233zM462 203c86 18 141 89 141 135c0 20 -13 29 -25 29c-25 0 -76 -26 -116 -164z" />
    <glyph glyph-name="dotlessi" unicode="&#x131;" 
d="M277 118h50c-14 -31 -68 -133 -175 -133c-19 0 -92 1 -92 76c0 21 7 40 20 77l57 165c5 15 8 23 8 28c0 9 -8 12 -12 12c-18 0 -43 -37 -58 -63h-47c63 135 157 135 178 135c58 0 86 -31 86 -74c0 -25 -11 -51 -21 -80l-55 -152c-6 -17 -14 -37 -14 -43
c0 -8 8 -12 13 -12c17 0 47 37 62 64z" />
    <glyph glyph-name="lslash" unicode="&#x142;" horiz-adv-x="323" 
d="M266 327l-67 -221c-6 -20 -7 -24 -7 -30c0 -15 15 -16 18 -16c25 0 52 41 60 55h50c-21 -49 -81 -130 -185 -130c-52 0 -90 23 -90 69c0 6 0 21 9 51l32 105l-89 -62l30 104l90 59l70 232c7 22 11 35 11 43c0 13 -13 25 -59 25l16 51c92 0 113 0 172 14h46l-76 -248
l102 71l-29 -103z" />
    <glyph glyph-name="oslash" unicode="&#xf8;" horiz-adv-x="552" 
d="M189 112l188 228c-9 16 -24 29 -47 29c-110 0 -142 -228 -141 -257zM204 57c9 -15 25 -26 49 -26c96 0 138 193 138 251zM158 1l-31 -37l-37 30l24 29c-44 31 -69 79 -69 146c0 91 72 246 279 246c40 0 70 -6 100 -16l32 36l36 -32l-23 -28c60 -47 66 -112 66 -138
c0 -134 -115 -252 -282 -252c-42 0 -80 9 -95 16z" />
    <glyph glyph-name="oe" unicode="&#x153;" horiz-adv-x="781" 
d="M690 122h66c-30 -36 -116 -137 -246 -137c-64 0 -104 24 -119 33c-26 -12 -72 -33 -137 -33c-110 0 -209 49 -209 184c0 91 71 246 275 246c109 0 158 -46 174 -61c53 42 128 61 180 61c57 0 99 -28 99 -77c0 -119 -182 -171 -273 -188c-2 -10 -3 -22 -3 -34
c0 -41 23 -72 57 -72c42 0 101 37 136 78zM512 202c97 26 140 92 140 138c0 17 -12 27 -26 27c-47 0 -102 -92 -114 -165zM189 107c0 -52 27 -76 64 -76c99 0 138 202 138 247c0 56 -23 91 -61 91c-103 0 -141 -206 -141 -262z" />
    <glyph glyph-name="germandbls" unicode="&#xdf;" horiz-adv-x="583" 
d="M315 346l14 43c21 1 64 4 92 34c35 38 50 111 50 139c0 32 -19 70 -61 70c-78 0 -104 -99 -127 -186l-94 -350c-46 -170 -108 -345 -300 -345c-67 0 -105 28 -105 73c0 47 36 68 71 68c12 0 56 -2 65 -52c2 -11 7 -37 26 -37c9 0 23 5 34 28c27 57 49 189 82 319l56 219
c3 13 49 179 124 242c70 58 151 65 187 65c144 0 174 -94 174 -149c0 -88 -70 -149 -161 -163c115 -31 114 -130 114 -148c0 -132 -119 -231 -236 -231c-64 0 -94 40 -94 75c0 32 26 46 43 46c3 0 35 0 35 -44c0 -13 0 -33 20 -33c55 0 87 155 87 212c0 74 -40 104 -96 105z
" />
    <glyph glyph-name="logicalnot" unicode="&#xac;" horiz-adv-x="667" 
d="M109 497h542v-334h-102v232h-440v102z" />
    <glyph glyph-name="mu" unicode="&#xb5;" horiz-adv-x="573" 
d="M137 400h125l-72 -247c-5 -18 -12 -40 -12 -57c0 -34 28 -38 34 -38c43 0 98 57 140 199l42 143h124l-78 -269c-11 -39 -25 -90 10 -90c23 0 47 49 56 69l18 -10c-13 -38 -44 -114 -130 -114c-69 0 -82 55 -82 82c0 12 3 35 5 46c-40 -55 -87 -128 -169 -128
c-50 0 -64 25 -75 43l-8 -25c-11 -34 -24 -99 -25 -140c-1 -43 -5 -113 -63 -113c-29 0 -48 25 -48 52c0 26 16 57 39 95c48 79 48 83 85 212z" />
    <glyph glyph-name="trademark" unicode="&#x2122;" horiz-adv-x="1000" 
d="M46 662h379v-110h-17c-4 85 -68 85 -95 85h-18v-287c0 -51 2 -65 50 -65v-17h-222v17c47 0 50 13 50 67v285h-16c-84 0 -93 -50 -96 -85h-15v110zM479 662h179l113 -242l112 242h169v-18c-48 0 -49 -19 -49 -66v-230c0 -42 4 -63 49 -63v-17h-225v17c46 0 56 7 56 63v251
l-156 -331h-12l-155 331v-250c0 -46 2 -64 56 -64v-17h-137v17c45 0 53 9 53 66v228c0 53 -2 65 -53 65v18z" />
    <glyph glyph-name="Eth" unicode="&#xd0;" horiz-adv-x="760" 
d="M165 360l48 158c4 14 11 36 11 45c0 37 -41 45 -57 45l17 54h253c58 0 135 0 210 -52c67 -46 109 -125 109 -226c0 -122 -56 -238 -154 -310c-77 -56 -163 -74 -296 -74h-311l17 54c58 0 70 35 84 80l51 167h-82l19 59h81zM311 301l-47 -153c-8 -25 -12 -43 -12 -51
c0 -28 33 -43 69 -43c226 0 264 306 264 377c0 62 -15 95 -29 115c-38 54 -74 61 -150 62l-76 -248h126l-18 -59h-127z" />
    <glyph glyph-name="onehalf" unicode="&#xbd;" horiz-adv-x="917" 
d="M803 58l-26 -74h-41c1 4 3 8 3 11s-1 5 -6 5h-177l15 42c26 17 106 75 133 101c22 21 67 62 67 127c0 29 -11 51 -44 51c-30 0 -41 -20 -41 -30c0 -14 18 -18 18 -27c0 -10 -34 -25 -45 -25c-16 0 -29 21 -29 41c0 28 27 71 118 71c111 0 120 -65 120 -83
c0 -50 -47 -101 -98 -135c-34 -22 -82 -55 -118 -75h151zM197 0l550 662h70l-549 -662h-71zM401 676l-96 -273c-12 -33 -7 -47 35 -47l-11 -31h-199l11 31c49 0 49 0 62 36l62 175c16 46 8 49 -31 49h-21l11 29c49 0 123 6 142 31h35z" />
    <glyph glyph-name="plusminus" unicode="&#xb1;" horiz-adv-x="667" 
d="M109 102h542v-102h-542v102zM109 497h220v220h102v-220h220v-102h-220v-220h-102v220h-220v102z" />
    <glyph glyph-name="Thorn" unicode="&#xde;" horiz-adv-x="615" 
d="M485 662l-17 -55c-51 -1 -66 -13 -86 -76l-5 -16c81 -1 141 -1 197 -30c57 -29 82 -88 82 -137c0 -13 0 -104 -96 -159c-71 -41 -156 -42 -207 -42h-89c-3 -12 -11 -38 -11 -47c0 -51 67 -46 73 -46l-17 -54h-311l17 54c48 2 63 21 81 80l121 398c4 13 7 24 7 31
c0 35 -35 45 -66 45l16 54h311zM360 461l-79 -260h47c55 0 90 17 108 35c32 32 53 89 53 133c0 92 -82 92 -109 92h-20z" />
    <glyph glyph-name="onequarter" unicode="&#xbc;" horiz-adv-x="917" 
d="M651 114h-110l11 58l203 181h75l-71 -202c14 0 19 1 28 26h39l-24 -63h-56l-16 -46c-2 -6 -4 -14 -4 -16c0 -21 23 -21 42 -21l-11 -31h-191l11 31c41 0 43 0 57 37zM197 0l550 662h70l-549 -662h-71zM581 151h82l41 111zM401 676l-96 -273c-3 -8 -7 -17 -7 -27
c0 -20 22 -20 42 -20l-11 -31h-199l11 31c49 0 49 0 62 36l62 175c5 14 9 27 9 34c0 15 -18 15 -40 15h-21l11 29c57 0 128 11 142 31h35z" />
    <glyph glyph-name="divide" unicode="&#xf7;" horiz-adv-x="667" 
d="M441 125c0 -34 -28 -61 -61 -61c-34 0 -61 27 -61 61c0 33 27 61 61 61c33 0 61 -28 61 -61zM441 535c0 -34 -28 -61 -61 -61c-34 0 -61 27 -61 61c0 33 27 61 61 61c33 0 61 -28 61 -61zM109 381h542v-102h-542v102z" />
    <glyph glyph-name="brokenbar" unicode="&#xa6;" horiz-adv-x="583" 
d="M295 150h129v-386h-129v386zM295 662h129v-386h-129v386z" />
    <glyph glyph-name="degree" unicode="&#xb0;" horiz-adv-x="396" 
d="M255 600c57 0 103 -46 103 -103s-46 -103 -103 -103s-103 46 -103 103s46 103 103 103zM255 676c-99 0 -179 -80 -179 -179s80 -179 179 -179s179 80 179 179s-80 179 -179 179z" />
    <glyph glyph-name="thorn" unicode="&#xfe;" horiz-adv-x="583" 
d="M171 608l17 54c102 0 128 0 179 14h46l-102 -328c13 19 63 67 136 67c104 0 114 -113 114 -148c0 -151 -112 -283 -239 -283c-65 0 -92 32 -106 48l-43 -142c-4 -14 -13 -39 -13 -50c0 -29 41 -29 59 -29h25l-14 -48h-317l15 48c62 0 76 3 98 75l198 647
c6 18 11 39 11 45c0 21 -15 30 -64 30zM242 95c0 -46 27 -57 45 -57c89 0 130 228 130 260c0 30 -18 45 -35 45c-90 0 -140 -228 -140 -248z" />
    <glyph glyph-name="threequarters" unicode="&#xbe;" horiz-adv-x="917" 
d="M651 114h-110l11 58l203 181h75l-71 -202c14 0 19 1 28 26h39l-24 -63h-56l-16 -46c-2 -6 -4 -14 -4 -16c0 -21 23 -21 42 -21l-11 -31h-191l11 31c41 0 43 0 57 37zM197 0l550 662h70l-549 -662h-71zM581 151h82l41 111zM319 517c34 -7 64 -28 64 -70
c0 -84 -107 -130 -176 -130c-49 0 -96 19 -96 50c0 15 10 32 33 32c24 0 33 -15 38 -24c8 -15 18 -28 34 -28c37 0 75 95 75 137c0 4 0 15 -7 15c-5 0 -15 -5 -26 -12c-6 -4 -18 -13 -30 -13c-8 0 -19 5 -19 15s5 13 48 35c57 29 86 44 86 82c0 21 -16 40 -36 40
c-19 0 -35 -18 -35 -34c0 -4 3 -13 3 -19c0 -4 -27 -25 -38 -25c-9 0 -26 13 -26 36c0 37 36 72 115 72c75 0 104 -34 104 -60c0 -54 -83 -89 -111 -99z" />
    <glyph glyph-name="registered" unicode="&#xae;" horiz-adv-x="750" 
d="M237 529h177c25 0 173 9 173 -107c0 -12 0 -77 -87 -101l67 -122c15 -28 30 -44 51 -48v-17h-118l-100 180h-23v-97c0 -53 7 -64 59 -66v-17h-207v17c32 -1 51 2 51 66v231c0 51 -6 61 -43 64v17zM377 508v-169c7 -1 18 -2 26 -2c37 0 79 26 79 87c0 84 -67 84 -86 84
h-19zM422 674c190 0 347 -153 347 -346c0 -191 -156 -346 -347 -346s-346 155 -346 346c0 193 157 346 346 346zM422 631c-165 0 -302 -134 -302 -303c0 -167 135 -303 302 -303s303 136 303 303c0 169 -137 303 -303 303z" />
    <glyph glyph-name="minus" unicode="&#x2212;" horiz-adv-x="667" 
d="M109 381h542v-102h-542v102z" />
    <glyph glyph-name="eth" unicode="&#xf0;" horiz-adv-x="542" 
d="M440 600l73 30l21 -42l-72 -28c47 -77 73 -165 73 -256c0 -149 -77 -319 -287 -319c-152 0 -203 113 -203 183c0 90 83 247 260 247c36 0 78 -14 94 -28c2 17 3 26 3 35c0 27 -6 69 -21 105l-96 -37l-17 43l97 38c-7 16 -14 34 -41 76l57 29c25 -27 28 -32 59 -76z
M189 107c0 -52 27 -76 64 -76c99 0 138 202 138 247c0 56 -23 91 -61 91c-103 0 -141 -206 -141 -262z" />
    <glyph glyph-name="multiply" unicode="&#xd7;" horiz-adv-x="667" 
d="M125 513l72 72l184 -184l184 184l72 -72l-184 -184l183 -183l-72 -71l-183 182l-182 -182l-72 71l182 183z" />
    <glyph glyph-name="copyright" unicode="&#xa9;" horiz-adv-x="750" 
d="M586 537v-129h-19c-18 93 -92 106 -120 106c-110 0 -126 -117 -126 -178c0 -65 11 -110 28 -132c16 -21 46 -51 96 -51c72 0 113 50 127 68v-35c-40 -42 -97 -62 -155 -62c-103 0 -206 65 -206 199c0 132 99 215 215 215c62 0 101 -26 119 -26c19 0 21 18 22 25h19z
M422 674c190 0 347 -153 347 -346c0 -191 -156 -346 -347 -346s-346 155 -346 346c0 193 157 346 346 346zM422 631c-165 0 -302 -134 -302 -303c0 -167 135 -303 302 -303s303 136 303 303c0 169 -137 303 -303 303z" />
    <glyph glyph-name="Aacute" unicode="&#xc1;" horiz-adv-x="677" 
d="M417 232h-200l-37 -54c-18 -26 -36 -51 -36 -73c0 -45 47 -50 66 -51l-16 -54h-235l16 54c43 7 72 32 126 107l373 515h100v-537c0 -52 0 -85 80 -85l-16 -54h-327l16 54c77 3 90 32 90 109v69zM256 286h161v224zM409 716l73 159h200l-239 -159h-34z" />
    <glyph glyph-name="Acircumflex" unicode="&#xc2;" horiz-adv-x="677" 
d="M417 232h-200l-37 -54c-18 -26 -36 -51 -36 -73c0 -45 47 -50 66 -51l-16 -54h-235l16 54c43 7 72 32 126 107l373 515h100v-537c0 -52 0 -85 80 -85l-16 -54h-327l16 54c77 3 90 32 90 109v69zM256 286h161v224zM542 803l-139 -88h-53l148 171h119l52 -171h-61z" />
    <glyph glyph-name="Adieresis" unicode="&#xc4;" horiz-adv-x="677" 
d="M417 232h-200l-37 -54c-18 -26 -36 -51 -36 -73c0 -45 47 -50 66 -51l-16 -54h-235l16 54c43 7 72 32 126 107l373 515h100v-537c0 -52 0 -85 80 -85l-16 -54h-327l16 54c77 3 90 32 90 109v69zM256 286h161v224zM420 868c38 0 69 -30 69 -69c0 -38 -30 -69 -69 -69
c-38 0 -69 31 -69 69c0 39 31 69 69 69zM618 868c38 0 69 -30 69 -69c0 -38 -31 -69 -69 -69c-37 0 -69 30 -69 69s32 69 69 69z" />
    <glyph glyph-name="Agrave" unicode="&#xc0;" horiz-adv-x="677" 
d="M417 232h-200l-37 -54c-18 -26 -36 -51 -36 -73c0 -45 47 -50 66 -51l-16 -54h-235l16 54c43 7 72 32 126 107l373 515h100v-537c0 -52 0 -85 80 -85l-16 -54h-327l16 54c77 3 90 32 90 109v69zM256 286h161v224zM596 717h-42l-231 159h200z" />
    <glyph glyph-name="Aring" unicode="&#xc5;" horiz-adv-x="677" 
d="M417 232h-200l-37 -54c-18 -26 -36 -51 -36 -73c0 -45 47 -50 66 -51l-16 -54h-235l16 54c43 7 72 32 126 107l373 515h100v-537c0 -52 0 -85 80 -85l-16 -54h-327l16 54c77 3 90 32 90 109v69zM256 286h161v224zM538 861c-32 0 -57 -26 -57 -58s25 -58 57 -58
s58 26 58 58s-26 58 -58 58zM538 898c53 0 96 -42 96 -95s-43 -96 -96 -96s-96 43 -96 96s43 95 96 95z" />
    <glyph glyph-name="Atilde" unicode="&#xc3;" horiz-adv-x="677" 
d="M417 232h-200l-37 -54c-18 -26 -36 -51 -36 -73c0 -45 47 -50 66 -51l-16 -54h-235l16 54c43 7 72 32 126 107l373 515h100v-537c0 -52 0 -85 80 -85l-16 -54h-327l16 54c77 3 90 32 90 109v69zM256 286h161v224zM389 719h-39c-1 35 0 57 9 78c20 47 65 63 95 63
c21 0 38 -5 76 -16c47 -14 58 -16 71 -16c36 0 43 28 47 43h38c3 -38 -4 -151 -107 -151c-29 0 -47 5 -100 20c-26 7 -41 10 -53 10c-25 0 -34 -19 -37 -31z" />
    <glyph glyph-name="Ccedilla" unicode="&#xc7;" horiz-adv-x="708" 
d="M374 -12l-14 -30c51 -5 81 -38 81 -79c0 -78 -86 -126 -182 -126c-34 0 -71 6 -85 9l18 53c9 -2 22 -4 41 -4c13 0 73 2 73 45c0 32 -38 29 -46 29l55 104c-113 10 -225 96 -225 259c0 216 179 428 407 428c22 0 118 -4 183 -85c12 17 30 47 39 66h49l-49 -227h-51
c5 129 -67 192 -144 192c-163 0 -263 -273 -263 -425c0 -80 37 -157 120 -157c129 0 203 144 224 184h57l-67 -218h-47l3 70c-65 -70 -135 -90 -177 -88z" />
    <glyph glyph-name="Eacute" unicode="&#xc9;" horiz-adv-x="656" 
d="M621 180l-55 -180h-564l16 54c33 3 56 6 79 80l116 381c3 9 12 39 12 48c0 36 -40 45 -55 45l17 54h485l4 -163h-55c-32 91 -64 109 -151 109h-63l-74 -238h33c79 0 94 17 121 94h57l-80 -261h-57c7 26 11 41 11 56c0 36 -18 57 -80 57h-21l-50 -163
c-4 -12 -13 -37 -13 -52c0 -38 37 -47 88 -47c63 0 167 6 224 126h55zM389 716l73 159h200l-239 -159h-34z" />
    <glyph glyph-name="Ecircumflex" unicode="&#xca;" horiz-adv-x="656" 
d="M621 180l-55 -180h-564l16 54c33 3 56 6 79 80l116 381c3 9 12 39 12 48c0 36 -40 45 -55 45l17 54h485l4 -163h-55c-32 91 -64 109 -151 109h-63l-74 -238h33c79 0 94 17 121 94h57l-80 -261h-57c7 26 11 41 11 56c0 36 -18 57 -80 57h-21l-50 -163
c-4 -12 -13 -37 -13 -52c0 -38 37 -47 88 -47c63 0 167 6 224 126h55zM487 803l-139 -88h-53l148 171h119l52 -171h-61z" />
    <glyph glyph-name="Edieresis" unicode="&#xcb;" horiz-adv-x="656" 
d="M621 180l-55 -180h-564l16 54c33 3 56 6 79 80l116 381c3 9 12 39 12 48c0 36 -40 45 -55 45l17 54h485l4 -163h-55c-32 91 -64 109 -151 109h-63l-74 -238h33c79 0 94 17 121 94h57l-80 -261h-57c7 26 11 41 11 56c0 36 -18 57 -80 57h-21l-50 -163
c-4 -12 -13 -37 -13 -52c0 -38 37 -47 88 -47c63 0 167 6 224 126h55zM385 868c38 0 69 -30 69 -69c0 -38 -30 -69 -69 -69c-38 0 -69 31 -69 69c0 39 31 69 69 69zM583 868c38 0 69 -30 69 -69c0 -38 -31 -69 -69 -69c-37 0 -69 30 -69 69s32 69 69 69z" />
    <glyph glyph-name="Egrave" unicode="&#xc8;" horiz-adv-x="656" 
d="M621 180l-55 -180h-564l16 54c33 3 56 6 79 80l116 381c3 9 12 39 12 48c0 36 -40 45 -55 45l17 54h485l4 -163h-55c-32 91 -64 109 -151 109h-63l-74 -238h33c79 0 94 17 121 94h57l-80 -261h-57c7 26 11 41 11 56c0 36 -18 57 -80 57h-21l-50 -163
c-4 -12 -13 -37 -13 -52c0 -38 37 -47 88 -47c63 0 167 6 224 126h55zM591 717h-42l-231 159h200z" />
    <glyph glyph-name="Iacute" unicode="&#xcd;" horiz-adv-x="396" 
d="M318 54l-16 -54h-298l15 54c45 6 58 11 80 81l117 381c4 14 11 39 11 47c0 32 -33 45 -56 45l17 54h280l-17 -54c-44 -4 -58 -48 -63 -65l-118 -386c-4 -13 -14 -48 -14 -57c0 -31 34 -46 62 -46zM259 716l73 159h200l-239 -159h-34z" />
    <glyph glyph-name="Icircumflex" unicode="&#xce;" horiz-adv-x="396" 
d="M318 54l-16 -54h-298l15 54c45 6 58 11 80 81l117 381c4 14 11 39 11 47c0 32 -33 45 -56 45l17 54h280l-17 -54c-44 -4 -58 -48 -63 -65l-118 -386c-4 -13 -14 -48 -14 -57c0 -31 34 -46 62 -46zM362 803l-139 -88h-53l148 171h119l52 -171h-61z" />
    <glyph glyph-name="Idieresis" unicode="&#xcf;" horiz-adv-x="396" 
d="M318 54l-16 -54h-298l15 54c45 6 58 11 80 81l117 381c4 14 11 39 11 47c0 32 -33 45 -56 45l17 54h280l-17 -54c-44 -4 -58 -48 -63 -65l-118 -386c-4 -13 -14 -48 -14 -57c0 -31 34 -46 62 -46zM265 868c38 0 69 -30 69 -69c0 -38 -30 -69 -69 -69c-38 0 -69 31 -69 69
c0 39 31 69 69 69zM463 868c38 0 69 -30 69 -69c0 -38 -31 -69 -69 -69c-37 0 -69 30 -69 69s32 69 69 69z" />
    <glyph glyph-name="Igrave" unicode="&#xcc;" horiz-adv-x="396" 
d="M318 54l-16 -54h-298l15 54c45 6 58 11 80 81l117 381c4 14 11 39 11 47c0 32 -33 45 -56 45l17 54h280l-17 -54c-44 -4 -58 -48 -63 -65l-118 -386c-4 -13 -14 -48 -14 -57c0 -31 34 -46 62 -46zM466 717h-42l-231 159h200z" />
    <glyph glyph-name="Ntilde" unicode="&#xd1;" horiz-adv-x="750" 
d="M263 477l-99 -323c-3 -11 -8 -36 -8 -45c0 -49 62 -54 76 -55l-17 -54h-226l17 54c69 9 87 68 104 124l116 381c-10 24 -23 49 -79 49h-16l16 54h202l228 -469l96 315c6 21 8 33 8 42c0 51 -52 56 -77 58l17 54h229l-17 -54c-35 -8 -73 -18 -98 -101l-158 -514h-75z
M416 719h-39c-1 35 0 57 9 78c20 47 65 63 95 63c21 0 38 -5 76 -16c47 -14 58 -16 71 -16c36 0 43 28 47 43h38c3 -38 -4 -151 -107 -151c-29 0 -47 5 -100 20c-26 7 -41 10 -53 10c-25 0 -34 -19 -37 -31z" />
    <glyph glyph-name="Oacute" unicode="&#xd3;" horiz-adv-x="802" 
d="M92 287c0 129 147 389 413 389c231 0 295 -174 295 -289c0 -192 -181 -401 -411 -401c-237 0 -297 178 -297 301zM263 186c0 -107 54 -146 117 -146c178 0 249 320 249 433c0 35 0 149 -115 149c-166 0 -251 -292 -251 -436zM462 716l73 159h200l-239 -159h-34z" />
    <glyph glyph-name="Ocircumflex" unicode="&#xd4;" horiz-adv-x="802" 
d="M92 287c0 129 147 389 413 389c231 0 295 -174 295 -289c0 -192 -181 -401 -411 -401c-237 0 -297 178 -297 301zM263 186c0 -107 54 -146 117 -146c178 0 249 320 249 433c0 35 0 149 -115 149c-166 0 -251 -292 -251 -436zM555 803l-139 -88h-53l148 171h119l52 -171
h-61z" />
    <glyph glyph-name="Odieresis" unicode="&#xd6;" horiz-adv-x="802" 
d="M92 287c0 129 147 389 413 389c231 0 295 -174 295 -289c0 -192 -181 -401 -411 -401c-237 0 -297 178 -297 301zM263 186c0 -107 54 -146 117 -146c178 0 249 320 249 433c0 35 0 149 -115 149c-166 0 -251 -292 -251 -436zM463 868c38 0 69 -30 69 -69
c0 -38 -30 -69 -69 -69c-38 0 -69 31 -69 69c0 39 31 69 69 69zM661 868c38 0 69 -30 69 -69c0 -38 -31 -69 -69 -69c-37 0 -69 30 -69 69s32 69 69 69z" />
    <glyph glyph-name="Ograve" unicode="&#xd2;" horiz-adv-x="802" 
d="M92 287c0 129 147 389 413 389c231 0 295 -174 295 -289c0 -192 -181 -401 -411 -401c-237 0 -297 178 -297 301zM263 186c0 -107 54 -146 117 -146c178 0 249 320 249 433c0 35 0 149 -115 149c-166 0 -251 -292 -251 -436zM654 717h-42l-231 159h200z" />
    <glyph glyph-name="Otilde" unicode="&#xd5;" horiz-adv-x="802" 
d="M92 287c0 129 147 389 413 389c231 0 295 -174 295 -289c0 -192 -181 -401 -411 -401c-237 0 -297 178 -297 301zM263 186c0 -107 54 -146 117 -146c178 0 249 320 249 433c0 35 0 149 -115 149c-166 0 -251 -292 -251 -436zM432 719h-39c-1 35 0 57 9 78
c20 47 65 63 95 63c21 0 38 -5 76 -16c47 -14 58 -16 71 -16c36 0 43 28 47 43h38c3 -38 -4 -151 -107 -151c-29 0 -47 5 -100 20c-26 7 -41 10 -53 10c-25 0 -34 -19 -37 -31z" />
    <glyph glyph-name="Scaron" unicode="&#x160;" horiz-adv-x="542" 
d="M24 5l29 230h54c12 -163 121 -190 160 -190c48 0 93 40 93 91c0 46 -35 85 -95 138c-68 60 -120 114 -120 199c0 131 113 203 210 203c14 0 89 0 147 -68c11 12 26 33 33 54h54l-29 -198h-52c-13 74 -54 158 -149 158c-37 0 -87 -26 -87 -82c0 -45 25 -80 93 -138
c73 -62 132 -115 132 -217c0 -95 -72 -199 -211 -199c-101 0 -153 54 -174 75c-16 -19 -24 -31 -33 -56h-55zM415 797l137 87h55l-146 -171h-120l-54 171h64z" />
    <glyph glyph-name="Uacute" unicode="&#xda;" horiz-adv-x="729" 
d="M583 608l16 54h239l-16 -54c-81 -9 -99 -69 -108 -101l-91 -306c-46 -155 -144 -215 -281 -215c-149 0 -241 71 -241 175c0 39 7 61 22 109l82 268c4 13 5 19 5 25c0 35 -37 45 -63 45l17 54h318l-17 -54c-69 0 -82 -22 -96 -68l-96 -317c-8 -27 -17 -54 -17 -80
c0 -76 70 -97 120 -97c109 0 165 78 192 172l82 289c5 19 9 32 9 43c0 51 -54 56 -76 58zM435 716l73 159h200l-239 -159h-34z" />
    <glyph glyph-name="Ucircumflex" unicode="&#xdb;" horiz-adv-x="729" 
d="M583 608l16 54h239l-16 -54c-81 -9 -99 -69 -108 -101l-91 -306c-46 -155 -144 -215 -281 -215c-149 0 -241 71 -241 175c0 39 7 61 22 109l82 268c4 13 5 19 5 25c0 35 -37 45 -63 45l17 54h318l-17 -54c-69 0 -82 -22 -96 -68l-96 -317c-8 -27 -17 -54 -17 -80
c0 -76 70 -97 120 -97c109 0 165 78 192 172l82 289c5 19 9 32 9 43c0 51 -54 56 -76 58zM538 803l-139 -88h-53l148 171h119l52 -171h-61z" />
    <glyph glyph-name="Udieresis" unicode="&#xdc;" horiz-adv-x="729" 
d="M583 608l16 54h239l-16 -54c-81 -9 -99 -69 -108 -101l-91 -306c-46 -155 -144 -215 -281 -215c-149 0 -241 71 -241 175c0 39 7 61 22 109l82 268c4 13 5 19 5 25c0 35 -37 45 -63 45l17 54h318l-17 -54c-69 0 -82 -22 -96 -68l-96 -317c-8 -27 -17 -54 -17 -80
c0 -76 70 -97 120 -97c109 0 165 78 192 172l82 289c5 19 9 32 9 43c0 51 -54 56 -76 58zM436 868c38 0 69 -30 69 -69c0 -38 -30 -69 -69 -69c-38 0 -69 31 -69 69c0 39 31 69 69 69zM634 868c38 0 69 -30 69 -69c0 -38 -31 -69 -69 -69c-37 0 -69 30 -69 69s32 69 69 69z
" />
    <glyph glyph-name="Ugrave" unicode="&#xd9;" horiz-adv-x="729" 
d="M583 608l16 54h239l-16 -54c-81 -9 -99 -69 -108 -101l-91 -306c-46 -155 -144 -215 -281 -215c-149 0 -241 71 -241 175c0 39 7 61 22 109l82 268c4 13 5 19 5 25c0 35 -37 45 -63 45l17 54h318l-17 -54c-69 0 -82 -22 -96 -68l-96 -317c-8 -27 -17 -54 -17 -80
c0 -76 70 -97 120 -97c109 0 165 78 192 172l82 289c5 19 9 32 9 43c0 51 -54 56 -76 58zM607 717h-42l-231 159h200z" />
    <glyph glyph-name="Yacute" unicode="&#xdd;" horiz-adv-x="615" 
d="M277 287l-66 236c-20 70 -24 85 -92 85l16 54h311l-17 -54c-23 -2 -62 -5 -62 -41c0 -14 6 -35 9 -48l45 -169l109 150c24 33 29 54 29 67c0 33 -39 41 -59 41l16 54h241l-16 -54c-58 2 -82 -27 -144 -111l-151 -204l-45 -147c-3 -11 -11 -35 -11 -47
c0 -35 31 -45 83 -45l-17 -54h-345l16 54c80 0 89 33 104 82zM378 716l73 159h200l-239 -159h-34z" />
    <glyph glyph-name="Ydieresis" unicode="&#x178;" horiz-adv-x="615" 
d="M277 287l-66 236c-20 70 -24 85 -92 85l16 54h311l-17 -54c-23 -2 -62 -5 -62 -41c0 -14 6 -35 9 -48l45 -169l109 150c24 33 29 54 29 67c0 33 -39 41 -59 41l16 54h241l-16 -54c-58 2 -82 -27 -144 -111l-151 -204l-45 -147c-3 -11 -11 -35 -11 -47
c0 -35 31 -45 83 -45l-17 -54h-345l16 54c80 0 89 33 104 82zM389 868c38 0 69 -30 69 -69c0 -38 -30 -69 -69 -69c-38 0 -69 31 -69 69c0 39 31 69 69 69zM587 868c38 0 69 -30 69 -69c0 -38 -31 -69 -69 -69c-37 0 -69 30 -69 69s32 69 69 69z" />
    <glyph glyph-name="Zcaron" unicode="&#x17d;" horiz-adv-x="646" 
d="M13 0v48l477 560h-130c-102 0 -154 -45 -198 -123h-54l54 177h539v-46l-480 -562h143c135 0 185 89 216 142h53l-60 -196h-560zM442 801l137 87h55l-146 -171h-120l-54 171h64z" />
    <glyph glyph-name="aacute" unicode="&#xe1;" horiz-adv-x="563" 
d="M378 335l17 65h140l-88 -288c-4 -12 -8 -26 -8 -30c0 -10 7 -14 13 -14c21 0 39 25 50 45h54c-35 -91 -110 -128 -171 -128c-20 0 -86 5 -86 81c0 11 2 23 4 32c-53 -73 -117 -113 -167 -113c-31 0 -90 19 -90 110c0 144 116 313 261 313c57 0 67 -38 71 -73zM193 117
c0 -25 10 -39 28 -39c36 0 70 48 94 102s41 113 41 136c0 27 -11 44 -31 44c-78 0 -132 -199 -132 -243zM272 473l73 159h200l-239 -159h-34z" />
    <glyph glyph-name="acircumflex" unicode="&#xe2;" horiz-adv-x="563" 
d="M378 335l17 65h140l-88 -288c-4 -12 -8 -26 -8 -30c0 -10 7 -14 13 -14c21 0 39 25 50 45h54c-35 -91 -110 -128 -171 -128c-20 0 -86 5 -86 81c0 11 2 23 4 32c-53 -73 -117 -113 -167 -113c-31 0 -90 19 -90 110c0 144 116 313 261 313c57 0 67 -38 71 -73zM193 117
c0 -25 10 -39 28 -39c36 0 70 48 94 102s41 113 41 136c0 27 -11 44 -31 44c-78 0 -132 -199 -132 -243zM380 560l-139 -88h-53l148 171h119l52 -171h-61z" />
    <glyph glyph-name="adieresis" unicode="&#xe4;" horiz-adv-x="563" 
d="M378 335l17 65h140l-88 -288c-4 -12 -8 -26 -8 -30c0 -10 7 -14 13 -14c21 0 39 25 50 45h54c-35 -91 -110 -128 -171 -128c-20 0 -86 5 -86 81c0 11 2 23 4 32c-53 -73 -117 -113 -167 -113c-31 0 -90 19 -90 110c0 144 116 313 261 313c57 0 67 -38 71 -73zM193 117
c0 -25 10 -39 28 -39c36 0 70 48 94 102s41 113 41 136c0 27 -11 44 -31 44c-78 0 -132 -199 -132 -243zM283 625c38 0 69 -30 69 -69c0 -38 -30 -69 -69 -69c-38 0 -69 31 -69 69c0 39 31 69 69 69zM481 625c38 0 69 -30 69 -69c0 -38 -31 -69 -69 -69c-37 0 -69 30 -69 69
s32 69 69 69z" />
    <glyph glyph-name="agrave" unicode="&#xe0;" horiz-adv-x="563" 
d="M378 335l17 65h140l-88 -288c-4 -12 -8 -26 -8 -30c0 -10 7 -14 13 -14c21 0 39 25 50 45h54c-35 -91 -110 -128 -171 -128c-20 0 -86 5 -86 81c0 11 2 23 4 32c-53 -73 -117 -113 -167 -113c-31 0 -90 19 -90 110c0 144 116 313 261 313c57 0 67 -38 71 -73zM193 117
c0 -25 10 -39 28 -39c36 0 70 48 94 102s41 113 41 136c0 27 -11 44 -31 44c-78 0 -132 -199 -132 -243zM464 474h-42l-231 159h200z" />
    <glyph glyph-name="aring" unicode="&#xe5;" horiz-adv-x="563" 
d="M378 335l17 65h140l-88 -288c-4 -12 -8 -26 -8 -30c0 -10 7 -14 13 -14c21 0 39 25 50 45h54c-35 -91 -110 -128 -171 -128c-20 0 -86 5 -86 81c0 11 2 23 4 32c-53 -73 -117 -113 -167 -113c-31 0 -90 19 -90 110c0 144 116 313 261 313c57 0 67 -38 71 -73zM193 117
c0 -25 10 -39 28 -39c36 0 70 48 94 102s41 113 41 136c0 27 -11 44 -31 44c-78 0 -132 -199 -132 -243zM381 618c-32 0 -57 -26 -57 -58s25 -58 57 -58s58 26 58 58s-26 58 -58 58zM381 655c53 0 96 -42 96 -95s-43 -96 -96 -96s-96 43 -96 96s43 95 96 95z" />
    <glyph glyph-name="atilde" unicode="&#xe3;" horiz-adv-x="563" 
d="M378 335l17 65h140l-88 -288c-4 -12 -8 -26 -8 -30c0 -10 7 -14 13 -14c21 0 39 25 50 45h54c-35 -91 -110 -128 -171 -128c-20 0 -86 5 -86 81c0 11 2 23 4 32c-53 -73 -117 -113 -167 -113c-31 0 -90 19 -90 110c0 144 116 313 261 313c57 0 67 -38 71 -73zM193 117
c0 -25 10 -39 28 -39c36 0 70 48 94 102s41 113 41 136c0 27 -11 44 -31 44c-78 0 -132 -199 -132 -243zM252 476h-39c-1 35 0 57 9 78c20 47 65 63 95 63c21 0 38 -5 76 -16c47 -14 58 -16 71 -16c36 0 43 28 47 43h38c3 -38 -4 -151 -107 -151c-29 0 -47 5 -100 20
c-26 7 -41 10 -53 10c-25 0 -34 -19 -37 -31z" />
    <glyph glyph-name="ccedilla" unicode="&#xe7;" horiz-adv-x="490" 
d="M214 -15l-17 -27c44 -6 72 -29 72 -74c0 -127 -182 -120 -233 -118l18 45c108 -3 126 31 126 49c0 22 -22 33 -47 33c-13 0 -26 -2 -36 -4l64 100c-36 10 -118 26 -118 130c0 135 141 296 310 296c117 0 130 -70 130 -97c0 -28 -15 -77 -66 -77c-28 0 -58 18 -58 57
c0 11 2 19 4 25c2 7 4 12 4 20c0 17 -18 24 -34 24c-94 0 -138 -206 -138 -245c0 -49 22 -78 66 -78c67 0 120 55 139 76h65c-19 -28 -103 -135 -251 -135z" />
    <glyph glyph-name="eacute" unicode="&#xe9;" horiz-adv-x="490" 
d="M390 121h65c-50 -73 -144 -136 -259 -136c-104 0 -163 43 -163 128c0 141 162 302 334 302c19 0 107 0 107 -79c0 -97 -138 -164 -285 -185c-2 -9 -4 -17 -4 -30c0 -51 23 -77 66 -77c8 0 67 -1 139 77zM200 202c85 13 153 85 153 135c0 29 -22 30 -29 30
c-40 0 -88 -47 -124 -165zM236 473l73 159h200l-239 -159h-34z" />
    <glyph glyph-name="ecircumflex" unicode="&#xea;" horiz-adv-x="490" 
d="M390 121h65c-50 -73 -144 -136 -259 -136c-104 0 -163 43 -163 128c0 141 162 302 334 302c19 0 107 0 107 -79c0 -97 -138 -164 -285 -185c-2 -9 -4 -17 -4 -30c0 -51 23 -77 66 -77c8 0 67 -1 139 77zM200 202c85 13 153 85 153 135c0 29 -22 30 -29 30
c-40 0 -88 -47 -124 -165zM344 560l-139 -88h-53l148 171h119l52 -171h-61z" />
    <glyph glyph-name="edieresis" unicode="&#xeb;" horiz-adv-x="490" 
d="M390 121h65c-50 -73 -144 -136 -259 -136c-104 0 -163 43 -163 128c0 141 162 302 334 302c19 0 107 0 107 -79c0 -97 -138 -164 -285 -185c-2 -9 -4 -17 -4 -30c0 -51 23 -77 66 -77c8 0 67 -1 139 77zM200 202c85 13 153 85 153 135c0 29 -22 30 -29 30
c-40 0 -88 -47 -124 -165zM247 633c38 0 69 -30 69 -69c0 -38 -30 -69 -69 -69c-38 0 -69 31 -69 69c0 39 31 69 69 69zM445 633c38 0 69 -30 69 -69c0 -38 -31 -69 -69 -69c-37 0 -69 30 -69 69s32 69 69 69z" />
    <glyph glyph-name="egrave" unicode="&#xe8;" horiz-adv-x="490" 
d="M390 121h65c-50 -73 -144 -136 -259 -136c-104 0 -163 43 -163 128c0 141 162 302 334 302c19 0 107 0 107 -79c0 -97 -138 -164 -285 -185c-2 -9 -4 -17 -4 -30c0 -51 23 -77 66 -77c8 0 67 -1 139 77zM200 202c85 13 153 85 153 135c0 29 -22 30 -29 30
c-40 0 -88 -47 -124 -165zM428 482h-42l-231 159h200z" />
    <glyph glyph-name="iacute" unicode="&#xed;" 
d="M277 118h50c-14 -31 -68 -133 -175 -133c-19 0 -92 1 -92 76c0 21 7 40 20 77l57 165c5 15 8 23 8 28c0 9 -8 12 -12 12c-18 0 -43 -37 -58 -63h-47c63 135 157 135 178 135c58 0 86 -31 86 -74c0 -25 -11 -51 -21 -80l-55 -152c-6 -17 -14 -37 -14 -43
c0 -8 8 -12 13 -12c17 0 47 37 62 64zM157 481l73 159h200l-239 -159h-34z" />
    <glyph glyph-name="icircumflex" unicode="&#xee;" 
d="M277 118h50c-14 -31 -68 -133 -175 -133c-19 0 -92 1 -92 76c0 21 7 40 20 77l57 165c5 15 8 23 8 28c0 9 -8 12 -12 12c-18 0 -43 -37 -58 -63h-47c63 135 157 135 178 135c58 0 86 -31 86 -74c0 -25 -11 -51 -21 -80l-55 -152c-6 -17 -14 -37 -14 -43
c0 -8 8 -12 13 -12c17 0 47 37 62 64zM245 568l-139 -88h-53l148 171h119l52 -171h-61z" />
    <glyph glyph-name="idieresis" unicode="&#xef;" 
d="M277 118h50c-14 -31 -68 -133 -175 -133c-19 0 -92 1 -92 76c0 21 7 40 20 77l57 165c5 15 8 23 8 28c0 9 -8 12 -12 12c-18 0 -43 -37 -58 -63h-47c63 135 157 135 178 135c58 0 86 -31 86 -74c0 -25 -11 -51 -21 -80l-55 -152c-6 -17 -14 -37 -14 -43
c0 -8 8 -12 13 -12c17 0 47 37 62 64zM168 633c38 0 69 -30 69 -69c0 -38 -30 -69 -69 -69c-38 0 -69 31 -69 69c0 39 31 69 69 69zM366 633c38 0 69 -30 69 -69c0 -38 -31 -69 -69 -69c-37 0 -69 30 -69 69s32 69 69 69z" />
    <glyph glyph-name="igrave" unicode="&#xec;" 
d="M277 118h50c-14 -31 -68 -133 -175 -133c-19 0 -92 1 -92 76c0 21 7 40 20 77l57 165c5 15 8 23 8 28c0 9 -8 12 -12 12c-18 0 -43 -37 -58 -63h-47c63 135 157 135 178 135c58 0 86 -31 86 -74c0 -25 -11 -51 -21 -80l-55 -152c-6 -17 -14 -37 -14 -43
c0 -8 8 -12 13 -12c17 0 47 37 62 64zM349 482h-42l-231 159h200z" />
    <glyph glyph-name="ntilde" unicode="&#xf1;" horiz-adv-x="604" 
d="M40 0l89 291c6 21 12 37 12 45c0 7 -5 13 -14 13c-30 0 -55 -55 -62 -71h-40c12 31 54 137 167 137c55 0 82 -29 82 -70c0 -26 -14 -84 -28 -132c75 134 153 202 229 202c33 0 75 -21 75 -69c0 -18 -5 -33 -10 -51l-49 -164c-10 -32 -15 -48 -15 -55c0 -12 9 -16 15 -16
c30 0 59 52 64 62h49c-13 -28 -59 -129 -188 -129c-13 0 -87 0 -87 67c0 16 5 32 14 62l39 131c3 11 14 41 14 51c0 9 -9 15 -16 15c-62 0 -187 -270 -197 -319h-143zM273 484h-39c-1 35 0 57 9 78c20 47 65 63 95 63c21 0 38 -5 76 -16c47 -14 58 -16 71 -16
c36 0 43 28 47 43h38c3 -38 -4 -151 -107 -151c-29 0 -47 5 -100 20c-26 7 -41 10 -53 10c-25 0 -34 -19 -37 -31z" />
    <glyph glyph-name="oacute" unicode="&#xf3;" horiz-adv-x="552" 
d="M45 169c0 91 75 246 279 246c185 0 211 -126 211 -178c0 -134 -114 -252 -282 -252c-108 0 -208 50 -208 184zM189 107c0 -52 27 -76 64 -76c99 0 138 202 138 247c0 56 -23 91 -61 91c-103 0 -141 -206 -141 -262zM267 481l73 159h200l-239 -159h-34z" />
    <glyph glyph-name="ocircumflex" unicode="&#xf4;" horiz-adv-x="552" 
d="M45 169c0 91 75 246 279 246c185 0 211 -126 211 -178c0 -134 -114 -252 -282 -252c-108 0 -208 50 -208 184zM189 107c0 -52 27 -76 64 -76c99 0 138 202 138 247c0 56 -23 91 -61 91c-103 0 -141 -206 -141 -262zM375 568l-139 -88h-53l148 171h119l52 -171h-61z" />
    <glyph glyph-name="odieresis" unicode="&#xf6;" horiz-adv-x="552" 
d="M45 169c0 91 75 246 279 246c185 0 211 -126 211 -178c0 -134 -114 -252 -282 -252c-108 0 -208 50 -208 184zM189 107c0 -52 27 -76 64 -76c99 0 138 202 138 247c0 56 -23 91 -61 91c-103 0 -141 -206 -141 -262zM278 633c38 0 69 -30 69 -69c0 -38 -30 -69 -69 -69
c-38 0 -69 31 -69 69c0 39 31 69 69 69zM476 633c38 0 69 -30 69 -69c0 -38 -31 -69 -69 -69c-37 0 -69 30 -69 69s32 69 69 69z" />
    <glyph glyph-name="ograve" unicode="&#xf2;" horiz-adv-x="552" 
d="M45 169c0 91 75 246 279 246c185 0 211 -126 211 -178c0 -134 -114 -252 -282 -252c-108 0 -208 50 -208 184zM189 107c0 -52 27 -76 64 -76c99 0 138 202 138 247c0 56 -23 91 -61 91c-103 0 -141 -206 -141 -262zM459 482h-42l-231 159h200z" />
    <glyph glyph-name="otilde" unicode="&#xf5;" horiz-adv-x="552" 
d="M45 169c0 91 75 246 279 246c185 0 211 -126 211 -178c0 -134 -114 -252 -282 -252c-108 0 -208 50 -208 184zM189 107c0 -52 27 -76 64 -76c99 0 138 202 138 247c0 56 -23 91 -61 91c-103 0 -141 -206 -141 -262zM247 484h-39c-1 35 0 57 9 78c20 47 65 63 95 63
c21 0 38 -5 76 -16c47 -14 58 -16 71 -16c36 0 43 28 47 43h38c3 -38 -4 -151 -107 -151c-29 0 -47 5 -100 20c-26 7 -41 10 -53 10c-25 0 -34 -19 -37 -31z" />
    <glyph glyph-name="scaron" unicode="&#x161;" horiz-adv-x="490" 
d="M20 87c0 16 10 63 62 63c55 0 62 -45 66 -70c8 -50 56 -52 72 -52c29 0 76 12 76 50c0 23 -36 44 -89 78c-35 22 -96 59 -96 131c0 74 72 128 208 128c38 0 161 -4 161 -82c0 -34 -30 -57 -60 -57c-34 0 -55 26 -59 50c-2 14 -7 46 -60 46c-27 0 -65 -7 -65 -46
c0 -21 14 -31 63 -60c44 -26 118 -68 118 -145c0 -85 -87 -136 -214 -136c-50 0 -183 9 -183 102zM354 562l137 87h55l-146 -171h-120l-54 171h64z" />
    <glyph glyph-name="uacute" unicode="&#xfa;" horiz-adv-x="604" 
d="M80 117l49 159c4 14 10 32 11 46c1 15 -11 17 -16 17c-19 0 -41 -19 -61 -65h-50c18 40 61 133 182 133c86 0 92 -60 92 -70c0 -18 -7 -40 -12 -58l-42 -140c-7 -22 -12 -37 -12 -42c0 -13 10 -16 15 -16c45 0 142 150 197 319h142l-80 -256c-12 -40 -21 -67 -21 -75
c0 -9 4 -17 14 -17c18 0 43 22 64 72h39c-43 -127 -131 -139 -166 -139c-48 0 -85 18 -85 75c0 22 15 81 27 124c-52 -101 -132 -199 -227 -199c-57 0 -73 45 -72 74c1 22 4 32 12 58zM293 481l73 159h200l-239 -159h-34z" />
    <glyph glyph-name="ucircumflex" unicode="&#xfb;" horiz-adv-x="604" 
d="M80 117l49 159c4 14 10 32 11 46c1 15 -11 17 -16 17c-19 0 -41 -19 -61 -65h-50c18 40 61 133 182 133c86 0 92 -60 92 -70c0 -18 -7 -40 -12 -58l-42 -140c-7 -22 -12 -37 -12 -42c0 -13 10 -16 15 -16c45 0 142 150 197 319h142l-80 -256c-12 -40 -21 -67 -21 -75
c0 -9 4 -17 14 -17c18 0 43 22 64 72h39c-43 -127 -131 -139 -166 -139c-48 0 -85 18 -85 75c0 22 15 81 27 124c-52 -101 -132 -199 -227 -199c-57 0 -73 45 -72 74c1 22 4 32 12 58zM391 568l-139 -88h-53l148 171h119l52 -171h-61z" />
    <glyph glyph-name="udieresis" unicode="&#xfc;" horiz-adv-x="604" 
d="M80 117l49 159c4 14 10 32 11 46c1 15 -11 17 -16 17c-19 0 -41 -19 -61 -65h-50c18 40 61 133 182 133c86 0 92 -60 92 -70c0 -18 -7 -40 -12 -58l-42 -140c-7 -22 -12 -37 -12 -42c0 -13 10 -16 15 -16c45 0 142 150 197 319h142l-80 -256c-12 -40 -21 -67 -21 -75
c0 -9 4 -17 14 -17c18 0 43 22 64 72h39c-43 -127 -131 -139 -166 -139c-48 0 -85 18 -85 75c0 22 15 81 27 124c-52 -101 -132 -199 -227 -199c-57 0 -73 45 -72 74c1 22 4 32 12 58zM304 633c38 0 69 -30 69 -69c0 -38 -30 -69 -69 -69c-38 0 -69 31 -69 69
c0 39 31 69 69 69zM502 633c38 0 69 -30 69 -69c0 -38 -31 -69 -69 -69c-37 0 -69 30 -69 69s32 69 69 69z" />
    <glyph glyph-name="ugrave" unicode="&#xf9;" horiz-adv-x="604" 
d="M80 117l49 159c4 14 10 32 11 46c1 15 -11 17 -16 17c-19 0 -41 -19 -61 -65h-50c18 40 61 133 182 133c86 0 92 -60 92 -70c0 -18 -7 -40 -12 -58l-42 -140c-7 -22 -12 -37 -12 -42c0 -13 10 -16 15 -16c45 0 142 150 197 319h142l-80 -256c-12 -40 -21 -67 -21 -75
c0 -9 4 -17 14 -17c18 0 43 22 64 72h39c-43 -127 -131 -139 -166 -139c-48 0 -85 18 -85 75c0 22 15 81 27 124c-52 -101 -132 -199 -227 -199c-57 0 -73 45 -72 74c1 22 4 32 12 58zM485 482h-42l-231 159h200z" />
    <glyph glyph-name="yacute" unicode="&#xfd;" horiz-adv-x="531" 
d="M-86 -131c28 0 51 -10 71 -21c14 -8 37 -22 56 -22c21 0 82 21 108 98c17 51 18 107 18 145c0 186 -16 265 -49 265c-22 0 -42 -31 -45 -82h-47c10 124 82 163 140 163c127 0 140 -174 140 -285c0 -62 -2 -90 -5 -112c51 55 122 136 122 219c0 21 -10 44 -20 67
c-10 22 -19 44 -19 62c0 34 30 49 53 49c14 0 69 -7 69 -88c0 -222 -284 -450 -311 -470c-112 -83 -233 -106 -270 -106c-39 0 -78 21 -78 59c0 33 30 59 67 59zM256 481l73 159h200l-239 -159h-34z" />
    <glyph glyph-name="ydieresis" unicode="&#xff;" horiz-adv-x="531" 
d="M-86 -131c28 0 51 -10 71 -21c14 -8 37 -22 56 -22c21 0 82 21 108 98c17 51 18 107 18 145c0 186 -16 265 -49 265c-22 0 -42 -31 -45 -82h-47c10 124 82 163 140 163c127 0 140 -174 140 -285c0 -62 -2 -90 -5 -112c51 55 122 136 122 219c0 21 -10 44 -20 67
c-10 22 -19 44 -19 62c0 34 30 49 53 49c14 0 69 -7 69 -88c0 -222 -284 -450 -311 -470c-112 -83 -233 -106 -270 -106c-39 0 -78 21 -78 59c0 33 30 59 67 59zM247 633c38 0 69 -30 69 -69c0 -38 -30 -69 -69 -69c-38 0 -69 31 -69 69c0 39 31 69 69 69zM445 633
c38 0 69 -30 69 -69c0 -38 -31 -69 -69 -69c-37 0 -69 30 -69 69s32 69 69 69z" />
    <glyph glyph-name="zcaron" unicode="&#x17e;" horiz-adv-x="490" 
d="M400 131h51c-12 -43 -69 -146 -170 -146c-75 0 -115 59 -156 59c-29 0 -40 -17 -47 -29c-9 -15 -16 -30 -38 -30c-16 0 -30 9 -30 24c0 41 78 97 178 168c56 40 126 99 159 126c-26 -11 -61 -14 -75 -14c-40 0 -88 20 -108 20c-12 0 -34 -8 -41 -27h-46
c33 105 119 134 158 134c36 0 59 -14 78 -28c20 -14 36 -29 58 -29c20 0 32 15 42 29s18 27 39 27c15 0 27 -9 27 -23c0 -63 -211 -215 -267 -255l-54 -38c19 6 49 19 78 19c24 0 46 -4 65 -9s35 -10 46 -10c33 0 44 18 53 32zM339 562l137 87h55l-146 -171h-120l-54 171h64
z" />
    <glyph glyph-name="twodotenleader" unicode="&#x2025;" horiz-adv-x="500" 
d="M125 138c42 0 76 -34 76 -77c0 -42 -34 -76 -76 -76s-77 34 -77 76c0 43 35 77 77 77zM375 138c42 0 77 -34 77 -77c0 -42 -35 -76 -77 -76s-76 34 -76 76c0 43 34 77 76 77z" />
    <glyph glyph-name="onedotenleader" unicode="&#x2024;" horiz-adv-x="510" 
d="M314 61c0 -42 -34 -76 -76 -76c-43 0 -77 34 -77 76c0 43 34 77 77 77c42 0 76 -34 76 -77z" />
    <glyph glyph-name="colonmonetary" unicode="&#x20a1;" horiz-adv-x="708" 
d="M309 -11l-28 -93h-60l33 106c-79 28 -164 102 -164 246c0 196 152 404 373 426l30 96h59l-30 -96c24 -3 45 -8 66 -16l35 112h59l-43 -139c22 -16 31 -28 41 -40c12 17 30 47 39 66h48l-48 -227h-51c1 44 -1 102 -46 149l-160 -516c73 38 111 99 143 161h57l-67 -218h-47
l4 68l-2 2c-11 -14 -48 -53 -107 -75l-33 -105h-59l28 92c-27 -3 -47 -2 -70 1zM505 619l-175 -565c20 -15 52 -14 68 -9l175 566c-29 12 -53 11 -68 8zM284 98l154 493l-2 2c-122 -81 -175 -296 -175 -392c0 -49 14 -87 23 -103z" />
    <glyph glyph-name="figuredash" unicode="&#x2012;" horiz-adv-x="521" 
d="M-6 341h533v-64h-533v64z" />
    <glyph glyph-name="oneeighth" unicode="&#x215b;" horiz-adv-x="917" 
d="M724 179l19 5c-14 8 -47 28 -47 69c0 56 63 99 131 99c48 0 102 -22 102 -78c0 -61 -59 -90 -97 -98v-2c40 -19 53 -49 53 -75c0 -53 -55 -107 -140 -107c-60 0 -120 28 -120 88c0 73 83 96 99 99zM716 53c-3 -18 5 -29 20 -29c31 0 62 84 62 117c0 19 -14 23 -20 23
c-39 0 -61 -104 -62 -111zM832 320c-10 0 -15 -2 -27 -26c-15 -29 -27 -68 -27 -83c0 -9 2 -17 12 -17c27 0 54 94 54 108c0 8 -2 18 -12 18zM373 677l-100 -285c-3 -8 -3 -14 -3 -16c0 -20 22 -20 42 -20l-11 -30h-199l11 30c48 0 49 0 62 36l67 189c1 4 4 15 4 20
c0 15 -18 15 -40 15h-21l11 30c55 2 100 9 131 21c2 1 11 10 13 10h33zM198 0l550 662h70l-549 -662h-71z" />
    <glyph glyph-name="threeeighths" unicode="&#x215c;" horiz-adv-x="917" 
d="M723 179l19 5c-14 8 -47 28 -47 69c0 56 63 99 131 99c48 0 102 -22 102 -78c0 -61 -59 -90 -97 -98v-2c40 -19 53 -49 53 -75c0 -53 -55 -107 -140 -107c-60 0 -120 28 -120 88c0 73 83 96 99 99zM715 53c-3 -18 5 -29 20 -29c31 0 62 84 62 117c0 19 -14 23 -20 23
c-39 0 -61 -104 -62 -111zM831 320c-10 0 -15 -2 -27 -26c-15 -29 -27 -68 -27 -83c0 -9 2 -17 12 -17c27 0 54 94 54 108c0 8 -2 18 -12 18zM294 519v-2c37 -7 62 -31 62 -69c0 -70 -91 -130 -176 -130c-49 0 -96 19 -96 50c0 15 10 32 33 32c12 0 26 -5 34 -17
c20 -30 23 -33 38 -33c37 0 75 93 75 135c0 4 0 15 -7 15c-6 0 -46 -25 -56 -25c-8 0 -19 5 -19 15s5 13 48 35c57 29 86 44 86 82c0 23 -17 39 -36 39c-11 0 -35 -9 -35 -35c0 -3 4 -14 4 -17c0 -5 -29 -25 -39 -25c-9 0 -26 13 -26 36c0 41 44 73 115 73
c72 0 104 -33 104 -61c0 -54 -81 -88 -109 -98zM197 0l549 662h71l-549 -662h-71z" />
    <glyph glyph-name="fiveeighths" unicode="&#x215d;" horiz-adv-x="917" 
d="M724 179l19 5c-14 8 -47 28 -47 69c0 56 63 99 131 99c48 0 102 -22 102 -78c0 -61 -59 -90 -97 -98v-2c40 -19 53 -49 53 -75c0 -53 -55 -107 -140 -107c-60 0 -120 28 -120 88c0 73 83 96 99 99zM716 53c-3 -18 5 -29 20 -29c31 0 62 84 62 117c0 19 -14 23 -20 23
c-39 0 -61 -104 -62 -111zM832 320c-10 0 -15 -2 -27 -26c-15 -29 -27 -68 -27 -83c0 -9 2 -17 12 -17c27 0 54 94 54 108c0 8 -2 18 -12 18zM160 495l65 175h193l-20 -49c-5 -11 -10 -11 -26 -11h-129l-19 -53c13 4 25 6 39 6c42 0 103 -26 103 -99
c0 -94 -104 -146 -181 -146c-40 0 -102 16 -102 48c0 15 11 28 34 28c20 0 31 -11 40 -24c5 -8 13 -20 30 -20c54 0 89 111 89 150c0 10 -6 31 -25 31c-23 0 -41 -23 -50 -36h-41zM198 0l549 662h71l-550 -662h-70z" />
    <glyph glyph-name="seveneighths" unicode="&#x215e;" horiz-adv-x="917" 
d="M723 179l19 5c-14 8 -47 28 -47 69c0 56 63 99 131 99c48 0 102 -22 102 -78c0 -61 -59 -90 -97 -98v-2c40 -19 53 -49 53 -75c0 -53 -55 -107 -140 -107c-60 0 -120 28 -120 88c0 73 83 96 99 99zM715 53c-3 -18 5 -29 20 -29c31 0 62 84 62 117c0 19 -14 23 -20 23
c-39 0 -61 -104 -62 -111zM831 320c-10 0 -15 -2 -27 -26c-15 -29 -27 -68 -27 -83c0 -9 2 -17 12 -17c27 0 54 94 54 108c0 8 -2 18 -12 18zM357 611h-109c-18 0 -25 -1 -33 -32h-41l35 99h39v-5l-1 -1v-1c0 -1 14 -1 16 -1h172v-14l-195 -273c-28 -40 -48 -65 -81 -65
c-17 0 -37 9 -37 29c0 18 30 50 54 75zM185 0l550 662h70l-549 -662h-71z" />
    <glyph glyph-name="onethird" unicode="&#x2153;" horiz-adv-x="917" 
d="M822 193v-2c37 -7 62 -31 62 -69c0 -70 -91 -130 -176 -130c-49 0 -96 19 -96 50c0 15 10 32 33 32c12 0 26 -5 34 -17c20 -30 23 -33 38 -33c37 0 75 93 75 135c0 4 0 15 -7 15c-6 0 -46 -25 -56 -25c-8 0 -19 5 -19 15s5 13 48 35c57 29 86 44 86 82
c0 23 -17 39 -36 39c-11 0 -35 -9 -35 -35c0 -3 4 -14 4 -17c0 -5 -29 -25 -39 -25c-9 0 -26 13 -26 36c0 41 44 73 115 73c72 0 104 -33 104 -61c0 -54 -81 -88 -109 -98zM198 0l550 662h70l-549 -662h-71zM374 677l-100 -285c-3 -8 -3 -14 -3 -16c0 -20 22 -20 42 -20
l-11 -30h-199l11 30c48 0 49 0 62 36l67 189c1 4 4 15 4 20c0 15 -18 15 -40 15h-21l11 30c55 2 100 9 131 21c2 1 11 10 13 10h33z" />
    <glyph glyph-name="twothirds" unicode="&#x2154;" horiz-adv-x="917" 
d="M822 193v-2c37 -7 62 -31 62 -69c0 -70 -91 -130 -176 -130c-49 0 -96 19 -96 50c0 15 10 32 33 32c12 0 26 -5 34 -17c20 -30 23 -33 38 -33c37 0 75 93 75 135c0 4 0 15 -7 15c-6 0 -46 -25 -56 -25c-8 0 -19 5 -19 15s5 13 48 35c57 29 86 44 86 82
c0 23 -17 39 -36 39c-11 0 -35 -9 -35 -35c0 -3 4 -14 4 -17c0 -5 -29 -25 -39 -25c-9 0 -26 13 -26 36c0 41 44 73 115 73c72 0 104 -33 104 -61c0 -54 -81 -88 -109 -98zM198 0l549 662h71l-550 -662h-70zM329 384l-26 -74h-41c2 5 3 11 3 13s0 3 -6 3h-177l15 42
c26 17 106 75 133 101s68 70 68 128c0 12 -1 51 -45 51c-18 0 -41 -11 -41 -30c0 -12 5 -16 13 -20c4 -3 6 -4 6 -7c0 -6 -34 -24 -44 -24c-16 0 -31 20 -31 40c0 35 37 71 118 71c111 0 120 -65 120 -83c0 -49 -34 -85 -68 -113c-14 -12 -87 -65 -145 -98h148z" />
    <glyph glyph-name="dollar.oldstyle" unicode="&#xf724;" horiz-adv-x="323" 
d="M118 42l44 145c-26 24 -76 71 -76 135c0 53 44 137 158 132l7 22h45l-9 -29c54 -16 74 -52 74 -73c0 -20 -17 -37 -36 -37c-22 0 -34 19 -38 27c-7 15 -8 17 -16 27l-38 -124c48 -47 80 -78 80 -135c0 -62 -51 -141 -165 -142l-19 -60h-46l20 65c-36 10 -47 13 -66 29
c-11 10 -25 28 -25 46c0 22 18 38 36 38c27 0 40 -24 47 -37c11 -21 15 -25 23 -29zM198 304l32 107c-39 -2 -57 -31 -57 -53c0 -23 16 -43 25 -54zM197 151l-36 -117c22 2 65 10 65 55c0 19 -7 38 -29 62z" />
    <glyph glyph-name="dollar.superior" unicode="&#xf6e4;" horiz-adv-x="292" 
d="M155 355l39 111c-39 34 -67 59 -67 103c0 37 37 102 138 98l7 17h40l-7 -22c65 -19 65 -53 65 -54c0 -15 -15 -27 -33 -27c-10 0 -20 4 -28 12c-4 4 -16 25 -19 28l-34 -95c45 -37 72 -60 72 -102c0 -57 -54 -105 -145 -107l-16 -45h-42l18 49c-58 12 -81 36 -81 57
c0 14 14 27 32 27c26 0 38 -20 42 -27c5 -10 10 -17 19 -23zM225 555l29 82c-35 -2 -50 -25 -50 -42c0 -11 5 -23 21 -40zM226 439l-32 -91c28 0 57 13 57 44c0 22 -15 38 -25 47z" />
    <glyph glyph-name="parenleft.superior" unicode="&#x207d;" horiz-adv-x="208" 
d="M350 736l32 -29c-33 -26 -64 -51 -100 -116c-66 -117 -84 -238 -84 -291c0 -13 0 -56 17 -102l-42 -15c-22 47 -46 121 -46 197c0 146 71 252 223 356z" />
    <glyph glyph-name="parenright.superior" unicode="&#x207e;" horiz-adv-x="208" 
d="M23 183l-33 27c33 26 73 57 117 147c52 105 68 209 68 260c0 30 -3 64 -17 102l42 17c45 -101 46 -171 46 -197c0 -114 -41 -235 -223 -356z" />
    <glyph glyph-name="zero.oldstyle" unicode="&#xf730;" horiz-adv-x="490" 
d="M47 154c0 123 100 284 257 284c79 0 169 -44 169 -169c0 -132 -108 -284 -258 -284c-67 0 -168 31 -168 169zM169 72c0 -31 25 -39 40 -39c29 0 51 26 67 61c11 24 75 224 75 256s-26 40 -40 40c-42 0 -66 -54 -76 -80c-21 -54 -66 -189 -66 -238z" />
    <glyph glyph-name="one.oldstyle" unicode="&#xf731;" horiz-adv-x="458" 
d="M156 424h293l-14 -48c-67 1 -78 -19 -96 -75l-54 -172c-4 -14 -7 -24 -7 -36c0 -35 37 -41 58 -45l-15 -48h-294l15 48c73 2 79 22 94 69l57 180c6 18 8 25 8 34c0 36 -34 41 -59 45z" />
    <glyph glyph-name="two.oldstyle" unicode="&#xf732;" horiz-adv-x="500" 
d="M400 83l-35 -115h-49c-5 29 -9 32 -49 32h-256l25 83c173 77 304 142 304 231c0 47 -32 70 -72 70c-45 0 -72 -32 -72 -58c0 -20 14 -42 30 -48c1 -1 4 -2 4 -5c0 -6 -53 -45 -78 -40c-13 14 -34 34 -34 74c0 60 58 131 195 131c139 0 169 -71 169 -114
c0 -46 -33 -81 -67 -108c-44 -34 -82 -51 -270 -131v-2h255z" />
    <glyph glyph-name="three.oldstyle" unicode="&#xf733;" horiz-adv-x="438" 
d="M174 281l-48 -34c-10 -7 -11 -8 -15 -8c-14 14 -33 32 -33 68c0 39 25 131 183 131c146 0 170 -78 170 -114c0 -87 -122 -145 -197 -179v-2c99 -10 113 -97 113 -133c0 -104 -85 -245 -284 -245c-152 0 -180 74 -180 102c0 25 24 55 52 55s43 -29 55 -52
c27 -52 44 -57 69 -57c33 0 60 16 99 85c29 52 51 115 51 158c0 13 -3 48 -30 48c-8 0 -16 -1 -40 -21c-3 -3 -25 -21 -37 -21c-10 0 -25 16 -25 29s14 22 25 29c117 74 199 114 199 189c0 30 -18 81 -68 81c-41 0 -70 -38 -70 -72c0 -12 3 -20 11 -37z" />
    <glyph glyph-name="four.oldstyle" unicode="&#xf734;" horiz-adv-x="510" 
d="M379 438h110l-112 -382h76l-17 -60h-77l-30 -97c-6 -18 -9 -31 -9 -41c0 -20 18 -41 57 -43l-14 -48h-294l14 48c51 1 74 2 97 75l33 106h-185l14 92zM79 56h152l71 229l-2 2z" />
    <glyph glyph-name="five.oldstyle" unicode="&#xf735;" horiz-adv-x="469" 
d="M177 424h305l-16 -45c-14 -40 -15 -40 -50 -40h-217l-42 -123c26 9 45 15 74 15c102 0 163 -82 163 -182c0 -158 -135 -282 -292 -282c-73 0 -168 28 -168 89c0 30 25 48 47 48c34 0 50 -29 60 -49c11 -22 23 -40 52 -40c125 0 171 254 171 305c0 6 -4 63 -53 63
c-44 0 -78 -52 -93 -73h-48z" />
    <glyph glyph-name="six.oldstyle" unicode="&#xf736;" horiz-adv-x="490" 
d="M268 413c15 3 28 5 46 5c113 0 150 -87 150 -170c0 -138 -102 -263 -233 -263c-114 0 -170 90 -170 204c0 166 141 470 378 470c68 0 122 -40 122 -91c0 -15 -11 -47 -45 -47c-17 0 -36 7 -56 48c-10 20 -20 40 -45 40c-66 0 -120 -129 -147 -196zM161 101
c0 -57 32 -62 43 -62c28 0 53 27 81 91c2 4 57 130 57 195c0 15 -9 45 -43 45c-80 0 -138 -234 -138 -269z" />
    <glyph glyph-name="seven.oldstyle" unicode="&#xf737;" horiz-adv-x="458" 
d="M61 258l65 210h49c-6 -13 -7 -24 -7 -29c0 -15 15 -15 37 -15h287v-29l-355 -566c-20 -31 -39 -62 -88 -62c-41 0 -52 31 -52 48c0 31 19 54 64 108l326 395h-201c-42 0 -55 0 -76 -60h-49z" />
    <glyph glyph-name="eight.oldstyle" unicode="&#xf738;" horiz-adv-x="500" 
d="M367 331c27 -14 96 -50 96 -147c0 -72 -55 -199 -221 -199c-170 0 -192 124 -192 165c0 60 32 114 81 148c46 32 87 40 122 46c-29 20 -85 57 -85 138c0 91 78 177 210 177c130 0 163 -92 163 -144c0 -45 -21 -94 -64 -132c-32 -29 -61 -39 -110 -52zM286 403
c0 -10 0 -43 29 -43c18 0 32 11 41 25c16 24 61 133 61 189c0 14 -7 37 -31 37c-28 0 -44 -28 -56 -54c-19 -42 -44 -118 -44 -154zM178 76c0 -18 14 -43 46 -43c23 0 40 9 60 44c17 30 55 138 55 189c0 24 -16 46 -42 46c-20 0 -37 -11 -45 -20c-36 -41 -74 -145 -74 -216z
" />
    <glyph glyph-name="nine.oldstyle" unicode="&#xf739;" horiz-adv-x="490" 
d="M249 13c-16 -3 -29 -5 -46 -5c-113 0 -150 87 -150 169c0 139 102 264 233 264c114 0 170 -90 170 -204c0 -167 -141 -470 -378 -470c-69 0 -122 40 -122 90c0 16 11 47 45 47c17 0 36 -7 56 -47c10 -20 20 -42 45 -42c66 0 119 130 147 198zM356 324c0 58 -32 63 -43 63
c-28 0 -53 -28 -82 -92c-1 -3 -56 -130 -56 -194c0 -16 9 -45 42 -45c80 0 139 233 139 268z" />
    <glyph glyph-name="comma.superior" unicode="&#xf6e2;" horiz-adv-x="219" 
d="M62 212l12 35c10 1 25 2 41 8c49 18 62 52 62 55c0 5 -3 6 -11 7c-12 2 -52 8 -52 47c0 28 25 48 53 48c29 0 65 -22 65 -67c0 -47 -42 -132 -170 -133z" />
    <glyph glyph-name="uni2014.alt" unicode="&#xe000;" horiz-adv-x="750" 
d="M-6 341h762v-64h-762v64z" />
    <glyph glyph-name="period.superior" unicode="&#xf6e8;" horiz-adv-x="219" 
d="M169 414c28 0 55 -19 55 -48c0 -27 -25 -48 -55 -48c-29 0 -55 21 -55 48c0 29 27 48 55 48z" />
    <glyph glyph-name="a.superior" unicode="&#xf6e9;" horiz-adv-x="365" 
d="M302 535l10 36h90l-57 -176c-5 -15 -5 -16 -5 -18c0 -6 5 -9 9 -9c14 0 26 16 32 27h35c-23 -56 -74 -77 -111 -77c-8 0 -56 0 -56 49c0 6 1 10 2 15l-2 2c-36 -46 -76 -66 -105 -66c-23 0 -60 13 -60 67c0 87 79 192 169 192c36 0 44 -19 47 -42h2zM180 398
c0 -7 2 -24 18 -24c24 0 46 30 62 62c16 33 26 71 26 85c0 15 -6 26 -20 26c-50 0 -86 -122 -86 -149z" />
    <glyph glyph-name="b.superior" unicode="&#xf6ea;" horiz-adv-x="375" 
d="M125 466l62 188c3 10 4 14 4 20c0 13 -23 13 -42 13l13 38c65 0 81 0 114 8h31l-63 -192l2 -2c31 24 51 38 94 38c69 0 92 -44 92 -86c0 -78 -75 -173 -202 -173c-103 0 -120 61 -120 85c0 19 5 32 15 63zM197 389c0 -15 3 -35 41 -35c68 0 96 96 96 134
c0 25 -12 39 -36 39c-21 0 -43 -12 -55 -28c-32 -42 -46 -96 -46 -110z" />
    <glyph glyph-name="cent.superior" unicode="&#xf6e0;" horiz-adv-x="302" 
d="M289 542l43 84h39l-46 -89c11 -4 40 -15 40 -48c0 -17 -12 -42 -44 -42c-12 0 -26 3 -35 15l-56 -109c29 0 57 20 78 39h50c-35 -42 -81 -71 -146 -75l-36 -69h-38l36 70c-23 3 -80 12 -80 70c0 74 90 157 195 154zM200 368l73 143c-48 4 -79 -96 -79 -121
c0 -9 2 -15 6 -22z" />
    <glyph glyph-name="d.superior" unicode="&#xf6eb;" horiz-adv-x="375" 
d="M316 553l36 109c3 7 4 13 4 16c0 10 -37 10 -39 10l12 36c58 0 72 0 110 8h31l-97 -291c-12 -36 -18 -52 -18 -59c0 -5 4 -10 9 -10c21 0 37 25 41 31h38c-44 -71 -96 -85 -129 -85c-44 0 -48 26 -52 52c-27 -25 -56 -52 -109 -52c-37 0 -69 23 -69 76
c0 91 90 183 172 183c27 0 40 -9 60 -24zM180 408c0 -11 -1 -32 26 -32c70 0 95 131 95 139c0 14 -13 26 -32 26c-52 0 -89 -111 -89 -133z" />
    <glyph glyph-name="e.superior" unicode="&#xf6ec;" horiz-adv-x="323" 
d="M336 400h42c-32 -44 -93 -82 -168 -82c-18 0 -106 0 -106 78c0 81 103 181 217 181c15 0 70 0 70 -47c0 -61 -90 -101 -186 -111c-2 -6 -3 -11 -3 -19c0 -43 30 -46 44 -46c5 0 43 -1 90 46zM212 450c54 7 99 49 99 80c0 16 -11 19 -18 19c-20 0 -53 -18 -81 -99z" />
    <glyph glyph-name="i.superior" unicode="&#xf6ed;" horiz-adv-x="219" 
d="M217 398h32c-4 -8 -15 -28 -34 -46c-18 -18 -45 -34 -80 -34c-19 0 -60 5 -60 45c0 14 4 23 13 47l38 102c4 11 4 12 4 15c0 6 -5 7 -7 7c-10 0 -26 -17 -38 -38h-30c40 81 101 81 115 81c36 0 56 -17 56 -44c0 -15 -6 -31 -13 -48l-37 -94c-5 -12 -7 -21 -7 -24
c0 -5 4 -7 7 -7c11 0 31 22 41 38zM172 688c0 27 23 46 48 46c26 0 50 -19 50 -46c0 -26 -24 -45 -50 -45c-25 0 -48 18 -48 45z" />
    <glyph glyph-name="l.superior" unicode="&#xf6ee;" horiz-adv-x="208" 
d="M239 397h33c-15 -33 -55 -79 -120 -79c-23 0 -60 8 -60 42c0 8 0 9 13 49l82 248c5 15 6 19 6 23c0 15 -33 15 -38 15l10 31c60 0 73 0 112 8h30l-112 -342c-4 -13 -5 -15 -5 -19c0 -8 8 -10 12 -10c14 0 30 22 37 34z" />
    <glyph glyph-name="m.superior" unicode="&#xf6ef;" horiz-adv-x="625" 
d="M93 326l58 177c2 6 6 17 6 23c0 5 -4 8 -9 8c-14 0 -32 -22 -40 -40h-31c8 14 19 34 38 52c18 17 43 31 77 31c35 0 57 -17 57 -44c0 -8 -1 -24 -11 -49l2 -2c54 81 111 95 143 95c26 0 65 -10 65 -57c0 -17 -4 -32 -7 -41l2 -2c13 22 73 100 154 100c25 0 62 -10 62 -43
c0 -11 -2 -20 -7 -34l-32 -100c-1 -1 -7 -22 -7 -24c0 -7 5 -8 9 -8c15 0 27 13 40 32h35c-25 -47 -71 -77 -120 -77c-31 0 -60 10 -60 42c0 16 11 47 17 64l20 62c4 10 5 14 5 20c0 10 -10 12 -15 12c-44 0 -125 -92 -153 -197h-93l49 151c3 7 7 19 7 29c0 11 -8 18 -19 18
c-32 0 -98 -61 -148 -198h-94z" />
    <glyph glyph-name="n.superior" unicode="&#x207f;" horiz-adv-x="385" 
d="M85 326l61 184c1 4 6 17 6 19s-2 4 -4 4c-23 0 -32 -17 -45 -43h-28c11 27 37 87 110 87c26 0 52 -9 52 -45c0 -13 -3 -27 -11 -57l2 -2c29 40 77 104 137 104c16 0 49 -4 49 -44c0 -11 -9 -40 -17 -64l-20 -62c-8 -26 -10 -29 -10 -34c0 -3 2 -5 5 -5c22 0 35 20 45 38
h33c-11 -25 -39 -83 -122 -83c-13 0 -57 1 -57 43c0 10 2 16 9 37l23 66c6 17 12 34 12 41c0 2 -2 5 -5 5c-13 0 -21 -4 -32 -15c-38 -38 -76 -113 -99 -174h-94z" />
    <glyph glyph-name="o.superior" unicode="&#xf6f0;" horiz-adv-x="354" 
d="M82 429c0 56 50 148 180 148c119 0 138 -72 138 -107c0 -76 -70 -152 -183 -152c-27 0 -135 7 -135 111zM176 400c0 -33 13 -54 41 -54c63 0 89 119 89 149c0 39 -19 54 -39 54c-68 0 -91 -130 -91 -149z" />
    <glyph glyph-name="r.superior" unicode="&#xf6f1;" horiz-adv-x="302" 
d="M63 490c52 87 118 87 130 87c27 0 40 -18 40 -40c0 -21 -9 -53 -17 -77l2 -2c23 41 71 119 122 119c21 0 38 -11 38 -35c0 -25 -17 -53 -44 -53c-16 0 -21 7 -27 15c-2 2 -5 6 -11 6c-32 0 -95 -119 -114 -184h-94l55 171c3 8 6 22 6 24c0 8 -6 10 -10 10
c-20 0 -38 -25 -47 -41h-29z" />
    <glyph glyph-name="s.superior" unicode="&#xf6f2;" horiz-adv-x="323" 
d="M65 380c0 8 6 38 41 38s40 -26 42 -42c6 -31 38 -32 48 -32c18 0 48 8 48 31c0 10 -7 17 -30 31c-61 37 -90 52 -90 95c0 46 51 76 136 76c24 0 104 -2 104 -49c0 -21 -21 -34 -39 -34c-23 0 -35 17 -38 30s-8 28 -39 28c-17 0 -42 -7 -42 -28c0 -10 7 -18 41 -36
c27 -14 77 -40 77 -87c0 -50 -57 -83 -140 -83c-31 0 -119 6 -119 62z" />
    <glyph glyph-name="t.superior" unicode="&#xf6f3;" horiz-adv-x="240" 
d="M247 410h35c-12 -30 -52 -92 -120 -92c-12 0 -65 0 -65 57c0 19 6 37 14 58l33 103h-53l11 32h53l29 90h95l-30 -90h53l-6 -32h-57l-39 -121c-3 -8 -11 -34 -11 -41c0 -8 6 -12 12 -12c12 0 29 15 46 48z" />
    <glyph glyph-name="parenleft.inferior" unicode="&#x208d;" horiz-adv-x="208" 
d="M280 410l32 -29c-33 -26 -64 -50 -101 -116c-66 -117 -84 -237 -84 -291c0 -13 1 -55 17 -101l-42 -16c-22 48 -46 122 -46 197c0 146 71 252 224 356z" />
    <glyph glyph-name="parenright.inferior" unicode="&#x208e;" horiz-adv-x="208" 
d="M-48 -143l-32 28c32 25 72 56 116 146c52 105 68 210 68 261c0 30 -3 63 -16 102l42 16c44 -101 45 -170 45 -197c0 -113 -41 -234 -223 -356z" />
    <glyph glyph-name="hyphen.superior" unicode="&#xf6e6;" horiz-adv-x="208" 
d="M72 405l28 84h196l-28 -84h-196z" />
    <glyph glyph-name="one.fitted" unicode="&#xf6dc;" horiz-adv-x="490" 
d="M507 676l-166 -546c-6 -18 -7 -31 -7 -35c0 -43 47 -47 70 -47l-14 -48h-318l15 48c70 0 83 0 106 75l113 369c4 12 8 33 8 41c0 37 -47 37 -78 37h-23l14 46c81 1 164 10 241 60h39z" />
    <glyph glyph-name="R_p" unicode="&#xf6dd;" horiz-adv-x="1271" 
d="M316 299l-48 -157c-10 -32 -10 -36 -10 -43c0 -45 56 -45 80 -45l-17 -54h-330l16 54c66 0 78 26 94 79l123 405c4 13 5 19 5 25c0 39 -43 45 -70 45l17 54h325c49 0 248 0 248 -169c0 -93 -73 -168 -224 -184v-2c36 -20 46 -48 86 -161c23 -66 52 -92 107 -92l-17 -54
h-194c-23 33 -49 103 -67 161c-41 131 -61 138 -124 138zM410 607l-78 -254c90 0 130 4 167 20c53 23 84 85 84 136c0 96 -95 99 -139 99c-10 0 -17 0 -34 -1zM902 32l-50 -162s-6 -23 -6 -30c0 -29 40 -29 59 -29h25l-15 -48h-316l15 48c61 0 76 3 98 75l123 404
c6 20 8 27 8 35c0 9 -2 18 -16 18c-29 0 -64 -57 -73 -72h-56c20 43 80 144 189 144c70 0 92 -33 90 -84l2 -2c14 20 66 86 153 86c109 0 115 -121 115 -148c0 -151 -112 -283 -240 -283c-64 0 -91 32 -105 48zM927 95c0 -46 27 -56 45 -56c83 0 129 212 129 259
c0 30 -16 45 -33 45c-91 0 -141 -228 -141 -248z" />
    <glyph glyph-name="cent.oldstyle" unicode="&#xf7a2;" 
d="M249 290l49 111h43l-53 -119c12 -5 46 -20 46 -63c0 -24 -15 -57 -50 -57c-6 0 -26 0 -40 21l-63 -142c31 2 56 16 89 51h57c-12 -18 -28 -41 -64 -66c-45 -31 -79 -34 -105 -35l-40 -92h-43l41 93c-23 3 -90 15 -90 93c0 42 20 106 88 159c58 46 104 47 135 46zM146 59
l83 187c-55 5 -89 -124 -89 -161c0 -14 2 -19 6 -26z" />
    <glyph glyph-name="hyphen.inferior" unicode="&#xf6e5;" horiz-adv-x="208" 
d="M1 80l28 84h196l-28 -84h-196z" />
    <glyph glyph-name="zero.superior" unicode="&#x2070;" horiz-adv-x="323" 
d="M101 412c0 25 32 266 195 266c54 0 95 -29 95 -96c0 -80 -56 -264 -192 -264c-31 0 -98 12 -98 94zM178 370c0 -21 15 -22 20 -22c18 0 31 26 46 62c8 18 67 171 67 214c0 13 -4 24 -17 24c-18 0 -27 -18 -33 -31c-13 -28 -83 -229 -83 -247z" />
    <glyph glyph-name="one.superior" unicode="&#xb9;" horiz-adv-x="323" 
d="M374 676l-96 -273c-3 -8 -7 -17 -7 -27c0 -20 22 -20 42 -20l-11 -31h-199l11 31c49 0 49 0 62 36l62 175c5 14 9 27 9 34c0 15 -18 15 -40 15h-21l11 29c57 0 128 11 142 31h35z" />
    <glyph glyph-name="two.superior" unicode="&#xb2;" horiz-adv-x="323" 
d="M329 383l-26 -74h-41c2 7 6 16 -3 16h-177l15 42c21 13 100 70 133 101c22 21 67 62 67 127c0 29 -11 51 -44 51c-30 0 -41 -20 -41 -30c0 -14 18 -18 18 -27c0 -10 -34 -25 -45 -25c-16 0 -29 21 -29 41c0 28 27 71 118 71c111 0 120 -65 120 -83
c0 -50 -47 -101 -98 -135c-34 -22 -82 -55 -118 -75h151z" />
    <glyph glyph-name="three.superior" unicode="&#xb3;" horiz-adv-x="323" 
d="M292 517c34 -7 64 -28 64 -70c0 -84 -107 -130 -176 -130c-49 0 -96 19 -96 50c0 15 10 32 33 32c24 0 33 -15 38 -24c8 -15 18 -28 34 -28c37 0 75 95 75 137c0 4 0 15 -7 15c-5 0 -15 -5 -26 -12c-6 -4 -18 -13 -30 -13c-8 0 -19 5 -19 15s5 13 48 35
c57 29 86 44 86 82c0 21 -16 40 -36 40c-19 0 -35 -18 -35 -34c0 -4 3 -13 3 -19c0 -4 -27 -25 -38 -25c-9 0 -26 13 -26 36c0 37 36 72 115 72c75 0 104 -34 104 -60c0 -54 -83 -89 -111 -99z" />
    <glyph glyph-name="four.superior" unicode="&#x2074;" horiz-adv-x="323" 
d="M211 440h-110l12 57l202 181h76l-72 -202c19 0 20 3 28 27h39l-23 -63h-57l-16 -46c-1 -3 -3 -12 -3 -16c0 -20 23 -20 41 -20l-11 -32h-191l11 32c42 0 46 0 58 36zM142 476h82l38 106l-2 2z" />
    <glyph glyph-name="five.superior" unicode="&#x2075;" horiz-adv-x="323" 
d="M160 495l65 175h193l-20 -49c-5 -11 -10 -11 -26 -11h-129l-19 -53c13 4 25 6 39 6c42 0 103 -26 103 -99c0 -94 -104 -146 -181 -146c-40 0 -102 16 -102 48c0 15 11 28 34 28c20 0 31 -11 40 -24c5 -8 13 -20 30 -20c54 0 89 111 89 150c0 10 -6 31 -25 31
c-23 0 -41 -23 -50 -36h-41z" />
    <glyph glyph-name="six.superior" unicode="&#x2076;" horiz-adv-x="323" 
d="M258 544c41 12 109 -22 109 -96c0 -85 -72 -130 -136 -130s-109 44 -109 110c0 61 72 250 227 250c60 0 82 -30 82 -48c0 -11 -8 -27 -32 -27c-27 0 -34 16 -39 28c-3 7 -7 17 -20 17c-31 0 -65 -50 -82 -104zM193 386c0 -8 0 -34 20 -34c33 0 74 122 74 145
c0 13 -9 18 -19 18c-39 0 -75 -112 -75 -129z" />
    <glyph glyph-name="seven.superior" unicode="&#x2077;" horiz-adv-x="323" 
d="M340 611h-109c-18 0 -25 -1 -33 -32h-41l35 99h39v-5l-1 -1v-1c0 -1 14 -1 16 -1h172v-14l-195 -273c-28 -40 -48 -65 -81 -65c-17 0 -37 9 -37 29c0 18 30 50 54 75z" />
    <glyph glyph-name="eight.superior" unicode="&#x2078;" horiz-adv-x="323" 
d="M196 505l19 5c-14 8 -47 28 -47 69c0 56 63 99 131 99c48 0 102 -22 102 -78c0 -61 -59 -90 -97 -98v-2c40 -19 53 -49 53 -75c0 -53 -55 -107 -140 -107c-60 0 -120 28 -120 88c0 73 83 96 99 99zM188 379c-3 -18 5 -29 20 -29c31 0 62 84 62 117c0 19 -14 23 -20 23
c-39 0 -61 -104 -62 -111zM304 646c-10 0 -15 -2 -27 -26c-15 -29 -27 -68 -27 -83c0 -9 2 -17 12 -17c27 0 54 94 54 108c0 8 -2 18 -12 18z" />
    <glyph glyph-name="nine.superior" unicode="&#x2079;" horiz-adv-x="323" 
d="M259 452c-41 -12 -109 22 -109 96c0 85 72 130 136 130s109 -44 109 -110c0 -61 -72 -250 -227 -250c-60 0 -82 30 -82 48c0 11 8 27 32 27c27 0 34 -16 39 -28c3 -7 7 -17 20 -17c31 0 65 50 82 104zM324 610c0 8 0 34 -20 34c-33 0 -74 -122 -74 -145
c0 -13 9 -18 19 -18c39 0 75 112 75 129z" />
    <glyph glyph-name="zero.inferior" unicode="&#x2080;" horiz-adv-x="323" 
d="M43 86c0 25 32 266 195 266c54 0 95 -29 95 -96c0 -80 -56 -264 -192 -264c-31 0 -98 12 -98 94zM120 44c0 -21 15 -22 20 -22c18 0 31 26 46 62c8 18 67 171 67 214c0 13 -4 24 -17 24c-18 0 -27 -18 -33 -31c-13 -28 -83 -229 -83 -247z" />
    <glyph glyph-name="one.inferior" unicode="&#x2081;" horiz-adv-x="323" 
d="M306 352l-100 -286c-3 -8 -3 -14 -3 -16c0 -20 22 -20 42 -20l-11 -30h-199l11 30c48 0 49 0 62 36l67 190c1 4 4 15 4 20c0 15 -18 15 -40 15h-21l11 30c55 2 100 9 131 21c2 1 11 10 13 10h33z" />
    <glyph glyph-name="two.inferior" unicode="&#x2082;" horiz-adv-x="323" 
d="M262 58l-26 -74h-41c2 5 3 11 3 13s0 3 -6 3h-177l15 42c26 17 106 75 133 101s68 70 68 128c0 12 -1 51 -45 51c-18 0 -41 -11 -41 -30c0 -12 5 -16 13 -20c4 -3 6 -4 6 -7c0 -6 -34 -24 -44 -24c-16 0 -31 20 -31 40c0 35 37 71 118 71c111 0 120 -65 120 -83
c0 -49 -34 -85 -68 -113c-14 -12 -87 -65 -145 -98h148z" />
    <glyph glyph-name="three.inferior" unicode="&#x2083;" horiz-adv-x="323" 
d="M226 193v-2c37 -7 62 -31 62 -69c0 -70 -91 -130 -176 -130c-49 0 -96 19 -96 50c0 15 10 32 33 32c12 0 26 -5 34 -17c20 -30 23 -33 38 -33c37 0 75 93 75 135c0 4 0 15 -7 15c-6 0 -46 -25 -56 -25c-8 0 -19 5 -19 15s5 13 48 35c57 29 86 44 86 82
c0 23 -17 39 -36 39c-11 0 -35 -9 -35 -35c0 -3 4 -14 4 -17c0 -5 -29 -25 -39 -25c-9 0 -26 13 -26 36c0 41 44 73 115 73c72 0 104 -33 104 -61c0 -54 -81 -88 -109 -98z" />
    <glyph glyph-name="four.inferior" unicode="&#x2084;" horiz-adv-x="323" 
d="M121 114h-110l12 57l202 181h76l-72 -202c19 0 20 3 28 27h39l-23 -63h-57l-16 -46c-1 -3 -3 -12 -3 -16c0 -20 23 -20 41 -20l-11 -32h-191l11 32c42 0 46 0 58 36zM52 150h82l38 106l-2 2z" />
    <glyph glyph-name="five.inferior" unicode="&#x2085;" horiz-adv-x="323" 
d="M92 169l65 175h193l-20 -49c-5 -11 -10 -11 -26 -11h-129l-19 -53c13 4 25 6 39 6c42 0 103 -26 103 -99c0 -94 -104 -146 -181 -146c-40 0 -102 16 -102 48c0 15 11 28 34 28c20 0 31 -11 40 -24c5 -8 13 -20 30 -20c54 0 89 111 89 150c0 10 -6 31 -25 31
c-23 0 -41 -23 -50 -36h-41z" />
    <glyph glyph-name="six.inferior" unicode="&#x2086;" horiz-adv-x="323" 
d="M190 218c41 12 109 -22 109 -96c0 -85 -72 -130 -136 -130s-109 44 -109 110c0 61 72 250 227 250c60 0 82 -30 82 -48c0 -11 -8 -27 -32 -27c-27 0 -34 16 -39 28c-3 7 -7 17 -20 17c-31 0 -65 -50 -82 -104zM125 60c0 -8 0 -34 20 -34c33 0 74 122 74 145
c0 13 -9 18 -19 18c-39 0 -75 -112 -75 -129z" />
    <glyph glyph-name="seven.inferior" unicode="&#x2087;" horiz-adv-x="323" 
d="M272 285h-109c-18 0 -25 -1 -33 -32h-41l35 99h39v-5l-1 -1v-1c0 -1 14 -1 16 -1h172v-14l-195 -273c-28 -40 -48 -65 -81 -65c-17 0 -37 9 -37 29c0 18 30 50 54 75z" />
    <glyph glyph-name="eight.inferior" unicode="&#x2088;" horiz-adv-x="323" 
d="M128 179l19 5c-14 8 -47 28 -47 69c0 56 63 99 131 99c48 0 102 -22 102 -78c0 -61 -59 -90 -97 -98v-2c40 -19 53 -49 53 -75c0 -53 -55 -107 -140 -107c-60 0 -120 28 -120 88c0 73 83 96 99 99zM120 53c-3 -18 5 -29 20 -29c31 0 62 84 62 117c0 19 -14 23 -20 23
c-39 0 -61 -104 -62 -111zM236 320c-10 0 -15 -2 -27 -26c-15 -29 -27 -68 -27 -83c0 -9 2 -17 12 -17c27 0 54 94 54 108c0 8 -2 18 -12 18z" />
    <glyph glyph-name="nine.inferior" unicode="&#x2089;" horiz-adv-x="323" 
d="M191 126c-41 -12 -109 22 -109 96c0 85 72 130 136 130s109 -44 109 -110c0 -61 -72 -250 -227 -250c-60 0 -82 30 -82 48c0 11 8 27 32 27c27 0 34 -16 39 -28c3 -7 7 -17 20 -17c31 0 65 50 82 104zM256 284c0 8 0 34 -20 34c-33 0 -74 -122 -74 -145
c0 -13 9 -18 19 -18c39 0 75 112 75 129z" />
    <glyph glyph-name="cent.inferior" unicode="&#xf6df;" horiz-adv-x="302" 
d="M230 218l43 84h39l-46 -89c11 -4 40 -15 40 -48c0 -17 -12 -42 -44 -42c-12 0 -26 3 -35 15l-56 -109c29 0 57 20 78 39h50c-35 -42 -81 -71 -146 -75l-36 -69h-38l36 70c-23 3 -80 12 -80 70c0 74 90 157 195 154zM141 44l73 143c-48 4 -79 -96 -79 -121
c0 -9 2 -15 6 -22z" />
    <glyph glyph-name="dollar.inferior" unicode="&#xf6e3;" horiz-adv-x="292" 
d="M116 30l39 111c-39 34 -67 59 -67 103c0 37 37 102 138 98l7 17h40l-7 -22c65 -19 65 -53 65 -54c0 -15 -15 -27 -33 -27c-10 0 -20 4 -28 12c-4 4 -16 25 -19 28l-34 -95c45 -37 72 -60 72 -102c0 -57 -54 -105 -145 -107l-16 -45h-42l18 49c-58 12 -81 36 -81 57
c0 14 14 27 32 27c26 0 38 -20 42 -27c5 -10 10 -17 19 -23zM186 230l29 82c-35 -2 -50 -25 -50 -42c0 -11 5 -23 21 -40zM187 114l-32 -91c28 0 57 13 57 44c0 22 -15 38 -25 47z" />
    <glyph glyph-name="period.inferior" unicode="&#xf6e7;" horiz-adv-x="219" 
d="M98 89c28 0 55 -20 55 -48s-25 -49 -55 -49c-29 0 -54 21 -54 49s26 48 54 48z" />
    <glyph glyph-name="comma.inferior" unicode="&#xf6e1;" horiz-adv-x="219" 
d="M-9 -113l12 35c10 1 25 2 41 8c49 17 62 52 62 55c0 5 -3 6 -11 7c-12 2 -52 8 -52 47c0 28 25 48 53 48c29 0 65 -22 65 -67c0 -47 -42 -132 -170 -133z" />
    <glyph glyph-name="Delta" unicode="&#x2206;" horiz-adv-x="483" 
d="M462 0h-437l154 712h131zM295 54l-94 452l-101 -452h195z" />
    <glyph glyph-name="Omega" unicode="&#x2126;" horiz-adv-x="654" 
d="M615 0h-255v177c54 39 69 155 69 236c0 186 -47 255 -103 255c-76 0 -109 -108 -109 -253c0 -119 28 -221 80 -244v-171h-257v195h37c0 -42 -1 -98 71 -98h90v34c-92 34 -193 114 -193 283c0 162 100 298 281 298c183 0 284 -152 284 -296c0 -131 -79 -246 -191 -279v-40
h87c72 0 72 56 72 98h37v-195z" />
    <glyph glyph-name="uni03BC" unicode="&#x3bc;" horiz-adv-x="552" 
d="M62 400h136v-243c0 -74 0 -104 42 -104c44 0 68 40 80 60v287h136v-249c0 -52 0 -91 33 -91c18 0 32 20 37 70h21c-4 -141 -114 -144 -126 -144c-73 0 -91 57 -97 77c-24 -27 -70 -77 -142 -77c-42 0 -56 19 -73 28c-1 -55 1 -77 10 -116c6 -25 18 -53 18 -82
c0 -37 -19 -65 -58 -65c-52 0 -52 50 -52 58c0 21 2 28 19 94c17 65 16 108 16 224v273z" />
    <glyph glyph-name="pi" unicode="&#x3c0;" horiz-adv-x="360" 
d="M353 121c-16 -95 -41 -133 -69 -133c-21 0 -36 13 -44 33c-19 37 -17 95 -17 123v223h-63v-148c0 -90 -8 -161 -28 -199c-10 -20 -25 -32 -43 -32c-17 0 -38 15 -38 46c0 19 10 38 27 48c27 17 27 70 27 160v125h-10c-23 0 -30 -14 -36 -57l-34 10c2 105 41 162 86 162
h223v-115h-57v-159c0 -47 1 -80 6 -100c4 -19 9 -30 17 -30c15 0 19 28 27 62z" />
    <glyph glyph-name="Euro" unicode="&#x20ac;" horiz-adv-x="521" 
d="M490 410l-15 -55h-239c-4 -16 -7 -32 -10 -48h239l-15 -54h-231c-2 -18 -2 -36 -2 -53c0 -48 8 -98 23 -126c16 -27 35 -41 62 -41c55 0 115 71 146 162l42 -16c-28 -72 -75 -194 -208 -194c-55 0 -107 15 -141 65c-34 49 -51 117 -50 198v5h-50l15 54h38c2 16 4 33 8 48
h-52l15 55h51c7 21 15 43 24 64c33 71 74 117 118 153c30 24 88 51 131 51c29 0 47 -1 72 -12c20 -9 35 -19 56 -44c6 12 8 15 9 18c2 3 2 7 6 17h48l-40 -196h-51c1 23 6 46 6 76c-1 24 -5 47 -19 63c-22 25 -38 27 -65 27c-26 0 -62 -25 -91 -63c-27 -36 -51 -87 -71 -154
h241z" />
    <glyph glyph-name="afii61289" unicode="&#x2113;" horiz-adv-x="251" 
d="M297 137c-16 -104 -55 -149 -125 -149c-38 0 -64 9 -89 32c-30 28 -43 81 -43 117v33c-6 -11 -26 -34 -35 -46l-24 37c14 16 46 50 59 71v223c0 117 49 257 164 257c63 0 91 -35 91 -100c0 -90 -28 -168 -55 -225c-12 -25 -28 -57 -45 -78v-169c0 -57 8 -76 23 -76
s25 24 34 85zM251 605c0 30 -5 58 -25 58c-22 0 -31 -42 -31 -127v-142c4 10 16 36 24 57c17 44 32 117 32 154z" />
    <glyph glyph-name="estimated" unicode="&#x212e;" horiz-adv-x="567" 
d="M527 246h-381v-179c37 -38 82 -56 136 -56c71 0 143 38 187 117l25 -14c-56 -81 -117 -126 -212 -126c-151 0 -241 113 -241 258c0 144 90 258 238 258c155 0 240 -110 248 -258zM416 271v150c-40 43 -85 59 -138 59s-95 -19 -132 -56v-153h270z" />
    <glyph glyph-name="partialdiff" unicode="&#x2202;" horiz-adv-x="445" 
d="M420 497c0 -74 -27 -202 -52 -267c-78 -198 -131 -242 -207 -242c-94 0 -144 71 -144 195c0 146 82 283 214 283c69 0 95 -50 104 -83h1c2 25 2 49 2 76c0 67 -27 178 -106 178c-47 0 -80 -23 -110 -60l-18 24c32 61 82 126 178 126c115 0 138 -101 138 -230zM330 329
c-6 32 -13 82 -59 82c-59 0 -105 -124 -105 -265c0 -69 27 -99 53 -99c56 0 95 155 111 282z" />
    <glyph glyph-name="product" unicode="&#x220f;" horiz-adv-x="582" 
d="M553 -131h-238v37h9c29 0 32 45 32 86v653h-132v-653c0 -41 3 -86 29 -86h11v-37h-235v37h10c28 0 31 45 31 86v585c0 43 -3 86 -30 86h-11v37h524v-37h-10c-29 0 -32 -43 -32 -86v-585c0 -42 4 -86 31 -86h11v-37z" />
    <glyph glyph-name="summation" unicode="&#x2211;" horiz-adv-x="405" 
d="M397 75l-11 -206h-372v43l156 341l-151 404v43h356l7 -169h-36c-6 92 -16 113 -53 113h-135l113 -306l-163 -349h196c43 0 49 26 55 90z" />
    <glyph glyph-name="uni2219" unicode="&#x2219;" horiz-adv-x="344" 
d="M299 330c0 -42 -34 -76 -76 -76c-43 0 -77 34 -77 76c0 43 34 77 77 77c42 0 76 -34 76 -77z" />
    <glyph glyph-name="radical" unicode="&#x221a;" horiz-adv-x="258" 
d="M250 728l-77 -740h-62l-82 316l-25 -21l-25 34l96 72l67 -293h1l68 632h39z" />
    <glyph glyph-name="infinity" unicode="&#x221e;" horiz-adv-x="565" 
d="M408 153c-61 0 -89 25 -117 71h-1c-29 -40 -67 -71 -132 -71c-70 0 -122 54 -122 125c0 72 49 128 120 128c64 0 95 -39 115 -72h1c31 48 71 72 132 72c68 0 121 -52 121 -125c0 -72 -50 -128 -117 -128zM410 359c-55 0 -74 -51 -95 -93c21 -46 50 -67 92 -67
c48 0 73 41 73 82c0 42 -21 78 -70 78zM158 359c-40 0 -77 -27 -77 -80c0 -45 25 -80 74 -80c51 0 75 59 93 95c-18 34 -45 65 -90 65z" />
    <glyph glyph-name="integral" unicode="&#x222b;" horiz-adv-x="229" 
d="M230 688c0 -16 -3 -46 -33 -46c-14 0 -25 4 -33 16c-7 9 -16 11 -24 11c-9 0 -14 -4 -14 -16c0 -36 19 -88 30 -135c13 -50 26 -174 26 -239c0 -63 -1 -186 -13 -258c-10 -58 -18 -116 -32 -153c-15 -43 -36 -79 -78 -79c-31 0 -62 22 -62 58c0 24 12 47 41 47
c13 0 20 -6 29 -19c5 -7 15 -8 20 -8c7 0 14 4 14 25c0 25 -25 99 -37 162c-14 75 -19 165 -19 223c0 53 3 127 10 195c6 63 19 149 29 185c18 60 52 90 82 90c44 0 64 -28 64 -59z" />
    <glyph glyph-name="approxequal" unicode="&#x2248;" horiz-adv-x="667" 
d="M598 423c-41 -58 -86 -92 -156 -92c-37 0 -78 10 -116 31c-30 18 -63 33 -97 33c-44 0 -73 -40 -92 -67l-67 77c38 51 80 92 155 92c44 0 82 -13 116 -31c34 -19 66 -33 98 -33c42 0 71 36 92 67zM598 190c-41 -57 -86 -92 -156 -92c-37 0 -78 10 -116 32
c-30 17 -63 33 -97 33c-44 0 -73 -40 -92 -68l-67 78c38 51 80 92 155 92c44 0 82 -13 116 -32s66 -33 98 -33c42 0 71 36 92 68z" />
    <glyph glyph-name="notequal" unicode="&#x2260;" horiz-adv-x="667" 
d="M568 131h-264l-54 -109h-112l54 109h-92v102h143l66 132h-209v102h260l62 125h112l-62 -125h96v-102h-147l-66 -132h213v-102z" />
    <glyph glyph-name="lessequal" unicode="&#x2264;" horiz-adv-x="667" 
d="M568 0h-468v102h468v-102zM568 143l-468 188v92l468 187v-107l-331 -126v-2l331 -126v-106z" />
    <glyph glyph-name="greaterequal" unicode="&#x2265;" horiz-adv-x="667" 
d="M568 0h-468v102h468v-102zM568 331l-468 -187v107l331 125v2l-331 126v107l468 -188v-92z" />
    <glyph glyph-name="lozenge" unicode="&#x25ca;" horiz-adv-x="235" 
d="M260 349l-125 -361h-36l-124 361l124 363h36zM205 349l-87 273l-88 -273l88 -272z" />
    <glyph glyph-name="uni00A0" unicode="&#xa0;" horiz-adv-x="261" 
 />
    <glyph glyph-name="uni00AD" unicode="&#xad;" 
d="M17 133l40 132h288l-40 -132h-288z" />
    <glyph glyph-name="uni02C9" unicode="&#x2c9;" 
d="M-11 511v111h354v-111h-354z" />
    <glyph glyph-name="uni2215" unicode="&#x2215;" horiz-adv-x="167" 
d="M-140 0l550 662h70l-549 -662h-71z" />
    <glyph glyph-name="uni03A9" unicode="&#x3a9;" horiz-adv-x="654" 
d="M615 0h-255v177c54 39 69 155 69 236c0 186 -47 255 -103 255c-76 0 -109 -108 -109 -253c0 -119 28 -221 80 -244v-171h-257v195h37c0 -42 -1 -98 71 -98h90v34c-92 34 -193 114 -193 283c0 162 100 298 281 298c183 0 284 -152 284 -296c0 -131 -79 -246 -191 -279v-40
h87c72 0 72 56 72 98h37v-195z" />
    </font>
</defs>
</svg>
